<?xml version="1.0" encoding="utf-8"?>
<!-- Generator: Adobe Illustrator 19.2.1, SVG Export Plug-In . SVG Version: 6.00 Build 0)  -->
<svg version="1.1" id="Ebene_1" xmlns="http://www.w3.org/2000/svg" xmlns:xlink="http://www.w3.org/1999/xlink" x="0px" y="0px"
	 viewBox="0 0 1920 822" style="enable-background:new 0 0 1920 822;" xml:space="preserve">
<style type="text/css">
	.st0{fill-rule:evenodd;clip-rule:evenodd;fill:none;}
</style>
<path class="st0" d="M208.6,0c0.7,11.3,39.9,45.5,51,47.4c6.5,1.1,22.8-4.8,22.8-4.8c4.1,5,4.9,16.5,8.4,20
	C301.1,70.9,347.6,81,362,81c17.2-11.5,25.5-24.4,47.5-29.3c11.4-15.1,20-29.5,27.4-47.1c0.9-1.5,1.8-3,2.7-4.5"/>
<path class="st0" d="M366.4,78.1c6.6-0.1,10.4-5.5,15.9-7.8c5.2,0.2,10.4,0.4,15.5,0.6c2.4-2.5,4.9-5,7.3-7.5c8.9,0,19.3,5.8,28,0
	c10.4-9.3,27.7-57.8,41.6-63.4c1,0,2,0,3,0"/>
<path class="st0" d="M416.9,49.4c6.6,2.5,9.7,8.8,17.4,8.8c21.7-12.4,21.3-22.1,37.9-35.6c10.1-3.6,20.2-7.1,30.3-10.7
	C507.8,8.9,509.2,0,515.8,0"/>
<path class="st0" d="M437.8,60.9c27.6,7.2,71.5-40,97.5-50.5c17.3-7,24.7,7.5,42.3,2.4c6.9-2,4.5-10.7,8.4-12.8c1.5,0,2.9,0,4.4,0"
	/>
<path class="st0" d="M364.4,85.1c0.7-2.3,1.3-4.7,2-7c0,0,41.2,15.5,44.6,14.9c4.6-2.5,9.1-4.9,13.7-7.4c4.1,0.1,8.1,0.3,12.2,0.4
	c10.1-7.3,18.1-25.2,31.7-27.8c7.9,0.5,15.8,1,23.7,1.5c5.5-1.8,11-3.6,16.4-5.4c11.8,10.5,20.2-2.8,32-7.4
	c15.6-6.1,32.8-6.8,48.4-14.8c12.1-6.2,21.7-23.1,37.4-24.1c17-0.1,34-0.3,51-0.4c3.8-2.4,7.6-4.8,11.3-7.2c3.1-0.2,6.2-0.3,9.3-0.5
	"/>
<path class="st0" d="M560.1,42.1c13.6-0.6,42,12.9,49.7,25.2c4.3,6.9,3.4,15.4,11,19.8c8.6,1.5,17.1,3,25.7,4.5
	c13,2.2,23.6-2.3,35.9-3.7c19.6-2.3,39.6,3.5,58.9-0.1c3.3-3.2,6.6-6.5,9.9-9.7C766.6,68.3,778,65,794.2,65
	c4.3-3.6,14.3-17.7,21.2-14.7c2.7,1.8,5.4,3.5,8.1,5.3c0-1,0-2,0-3"/>
<path class="st0" d="M682.2,6.5c-0.3,4.4,0.5,9.2,4.4,12.1c8.4,4.6,17.6-0.2,26.2,1.4c13.4,2.4,24.2,9.5,38.6,9.5
	c4.7-7.5,9.3-15.1,14-22.6"/>
<path class="st0" d="M616.4,14.7c1.6,1.1,3.2,2.2,4.9,3.3c7,14.3,46.6,11.6,46.6,5c0,0.3,0,0.6,0,0.9"/>
<path class="st0" d="M611.5,65.6c13.4-1.7,24.2,0.4,37.1,0.4c11.1-5.3,13.8-20.3,28.6-21.4c10.2-0.8,35.1,11.9,44.8,6
	c0.2-1.4,0.5-2.8,0.7-4.1"/>
<path class="st0" d="M619.5,84.5c0,15.7-45.8-1.1-50.9-0.5c-14.3,1.6-19.5,20.6-36.5,19.6c-11.2-0.7-16.6-26.5-38.3-24.3
	c-20.2,2-37.3,23.1-59.9,11.5c0,0,24.8,41.7,46.2,39.3c5.3-2.3,10.6-4.5,15.9-6.8c0.3,0.3,0.7,0.5,1,0.8c-0.5,0.2-0.9,0.3-1.4,0.5"
	/>
<path class="st0" d="M466.1,99.2c5.7-1.8,11.4-3.6,17.1-5.5c27.2,38.9,45.2,7.5,78.4,1.1c20.9-4,40.2,13.4,61.1,14.4
	c13.7-2.1,27.4-4.1,41.1-6.2c15,3.7,63.4,40.5,72.3,40.5c18-9,28.5-22.7,40.7-38.2c0.5-0.7,0.9-1.4,1.4-2.1"/>
<path class="st0" d="M771.8,80.2c2.3,3.8,4.5,7.5,6.8,11.3c3.3-0.5,6.6-0.9,9.8-1.4c1.7-6,3.5-12,5.2-18"/>
<path class="st0" d="M736.2,143.6c5.5,15.7,19.9,3.2,29.1,9.7c16.2,11.5,19,34,36.2,44c3.5,0.4,7,0.8,10.5,1.3
	c0.4,0.9,0.8,1.8,1.2,2.7c0.8,0.2,1.7,0.4,2.5,0.6"/>
<path class="st0" d="M761.6,158.7c2.1,5.6,4.1,11.1,6.2,16.7c2.7,0.2,5.4,0.4,8.1,0.7c0.2,1.5,0.5,3,0.7,4.5
	c0,20.4,5.1,15.1,17.5,24.6c0.6,0,1.1-0.1,1.7-0.1c0,0.2,0,0.3,0,0.5"/>
<path class="st0" d="M542,109.2c7.4,1.7,14.8,3.5,22.3,5.2c5.8-7.7,26.3-11.5,35-15.7"/>
<path class="st0" d="M571.5,110.9c19.2,22.5,44.8,20.3,70.7,27.2c12.5,7.5,24.9,15.1,37.4,22.6c5.6,0.3,11.1,0.6,16.7,0.8
	c8,5.7,15.9,11.4,23.9,17.2c3.3,0.8,6.6,1.6,9.9,2.4c1.3,2.6,2.7,5.2,4,7.7c7.1,4.7,14.3,9.5,21.4,14.2c4.3,7.8,8.6,15.5,12.9,23.3
	c1.9,0.7,3.9,1.5,5.8,2.2c0,5.8,4.2,12.6,4.2,16.6"/>
<path class="st0" d="M627.3,104.8c-2.9,23,17.9,19.5,30.8,25.3c17.5,7.8,12.1,14.8,35.5,14.8c2.3,1.3,4.5,2.6,6.8,3.9
	c2.4-2.4,17.6-23.1,17.6-24.7"/>
<path class="st0" d="M516.1,112.1c7.8,5.6,27.2,19.4,37.1,19.4c5.4-3.4,8.8-5.2,15.5-5.2c3.6,4.2,7.2,8.4,10.8,12.6
	c5.8,3.3,56.2,16.1,62.1,14.7c4-3.7,7.9-7.4,11.9-11.1c-0.9,0-1.8,0-2.8,0c0,0.3,0,0.5,0,0.8"/>
<path class="st0" d="M636.3,153.7c15.5,12.2,30,36.1,50.9,41c12.4,2.9,18.9-6,27.7-12.9c0.8-1,1.6-2.1,2.3-3.1"/>
<path class="st0" d="M696.2,201.5c6.7,4.6,8.5,14.4,14.2,17.8c2.3,0.1,4.5,0.2,6.8,0.3c3.1,4.7,6.2,9.4,9.3,14.2
	c1.8,1.4,25.6,6.9,27.4,6.1c0.3-0.2,0.7-0.3,1-0.5"/>
<path class="st0" d="M734.1,235c-0.5,1.6-1.1,3.2-1.6,4.7c9.4,5.6,21.9,19.9,21.9,32.2c0.2-0.6,0.3-1.2,0.5-1.8"/>
<path class="st0" d="M640.6,160.2c-0.6,5.7-2.1,9.2,1.1,14.5c3.4,1.2,6.9,2.3,10.3,3.5c17.1,9.9,16.2,22.2,15,39
	c-0.4,5.3-2,14.1-7.6,16.6c-0.4,0-0.9-0.1-1.3-0.1"/>
<path class="st0" d="M579.4,137.7c-3,5.5-5.9,11.1-8.9,16.6c10.6,12.1,25.5,53.5,36,61.2c9.1,6.6,16.7,1.8,25.3,5.2
	c8.3,3.3,16.9,15.7,26.1,12.9c-2.1,16.4,20.8,35.8,35.1,37.9c1.2,1.4,2.4,2.8,3.6,4.2c-0.1,2.1-0.2,4.3-0.3,6.4
	c3.7,1.2,7.4,2.5,11.2,3.7c0.1,0.1,0.3,0.2,0.4,0.4c1.8,3.2,3.7,6.3,5.5,9.5c4.5,2.7,9,5.3,13.5,8c3.1,4.8,2.9,9.7,7.6,14.3
	c3.4,1.6,6.8,3.2,10.2,4.9c0,2.5,0,5,0,7.5c3,2.7,43.4,18.7,44.6,18.3c4.5-3,11.8-28.4,14.8-34.8"/>
<path class="st0" d="M694.7,276.4c2.3-9.8,22.6-15.1,28.8-24.2c0.1-0.1,0.2-0.2,0.3-0.4c6.2,0,14.6-4.6,17.1-10.2"/>
<path class="st0" d="M718.7,299.4c-0.5,17.3,21.8,39.4,26.2,59.2c-1.1,7.9-2.3,15.9-3.4,23.8"/>
<path class="st0" d="M747.9,332.9c3,10.7,5.9,21.3,8.9,32c5.6,4.6,14.5,4.1,20.4,9.6c4.3,4,0.1,10.5,6.7,14.1c2.3,0.5,2.6-0.4,3-2.6
	"/>
<path class="st0" d="M772.5,344.9c0.2,19,14.2,20.7,23.1,32.4c0.5,0,0.9,0.1,1.4,0.1"/>
<path class="st0" d="M484.8,102.7c4.8,9.7,9.6,19.3,14.3,29c13.1,14.8,67.9,48,76.7,11.6"/>
<path class="st0" d="M406.9,149.9c16-14.4,50.9-6.2,59.7-22.7c0-0.8,0.1-1.6,0.1-2.4"/>
<path class="st0" d="M435,145.4c8.9,5.2,13.2,2.8,21.8,5.7c13.5,16.2,48.1,23.3,68.3,19.1c5.7-5.9,11.3-11.8,17-17.7
	c0.4-1,0.8-2.1,1.2-3.1"/>
<path class="st0" d="M129.9,4.9c20.8-4.5,22.6,42.1,29.3,52.8c4.1,6.5,14.2,6,20.7,8.6c34.9,14.1,29.2,20.2,62.8-4.9
	c5.8-3.3,11.6-6.6,17.4-9.9c0.1-1.2,0.3-2.4,0.4-3.7"/>
<path class="st0" d="M216.8,75.4c3.3-3.6,13.8-11.3,19.4-9.6c8.6,6.2,32.5,14.9,35,17.8c9.1,10.4,6.8,28.2,14.7,38.7
	c14,0,16.3,19.4,29,20.4c11.3,0.9,25.7-14.4,42-14.4c9.8,5.6,38.8,25.2,49.9,21.7c0.5,6.2,7.7,11.9,13.6,14.7
	c9.7,2.1,19.4,4.2,29,6.4c3.5,3.9,7,7.8,10.6,11.7c6,3.5,12.1,6.9,18.1,10.4c5.9,6,11.8,11.9,17.6,17.9c9.7,5.6,19.4,11.2,29.1,16.8
	c0.2,1.2,0.4,2.4,0.5,3.6l26.8,6.7c6.1-4.1,4.2-10.6,5.5-17.3c8.9-11.8,35.7-21.3,35.7-37.7"/>
<path class="st0" d="M556.4,236.5c2.2,2,47.3,6.3,54.3,2.5c3.3-3.7,6.5-7.3,9.8-11c2,0.1,4,0.2,6,0.4c15,6.7,17.1,35.2,31.3,45.3
	c7.9,5.6,20.3-2.4,27.9-2.4c1.3,0.2,2.6,0.3,4,0.5"/>
<path class="st0" d="M512.9,222.4c-3.8,6.5,4.4,20.6,8.3,27.7c15.6,28.4,19.3,20.1,47.5,27c5.7,2.6,11.4,5.2,17.1,7.7
	c8.4-0.8,16.7-1.6,25.1-2.4c7.6,6.4,15.2,12.7,22.7,19.1c0-11.3,12.9-11.8,18.6-18.7c1.6-5.5,3.2-11,4.8-16.5"/>
<path class="st0" d="M634.8,297.1c7.6,26.9,34.6,31.8,54.2,43.5c7.2,6.9,14.5,13.8,21.7,20.7c8,5,16.1,10,24.1,14.9
	c8.6,8,20.6,13.6,28.9,21.2c1.1,2.8,2.2,5.7,3.3,8.5c0.5,0.1,1,0.1,1.5,0.2c0.6-1.2,1.2-2.4,1.8-3.6c0,0,0,0.1,0,0.1"/>
<path class="st0" d="M647.3,317.5c5.4,0.6,64.3-3,67.3-7.7"/>
<path class="st0" d="M734.7,508.9c-0.5-0.2-0.9-0.4-1.4-0.6c-6.6-4.9-8.9-3.2-16.4-3.2c-1.6-1.2-3.1-2.4-4.7-3.7
	c-1.9-8.7-3.9-17.4-5.8-26c-21.4,0-23.6-22.2-36.4-32c-4.3-1.2-8.6-2.4-12.9-3.6c0-2.1,0-4.1-0.1-6.2c-5.4-3.1-10.9-6.2-16.3-9.3
	c-0.3-1.9-0.5-3.8-0.8-5.8c-10.7,0-20-8.8-26.9-15.3c-1.5-1.4-12.6-10.2-14.9-11.2c-4.3-17-8.5-34-12.8-51c-0.4-0.4-0.9-0.9-1.3-1.3
	c-5.1-0.4-10.1-0.8-15.2-1.2c-4.3-10.9-8.5-21.9-12.8-32.8c-10.3-6-20.6-12.1-30.9-18.1c-4.4-3.8-7.2-11.4-12.7-15.6
	c-2.6-0.9-5.1-1.8-7.7-2.7c-3.4-4.3-1.7-9-6.4-12.6c-5.8-4.5-15.3-4-19.8-7.8c-7.6-6.3-6.7-16.3-11.3-23.3c-4-4-6.4-0.5-10.8-2.6
	c-0.2-0.2-0.4-0.4-0.6-0.7c-7.1-8.5-4.6-18.7-10.6-28.4c-6.8-10.9-18.4-19.3-21.8-32.4c0,0,14,77.6,17.3,116.4c4.5,5,9,10,13.4,15.1
	c4.8,8.5,9.7,16.9,14.5,25.4c0.1,0.1,0.2,0.1,0.2,0.2c4.1,2.7,10.1,10.8,15.8,8.8c1.2-0.5,2.4-0.9,3.7-1.4"/>
<path class="st0" d="M515.4,272.8c4.7-2.2,9.5-4.4,14.2-6.6c0.6-2.2,1.2-4.5,1.8-6.7"/>
<path class="st0" d="M577,281.4c5.2,6.2,10.5,12.3,15.7,18.5c4.8,9.7,6.2,24.1,14.6,31.8c6.8,6.2,17.7,16.5,25.1,21
	c6.3,3.8,13.7,1.4,18.8,7.8c4.5,11.3,8.9,22.7,13.4,34c12.8,6.8,25.6,13.6,38.5,20.4c7.4,1.5,14.6-1.4,21.6,3
	c13.7,8.7,17.1,22.2,24.3,35.5c0.5,2.2,1,4.4,1.5,6.6"/>
<path class="st0" d="M700.5,355.4c2.3,16.4,4.7,32.8,7,49.1c-2.7,3.1-5.5,6.2-8.2,9.3"/>
<path class="st0" d="M599.6,321c0.6,8.2,1.2,16.4,1.8,24.6c9.5,10.8,29.5,12.8,36.9,26.2c5.9,10.6-3.5,29.1,2.5,37.1
	c8.8-1.6,17.5-3.3,26.3-4.9c5.6,2.1,11.2,4.2,16.8,6.4c2-0.8,3.9-1.7,5.9-2.5c0-0.3,0-0.6,0-0.9"/>
<path class="st0" d="M726.6,474.1c6,13.2,13.5,24.5,28.7,23.5c0,0-10.6-14.5-16-21.7c-32.2-3.9-50-39.9-76.6-56.5
	c-4.9,1.4-9.9,2.8-14.8,4.3c-4.6-3.5-6.1-10.1-7.1-15.4"/>
<path class="st0" d="M473.2,237.8c-2.2,10.7-3.4,17.3,3.1,25.9c1.6,7.4-6.7,20.7-0.7,27.5c10.9,6.4,14.2,8.9,15.9,22.4
	c0.1,1.8,0.2,3.5,0.3,5.3"/>
<path class="st0" d="M319.6,139.6c5.4,8.3,4.2,27.5,13.5,32.8c14.8,8.4,39.2-3.1,53.4,7.7c1.4,11.5,2.7,23,4.1,34.4
	c7,16.2,11.6,34.4,19.1,50.3c3.6,5.1,7.2,10.2,10.8,15.3c7.1,29.4-0.7,60.1-7.7,86.9c-1.9,7.5,1.2,43.7,15.1,43.7c0.1,1,0.1,2,0.2,3
	c0,0,3.3,13.5,8.9,17c9.9,3.3,13.2-8.6,21.1-9.4c6.8,1.7,13.6,3.4,20.3,5.1c12.8-22.8,8.3-32.6,13.4-59.1"/>
<path class="st0" d="M441.1,275.5c0.9,7.5,1.8,15,2.8,22.6c1.5,22.8-1.4,46.8-3.5,69.9c-4.6,13.8-9.2,27.7-13.9,41.5"/>
<path class="st0" d="M443.3,320.8c0,0.7,17,27.4,19.4,30.6c1.6,0.6,3.3,1.3,4.9,1.9"/>
<path class="st0" d="M481.7,422.8c2.8,3.8,5.6,7.7,8.3,11.5c0.5,0,1,0,1.5,0c5.2-15.5,31.2,6,38.8,8.9c10.6,4,22.8,1.4,33.9,6.3
	c5.2,5.2,4.6,25.5,4.6,25.5"/>
<path class="st0" d="M501.8,424.1c14.1-8.5,18.8-10.6,34.1-10.6c0.3-0.6,0.7-1.3,1-1.9c0,0,9.5,22.2,5.1,30.4"/>
<path class="st0" d="M568.2,460.2c4.1-5.1,2.9-3.6,7.5-3.6c0.2-0.6,0.5-1.1,0.7-1.7c0.3,0,0.6,0,0.9,0c1,0.7,1.9,1.4,2.9,2.1
	c4.7-7,4.6-15.9,12.3-21c2.6,0.6,5.2,1.2,7.7,1.8c1.2-1.5,2.4-3.1,3.6-4.6c3.4-0.2,6.8-0.4,10.2-0.6c2.1-4.1,4.1-8.1,6.2-12.2"/>
<path class="st0" d="M617.5,403.9c-0.7,5.8,25.4,48.2,34.4,63.9c4,4.5,7.9,9,11.9,13.6c7.8,20.1-1.3,40.2,17.9,56.8
	c13.7,11.9,8.9,15.6,16.2,28.4c6.2,5.6,12.4,11.2,18.5,16.8c1.4,1.9,2.8,3.8,4.2,5.7"/>
<path class="st0" d="M536.3,341.6c0,18,13.6,13.1,21.7,13.1c4.5,4.6,9.1,9.3,13.6,13.9c3,0,5.9-0.1,8.9-0.1
	c2.3,8.3,4.5,16.5,6.8,24.8c0.4,0,0.8,0,1.2,0c2.6-3,5.2-6,7.8-9.1"/>
<path class="st0" d="M583.9,389.4c1.4,14.3,2.7,28.6,4.1,42.9c3.1,18.8,11,39.2,13.9,59c0.8,5.5,4,29.6-1.8,33.1
	c-0.5-0.1-1-0.3-1.5-0.4"/>
<path class="st0" d="M579.5,415.5c-8.7,22.6,8,49.5,2,72.3c-5.2,20-8.1,36.9-8.1,36.9"/>
<path class="st0" d="M631.1,431c2.3,16.2,2.7,30.1,2.7,46.1c0.5,1.8,12.8,18.7,15.2,24.9c13.7,35.1,18.9,76.1,18.9,113.6
	c0-1.4,0-2.7,0-4.1"/>
<path class="st0" d="M666.7,580.2c2.7-0.3,20.1,18.2,22.4,21.4c0.2,2.5,0.4,5,0.6,7.4"/>
<path class="st0" d="M718.4,583.1c3.5-2.7,6.9-5.4,10.4-8.1"/>
<path class="st0" d="M686,463.4c1.9,8.4,3.9,16.8,5.8,25.2c2.3,6,9.5,7.6,11.3,15.9c0.6,9.8,1.3,19.6,1.9,29.4
	c1.9,6.8,9.2,10.4,9.2,17.6"/>
<path class="st0" d="M712,493.2c0,6-1.7,23.5,3.6,27c-0.1,3.1-0.3,6.2-0.4,9.3c4.4,4.3,8.8,8.5,13.3,12.8c0.9-0.1,1.8-0.2,2.8-0.2"
	/>
<path class="st0" d="M137.7,8.4c-8.7,30.7,5.9,52.3,10.5,82.1c1,8.7,1.9,17.3,2.9,26c-0.1,1.1-0.1,2.1-0.2,3.2"/>
<path class="st0" d="M116.9,128.8c1.1-1.9,2.2-3.7,3.3-5.6c2-11.1,1.7-62.4,15.1-67.5c8.7,0,16,14.8,23.5-1.3c0,0,22,28,27.4,47.5
	c0.6,7.4,1.1,14.8,1.7,22.2c1.5,8.3,7,13.5,7.4,22.9c-0.4,8.8-0.9,17.6-1.3,26.4c4.2,5,8.4,10.1,12.6,15.1
	c5.2,17.8,2.4,36.4,16,50.9c12.2,13,29.2,6.6,38.1,12.9c12.4,8.7,25.5,31.8,43,28.9c1-0.9,2.1-1.8,3.1-2.7"/>
<path class="st0" d="M167.7,65.3c-0.8,7-1.5,14.1-2.3,21.1c-2.8,11.3-10.3,18.4-15.5,27.1c-0.5,0.6-0.9,1.2-1.4,1.8"/>
<path class="st0" d="M238.1,58.1c1.6,11.4,6.2,18.6,6.2,30"/>
<path class="st0" d="M286.2,119.4c0.7,7.3,1.4,14.6,2.1,21.8c-32.5,14.4-15,58.5-16.8,83.7c-5.3,13.1-10.7,26.1-16,39.2
	c-1.2,20.1,10.1,27.2,13.5,45.5c0,9.2-0.1,18.4-0.1,27.7c3.2,7.6,6.4,15.2,9.6,22.8c-0.4,11.1-0.7,22.2-1.1,33.3
	c5.7,9.6,11.3,19.1,17,28.7c0.7,4,1.4,8,2,12c0.4,0.1,0.8,0.2,1.2,0.3"/>
<path class="st0" d="M212.4,435.8c0.6-0.2,1.2-0.3,1.8-0.5c11.2-8,10.8-49.2,11.6-62.6c0.6-10.2,2.3-35.1,14.5-37.1
	c-2.4-8.8,3.1-9.5,5.8-16.3c7.2-17.6,14.6-28.8,14.6-28.8c33.2,27.3,23.7,50,35.6,87c3.4,10.5,15,30.5,16.1,40.2
	c-0.3,24.1-0.5,48.1-0.8,72.2c3.6-1.2,7.2-2.5,10.8-3.7c7.5,5,11.8,23.1,11.8,32c3.1,3.5,6.3,7,9.4,10.5c1.3,13.3,2.5,26.7,3.8,40
	c1.7,2.3,3.4,4.6,5,6.9c1.1,7.4-3.6,15.4,1.5,22.1c21.1,14.1,21.8,32.3,21.8,56.2c-18.5,8.2-29,40.7-36,59.3
	c-7.2,19.3-28.3,20-36.3,29.5c-4.3,5.1-0.6,16.2-8.1,19.8c-2,0.1-4.1,0.1-6.1,0.2c0,1.7,0,3.5,0,5.2c0,0-18.1,8.7-27.2,13
	c-11.9,7.7-22.5,17.8-34.7,25.3c-2.8,3.5-5.5,7-8.3,10.5c-2.6,2.9-8.4,5.4-8.4,5.4"/>
<path class="st0" d="M313.1,414.1c5.4,0.2,3.3,3.9,7.2,5.7c6.8,0.4,13.6,0.7,20.3,1.1c3.9,9,7.7,18.1,11.6,27.1
	c4.8,4.5,9.7,9.1,14.5,13.6c6.8,13,13.7,26,20.6,39c1.1,7.9,2.2,15.8,3.3,23.7c4.6,9.2,15.1,14.9,17.4,26.9
	c3.7,19.6-2.1,35.4-3.7,54.7c-0.8,9.3-1.1,57.3-6.5,62c-0.6,0-1.1,0-1.7,0c-4.5,2.4,2.2,23.3,3,27.5c3.7,19.6,10.6,40.2,3,59.2
	c-5.8,14.5-4.1,32.6-4.2,31.2"/>
<path class="st0" d="M409.9,559.3c38.8,28,6.1,84.5,7.3,117.4c9.3,6.1,18.5,12.2,27.8,18.3"/>
<path class="st0" d="M402.9,660.3c14.2,19.2,13.9,40.1,23.2,60.1c3.6,3.1,7.2,6.2,10.8,9.3c6.4,12,12.8,24,19.2,36
	c5.4,2.7,10.7,5.4,16.1,8.1c2.6,4,5.3,8,7.9,12c1.6,0.4,3.2,0.7,4.8,1.1"/>
<path class="st0" d="M428.7,727.8c-0.1-1.5-0.3-3-0.4-4.5c0.3,7.9,0.7,15.8,1,23.6c2,13,20.1,21.7,23.7,34.6c1.1,2,2.1,3.9,3.2,5.9"
	/>
<path class="st0" d="M423.3,717.7c-1.3,4.5-7.9,32.5-6.6,37.7c3.2,13.8,8,24.6,8,39.6"/>
<path class="st0" d="M419.1,739.3c4.6,15.2,20.2,35,22,48.5"/>
<path class="st0" d="M406.8,255.2c-2.7,12.1-5.4,24.1-8.1,36.2c-4,3.8-8,7.5-12.1,11.3c0.1,4.4,0.1,8.8,0.2,13.2
	c-1.2,9.8-9.9,19.7-8.6,31.6c3.2,6.4,6.4,12.9,9.6,19.3c12.1,58.1,43.5,97.5,43.5,158.9c16.3,10.9,6.5,30.5,10.1,44.8
	c3.7,14.7,13.9,29.5,22.7,41.3c-0.3,11-0.6,22-0.9,32.9c3.4,5,6.7,10,10.1,14.9c1.6,6.1,3.1,12.1,4.7,18.2
	c7.1,0,11.1,20.1,12.5,24.1c4,11.2,19.8,31.7,26.9,44.3c0.8,2.5,1.6,5,2.3,7.5"/>
<path class="st0" d="M437.4,433.5c3.6,6.4,7.2,12.7,10.7,19.1c6.4,18.8,3.7,36.7,7.7,55.7c2.9,11,5.7,22.1,8.6,33.1
	c0.1,0.1,0.3,0.2,0.4,0.3c12.8,12.8,20.4,40.2,25.9,56.8c2.2,12,4.4,24,6.5,36c14.4,0,16.5,17.7,24.8,26
	c10.6,10.6,21.8,19.1,35.4,25.2c5.6,7.5,8.2,18.2,13.9,24.8c5.9,7,16.1,10.3,16.1,21.3c-0.4-0.7-0.9-1.5-1.3-2.2"/>
<path class="st0" d="M462,536.3c-3.4,40.2,11.4,44.7,19.1,78.8c1.5,6.6,6.1,28.3,15.6,28.3c2,5.6,4.1,11.2,6.1,16.8
	c21.2,9.4,32.3,39.5,44.1,57.9c2.1,3.2,8,22.6,13.4,22.6c0-0.2,0-0.4,0-0.6"/>
<path class="st0" d="M468.6,582.6c-1.1,9.8-2.1,19.5-3.2,29.3"/>
<path class="st0" d="M485.5,574.1c2.2,11.7,0.8,23.8-1.5,35.2c-0.5,1.8-1,3.7-1.5,5.5"/>
<path class="st0" d="M460.4,517.5c-0.7,5.8,29.4,5.7,35.9,18.6c1.2,6.3,2.4,12.6,3.6,18.9c5,9.9,17.2,13.5,22.4,22.5
	c14.6,25.3,21.9,50.5,32,77.5c7.6,11.5,15.3,22.9,22.9,34.4"/>
<path class="st0" d="M559.7,684.3c5.8,1.7,35.4,3.5,37.7,4.8"/>
<path class="st0" d="M531.4,684.3c18.8,12.8,21.6,33.6,40.1,45.9c0.3,0.2,0.6,0.4,0.9,0.7c0,0.1,0,0.3-0.1,0.4
	c0,0,34.3,58.8,34.3,87"/>
<path class="st0" d="M565.5,743.1c2.9,15.3,11.2,27.8,16.5,41.8c3.8,10.1,4.4,26.4,6.6,37.1"/>
<path class="st0" d="M585.8,734.6c5.4,8.9,33.3,12.9,44.5,29.8c10.4,15.7,6.2,35.2,12,52.2c0.8,1.8,1.6,3.6,2.4,5.4"/>
<path class="st0" d="M606.3,695.3c-1.2-0.1-2.4-0.1-3.6-0.2c11.3,6.9,22.7,13.8,34.1,20.6c13.7,2.2,29.5,8.1,42.9,8.9
	c15.4,1,30.7-3.6,45-3.6c3.8,2.5,7.9,6.2,12.8,5.5c8.9-5.9,1.3-16.1,19.2-16.1c0.9-0.3,1.9-0.6,2.8-0.9c0.2-0.5,0.5-1,0.7-1.6"/>
<path class="st0" d="M518.4,563.1c5.7,4.8,19.8,3.8,24.1,7.9c6.7,10.4,14.1,45.4,29.5,45.4c1.9,4.7,3.9,9.3,5.8,14
	c2.7,0.6,5.4,1.2,8.1,1.9c12.4,13.2,24.7,27.8,39.7,38.4c6.3,1.9,12.6,3.9,18.9,5.8c10.8,6.3,21.7,12.5,32.5,18.8
	c6.7-4.5,7-10.9,11.6-16.3c6.9-6.5,13.9,6.3,20.8,0.9c11.8-9.2,14.9-30.3,26.1-37.8c11.1,0,15.9,5.3,26.5,8
	c17.7,4.4,36.4,6.5,54.7,6.5c8.9,0.6,17.8,1.2,26.7,1.8"/>
<path class="st0" d="M801.7,648.4c7,0,5.8-11.5,10.3-15.2c2.9-1.1,5.7-2.3,8.6-3.4c1.1-3.6,2.2-7.3,3.3-10.9"/>
<path class="st0" d="M816.2,656.9c5-7.4,6.8-13.2,12.9-18.3c0.6-2,1.1-4.1,1.7-6.1"/>
<path class="st0" d="M794,646.7c2.4-4,4.7-7.9,7.1-11.9c1.7-0.4,3.5-0.8,5.2-1.1c7.4,3.3,10.9,9,20.2,9c1.1-0.6,2.1-1.2,3.2-1.8"/>
<path class="st0" d="M440.9,437.1c1.4,0.1,2.8,0.1,4.3,0.2c4.3,6,8.7,12,13,17.9c9.8,9.3,25.2,12.8,34.4,23.8
	c2.5,6.3,5.1,12.7,7.6,19c3.9,3.8,7.9,7.6,11.8,11.4c2,11.6,3.9,23.1,5.9,34.7c4.9,11.6,12.7,16.4,12.7,29.5"/>
<path class="st0" d="M489.3,474.8c5-0.9,11,2.2,15.4,4.9c21.4,13.3,10.4,11.3,18.8,31.7c4.9,10.8,9.9,21.5,14.8,32.3
	c1.8,10.5,3.6,21,5.4,31.4"/>
<path class="st0" d="M541.2,550.2c11.3,5.6,30.4,12.2,34.3,26.3c-0.1,0.2-0.3,0.4-0.4,0.6"/>
<path class="st0" d="M524.1,501.7c7,20.3,20,8,33.5,13.7c17.3,7.4-4.5,18.1,31.9,18.1c0.8,0.8,1.6,1.6,2.5,2.4
	c10.6,4.3,15.6-3.5,26.5-1.5c6.1,1.1,6.5,9.9,14.2,9.9c13.6-11.3,6.9-42.4,9.7-57.6c-0.4,0.6-0.8,1.2-1.2,1.7"/>
<path class="st0" d="M605.4,439.8c4.1,17.9,8.2,35.9,12.2,53.8"/>
<path class="st0" d="M625.9,433.2c-4,11.6,1.8,26.1-1.4,38.9c-3.4,5-6.8,10-10.3,15"/>
<path class="st0" d="M667.8,545.6c-2.1,5.8,4.6,9.4,10.5,9.4c0.3-4.4,0.5-8.8,0.8-13.1"/>
<path class="st0" d="M271.2,166c-19,7.2-37.8,12.1-56,21.3c-4.8,5.5-9.6,11.1-14.4,16.6c-14.9,11.6-29.8,9.2-45.3,11.1
	c-11.3,3.1-22.7,6.1-34,9.2c0-1.7,0-3.3,0-5c-4.1-1.3-45.8,28.8-58,31.6c-2.8-3.5-5.5-6.9-8.3-10.4c-19.5-3.5-24.9-6.8-38.8-19.9
	c-3-0.1-6-0.2-9-0.2c-1.4-3.3-2.9-6.7-4.3-10c2.4-4.6,4.9-9.2,7.3-13.8c4.3-9.1,3.6-30,2.3-39.8c-1.1-8.2-8.4-21-11.3-29.9
	c-0.5-2-1-4-1.5-6"/>
<path class="st0" d="M42.7,244.1c-3.3,4.9-6.6,9.7-9.9,14.6c-3.8,1.7-7.6,3.3-11.4,5c1.3,10.1,1.2,42-0.6,45.4
	c-2.9,2.4-5.9,4.8-8.8,7.2c-2.9,15.4-5.9,30.8-8.8,46.2c0,0,0,3.5,0,5.2c8.7,2.2,18.8-7,28-1.6C52.6,381.1,74,396,95.5,411
	c17.9,3.6,30.9-14.1,48.3-6c0.3,0,0.6-0.1,0.9-0.1c11.5-2.6,21.2-29.2,29.2-39.3c3.6-1.8,7.2-3.6,10.7-5.4
	c5.2-6.6,10.5-13.2,15.7-19.8c4.1-5.6,3.6-11.5,4.6-17.9c2.8-2.6,5.5-5.2,8.3-7.8c8.8-14.1,15.4-27.3,24-41.5
	c0.1-6.3,0.2-12.7,0.3-19c3.8-26.5,8.9-56.3,30.2-74.8"/>
<path class="st0" d="M143.3,403.1c18.8,8.2,38.5,1.7,56.6,12.1c17.2,9.9,22.7,33.7,36.4,45.9c7.9,7,21.4,2.7,29,12.2
	c3.8,8.7,7.7,17.5,11.5,26.2c4.6,5.4,30,4.4,30.5,8.5c0.4-0.1,0.7-0.2,1.1-0.3c3.1-2.7-0.1-17.3-0.1-17.3"/>
<path class="st0" d="M301.1,510.6c-5.8,9.2,1.7,11.7-1,20.3c-5,15.8-23.8,49.2-41.5,53.3c-12.9-0.5-19.7-13.4-32.9-10.3
	c-2.9-1.5-11.3-13.2-10.3-15.5"/>
<path class="st0" d="M251.9,585.1c0.3,8.8,1.6,13.7,2.6,21.7c-10.3,25.8-47.3,23.3-69.9,22.2c-8.6,0-17.2,0-25.7,0
	c-6.1-3.7-12.1-7.4-18.2-11.1c-5-3.9-21.2-28.3-18.4-33.9"/>
<path class="st0" d="M267.3,173.1c-10.5,8.5-22.3,10-32.8,16.8c-6.5,9.5-13.1,19-19.6,28.6c-20.2,17.5-40.3,35.1-60.5,52.6
	c-3.2,2.5-33.5,5.2-42.6,9.2c-18.2,8-38.7,24.1-46.9,43.1c-1.2,7.2-2.5,14.4-3.7,21.6c-3,4.5-6.1,9.1-9.1,13.6
	c-1,7.7,4.4,10.7,5.2,16.7c-3.2,1.1-6.4,2.2-9.6,3.3"/>
<path class="st0" d="M135.3,275.2c-6.2,9.8-15.1,17.4-18.8,28.9c1.1,8.7,2.1,17.4,3.2,26.1c-3.8,20.3-29.8,28.8-45.4,32.4
	c-24.1,21.5-16.7,33.4-30.1,56.1c-6.4,10.8-15.4,18.3-22.7,27.5c-3.4,7.9-6.9,15.7-10.3,23.6"/>
<path class="st0" d="M26.7,440.7c-6.5,12.6-5.3,26.3-10.4,39.3c-5.4,7.1-10.9,14.2-16.3,21.4"/>
<path class="st0" d="M378.8,354.6c-10.8,7.4-19.5,14.2-30.8,16.8c-11,10.8-24.3,19.5-40.1,21.8c-9,1.3-17-1.7-26.1,1.4
	c-11.9,4.1-16.1,28-31.9,8.2c-16.2-20.3-0.3-46.5-9.5-67.2"/>
<path class="st0" d="M230.4,291.1c-7.4,20.1-4.7,34.9-3.2,55.5c0.2,0.3,0.4,0.6,0.5,1"/>
<path class="st0" d="M238.1,273.4c3.1-1.4,5.6-1,7.4,2.2c4.8,8.7-6.5,20.3,1,30.7c2.1,0.7,4.2,1.4,6.3,2.1"/>
<path class="st0" d="M390,318.2c-12.9-1.7-17.4,14.3-28.9,16.9c-0.7-5.7-27.9-31.6-28.9-39.3"/>
<path class="st0" d="M359.9,334.4c-5.2,8.2-6.7,18.4-15.2,24.4c-5.8,4.2-41.4-12.6-46.5-17.3c-4.6-7.5-9.2-15-13.7-22.5
	c-9.8-5-18.2,1.3-27.8,0.4c-0.9-1-1.9-1.9-2.8-2.9"/>
<path class="st0" d="M293.5,174.6c-1.1-0.4-2.1-0.7-3.2-1.1c0.7,5.3,12.7,24.5,16,23.8"/>
<path class="st0" d="M304.6,182.5c-3.3,9.8-5.5,9.3-13.7,15.3c-1.2,0.7-2.4,1.4-3.5,2.1"/>
<path class="st0" d="M255.1,409.1c-2.2,4.6-4.4,9.3-6.7,13.9c-0.3,17.1-0.5,34.3-0.8,51.4c0.2,2.3,0.4,4.6,0.6,6.9"/>
<path class="st0" d="M291.9,551.4c8.5,3,5.3,10,10.4,15.6c26.4,29.1,50,40,24.4,80.6c-5.1,8-5.3,16.6-15.1,21.8
	c-14.4,7.6-35.1,4.6-51,5.9c-4.5-2.3-8.9-4.5-13.4-6.8c-3.3,0.1-6.6,0.3-9.9,0.4"/>
<path class="st0" d="M240.5,625.1c6.3,11.9,1.8,20.9,6.6,32.2c4,9.5,14.9,13.6,19.4,23.8c5.1,5,10.3,10.1,15.4,15.1"/>
<path class="st0" d="M415.6,388.4c-2.6,0-5.3,0-7.9,0c-0.9,8.7-1.8,17.4-2.7,26.2c-1.5,0.4-3,0.8-4.5,1.2
	c-4.4,15.8-8.8,31.7-13.3,47.5c-6.4,4-12.8,8.1-19.2,12.1c-8.8-2.5-51.6-12.4-54.8-18c0-1,0-2.1-0.1-3.1"/>
<path class="st0" d="M310.9,423.9c4.4,5.7,39.5,48.1,44.5,47.3"/>
<path class="st0" d="M116,223.5c-3.6,9.4-7.2,18.8-10.8,28.1c-4.7,2-9.5,3.9-14.2,5.9c-4.7,6.5-9.3,12.9-14,19.4
	c-0.7,5.5-1.3,11-2,16.5c-10,14.5-32.3,26-38.8,43c-6.1,16,0.5,33-6.3,49.7c-4.3,7.2-8.6,14.5-13,21.7C11.3,412.6,5.6,417.3,0,422
	c0,0,0,0,0,0"/>
<path class="st0" d="M65.3,248c-4.8,5.5-12.3,5.5-19.2,7.1c-2.2,6.2-4.4,12.4-6.7,18.5c-1.3,2.9-20.6,21.6-22.9,22.2"/>
<path class="st0" d="M288.8,322.2c0.1-3,0.2-6,0.2-9c6.6-5,13.1-10,19.7-15"/>
<path class="st0" d="M288.5,254.6c-5-0.1-10.1-0.2-15.1-0.3c-6.6,10.4,2.6,16.4-17.5,21"/>
<path class="st0" d="M289.1,278.5c-8.3,3.8-10.8,10-20.8,12.3"/>
<path class="st0" d="M229.6,242.2c-13.6-4.4-28.1,8.1-42.4-0.2"/>
<path class="st0" d="M216.9,228.1c-1.7,2.1-18.4,43.6-19.4,48.4c-2.2,10.3-4.3,20.5-6.5,30.8c-8.8,12.2-23.6,12-33.2,21
	c-9.6,9-11.2,23.3-18.9,32.4c-5.7,3.6-11.3,7.3-17,10.9c-3.2,6.4-6.5,12.9-9.7,19.3c-5.5,4-11,8-16.6,12
	c-12.1,19.3-15.3,69.5-32.7,82c-6.1,0.8-12.2,1.7-18.3,2.5c-8.4,4-10.5,12.7-17.4,17.6c-5.3,23.6,7.9,49.5-24.7,57
	c-0.8,2.1-1.6,4.3-2.4,6.4"/>
<path class="st0" d="M170.3,603.8c-1,9.3,4.8,47.7,9.7,57.1c7.4,10.9,14.8,21.8,22.3,32.7c6.5,13.1,8.9,21.5,20,32
	c0,0-13.1-18.3-22.5-21.4c-1.3,0.3-2.6,0.5-3.9,0.8c-4.9-4-9.7-8-14.6-12c-25-5.1-65.3-92-65.3-92c0,0.1,0.1,0.2,0.1,0.3
	c0,0.2,0,0.4-0.1,0.6c-0.2,0-0.4,0.1-0.6,0.1c-3.2-25-33.8-18-38-27C59.4,537,46,493.7,53.7,449.5c2.7-5.6,5.4-11.1,8.1-16.7
	c3-13.2,3.6-27.2,14.8-37.3c6.8-6.1,19.3-7,27.7-9.7c14.4-9.7,7.5-48.7,25.7-52.9c0.1-1,0.2-2,0.3-3c-1.5-11.9,1.1-21.1,2.5-32.8
	c0-0.3,0-0.6,0.1-0.9c4.1-7.8,17.6-3.3,23.6-8.8c3.9-8.9,7.7-17.8,11.6-26.7"/>
<path class="st0" d="M24.4,262.5C16.3,257,8.1,251.5,0,246"/>
<path class="st0" d="M22.1,313.8C22,329,34.5,341.3,34.5,341.3"/>
<path class="st0" d="M45.4,320.4c-15.6,4.2-20,28.8-37.3,29.8"/>
<path class="st0" d="M32,387.6c-1.3,11.3,14.4,55,20.7,67.3"/>
<path class="st0" d="M81,400.7c0.9,37,15.4,20.8,29.7,44.6c17.3,28.7,23.4,69.9,56.7,82.3c3.5,6.2,7,12.4,10.5,18.6"/>
<path class="st0" d="M187.8,361.5c0.7,3.3,1.3,6.5,2,9.8c-5.1,19.5-23.7,32.4-26,51.6c-1.9,15.4-3.8,30.7,5.9,41.4
	c0.6,1.9,1.2,3.8,1.8,5.6c-11.8,16.4-23.7,32.8-35.5,49.2c0.4,3.4,6.5,8.8,6.5,8.8"/>
<path class="st0" d="M187.9,541.6c-2.2,0-4.5-0.1-6.7-0.1c-1.1,1.6-2.2,3.2-3.2,4.7c-2.8-3-29.5-5.5-35.3-3
	c-6.7,3.3-13.4,6.6-20.1,9.9c-9.6-6.3-18.4-14.8-31-11.9c-6.7,7.1-7.8,17-18.6,19.5c-0.1,0.5-0.1,0.9-0.2,1.4
	c-0.8,0.2-1.6,0.5-2.3,0.7"/>
<path class="st0" d="M54.4,492.1c18.8,11.8,23.8,38.9,43.3,50.6"/>
<path class="st0" d="M112,453.1c-2.6,7.8-7.8,77-4.7,85.7c1.5,0.8,3,1.5,4.5,2.3"/>
<path class="st0" d="M107.9,488.1c20.3,27.5,5.3,27.1,10.6,50.3c1.6,7.2,9.1,12.6,10.2,20.8c-0.4,0-0.7,0.1-1.1,0.1"/>
<path class="st0" d="M121.5,529.4c12.8,7.3,27,30,26.8,45.4c-0.1,6.6-4.7,10.7-3.1,18.2c4.2,20,11.7,39.8,14.3,59.4
	c2.9,22.7-2,46.8,24.4,52.2c3.7-1,7.3-2.1,11-3.1"/>
<path class="st0" d="M204.5,626.5c0.4,12.7,0.8,25.5,1.1,38.2c4,7.8,22.5,28.3,22.5,28.3"/>
<path class="st0" d="M346.7,691.5c-14-7.7-30.7,30.3-39.3,37.4c-8,4.7-9,15.6-19.1,17.9"/>
<path class="st0" d="M325.6,707.1c-18.5-1.7-31.9-1.4-44,16.2c-3.5,9.2-2.9,16.9-8.6,26c-3.3,1.5-6.7,2.9-10,4.4
	c-21,20-42.3,30-70.7,36.5c-2.8,8.5-9.9,12-18.2,13.9c-3,5.7-5.4,17.9-12.7,17.9"/>
<path class="st0" d="M193.4,790.6c-16.4,9.4-37.2-1.2-55,0.8c-8.1,4.2-16.2,8.4-24.3,12.6c-18.4,1.1-36.8,2.3-55.3,3.4
	c-16,2.2-26.5,14.7-43.4,14.7"/>
<path class="st0" d="M166.9,787.9c-6.4-9.6-15-13.2-20.9-22.7c-0.2-0.2-0.4-0.4-0.6-0.6c-3.1,2.8-6.2,5.5-9.3,8.3
	c-19.3,13.4-49.4,31.4-70.8,13.1c-9-7.7-13.9-42.5-26.3-49.8c-11.4-5-34.3,10.5-39,20.6c0,1,0,2.1,0,3.1"/>
<path class="st0" d="M275,730.7c-11.2-1.5-22.4-3-33.6-4.5c-8.3,1.5-16.6,3-24.9,4.6c-6.7,3.2-13.4,6.4-20.1,9.6
	c-11.5,1-14.9-12.4-25-8.7c-3.8,5.6-48.6,18.2-56.6,17c-13.2-11.3-26.4-22.7-39.6-34c-14.3-2.9-15.4,13.1-26.8,16
	c-10.6,2.8-20.3,2.8-29.5-4.4c-1.3-2.2-2.5-4.3-3.8-6.5c-5-0.6-10-1.1-15.1-1.7"/>
<path class="st0" d="M217.1,728.4c-7.9-4.5-15.8-9-23.7-13.4c-6.4-0.4-12.7-0.8-19.1-1.2c-4.4-3.2-8.8-6.3-13.2-9.5
	c-16.7-1.6-33.4-3.2-50.1-4.7c-9.6-0.9-19.2-1.8-28.8-2.7c-5.9,8.9-11.2,17-21.6,19.4"/>
<path class="st0" d="M82.8,699.4c-21.3,3.3-42.7,6.7-64,10c-6.3-0.4-12.5-0.8-18.8-1.2"/>
<path class="st0" d="M65.2,702.6c-4.5-3.4-9-6.9-13.4-10.3c-0.2-0.1-0.4-0.1-0.6-0.2c-4.7,1.2-9.5,2.4-14.2,3.6
	c-12.8-1.3-22.2-14-37-10.1"/>
<path class="st0" d="M152.7,628.1c-10.6-3.9-21.4,17.4-31.8,17.9c-8.1-2.9-19-10.8-24.5-17.9c-5.2-6.7-6.6-25.7-14.2-28.1
	c-22.2-4-32.6,14.2-49.2,18.7c-7,1.9-14.7-7-21.4-0.4c-1,3.1-2,6.2-3,9.3C4.3,630.9,0,627.9,0,635"/>
<path class="st0" d="M83.4,576.6c-40.6-7.4-35.7,19.7-58.7,20.6"/>
<path class="st0" d="M130.7,629.2c-9.9,15.2-3.8,29-9.9,43.5c-3.3,7.8-7.2,13.4-15.3,16.1c-1.4,0-2.7,0-4.1,0"/>
<path class="st0" d="M173.9,701c-28.1-7.4-24.1-26.6-34.2-30.5c-1.7-1.1-3.5-2.3-5.2-3.4"/>
<path class="st0" d="M148.1,578.7c-13-5.8-17.2,4.4-25,12c-1.6,0.9-3.2,1.8-4.8,2.6"/>
<path class="st0" d="M311.7,706.7c-9.4-4.1-25.5-17.1-32.4-6.4c-1.8-0.5-3.5-1.1-5.3-1.6"/>
<path class="st0" d="M314.4,468.2c20.6,6,22.7,24.7,34.5,38.1c8.5,6.5,16.9,13,25.4,19.5c22.1,20.8,24.2,53.5,11,78.4
	c-0.6,0.1-1.3,0.1-1.9,0.2"/>
<path class="st0" d="M375.2,535.2c5.1-3.6,7.6,18.8,7.9,25.1c-2,5.4-4,10.9-6,16.3c0.7,20.6,10,40.3,11.8,60.9
	c0.5,5.6,6.7,29.9,11.3,29"/>
<path class="st0" d="M394.6,645.6c-4-3.1-3.4-1.7-4.5,2.3c-2.7,7.6-5.3,15.2-8,22.7c0.9,11.8,9.6,24.1,6.8,36.4
	c-3.7,5.6-7.4,11.1-11.1,16.7c-1.9,5.5-3.8,11.1-5.7,16.6c-2.8,2-5.5,4.1-8.3,6.1c-4.4,7.7-8.8,15.5-13.2,23.2
	c-4.1,8.5,0.1,33.4-11.7,36.1"/>
<path class="st0" d="M387.9,635.8c-0.6,0.7-10.2,5.6-9.5,3.1"/>
<path class="st0" d="M382.1,667.4c-1.9,1.1-3.8,2.3-5.8,3.4c-0.2,8.4-0.4,16.7-0.5,25.1c-9.2,23.9-28.4,39.1-33.2,64.8
	c-0.9,0.9-1.8,1.7-2.8,2.6"/>
<path class="st0" d="M353.2,682.4c2.8,5.9,5.5,11.8,8.3,17.7c4.3,0.5,8.6,1,12.8,1.5"/>
<path class="st0" d="M365,702.7c-6.6,8.4-13.2,16.8-19.8,25.2c-5.1,3.9-10.2,7.9-15.3,11.8c-2.8,4.5-5.6,9-8.3,13.6
	c-10.4,6.2-17.9,17.2-30.1,20.8c-0.6-0.2-1.2-0.3-1.9-0.5c0,0-17.4,13.6-30.8,31c-5.7,5.7-11.4,11.4-17.1,17.1"/>
<path class="st0" d="M319.7,753.7c2.9,25.5-24.5,40.6-42.3,52.4c-6,5.3-12,10.6-17.9,15.8"/>
<path class="st0" d="M334.1,743.5c-8.9,9.8-7,51.1-5.1,65.4c0.2,2.6,0.4,5.1,0.5,7.7"/>
<path class="st0" d="M446,584.5c-2.1,15.8-7.7,28.2-11,44c-3.3,5.6-6.7,11.1-10,16.7"/>
<path class="st0" d="M445.5,614c2,6.4,4,12.8,5.9,19.2c-1.1,4.4-2.2,8.9-3.4,13.3c-0.1,11,16,21.9,25.9,24.5"/>
<path class="st0" d="M465.2,666.7c-7.5,1.6-14.5,10.9-20,16.5c-1,0.5-1.9,1-2.9,1.5"/>
<path class="st0" d="M480.8,683.1c-7.3,4.1-24.2,8.2-28.6,14.4c-1.2,0.7-2.4,1.4-3.5,2.2"/>
<path class="st0" d="M456.3,703.9c6.9,5,49.2,35.2,43.2,48.5"/>
<path class="st0" d="M522.2,759.9c3.5,5.6,11.6,51.8,11.6,51.8"/>
<path class="st0" d="M32.4,79.3c-2.4-0.3-4.8-0.5-7.2-0.8C16.3,75.9,8.7,58.8,3.6,51.1c-1.2-0.7-2.4-1.3-3.6-2c0-1,0-1.9,0-2.9"/>
<path class="st0" d="M18.1,78.3C13.7,78.7,0,90.8,0,90.8"/>
<path class="st0" d="M803.4,382.7c5.9,10.8,3.7,21.7,11.3,31.8c4.6,3.1,12.4-1.7,18.4,2.5c0.3,0.2,0.6,0.5,0.8,0.7
	c3.8,5.7,7.7,11.5,11.5,17.2c3.9,2.6,7.8,5.2,11.8,7.8c1.7,6,3.4,11.9,5.1,17.9c0.7,0,1.5,0.1,2.2,0.1c0.4,0.8,0.8,1.5,1.2,2.3
	c3.1,12.3,12.1,13.3,17.8,25.5"/>
<path class="st0" d="M805.9,329.1c5.4-2.6,10.9-5.3,16.3-7.9c8.3,1.5,16.6,2.9,24.9,4.4c2.1-1.2,4.1-2.4,6.2-3.6"/>
</svg>
