<?xml version="1.0" encoding="utf-8"?>
<!-- Generator: Adobe Illustrator 19.2.1, SVG Export Plug-In . SVG Version: 6.00 Build 0)  -->
<svg version="1.1" id="Ebene_1" xmlns="http://www.w3.org/2000/svg" xmlns:xlink="http://www.w3.org/1999/xlink" x="0px" y="0px"
	 viewBox="0 0 1920 822" style="enable-background:new 0 0 1920 822;" xml:space="preserve">
<style type="text/css">
	.st0{fill-rule:evenodd;clip-rule:evenodd;fill:none;}
</style>
<path class="st0" d="M249.5,0.2c-1.3,24.6-18.6,45.2-21.2,69.6c-3.6,33.8-10.5,67.4-14.1,100.8c1.3,14,2.7,28.1,4,42.1
	c-2.6,17.9-15.3,30.4-16.3,49.6c-0.9,18,7.1,39.3,5.7,58.6C204.6,364.8,190.3,413,183,456c-5.2,30.7-22,39.8-17.2,67.5
	c0,38.7-9.1,75-9.1,113.3c0,5.2-0.8,34.8-7.3,34.8c-18.9,12.6-27.2,49.3-27.2,70c4.8,8.4,4.9,18.4,3.6,27.6
	c-1.7,11.2-9,18.7-5.5,30.4c2.2,7.2-2.5,15.4-2.5,15.4"/>
<path class="st0" d="M189.5,428.4c16.8,6.1,8.7,46.1,10.2,57.7c3.9,5.7,7.7,11.4,11.6,17.2c3.6,2.1,7.2,4.3,10.8,6.4
	c10.5,16.7,10.7,55.4,12.6,74.5"/>
<path class="st0" d="M206.5,353.3c2.3,2.7,4.7,5.4,7,8.1c5.1-0.5,10.3-0.9,15.4-1.4c1.2,1.1,2.4,2.2,3.6,3.4
	c-0.5,7.8-0.9,15.6-1.4,23.4c3,7.1,6,14.2,8.9,21.3c4.1,12.2,1.8,26.1,10,37.1c15.8,21,35.5,17.2,50.5,32.2
	c15.1,15.1,1.4,26.8,28.5,26.8c10.8,7.2,17.7,22.6,26,31.8c0.5,0.6,1,1.3,1.5,1.9"/>
<path class="st0" d="M325.2,508.8c0.9,5.4,10.4,26.4,10.4,28.8"/>
<path class="st0" d="M229,359.6c5.8-0.2,7.6-4.3,10.7-8.4c4-1.5,8.1-2.9,12.1-4.4c4.4,3.2,5.2,6.4,11,6.4c2.9-5.4,5.8-10.9,8.7-16.3
	c0.9-0.1,1.8-0.1,2.7-0.2c8.3,4.4,14.4,19.7,26.4,19.7c0,33.2,29.1,44.9,45.9,67.3c0.5,0,1,0.1,1.5,0.1"/>
<path class="st0" d="M301.3,361.7c6.9-2.7,12.6-3.2,19.9-3.2c5.7,5.1,9.1,13,12.7,16.4c0.6,0.2,1.1,0.3,1.7,0.5"/>
<path class="st0" d="M221.9,204.8c-2.4,15.3,19.5,20,27.7,27.8c2.2,4.1,4.4,8.3,6.7,12.4c4-0.7,8-1.4,12-2.1
	c0.2,0.3,0.4,0.6,0.6,0.9c1.1,5.2,2.2,10.4,3.2,15.6c5,3.9,10,7.7,15,11.6c1.6,3.6,3.1,7.2,4.7,10.8c0.1,0.2,0.2,0.4,0.3,0.5"/>
<path class="st0" d="M245.6,21.3c10.8,21,11.8,44.6,15.6,67.2c1.9,11-0.8,20.7-0.8,31.3c0,0.6-0.1,1.1-0.1,1.7"/>
<path class="st0" d="M217.8,149.9c2.8,1.6,5.6,3.2,8.4,4.9c5.4,8.6,8.2,7.9,17.5,7.9c1.9,5.6,3.8,11.2,5.7,16.8
	c6.6,10.7,24.2,20.4,24.2,34.9c0.1,0,0.3,0,0.4,0c-0.2,0-0.4-0.1-0.6-0.1"/>
<path class="st0" d="M246.6,225.6c3.2-1.6,6.3-3.2,9.5-4.8c11.2,7.5,17.7,5.8,30.2,9.5c3.6,4.8,7.2,9.5,10.8,14.3"/>
<path class="st0" d="M197.7,383.6c-7.6-13.5-10-31.5-29.4-27.8c-3,2.8-6,5.7-9,8.5c-1.1-1.5-2.2-3-3.2-4.5c-1.2-0.3-2.4-0.6-3.7-1"
	/>
<path class="st0" d="M162,567.5c-3.1-0.6-17.1,18.4-27.7,18.4c-6.1-4.1-1.8-11-13.7-15.2"/>
<path class="st0" d="M137.3,586.9c-1.6,3.5-3.2,6.9-4.7,10.4c-6.4,1.4-26.8,9.5-26.8,17.9"/>
<path class="st0" d="M121,735.8c-2.1,0.9-4.3,1.8-6.4,2.8c-1.3-4.2-2.7-8.5-4-12.7c-6.1,0-15.1,49.1-21.8,49.1
	c-0.9,1-1.8,2.1-2.8,3.1"/>
<path class="st0" d="M161.6,593.8c3.4-0.8,6.9-1.5,10.3-2.3c8.6,11.4-1.4,41.3,16,41.3c7.3-5.5,10.8-3.4,19.3-3.4
	c2-2.2,3.9-4.4,5.9-6.5"/>
<path class="st0" d="M191.7,631.3c4.6,1.6,9.2,12.4,9.2,17.5"/>
<path class="st0" d="M254.4,452.2c-2.5,16.4-17.2,27.9-20.2,43.7c-3.3,6.1-6.6,12.1-9.9,18.2"/>
<path class="st0" d="M217.8,218c6.9,6.5,4.4,18,8.3,25.8c3.1,3.1,6.2,6.3,9.3,9.4"/>
<path class="st0" d="M212.7,170.8c-1.8,0.3-3.6,0.7-5.4,1c-15.9,11.4-17.1,30.7-34.9,39.4c-1.5,0.7-6.6,4.1-6.6,0.6"/>
<path class="st0" d="M133.3,697.7c-6.3-0.4-4.9-6.2-9.1-9c-3.3-0.3-6.6-0.7-9.9-1c-2.6-5.4-5.2-10.8-7.8-16.2"/>
<path class="st0" d="M181.3,451.9c-11.9-5.4-2-21.7-17.8-21.7c-0.9-3.1-1.9-6.3-2.8-9.4"/>
<path class="st0" d="M204.9,251.5c-17.9,0.9-18,18.4-29.2,28.3c-7,1.6-14,3.3-21,4.9c-3.9-2.1-7.8-4.2-11.7-6.3
	c-1.6,1.5-3.2,3-4.8,4.4c-0.8-0.3-1.6-0.6-2.5-0.9"/>
<path class="st0" d="M204.9,308.6c-4.1,0-9.5-3.1-11.9-6.4c-3-9.9-5.4-20.6-11.9-29.7c-0.3-0.1-0.6-0.2-0.9-0.4"/>
<path class="st0" d="M191.7,255.3c-1.7,0.1-3.3,0.3-5,0.4c-1.4-2.3-2.8-4.6-4.2-6.8c-3.5,0.3-7,0.6-10.5,0.9
	c-1.9-3.3-3.7-6.6-5.6-9.9c-3.3-2.2-19-2.1-19-0.4"/>
<path class="st0" d="M270.3,335.8c7.9-16.2-6.1-27.6-4.9-43.6c0.7-9.2,11.1-22.4,11.1-34.9"/>
<path class="st0" d="M229.4,53.8c-7.4,5.7-14.9,11.4-22.3,17c-2.3,0.2-4.6,0.4-6.9,0.6"/>
<path class="st0" d="M222.3,101c-3.2,0.6-6.5,1.3-9.7,1.9c-0.8-2.5-10.6-5.2-10.6-5.2"/>
<path class="st0" d="M226.6,134.8c2.6,2.6,20.8,10.6,25.7,9.6c1.8-1.4,3.6-2.8,5.4-4.2c0,0,0,0.1-0.1,0.1"/>
<path class="st0" d="M469.6,2.2c-1.6,15.2,4.8,32.5,2.7,43.1c-1.9,8.4-3.9,16.9-5.8,25.3c-0.7,11.4,3.7,20.5,0.4,32.3
	c-7,18-14.1,36-21.1,54c-0.3,16.9-0.5,33.8-0.8,50.8c1.5,8.8,3,17.6,4.5,26.5c-0.9,14.9-8,27.2-11.5,41.3
	c-6.1,4.1-11.1,8.5-11.1,17.3c6.5,8.7,5.6,14.5,5.6,25.4c0,1.7-0.1,3.3-0.1,5c0,0-0.1,0-0.1,0"/>
<path class="st0" d="M426.6,291c-5.3,5.4-10.5,10.7-15.8,16.1"/>
<path class="st0" d="M442,273.9c3.4,7.4,6.5,10.7,9.5,18.7"/>
<path class="st0" d="M443.7,159.3c-15.2,5.4-11.1,8.8-20.5,21.3c-0.9-0.3-1.7-0.6-2.6-0.9"/>
<path class="st0" d="M456.9,127.1c5.4,8.1,19.8,14.9,23.1,23.7c-0.2,0.5-0.4,1.1-0.6,1.6"/>
<path class="st0" d="M472.4,194.8c-0.7-0.6-1.4-1.1-2.1-1.7c-14,2.1-14.3,0.6-22.8-11.7c0,0-10.7,29.3-16.9,33.6"/>
<path class="st0" d="M466.9,17.7c-6.1,2.7-20.3-0.3-24.7,2.7c-2.1,2.6-4.2,5.2-6.2,7.9c-2.6-0.4-5.3-0.9-7.9-1.3c-1,0.9-2,1.8-3,2.8
	"/>
<path class="st0" d="M444,21.6c-7-3.5-12.7-18.5-22.7-15.4"/>
<path class="st0" d="M469.7,56.3c0.1,8.4,5.4,10.6,11,13.6c0.2,1.3,0.4,2.5,0.7,3.8"/>
<path class="st0" d="M467.3,102.5c3.2,7,10.8,12.8,10.8,21.2"/>
<path class="st0" d="M474.1,110.9c2.7-2.1,5.3-4.1,8-6.2c1.3-0.1,2.6-0.2,3.9-0.3"/>
<path class="st0" d="M465.8,68.4c-4.6,4.3-7.5,3.9-11.5,6.5c-0.4,0.7-0.8,1.4-1.2,2.1"/>
<path class="st0" d="M459.7,119.6c-3.1-3.8-6.3-7.5-9.4-11.3c-1.1-0.1-2.3-0.1-3.4-0.2"/>
<path class="st0" d="M450.2,142.1c-2-2.4-4-4.8-6-7.2c-0.7,0-1.3-0.1-2-0.1c-0.7,1-1.4,2-2.1,3c-0.9,0-1.7,0-2.6,0"/>
<path class="st0" d="M563.9,283.8c0.5,0.1,0.9,0.2,1.4,0.4c9.3-12.4,21.9-31.2,24.8-46.8c2.1-11.4-1.2-23.8,3.4-35.2
	c5.1-12.8,15.4-20.1,17.7-35.6c1.9-12.8-2.1-19.8-4.4-30.7c0,0,5.7-62.5,6-64.1c4.5-20.1,19.7-36.8,28-54.8c0-6.9-6.9-14.7-13.2-17
	c0,0-1.7,7.1-2.5,10.7c-1.2,0.4-2.4,0.7-3.6,1.1c-1.3-2-12.9-6.9-14.7-7.7c-1.2,0-2.4,0-3.6,0c-2.2,2.7-4.4,5.3-6.6,8
	c-5-1.8-10-3.6-14.9-5.5c-5.6,5.6-17.4,6.7-24.6,6.7c-4.8-2.8-17.6-13.4-22-7.8"/>
<path class="st0" d="M591.1,212c-6.5-5.2-10-16.7-11.6-24c-0.5-0.7-1.1-1.5-1.6-2.2"/>
<path class="st0" d="M608.6,85.1c-6,4.3-12,8.5-18,12.8c-0.4,4.2-0.7,8.4-1.1,12.6c-1.1,0.6-2.2,1.1-3.3,1.7
	c-11.1,1.7-16,28.9-16,28.9"/>
<path class="st0" d="M610.9,146.7c7.2,8.7,10.6,15.7,12.1,28.1c-2.9,9.4-5.9,18.8-8.8,28.2c-2.2,17.7,11.3,59.6-7.7,66.9
	c-15.5,18.1-3.2,44.4-14,55.7"/>
<path class="st0" d="M697.1,0c-1.5,10.5-2.9,21.1-4.4,31.6c3.1,8.9,6.3,17.8,9.4,26.6c1.3,11.3,2.5,22.6,3.8,33.8
	c0.3,13.8,0.2,27.2-2.8,40.6c-3.7,16.6-15.6,28.2-12.5,47.6c3.6,23,15.6,42.7,21.9,64.6c4.8,16.8-8.1,59.9,10,71.9
	c7.4,4.2,13.4-7.1,19.5-7.1c7.4,11.5,6.6,26.2,11.2,38.6c2.4,6.4,7.6,9.2,8.6,16.5c0.4,2.2,0.8,4.5,1.1,6.7"/>
<path class="st0" d="M712.7,294.9c-1.9,0.5-3.8,1-5.7,1.5c-10.9,11.6-16.6,72.4-22.2,91.7"/>
<path class="st0" d="M701.3,131c4.9,15.5,12.2,26.8,22.9,37.5c1.2,0.7,2.5,1.5,3.7,2.2c1.2,4,3.7,16.5,3.7,20.7"/>
<path class="st0" d="M689.5,172.9c-4,3.4-9.1,3.1-14.3,3.1c-3.8-5-7.6-10.1-11.4-15.1c-0.3,0-0.5,0-0.8,0c-2.2,2.9-4.4,5.7-6.6,8.6
	c-2.3-7.5-8.4-9.3-15.5-9.3c-4.5,4.3-9,8.7-13.6,13c-1-0.1-1.9-0.3-2.9-0.4c-0.6-0.7-1.2-1.5-1.8-2.2"/>
<path class="st0" d="M692.7,28.8c-7.5-0.5-9.4,5.4-15.7,5.4c-2.4-1.3-4.8-2.6-7.2-3.9"/>
<path class="st0" d="M702.3,115.9c-1.7,1.2-3.5,2.3-5.2,3.5c-2.7-2-5.3-4-8-6"/>
<path class="st0" d="M693.2,14.8c-1.9,0.6-3.9,1.2-5.8,1.9c-1.2-1.1-2.4-2.1-3.6-3.2c-1.3,0.3-2.5,0.5-3.8,0.8"/>
<path class="st0" d="M643.8,18.6c1.4,6.6,2.8,13.2,4.2,19.8"/>
<path class="st0" d="M625.1,49.5c3,3.9,6.1,7.8,9.1,11.7c0.3,1.4,0.6,2.8,0.8,4.3"/>
<path class="st0" d="M611.5,116.9c4.2,0.5,8.4,1,12.5,1.4"/>
<path class="st0" d="M709.8,78.5c1.1,1.5,2.1,3,3.2,4.5c0.9,2.2,1.8,4.4,2.6,6.6"/>
<path class="st0" d="M709.4,242.7c1.8-11.9,12.1-5.7,18.7-10.2c0.7-6.4,1.4-12.8,2.1-19.2"/>
<path class="st0" d="M732.8,182.1c4.7,6.2,12.1,13.6,12.1,22"/>
<path class="st0" d="M827.5,0c10.6,23.9,14.3,50.3,26.8,74.3c4,4.5,8.1,9.1,12.1,13.6c9.8,15.7,19.6,31.4,29.4,47.1
	c8.8,14.1,38.4,34.1,41.9,48.1c0.5,18.6,1.1,37.3,1.6,56c3.5,17.4,12.3,31.2,16.7,47.5c2.7,15.4,5.5,30.8,8.2,46.2
	c2.2,11.3,10.7,27.6,14.6,40.2c5.1,16.5-12.2,42.3,4.2,55.9c1,0.1,2.1,0.1,3.1,0.2c17.1,13,20.6,46.6,20.6,66.3
	c-0.3,0.4-0.6,0.7-0.9,1.1c-0.7,0-1.3,0-2,0c-0.1,3-0.1,6-0.2,8.9"/>
<path class="st0" d="M973.6,777.2c3.7-7.1-17.7-32.8-17-45.5c0.7-12.6,9-18.4,10.8-29.2c0.1-16,0.2-31.9,0.3-47.9
	c-1.1-4.6-8.3-7.5-7.6-14.3c4.2-12,8.5-23.9,12.7-35.9c1.9-14.1,3.9-28.2,5.8-42.2c3.8-24.2-2.7-59.1,24.5-68
	c0,0,7.1,11.4,11.1,19.5c0.1,4.9,0.3,9.9,0.4,14.8c2.3,12.9,10.2,26.3,10.2,39.4"/>
<path class="st0" d="M961.7,648.2c-19.7,9-16.7,32.2-16.7,51.1c0.4,8.3,0.8,16.6,1.1,24.9"/>
<path class="st0" d="M946.1,672.9c-5.1,2.4-4.7,4.3-8.4,7.2c-3.1-0.2-6.2-0.4-9.2-0.6c-5.6,6.2-1.8,10.1-1.8,16.3"/>
<path class="st0" d="M968.3,670.6c10.5,3.4,30.5,33.7,30.5,32.8"/>
<path class="st0" d="M754,2c8.7,12.1,17.4,24.1,26,36.2c0.3,1.2,0.6,2.4,0.8,3.6c0,0.3,0,0.5,0,0.8"/>
<path class="st0" d="M1011.7,149.3c-9.6-29.1-12-16.6-26.6-37.7c-4.8-6.9-5.5-15.5-12.3-20.7c0,0,0.2-2.3,0.4-3.5
	c-16.1,0-46.8-16.1-59-27.7c-3.7-3.5-23-22.6-27.3-21.5c-6.3,8.4-33.3,31.5-33.3,31.5c-5.9,2.2-9.2,1.9-13.6,6.3
	c-7,3.1-19.8-12.1-29.2-12.1c-2.5,2.6-5.1,5.2-7.6,7.8c-6.4,0-18.8-13.9-18.8-19.6"/>
<path class="st0" d="M836.3,76.7c0.4,18.1,0.7,36.2,1.1,54.3c3,15.9,10.5,23.3,10.5,40.5"/>
<path class="st0" d="M838.2,131c-3.8-0.8-14-2.9-16.7-2.9c-0.6,0-1.3,0-1.9,0c-1.7,2.3-3.4,4.5-5.1,6.8"/>
<path class="st0" d="M888.9,123.1c0.3,3.1-3.8,42.6-6.1,45.6c-2.7,1.8-5.4,3.5-8.2,5.3c-5.8-7.7-11.2-15.9-17-23.6c-1.5,0-3,0-4.5,0
	c-2.7,2.7-5.3,5.3-8,8"/>
<path class="st0" d="M939.4,223.6c-7.8,2.4-6.6,5.8-12.5,9.7c-3.2-1.3-6.4-2.5-9.7-3.8c-4.2,5.5-5.6,11.5-13.8,11.5c-2-6-4-12-6-18
	c0,0-7.7-12-11.5-18.7c-2.2-11-4.4-22.1-6.5-33.1"/>
<path class="st0" d="M945.3,255.1c-2.2,9-13.5,46.1-19.8,52.3c-1.6,0.2-3.2,0.4-4.8,0.5c-3-3.8-6-7.5-8.9-11.3
	c-4.8-1.3-9.6-2.5-14.4-3.8c-4.2,5.6-2,26.2-11.8,28.8c-0.8,0-1.6,0.1-2.4,0.1c-3.2,2.1-3.7,21.4-7.7,26.8c0,13.7,7.1,32.2,2.1,45.2
	"/>
<path class="st0" d="M954.7,280.2c20.3,0.2,30.6,30,37.8,46.5c7.3,16.5,26,23.1,32.9,41.6c3.3,8.8,0.2,15.5,1.4,24.4
	c4.1,11.2,8.3,22.3,12.4,33.5c0.9,6.3,1.7,12.6,2.6,18.9c10.4,6.2,20.8,12.5,31.3,18.7c14.3,7.9,30,3.9,43.6,14.1
	c11.2,8.4,15.6,25.2,24.5,36c6.4,7.7,22.5,41.6,11.3,49.1c0.6,6,1.2,11.9,1.8,17.9c-0.3,0-0.6,0-0.8,0c-0.7,3.3-1.4,6.6-2,10
	c-0.5,0.1-1.1,0.3-1.6,0.4c-0.1,2.5-0.2,5-0.4,7.6c6,16,12,31.9,17.9,47.9c1.3,7.8,2.6,15.6,3.8,23.4c7.9,5.2,8.7,17.1,15.4,21.6
	c11.3,0,19.2,15.7,21.5,24.5"/>
<path class="st0" d="M941.6,188.7c4.3,5.6,7.6,5.2,14,5.2c8.9-11.8,10.2-13.7,23.2-16.8c8.8-10.5,24-14.6,30.9-26.8
	c0.9-1.5,1.8-3,2.7-4.5c5.3,4.3,10.8,10,12.6,16c8.6,8.6,17.1-4.3,26.6,16c10,5.1,20,10.2,30,15.2c20.5,20.1,31.1,48.2,47.2,71.4
	c7.4,10.6,18.7,16.1,27.6,25c3.5,6.2,7,12.5,10.5,18.7c13.1,13.4,26.2,26.7,39.3,40.1c6.9,0.7,13.8,1.4,20.7,2.1
	c1.4,3.5,2.9,7.1,4.3,10.6c6.2,2.3,12.3,4.6,18.5,6.8c21.5,1.8,36.4-10.9,51.7-21.1c0.3,0,0.7,0,1,0c4.9,4.9,21.9,14.5,29.5,13.6
	c3.8-1.3,7.5-2.6,11.3-3.9c3.7-2.9,7.3-5.8,11-8.7c3,0.9,6.1,1.8,9.1,2.6c-0.1,0.7-0.2,1.4-0.4,2.1"/>
<path class="st0" d="M1238.3,332.2c12.3,11,26.4,22.1,37.7,33.6c13.3,13.5,15.3,28.9,35,36.1c12,4.4,41.2-10.1,44.4-9
	c1.8,0.2,3.7,0.4,5.5,0.6"/>
<path class="st0" d="M876.6,101.6c2.8-7.6,5.7-15.1,8.5-22.7c0.8-0.1,1.5-0.2,2.3-0.3c6.1-3.4,8.6-6.2,12.5-12.8
	c6.9-11.4-2.5-44.4-7.9-52.2c-1.5-4.5-3-9.1-4.4-13.6"/>
<path class="st0" d="M838.9,17c4.2-0.7,8.5-1.3,12.7-2c13.6,17.8,19,41,32.8,59.3c0.3,0,0.7,0,1,0.1"/>
<path class="st0" d="M1041.3,163.1c4.1-14.1,12.8-20.6,20.6-31c3.6,0,7.1,0,10.7,0c14.3-16.7,29.3-28.6,29.3-53.4
	c-7.9-12.6-15.2-38.1-7.8-52.9c2-1.2,4-2.5,6-3.7c0.6,0.3,1.2,0.5,1.8,0.8c2.3-2.3-2-22.8,3.1-22.8"/>
<path class="st0" d="M1099.1,76.6c2.8-4.3,8.9-13.2,15-13.2c2.2,2.4,4.4,4.7,6.6,7.1c4.1-4.1,8.2-8.3,12.2-12.4
	c8.4-2.2,20.1,8,26.1,0c0.4-3.7,0.9-7.4,1.3-11.2c-2.6-0.2-5.2-0.4-7.9-0.5c-11.6-13.7-9.5-33.8-22.4-46.3c-2.4,0-4.8,0-7.3,0"/>
<path class="st0" d="M1231.9,45.6c4.1,3.6,8.4,4.8,13.9,4.8c20.6-15.4,55.4-29,75.6-5.2c0,3.6,0,7.2-0.1,10.7
	c15.2,31.3,45,23.9,45,69.9c3.7,7.5,16.6,66,16.1,75.9c-1.6,14.2-3.3,28.5-4.9,42.7c0.4,10.7,6.8,17.9,6.8,28.9"/>
<path class="st0" d="M1339.9,78.1c2.8,36.3,9.8,73.2,11.2,109.5c0.7,18.4-4.7,28.3-8.4,46.3c-0.2,2.2-0.4,4.5-0.6,6.7"/>
<path class="st0" d="M1322.9,62.4c-9.5,16.3-5.2,36-11.5,53.9c-4.4,12.7-14.4,25.3-18,37.3c-2.3,7.7-4.1,25.3-12.5,29.5
	c-11.4,1.5-29.1,14.2-28.2,12.7"/>
<path class="st0" d="M1307,121c1.5,6.2,3,12.4,4.5,18.5c-0.8,12.8-1.5,25.6-2.3,38.4c7.5,10,24.8,16.1,24.8,31.8"/>
<path class="st0" d="M1159.3,50.6c8.7,5.7,12.2,1.5,19.5,3.9c6.5,2,13.6,8.2,20.3,11.1c1.8,4.8,3.6,9.5,5.4,14.3
	c15.7,5.2,27.7,23.3,27.7,23.3"/>
<path class="st0" d="M1239.5,48.8c1.2,13.2,2.5,26.5,3.7,39.7c1.6,8.6,8.4,11.4,12.3,18.1c3,14.4,5.9,28.7,8.9,43.1"/>
<path class="st0" d="M1301.5,29c7.8-9.6,3.9-15.1,5.2-25.5c0.4-1.2,0.7-2.4,1.1-3.6"/>
<path class="st0" d="M1420.7,0c-4.2,24.7,15.8,122.8-16.9,122.8c-3.9-4.1-7.8-8.2-11.7-12.3c-3.9-2.7-6.2-1.7-10.7-1.7
	c-2.7-2.7-5.5-5.3-8.3-8c-4.4,0.7-8.8,1.3-13.1,2"/>
<path class="st0" d="M1555.4,0c-3.4,9.6-6.7,19.2-10.1,28.8c-4.1,9.8-8.2,19.7-12.3,29.5c-2.3,20.4-4.6,40.9-6.9,61.3
	c-3,19.5-10.9,37.1-9.3,57.1c0.9,11,11,16.9,9,29c-2.7,16.7-15.2,29.4-18,47.1c-3.3,20.8,6.1,39.5,5.6,60.3
	c-0.6,24-10.8,47.6-14.2,69.7c-0.8,11.9-1.6,23.9-2.4,35.8c-2.7,13-10,24.4-13.4,37.9c-0.8,8.6-1.6,17.3-2.4,25.9
	c-1.5,0.2-3,0.4-4.5,0.6c-13.8,11.1-6.3,42.8-5.2,57.2c2.4,30.8-12,56.4-13.3,86.7c0.5,13,1,26.1,1.5,39.1c-1.7,0.1-3.4,0.1-5,0.2
	c-6.5,10.5-13,20.9-19.5,31.4c0,5.4,0,10.8,0,16.1c-15,22.3-1.6,28.4-5.9,52.6c-2.3,13.3-4.9,26.9-4.9,39.3"/>
<path class="st0" d="M1233.4,546.3c-2,8.5,4.9,19.9,5.8,29.4c-0.2,11.3-0.3,22.6-0.5,33.9c2.6,5,5.1,10.1,7.7,15.1
	c0.2,10.3,0.4,20.6,0.5,30.9c8,25.3,19.9,48.5,28.1,73.5c0.4,1.2,0.7,2.4,1.1,3.5c-0.2,18.7-0.3,37.3-0.5,56"/>
<path class="st0" d="M1271.6,714.2c3.7,3.3,7.2,5,12.1,5c9.6,8.5-0.4,19.5,17.1,19.5c6.8,5.5,7.6,15.4,18.6,15.4
	c0.2-1,0.4-2.1,0.6-3.1"/>
<path class="st0" d="M1298.7,732.7c1.7,9.8,3.4,19.6,5,29.4c-0.6,0.2-1.1,0.5-1.7,0.7c-0.1,1.5-0.2,3.1-0.3,4.6"/>
<path class="st0" d="M1152.6,542.4c5.8,5.1,9,7.7,16.5,7.7c0.2,3,0.4,6,0.6,9.1c0.6,0,1.3,0,1.9,0c6.6,5.7,13.3,11.9,13.7,21.4
	c0,0.4,0,0.8,0,1.2"/>
<path class="st0" d="M1569.1,335.1c1.9-28.2,11.5-64.3,4.1-93.3c0,0-10.3,1.5-15.5,2.2c-3.1-5.4-6.2-10.7-9.3-16.1
	c-7.3-3.8-14.7-7.5-22-11.3c-0.1-2.4-0.1-4.9-0.2-7.3"/>
<path class="st0" d="M1549.6,226.3c6.3-1.7,12.5-3.5,18.8-5.2c5.8,2.4,11.6,4.8,17.4,7.2c1.3,0.4,2.7,0.8,4,1.1"/>
<path class="st0" d="M1523.1,149.8c8.7,13.7,10.8,12.6,23.6,12.6c1,11.5,30.6,45.4,30.6,52.2"/>
<path class="st0" d="M1529.8,79c16.8,9.3,21.3,25.2,33.3,38.8c0,0,1.7-18,0.8-36c-4.8-22.1-9.6-44.3-14.5-66.4"/>
<path class="st0" d="M1514.7,169.8c-18,11.7-12.1,31.2-18.9,35.7c-10.8,0-26,11.6-29.4,11.6c-1,0.2-2,0.4-3.1,0.6"/>
<path class="st0" d="M1510.4,349.7c8,2.5,16.1,4.9,24.1,7.4c7.1,8.8,1.2,25.5,2.2,36c6.7,18.6,13.4,37.2,20.1,55.8
	c4.1,7.6,32.5,19.4,40.6,24.4c10.9,6.7,8.6,19.6,16.6,28.2c4.2,4.4,11,0.3,15,7.1c0.1,0.7,0.1,1.4,0.2,2.1
	c0.6,8.7,10.2,25.6,10.2,29.2c0,0.3,0,0.6,0,0.8"/>
<path class="st0" d="M1628.6,508.9c4.8,0.8,9.6,1.6,14.4,2.4c6.3,9.8,12.6,19.7,19,29.5"/>
<path class="st0" d="M1495.9,428.5c2.6,2.2,5.1,4.5,7.7,6.7c1.1,18.6,2.1,37.2,3.2,55.9c3.5,11.8,16,12.8,20.4,23.1
	c10,23.2,11.5,63.6,11.5,89.1"/>
<path class="st0" d="M1559.1,449.5c-0.9,7.9-22.3,52.4-27.9,55.4c-1.7,2-3.4,4-5.1,6"/>
<path class="st0" d="M1471,554.5c4.6,1.5,9.1,3,13.7,4.6c1-1.5,1.9-3.1,2.9-4.6c5.9,0,7.7,9,15.2,7c0.3-1.1,0.6-2.1,0.9-3.2"/>
<path class="st0" d="M1465.2,593.3c2.7,0.3,5.4,0.6,8.1,1c11.1,5.9,5.9,29.1,15.6,37.6c8.4-1.1,16.9-2.3,25.3-3.4
	c0.8-2,1.5-3.9,2.3-5.9"/>
<path class="st0" d="M1469.8,565.8c-2.2,0.3-4.4,0.6-6.6,1c-8.1,3.6-10.5,16.3-19.8,19.4c-4.3,5.7-30.5,25.8-34.8,25.8
	c-0.4-0.1-0.9-0.3-1.3-0.4"/>
<path class="st0" d="M1440.9,593c-5.6-9.3-6.3-23.1-15.3-28.8c-2.4-0.1-4.7-0.3-7.1-0.4"/>
<path class="st0" d="M1241.5,582.2c-1.6-1-3.1-2-4.7-3.1c10.5,0,22.3,26.2,27.1,32.6c16,10.7,41.1,7.6,56,18.9
	c8.9,6.7,19.3,14.6,26.4,23.3c1,1.1,1.9,2.3,2.9,3.4"/>
<path class="st0" d="M1288.7,616.2c-2.3-8.4-1.2-11-0.6-18.8c0-0.2-0.1-0.3-0.1-0.5"/>
<path class="st0" d="M1239.6,559.3c7.6,7.1,21.2,10.5,31.8,10.5c1.6,2.7,3.1,5.5,4.7,8.2"/>
<path class="st0" d="M1435.4,693c-3.3-0.3-8.1-4.4-8.1-8.6c-3.8,1.1-7.5,2.2-11.3,3.3c-2.1-2.2-4.2-4.4-6.4-6.5"/>
<path class="st0" d="M1448.5,676.1c3.5,5.6,7,9.6,7,16.4c4.2,0,10.7,8.1,10.7,11.7"/>
<path class="st0" d="M1484.1,449c-8.4,2.8-7.6-7.9-12-12c-0.7-0.3-1.5-0.5-2.2-0.8"/>
<path class="st0" d="M1500.2,377.6c-12.1,4.2-10.3-17.8-21.4-22.7c-8.6,0-9.9,4.5-14.9,9.5c-2.3-0.2-4.7-0.3-7-0.5"/>
<path class="st0" d="M1536.4,352.7c4.7-1,9.4-1.9,14.1-2.9c0.7,1.7,1.3,3.3,2,5c12.3,2.7,12-11.8,17.7-17.6c0.6,0,1.2-0.1,1.8-0.1
	c10.6,6.5,21.3,13.1,31.9,19.6c0.7,3.5,1.3,7.1,2,10.6c5.3,16.3,14.5,34.4,26.7,47.4c5.7,4.4,11.4,8.8,17.1,13.1
	c0.9,2.5,1.9,4.9,2.8,7.4"/>
<path class="st0" d="M1604.3,359.2c5.9-1.5,11.8-2.9,17.6-4.4c4.3,6.7,8,11.7,17,13.3c4.3,2.2,3.3,10.6,3.3,14.3"/>
<path class="st0" d="M1578.6,256.7c0.5,4.8,9,7.3,9,10.8c1.4-0.1,2.8-0.3,4.3-0.4c3.5,3.8,2.6,11.2,2.6,11.2"/>
<path class="st0" d="M1520.2,216.8c6.2,13.4,12.5,26.7,18.7,40.1"/>
<path class="st0" d="M1512.5,289.7c8.3,5.5,10.3,4.5,19.1,5.8c1.2,1.3,2.4,2.6,3.6,3.9c-0.2,2.9-0.3,5.8-0.5,8.8
	c0.6,0,1.1,0.1,1.7,0.1"/>
<path class="st0" d="M1530.8,294.8c2.7-0.3,5.3-0.7,8-1c1.5,1.4,2.9,2.7,4.4,4.1"/>
<path class="st0" d="M1504.6,255.9c-3.4-0.7-6.8-1.5-10.2-2.2c-6.8,6.2-3.7,15.4-9.5,22.1c-4.4,0.6-8.8,1.2-13.2,1.8
	c-2,2.4-4.1,4.8-6.1,7.2c-8.3,1.8-10.5-5.1-15.5-9.2c-3,1.1-5.9,2.3-8.9,3.4"/>
<path class="st0" d="M1495.2,257c-12.3-7.9-9.4-6.8-20.3-6.8c-1.7-3-3.3-5.9-5-8.9c-3.5-0.5-6.9-1-10.4-1.5
	c-1.3,1.8-2.5,3.7-3.8,5.5c-3.1,0.1-6.2,0.2-9.3,0.3"/>
<path class="st0" d="M1509.8,233.4c-2.8,1.2-27.5-9.3-27.5-2.5"/>
<path class="st0" d="M1525.6,100.5c-3.5,0.6-19-5-20-4"/>
<path class="st0" d="M1512.8,70.3c0.7-0.1,1.3-0.1,2-0.2c7.6-4.6,6.6-15.8,17.1-15.4c0,0-11-7.3-11-1.7"/>
<path class="st0" d="M1524.6,118.7c-6.7,1.7-13.4,3.4-20.1,5"/>
<path class="st0" d="M1520.3,130.1c-5.5,4-11,8-16.5,12"/>
<path class="st0" d="M1413.7,119.7c5.4,24.7,35.1,7.9,35.1,35.2"/>
<path class="st0" d="M1404.5,121.8c1,8.3,12.3,30.3,7.7,36.9"/>
<path class="st0" d="M1425.9,107.1c3.4-0.1,6.7-0.2,10.1-0.3c4.2-4,7.5-7.2,13.5-4.8c0.1,0.1,5.2,9,5.2,6.5"/>
<path class="st0" d="M1423.3,90.5c1.7,0.3,3.4,0.5,5.2,0.8c2.3-2.7,4.6-5.5,6.8-8.2c0.3,0,0.7,0,1,0c2.4,3.5,8.8,6.8,8.8,10.4"/>
<path class="st0" d="M1423.1,32.9c3.4,1.6,6.5,1.6,9.5-0.8c0-3.6-0.1-7.3-0.1-10.9c2.9-3.2,5.8-6.5,8.7-9.7"/>
<path class="st0" d="M1421.7,14c2.6-0.8,11.3,5.2,11.3,5.2"/>
<path class="st0" d="M1348.3,79.7c4.3-7.3,7-14.3,11-21.5c1-0.1,2.1-0.1,3.1-0.2"/>
<path class="st0" d="M1323.2,46.9c10.4,3.2,10.3-9.6,15.5-9.6c1.7,3.4,6.9,10.3,11.2,9.3c0.6-1.2,1.2-2.4,1.8-3.6"/>
<path class="st0" d="M1321.2,36.1c9.5-8.8,9.1-9.5,9.1-22.9c3.7-0.5,7.4-1.1,11-1.6"/>
<path class="st0" d="M1350.5,198.3c5.1,4.2,10.1,8.4,15.2,12.6c1.4,2,11.7,26,11.7,23.2"/>
<path class="st0" d="M1428.2,739.2c-0.8,2-1.5,4-2.3,6c-0.1,0-0.2,0-0.4,0c-4.4-3.7-8.7-15.3-12.1-17.6c-0.8,0-1.6,0.1-2.4,0.1
	c-7.6,5.9-19.5,52.5-26.2,47.5"/>
<path class="st0" d="M1471,523.5c5.5-3.5,7.1,1.4,7.1,7.2"/>
<path class="st0" d="M1457.1,570.9c-8.8-1.9-7.8-9.2-11.1-15.6"/>
<path class="st0" d="M1525.8,519.7c5.2,5.5,5,0.9,10.9,1.5c6.7,6.5,13.3,13.1,20,19.6"/>
<path class="st0" d="M1535.2,555.2c6.3,5,18.3,2.4,18.3,14.2"/>
<path class="st0" d="M1527.8,311.7c-6.4,0-8.9-8.6-17.5-8c0,0-17.9-16.9-20.7-16.9c0.3,2.1,0.7,4.2,1,6.3
	c-2.3-5.2-4.6-10.4-6.8-15.6"/>
<path class="st0" d="M1489.6,290.6c-2.5,0.7-5.1,1.5-7.6,2.2c-2.1,3.6-4.2,7.2-6.3,10.8"/>
</svg>
