<?xml version="1.0" encoding="utf-8"?>
<!-- Generator: Adobe Illustrator 19.2.1, SVG Export Plug-In . SVG Version: 6.00 Build 0)  -->
<svg version="1.1" id="Ebene_1" xmlns="http://www.w3.org/2000/svg" xmlns:xlink="http://www.w3.org/1999/xlink" x="0px" y="0px"
	 viewBox="0 0 1920 822" style="enable-background:new 0 0 1920 822;" xml:space="preserve">
<style type="text/css">
	.st0{fill-rule:evenodd;clip-rule:evenodd;fill:none;}
</style>
<path class="st0" d="M255,392.6c24.6,1.3,45.2,18.6,69.6,21.2c33.8,3.6,67.4,10.5,100.8,14.1c14-1.3,28.1-2.7,42.1-4
	c17.9,2.6,30.4,15.3,49.6,16.3c18,0.9,39.3-7.1,58.6-5.7c43.9,3.1,92.2,17.4,135.1,24.7c30.7,5.2,39.8,22,67.5,17.2
	c38.7,0,75,9.1,113.3,9.1c5.2,0,34.8,0.8,34.8,7.3c12.6,18.9,49.3,27.2,70,27.2c8.4-4.8,18.4-4.9,27.6-3.6c11.2,1.7,18.7,9,30.4,5.5
	c7.2-2.2,15.4,2.5,15.4,2.5"/>
<path class="st0" d="M683.3,452.7c6.1-16.8,46.1-8.7,57.7-10.2c5.7-3.9,11.4-7.7,17.2-11.6c2.1-3.6,4.3-7.2,6.4-10.8
	c16.7-10.5,55.4-10.7,74.5-12.6"/>
<path class="st0" d="M608.2,435.6c2.7-2.3,5.4-4.7,8.1-7c-0.5-5.1-0.9-10.3-1.4-15.4c1.1-1.2,2.2-2.4,3.4-3.6
	c7.8,0.5,15.6,0.9,23.4,1.4c7.1-3,14.2-6,21.3-8.9c12.2-4.1,26.1-1.8,37.1-10c21-15.8,17.2-35.5,32.2-50.5
	c15.1-15.1,26.8-1.4,26.8-28.5c7.2-10.8,22.6-17.7,31.8-26c0.6-0.5,1.3-1,1.9-1.5"/>
<path class="st0" d="M763.7,316.9c5.4-0.9,26.4-10.4,28.8-10.4"/>
<path class="st0" d="M614.5,413.1c-0.2-5.8-4.3-7.6-8.4-10.7c-1.5-4-2.9-8.1-4.4-12.1c3.2-4.4,6.4-5.2,6.4-11
	c-5.4-2.9-10.9-5.8-16.3-8.7c-0.1-0.9-0.1-1.8-0.2-2.7c4.4-8.3,19.7-14.4,19.7-26.4c33.2,0,44.9-29.1,67.3-45.9c0-0.5,0.1-1,0.1-1.5
	"/>
<path class="st0" d="M616.6,340.9c-2.7-6.9-3.2-12.6-3.2-19.9c5.1-5.7,13-9.1,16.4-12.7c0.2-0.6,0.3-1.1,0.5-1.7"/>
<path class="st0" d="M459.7,420.2c15.3,2.4,20-19.5,27.8-27.7c4.1-2.2,8.3-4.4,12.4-6.7c-0.7-4-1.4-8-2.1-12
	c0.3-0.2,0.6-0.4,0.9-0.6c5.2-1.1,10.4-2.2,15.6-3.2c3.9-5,7.7-10,11.6-15c3.6-1.6,7.2-3.1,10.8-4.7c0.2-0.1,0.4-0.2,0.5-0.3"/>
<path class="st0" d="M276.2,396.5c21-10.8,44.6-11.8,67.2-15.6c11-1.9,20.7,0.8,31.3,0.8c0.6,0,1.1,0.1,1.7,0.1"/>
<path class="st0" d="M404.8,424.3c1.6-2.8,3.2-5.6,4.9-8.4c8.6-5.4,7.9-8.2,7.9-17.5c5.6-1.9,11.2-3.8,16.8-5.7
	c10.7-6.6,20.4-24.2,34.9-24.2c0-0.1,0-0.3,0-0.4c0,0.2-0.1,0.4-0.1,0.6"/>
<path class="st0" d="M480.5,395.6c-1.6-3.2-3.2-6.3-4.8-9.5c7.5-11.2,5.8-17.7,9.5-30.2c4.8-3.6,9.5-7.2,14.3-10.8"/>
<path class="st0" d="M638.5,444.5c-13.5,7.6-31.5,10-27.8,29.4c2.8,3,5.7,6,8.5,9c-1.5,1.1-3,2.2-4.5,3.2c-0.3,1.2-0.6,2.4-1,3.7"/>
<path class="st0" d="M822.4,480.1c-0.6,3.1,18.4,17.1,18.4,27.7c-4.1,6.1-11,1.8-15.2,13.7"/>
<path class="st0" d="M841.8,504.8c3.5,1.6,6.9,3.2,10.4,4.7c1.4,6.4,9.5,26.8,17.9,26.8"/>
<path class="st0" d="M990.7,521.2c0.9,2.1,1.8,4.3,2.8,6.4c-4.2,1.3-8.5,2.7-12.7,4c0,6.1,49.1,15.1,49.1,21.8
	c1,0.9,2.1,1.8,3.1,2.8"/>
<path class="st0" d="M848.7,480.5c-0.8-3.4-1.5-6.9-2.3-10.3c11.4-8.6,41.3,1.4,41.3-16c-5.5-7.3-3.4-10.8-3.4-19.3
	c-2.2-2-4.4-3.9-6.5-5.9"/>
<path class="st0" d="M886.2,450.4c1.6-4.6,12.4-9.2,17.5-9.2"/>
<path class="st0" d="M707.1,387.7c16.4,2.5,27.9,17.2,43.7,20.2c6.1,3.3,12.1,6.6,18.2,9.9"/>
<path class="st0" d="M472.9,424.3c6.5-6.9,18-4.4,25.8-8.3c3.1-3.1,6.3-6.2,9.4-9.3"/>
<path class="st0" d="M425.7,429.5c0.3,1.8,0.7,3.6,1,5.4c11.4,15.9,30.7,17.1,39.4,34.9c0.7,1.5,4.1,6.6,0.6,6.6"/>
<path class="st0" d="M952.6,508.8c-0.4,6.3-6.2,4.9-9,9.1c-0.3,3.3-0.7,6.6-1,9.9c-5.4,2.6-10.8,5.2-16.2,7.8"/>
<path class="st0" d="M706.8,460.9c-5.4,11.9-21.7,2-21.7,17.8c-3.1,0.9-6.3,1.9-9.4,2.8"/>
<path class="st0" d="M506.4,437.2c0.9,17.9,18.4,18,28.3,29.2c1.6,7,3.3,14,4.9,21c-2.1,3.9-4.2,7.8-6.3,11.7c1.5,1.6,3,3.2,4.4,4.8
	c-0.3,0.8-0.6,1.6-0.9,2.5"/>
<path class="st0" d="M563.5,437.2c0,4.1-3.1,9.5-6.4,11.9c-9.9,3-20.6,5.4-29.7,11.9c-0.1,0.3-0.2,0.6-0.4,0.9"/>
<path class="st0" d="M510.2,450.4c0.1,1.7,0.3,3.3,0.4,5c-2.3,1.4-4.6,2.8-6.8,4.2c0.3,3.5,0.6,7,0.9,10.5c-3.3,1.9-6.6,3.7-9.9,5.6
	c-2.2,3.3-2.1,19-0.4,19"/>
<path class="st0" d="M590.7,371.9c-16.2-7.9-27.6,6.1-43.6,4.9c-9.2-0.7-22.4-11.1-34.9-11.1"/>
<path class="st0" d="M308.7,412.7c5.7,7.4,11.4,14.9,17,22.3c0.2,2.3,0.4,4.6,0.6,6.9"/>
<path class="st0" d="M355.9,419.9c0.6,3.2,1.3,6.5,1.9,9.7c-2.5,0.8-5.2,10.6-5.2,10.6"/>
<path class="st0" d="M389.7,415.6c2.6-2.6,10.6-20.8,9.6-25.7c-1.4-1.8-2.8-3.6-4.2-5.4c0,0,0.1,0,0.1,0.1"/>
</svg>
