<?xml version="1.0" encoding="utf-8"?>
<!-- Generator: Adobe Illustrator 19.2.1, SVG Export Plug-In . SVG Version: 6.00 Build 0)  -->
<svg version="1.1" id="Ebene_1" xmlns="http://www.w3.org/2000/svg" xmlns:xlink="http://www.w3.org/1999/xlink" x="0px" y="0px"
	 viewBox="0 0 1920 1500" style="enable-background:new 0 0 1920 1500;" xml:space="preserve">
<style type="text/css">
	.st0{fill-rule:evenodd;clip-rule:evenodd;fill:none;}
</style>
<path class="st0" d="M1352.7,1082.2c-25.3-14.9-25.3-39.5-45.7-54.4c-23.2-16.9-59.2-10.6-85.4-18.3c-13-6.8-26.1-13.6-39.1-20.4
	c-7.5,0.7-14.9,1.4-22.4,2c-36.6,0.9-73.9,4.6-109.2,14.8c-8.6,2.5-27.1,15.7-34.4,15.2c-32.9-7.2-65.8-14.5-98.7-21.7
	c-10.7-3-17.4-14.1-29-13.9c0,0-6.8,12.2-13,15.6c-33.4,18.4-42.3-14.9-64.2-25.5c-10.9-5.3-25.8-4.1-35.1-12.3
	c-5.9-9.7-11.9-19.4-17.8-29.1c-11.5,2.5-48.9-7.5-60.4-12.2c-11.8-0.9-35.5,14.8-42-1.9c0,0-32.7-21.3-42-45.3
	c-4.2,0.9-15.1-6.9-12.1-7.5"/>
<path class="st0" d="M1173.2,989.8c4.7-6.3,48.9-16.9,59.5-16.3c12,0.8,21.8,6.1,34.5,5c13.7-1.2,26.9-7.8,40.2-8.6
	c8-0.5,45.2-15.9,45.2-18.4"/>
<path class="st0" d="M1352.7,992.2c0-10.2-46.9-18.1-55.6-22.6c0,0-20.7-2.8,55.6-50.4c0,0,27.1-14.4,37.1-24.4
	c3.4-4.6,6.8-9.2,10.2-13.8c9.6-3.6,24.9,0.7,33.9,1.5c46.6,4,59.4,12.2,97.5,40.7c8.7,6.5,12.2,18.8,23.1,23
	c17.4,6.8,79.1,27.9,85.1,46c0,4.8-5.6,8.4-1.4,14.7c4.7,4.5,15.5,8.7,21.7,7.8"/>
<path class="st0" d="M1162.3,992c11.7,6,33.6,4.8,42.3,13.5c17.2,17.3-12.2,32.1-18.5,42.5c-5.3,12.1-10.7,24.2-16.1,36.3
	c-5,2.8-10,5.6-15,8.4c-6.9,5.8-27.3,31.3-30.1,39.6c-4.1,12.2,11.8,38.9-5.2,47.9c-2.4,0-4.8,0-7.2-0.1c-0.3-0.8-0.6-1.6-0.9-2.4
	c-10.5,0-22.3,1.7-33.2,1.7c4,8.2,7.9,16.4,11.9,24.6c-4.5,2.7-8.9,5.3-13.4,8c7.8,3.1,15.5,6.3,23.3,9.4c0.1,1.5,0.2,3,0.3,4.5
	c10.8,8.1,13-0.3,16.5,15.5c3.6,2.3,42.2,25.6,42.2,25.6c0,0.4,0,0.8,0,1.3c0.2-0.4,0.5-0.8,0.7-1.1"/>
<path class="st0" d="M1161.3,1094.7c0.9,6.8-3.9,11.2-5.7,17.7c0.5,8.3,0.9,16.6,1.4,24.9c1.4,9.8,11.8,11.6,10.6,24.4
	c-6.4,7.2-14.4,11.8-14.4,23.3c-0.7,0.3-1.5,0.6-2.2,0.8"/>
<path class="st0" d="M1099.4,1218.2c39.3-1.2,50.5,9.4,85-16.5c1.1-6.8,2.2-13.6,3.4-20.4c0.7-1,1.4-2.1,2.1-3.1"/>
<path class="st0" d="M1148,1262c15.2-1.8,30.4-3.6,45.5-5.4c9.7-6.2,15.8-52.3,11.8-56.2"/>
<path class="st0" d="M1209.6,1216.8c-0.6-6.2,10.4-6.8,13.4-11.2"/>
<path class="st0" d="M1078.5,1249c15.9,3.7,31.8,7.4,47.8,11.1c0,11.2,17.5,9.4,25.3,9.6c14.7-2.2,29.5-4.4,44.2-6.5
	c11.8,1.5,21.2,11,33.1,11c1.7,1.7,3.4,3.4,5.1,5.1c1.4,4.3-3.9,22.9,4.9,22.9"/>
<path class="st0" d="M1201.3,1263.8c7.6-3.3,15.2-6.7,22.8-10c1.3-5.1,2.6-10.1,3.9-15.2c5.5-4.5,11.1-9,16.6-13.5"/>
<path class="st0" d="M1210.4,1262.9c12,0.6,19.5,8.6,30.6,10.5c6.5-0.7,13-1.4,19.5-2c5,2.7,9.9,5.4,14.9,8.1"/>
<path class="st0" d="M1258,1270.9c5.6-2.1,11.3-4.2,16.9-6.3c0.6-1.1,1.2-2.2,1.8-3.3"/>
<path class="st0" d="M707.6,1073.7c11.1,5.6,8.8,15.8,13.7,24.5c3.7,2.1,4.2,2.5,9.2,1.7c0,0,15-3.4,22.5-5.1c7,1.5,14,2.9,20.9,4.4
	c10.8-0.2,21.6-0.3,32.4-0.5c11.1,4.4,22.1,8.8,33.2,13.2c7.1,0.8,14.1,1.7,21.2,2.5c9.8,5.7,17.9,19.4,27.7,26.8
	c0,1.2-0.1,2.5-0.1,3.7c7.7,9.1,26,11.9,32.4,16.7c0.4,1.6,38.1,24.7,43.8,26.2c7.5-0.1,15.1-0.2,22.6-0.3c0,0,55.3,42.5,55.3,42.5
	c-0.1,1.2-0.2,2.5-0.4,3.7c3.2,3.8,8.2,5.1,8.2,10.4c9.4,1.6,18.9,3.2,28.3,4.9c2.6,10.3,19.5,19.9,28.7,24.6
	c17.4,8.9,29.8,23.7,44.4,33.6c8.8,3.2,17.6,6.3,26.4,9.5c6.8,3.4,13.5,6.9,20.3,10.3c1-0.3,2-0.5,3-0.8c0.7,0.7,1.5,1.5,2.2,2.2"/>
<path class="st0" d="M1176,1315.1c13.9-5.8,18.2-4.5,32.1-4.5"/>
<path class="st0" d="M1134.2,1295.6c0.3,1.4,0.6,2.7,1,4.1c3.2,4.4,6.3,8.9,9.5,13.3c1.7,3.8,10.2,48.7-3.2,48.7"/>
<path class="st0" d="M1149.2,1345.4c1.5,4.6,14.6,10.5,14.6,10.5"/>
<path class="st0" d="M1156.8,1309.2c8,10.8,14.5,37.8,14.5,50.4c0.7,2.6,1.4,5.1,2.1,7.7"/>
<path class="st0" d="M1162.8,1310.3c4.9,4.7,24.9,28.5,34.2,26.1"/>
<path class="st0" d="M1248.3,1303.5c8.3,10.1,1.8,14.8,6,24.9c3,4.2,45,28.1,50.3,29.5c0.1,0,0.1,0,0.2-0.1"/>
<path class="st0" d="M573.1,1032.3c21.5-0.9,23,10.4,29.7,25c5.7,12.3,18.7,21.2,20.7,35.7c3.9,28.4-7.6,58.1-2.6,86.8
	c4.3,10.6,8.7,21.1,13,31.7c5.6,6.1,21,7.2,25.1,15.6c2.9,5.9,4.6,22.6-7.2,22"/>
<path class="st0" d="M578.6,1031.6c19.6-3.3,54.9-4.5,58,23.2c1.5,11.6,3,23.2,4.4,34.8c13.1,11.4,29.9,16.5,35.2,35.5
	c1.9,8.2,3.8,16.5,5.6,24.7c4.8,5.6,9.6,11.2,14.3,16.8c-1.2,22.4-25.3,30.2-32.2,48.4c-5.1,13.5,3.8,69.1,9.7,84.6"/>
<path class="st0" d="M694.8,1169.2c8.7,6,15.1,37.1,9.5,47.1c-5.3,5.7-10.6,11.4-16,17.1c3.5,16.8,7.1,33.5,10.6,50.3"/>
<path class="st0" d="M702.3,1179.7c14.2,3,18.6,21,29,29.1c5.8,3.1,11.6,6.3,17.4,9.4c3,3.9,4.3,10,3.2,14.8
	c-2.1,9.8-17.4,18-20.9,28.3c-0.8,14.4,16,35.6,3.5,49.4c-1.4,0.7-2.8,1.5-4.3,2.2"/>
<path class="st0" d="M688,1157.6c44.7,1,85,13.7,127.9,22.9c8.5,1.8,17.2-2.7,24.9-1c12.1,2.8,21.8,12.2,34.5,14.5
	c11.2,2,60.3-5.7,65-1c0.8,1.3,1.7,2.5,2.5,3.8"/>
<path class="st0" d="M871,1199.2c0-1.2,0-2.5,0-3.7c0.1,0,0.2-0.1,0.3-0.1c15.2,11.3,8.8,23.7,16.9,37.6c3.1,3,6.2,6,9.4,9"/>
<path class="st0" d="M802.4,1178.7c14.3,3.6,13.4,18.2,23.3,25.6c14.2,4.6,28.3,9.3,42.5,13.9c5.7,6.2,14.4,22.8,11.8,30.8
	c-0.1,1.3-0.1,2.7-0.2,4"/>
<path class="st0" d="M882.6,1195c9.3,11.2,23.7,12.9,33.2,24.1"/>
<path class="st0" d="M693.2,1161.4c11.3,9.1,22.7,18.1,34,27.2c3.6,4.8,7.3,9.6,10.9,14.4c6.3-0.1,12.7-0.1,19-0.2
	c21.1,5.7,45,23.4,62.4,37.1c13.4,11.7,26.8,23.4,40.3,35.1"/>
<path class="st0" d="M746.8,1206.5c6.7,4.1,16.7,9.9,25,8.1c6.3,1.5,21.5,66.8,52,60.2"/>
<path class="st0" d="M788.1,1099.5c19.4,2.9,32.2,59,43.2,64.9c11.4,6,31.4,5.9,39.7,17c1.2,1.4,2.5,2.8,3.7,4.2"/>
<path class="st0" d="M808.5,1118.3c10.8,10.3,21.5,20.6,32.3,30.9c10.1,1.4,20.2,2.7,30.3,4.1c3.5,7.5,7,15,10.5,22.5"/>
<path class="st0" d="M820.5,1128.9c17.7,8.4,27.5,18.3,47.2,14c7.5,2.7,8.8,14,8.8,14"/>
<path class="st0" d="M672.3,928.8c8.4,8.7,21.5,8.7,29.4,15.9c4.5,7.4,8.9,14.7,13.4,22.1c6.7,6.6,13.4,13.2,20.1,19.7
	c16.4,36.9-17.1,80.7-42,103.6c-5.3,4.8-14.8,39.5-18.6,39.6"/>
<path class="st0" d="M697.6,1090.9c14.7,17.6-15.3,50.8,25.5,41.9c12.4-5.8,7-22.8,7.3-32.9c13.8-13.2,6.6-29.8,1-44.3
	c-1.4,0-2.9,0-4.3,0"/>
<path class="st0" d="M738.5,1074.3c2.7-7.7,5.5-15.4,8.2-23.1c5.6-2.7,11.2-5.4,16.8-8.1c8.4-6,7.4-30.1,3.2-38.1
	c-3.7-7.1-27.1-19-27.1-19"/>
<path class="st0" d="M741.3,974.1c28.9,4.4,26.5,34.9,46.6,50.1c10.2,2.8,20.5,5.7,30.7,8.5"/>
<path class="st0" d="M832.1,1108.1c20.4-8,98.8,27.6,107.5-8c-2-6.7-4-13.4-6-20.1c-1-7.7,2.4-16.2-2.5-23.4
	c-12.2-18.2-82.8-22-99.9-13.4c-8.8,5.6-17.5,11.2-26.3,16.8c-7.8,0.2-31.8-16.4-32-24.5c0-0.7-0.1-1.4-0.1-2.1"/>
<path class="st0" d="M785.8,1051.8c-8.6,3.8-17.3,7.6-25.9,11.4c-2.8-1.8-16.3-11.1-18.5-6.1"/>
<path class="st0" d="M1130,1154.5c-13.6-4.6-13.8-9.2-22.9-18.2c-9.3-9.2-32-11.2-44.9-9.8c-14.9,1.6-29.1,11.6-42.3,16.6
	c-7.9,0.8-15.8,1.6-23.7,2.4c-10.6,3.7-18.9,8.1-30.2,10.5c-6,5.6-12,11.2-18,16.8"/>
<path class="st0" d="M1091.5,1129.2c0.1,5.9,0.1,11.7,0.2,17.6c4.6,3,9.2,6,13.8,8.9"/>
<path class="st0" d="M939.7,1101.7c37.6-7.8,60.7-33.3,92.2-51.8c21.6-12.7,47.2-17.3,68-30.7c3.9-5.9,7.7-11.9,11.6-17.8
	c5.4-3.5,10.8-7,16.1-10.5c0,0,21.5-16.2,35-19.8c3.6,0.3,7.2,0.5,10.8,0.8c5.6-2,11.2-4,16.8-6c10.1,0.9,34,0.2,43.7-5.2
	c24.5-13.6,12.6-13.7,19-28.9c3.2-4.7,6.3-9.5,9.5-14.2c2.2-5,4.3-10,6.5-15c7.2-3.2,18.4,2.9,24.9-4.1c11.5-12.5,30.2-59.6,46-63.1
	c2.4-3.9,4.8-7.8,7.3-11.7c1.9,0,3.7,0.1,5.6,0.1c0-2.8,0-5.7,0-8.5"/>
<path class="st0" d="M1135.7,991.9c35.4,33.6-43.8,54.2-39.4,65.6"/>
<path class="st0" d="M984.3,1084.2c-0.8-9.6,4.3-14.6,7.6-22.5c-0.4-1.7-0.7-3.4-1.1-5.2c-3.1-8.1-12.6-12.2-14-21.9
	c-0.6-4.5,1-22.5,1-22.5s-8.2-69.5-32-57.9c-1.7,2.3-11.6,15.4-8.1,16.2"/>
<path class="st0" d="M939.9,1089.4c2.9-7.9,21.1-25.7,17.8-34.2c-12.4-12.5-3-31.3-8.6-45.8"/>
<path class="st0" d="M931.7,1059.7c2-19.3-32.2-38.2-25.6-58.2c1.3-2.6,2.7-5.2,4-7.8"/>
<path class="st0" d="M605.4,756.3c-3.6,4.2-5.2,6-3.2,11.2c13.1,11.7,2.8,24.3,0.9,38.5c-0.1,5.8-0.2,11.7-0.2,17.5
	c-2.6,4.4-5.3,8.8-7.9,13.2c-2.1,11,6.1,19.4,2.2,32c0,0-15.6,10.3-23.1,17.7c-2.4,6.8-6.7,47.8-3,54.7
	c6.1,11.2,12.3,22.4,18.4,33.6c0.6,22.6-18.6,26.1-23.1,44.6c-5.3,21.4,5.7,44.7,1.3,67.2c-1.5,7.7-11.7,9.6-15.6,15.4
	c-2.2,12-4.5,24-6.7,36c-4.3,5.1-8.7,10.2-13,15.3c-0.2,1.6-0.4,3.1-0.6,4.7c0,0,3.4-0.6,8.7,3.1c8.9,5.3,17.7,10.7,26.6,16
	c8.3,9.6,9.6,22.4,19.7,30.2c4.1,3.2,23.2,1.9,23.1,1.6"/>
<path class="st0" d="M534.5,1152.4c9.6-0.2,19.2-0.4,28.7-0.5c19-8.3,22.9-29.6,43.4-34.8c2.9-1.8,5.8-3.6,8.6-5.3"/>
<path class="st0" d="M530.7,1198.4c10.1,15.5-0.4,26.7,4.7,43.1c2.5,8,14,14,16.3,20"/>
<path class="st0" d="M816.1,1104c1.3-0.3,2.6-0.6,3.9-0.9c-3.2-8.2-27.4-27.7-35.6-15.9"/>
<path class="st0" d="M738.3,1024.5c-4.1-40.8-91.1-42.2-114.3-64.1c-13.5-12.7-32.3-27.9-32.3-48.2c0-4.8,5.6-37.3,8-37.8
	c1.1-0.3,2.2-0.6,3.3-0.9"/>
<path class="st0" d="M667.3,957.5c-0.9-6.1-4.4-14.4-10-17.9c-2.9,0.6-5.8,1.2-8.7,1.8c-34.6,34.4-14.6,134,46.4,120.8
	c0.5-0.3,0.9-0.5,1.4-0.8c0.4-0.3,0.8-0.7,1.2-1c8.1-9,11.9-25.1,20.9-34.5c5.1-5.3,12.1-5.7,16.3-11.9"/>
<path class="st0" d="M600.9,967.4c19.8-22.9,126.4-14.4,106.4,34.3c-8.3,20.2-79,21.7-94.4,11.3c-7-4.7-21.8-13.4-24.8-21.3
	c-0.4-1.1-0.8-2.2-1.3-3.3"/>
<path class="st0" d="M605.5,977.1c-6.7,2.2-13.3,4.5-20,6.7c-9-0.1-54.8-10.7-54.8-13.7"/>
<path class="st0" d="M541.8,976.2c16.6,14.9,47.3,47.8,36.9,72.4c-5.4,8.4-48.1,18.3-48.1,35.3"/>
<path class="st0" d="M564.4,1030.1c-2.4,1.9-29.6,43.4-28.6,46"/>
<path class="st0" d="M562.8,1020.1c-12.7,7.1-20,21.2-28.3,32c-1.3,1.8-2.5,3.6-3.8,5.4"/>
<path class="st0" d="M616.8,872.8c-3.5-9.3,9.6-26.3,10.5-37.2c1.5-17.9-12.1-24.9-18.8-38.3c-2.6-5.2-1.9-17.2-9.4-19
	c-4.5,1-9.1-0.1-11.6,4.9c0,2.8,0,5.5,0,8.3c-8.4,1.8-16.6,15.8-23.8,20c-9,2.3-18,4.6-27.1,6.9c-1.9,1.7-3.9,3.4-5.8,5.1"/>
<path class="st0" d="M703.5,923.9c2.6-8.4,0.1-37.5-6.7-45.3c-6.7-4.3-13.3-8.6-20-12.9c-4.6-9.9-9.3-19.8-13.9-29.7
	c-4.2-3.3-8.5-6.6-12.7-9.8c-4.3-12.8-8.5-25.6-12.8-38.4c-4.8-2.5-9.5-5.1-14.3-7.6c-11.2-16.1-22.4-32.1-33.5-48.2
	c0.5-6.6,0.9-13.3,1.4-19.9c-4-5.7-13.4-3-14.2-11.7c3.7-15.1-2-11.2-7.9-24.3c-2.2-4.8,0.2-9-3.7-14.4c-3.1-2.9-6.1-5.8-9.2-8.7
	c-11.3,2.5-25.4-11.1-25.4-11.1"/>
<path class="st0" d="M599.7,763.5c-3.7-9.7-11.4-12-16.8-19.6c-6.7-9.4-8.6-19.3-12.5-29.4c-13.2-4.8-26.5-9.5-39.7-14.3
	c0-1.2,0-2.4,0-3.5"/>
<path class="st0" d="M582.1,745c-2.3,5.1-4.5,10.1-6.8,15.2c-12.1,2.6-31.1-0.8-44.7,0.4c0,1.2,0,2.4,0,3.7c0-0.1,0-0.1,0-0.2"/>
<path class="st0" d="M577.6,747.2c-8,4.8-46.9-5.7-46.9-4.5"/>
<path class="st0" d="M1069.4,1002.9c1.3-5,2.7-9.9,4-14.9c20.8-10.8,9.1-63.4,13.9-83.2c1.9-1.4,3.7-2.8,5.6-4.1
	c2.4-9.6-9.3-12-12.4-17.9c-1.6-6.1-3.2-12.1-4.8-18.2c-10.1-11-31.1-1.6-43.8-6.8c-14.9-9.5-29.7-19-44.6-28.5
	c-21.6-9.7-45.7-12-67.8-21.2c-13.9-5.8-55.3-4-46.5-32.8c6.3-8.6,61.3-18,60.5-34.5c-3.6-4.3-7.3-8.5-10.9-12.8
	c-3.1-9.6-6.2-19.2-9.3-28.8c-7.4-6-7.6-9-10.6-16.8"/>
<path class="st0" d="M1107,924.6c-1.8-2.5-2.4-3-5.2-1.8c-5.6,8.6,8.4,18.9,9.3,26.9c1,9.1-8.3,33.9-16.4,38.8c-9.5-1-19-2-28.4-3.1
	c-24.7,3.2-48.8,11.8-74.1,13.8c-9.9,1.8-19.8,3.6-29.6,5.4"/>
<path class="st0" d="M887.5,989.6c4.6-6.6,3.1-16.9,3.1-24.9c-0.4-35.1-3.1-40.1-33.7-57.8c-13.4-7.7-37-16.1-49.1-0.8
	c-11.6,14.5,1.3,26.1,6.1,38.7c-2.2,5-4.3,10-6.5,14.9c-2.6,1.1-15.8,3-14.1,7.7"/>
<path class="st0" d="M698.3,883.1c19.7-2.6,51.3,25.1,57.9,42.1"/>
<path class="st0" d="M731.9,890.8c19.1-5.2,24.7,10.8,39.9,19.8c10.3,4.2,20.6,8.4,31,12.5c7.8,3.7,15.7,7.5,23.5,11.2
	c7.2,15.7-3.9,40,1.6,54.1"/>
<path class="st0" d="M825.5,936.2c18.9-2.2,14.7,22.6,18.7,33.2c5.1,2.6,18.2,8.3,18.2,8.3"/>
<path class="st0" d="M842.1,953.7c6.1,2.6,12.2,5.3,18.3,7.9c6.5,11.5,12.9,23,19.4,34.5"/>
<path class="st0" d="M838,942.1c5,0.7,34.5,3.9,38,5.3c1,1.4,7.5,21.3,12.3,19.3"/>
<path class="st0" d="M1078.3,881.7c-12.8-1.3-25.6-2.6-38.4-3.8c-9.1-5.5-18.3-11-27.4-16.5c-15.2-6-44.6-4.3-60.5-0.9
	c-5.6-14.6-46.2-42.7-59.2-20.5c0.5,2.2,0.9,4.5,1.4,6.7c-1.1,4.4-38.1,3.8-43.4,11c0.3,1.8,0.6,3.5,0.9,5.3
	c-16.2,3.5-9.9,25.5-17.9,36.3c-0.1,0.5-0.2,1-0.3,1.5"/>
<path class="st0" d="M941,855.3c-12.7,5.5-48.5,14.6-48.3,34c0.1,8.9,14.4,16,11.1,26.2c-3.6,6.4-17.3,28.1-14.1,36.3"/>
<path class="st0" d="M903.2,905.1c11.2,7.3,8.3,18.5,20.1,25.5c11.7,3.5,23.4,7,35.1,10.6"/>
<path class="st0" d="M946.5,859.4c-1.3,8.5-2.5,17-3.8,25.4c-2.3,3.1-25.4,16.3-30.7,14c-1.2-1.1-2.4-2.2-3.6-3.3"/>
<path class="st0" d="M1276.3,903.4c2.7-8.2-4.5-14-3.9-21.7c1.2-16.5,13.4-36.5,9.8-53.5c-2.3-11-9.1-18.3-13-28.5
	c17-15.1,55.8-36.7,45.2-64.3c-4.1-4.7-8.8-14.5-13.3-18.5c-5.4-4.9-10.7-2.1-13.8-10.2c0.8-3.4,1.7-6.8,2.5-10.3"/>
<path class="st0" d="M1318.2,743.9c2.2-8.9-3.1-12.7-3.2-20.7c0,0,22.8-23,24.6-25.6c-0.6-4.3-1.2-8.6-1.8-12.9"/>
<path class="st0" d="M1313.5,725.3c-0.9-5.1-1.8-10.3-2.8-15.4c1.5-2.5,2.9-5,4.4-7.5c1-6.9-8.7-19.2-8.7-19.2"/>
<path class="st0" d="M1322.9,738.9c4.4-4.9,8.8-9.8,13.2-14.7c0.1-3.4,0.2-6.7,0.2-10.1c4.1-2.6,8.1-5.3,12.2-7.9"/>
<path class="st0" d="M1275.3,888.6c9.2-10.3,18.5-20.6,27.7-30.8c3.1-13.7,6.3-27.4,9.4-41.1c4.3-8.5,16.9-15.8,15.2-27
	c-5.4-8-10.7-15.9-16.1-23.9"/>
<path class="st0" d="M1252.4,935.8c-6.8,0.1-13.6,0.2-20.4,0.2c-0.1-0.2-0.2-0.5-0.3-0.7c2-6.6,10.8-13.1,8-20.3
	c-11.9-9.6-24.4-13.4-34-27c-3.7-8.7-7.4-17.3-11.1-26"/>
<path class="st0" d="M1228.3,945.5c-19.4-5.9-81.5,8.4-90.5-14.9"/>
<path class="st0" d="M1109.3,950.5c6.4-7.6,12.8-15.2,19.2-22.8c0.1-3.4,0.3-6.9,0.4-10.3"/>
<path class="st0" d="M1094.1,895.8c30.6-23.5,2.3-64.1,22.2-91.3c6.2-4.3,11.4-4.4,16.3-11.2c-0.4-1-0.7-1.9-1.1-2.9
	c0.8-15.3,87.4-33,103.4-36.4c0.3-1.1,0.7-2.1,1-3.2c-5.1-13.2-19.8-10.2-30.4-15.9c-5.2-8.2-10.4-16.5-15.6-24.7"/>
<path class="st0" d="M1225.2,742.4c-15.7,8.6-22.5-0.9-37.9,0.2c-1.7-0.2-3.4-0.4-5.1-0.7"/>
<path class="st0" d="M1217.4,742.9c1.2-6.7-4.6-15,3.3-20.4c0.4-0.3,0.9-0.5,1.3-0.8"/>
<path class="st0" d="M1098.4,891.8c6.4-4.6,12.7-9.2,19.1-13.8c4.9-4.8,6.3-18.3,14.5-20.1c-13.8-35.9,48.5-34.7,68.1-46.6
	c5.9-9.5,11.8-19,17.6-28.5c11.2-7.8,22.4-15.5,33.6-23.3"/>
<path class="st0" d="M1130.6,861.6c6-0.5,12-1,18-1.4c8.6-3.2,10.8-11.8,26.3-15.1c7.7-18.2,18.5-27.2,18.5-27.2"/>
<path class="st0" d="M1175.7,843.9c15.1-1.9,19.4-10,30.9-16.3c7-1.8,14-3.6,21-5.3c2.9-3.1,5.9-6.1,8.8-9.2
	c4.4-1.3,8.9-2.6,13.3-3.9c2.5-1.1,23.6-10,22.4-13.1"/>
<path class="st0" d="M1238.1,770.8c15.7,4.4,52.6,2.1,48.4-23.5c-2.2-13.3-14.4-14.3-19-26.2"/>
<path class="st0" d="M1287.3,752.3c5.4-1.3,19.8-7.2,19.8-7.2"/>
<path class="st0" d="M1126.6,938.1c4.8-3.5,9.6-7.1,14.4-10.6"/>
<path class="st0" d="M1028.7,993.3c2.4-3.8,18.7-22.8,18.7-22.8"/>
<path class="st0" d="M1075.7,864.3c7-2.9,16.6-11.6,13.4-20.2c-3-1.8-6-3.7-9.1-5.5c-5-4.7-1.8-15.6-2.1-21.7c3.5-1.5,7-3,10.5-4.6
	c2.1-15.6-26.7-31.2-15.5-46.4c13.8-3-5.9-18.7-9.8-25.1c-8.6-13.9-47.7-47.7-50.4-61.4c0-0.3,0-0.5,0-0.8
	c1.4-5.4,2.9-10.9,4.3-16.4c-0.3-10.4-0.7-20.8-1-31.3c2.1-3.3,4.1-6.6,6.2-9.9c1.8-1.4,3.5-2.8,5.3-4.2c0,0,6.4-14,9.6-21
	c4.6-2.1,9.1-4.2,13.7-6.2c7.6-4.9,24.3-29.4,24.3-37.5c-2-3.2-4-6.5-6.1-9.7c-2.7-1.8-5.3-3.6-8-5.3"/>
<path class="st0" d="M1114.5,648c-8.1,1.8-26.9-7.7-39.4-8.1c-8.9-0.3-11.3,6.9-17.9,9.5c-13.5,3.4-27,6.8-40.4,10.2
	c0,0-8.4-7.5-10.9-12.5c-0.5-3.6-0.9-7.1-1.4-10.7c-3.1-4.1-10.7-2.1-12.1-8"/>
<path class="st0" d="M1021.2,644.4c6.3-0.6,12.6-1.1,18.8-1.7"/>
<path class="st0" d="M982.2,679.5c-6.9-0.6-13.9-1.2-20.8-1.8c-1.8-1.2-3.6-2.4-5.4-3.6c0,0,17.5,24.3,26.3,36.4
	c20.3,29.8,55.4,53.3,90.5,59.5"/>
<path class="st0" d="M1080,819.1c-6.4-18.5-28.2-15.8-39.5-25.3c-2.1-1.8-25.7-30.3-27.3-32.9c-14-22.3,0.2-48.8-8.4-71.2
	c-7-3.7-14-7.5-21-11.2c-4.7-5.5-8.5-20.2-8.5-20.2"/>
<path class="st0" d="M1015.2,697.8c-0.2-1.3-0.4-2.5-0.6-3.8c-3.6,0.4-7.2,0.8-10.8,1.2"/>
<path class="st0" d="M1044.6,762c2.1-4.2,11.5-20,8.4-24.4c-28.8-9-46.6,2.7-70.3-1.5c-10.6-1.9-16.6-17.9-24.5-23.5
	c-9.4-6.7-26.9-2.6-37.2-1.4c-9.3,1.1-23.6-6-31.3-10.8c-1.2-0.4-2.4-0.8-3.6-1.2"/>
<path class="st0" d="M1054.6,861.3c-6.5-8.5-17.6-10.3-23.9-20.2c-7-11-11.9-54-27.2-59.5c-8.3-3-16.6,0.1-24.3-1.9
	c-1.8-2-3.5-4.1-5.3-6.1c-5.3,2-10.6,4.1-15.8,6.1c-9.1-3.8-13.4,2.8-22.2,3.7c-4-1.9-6.2-5.1-10.9-3.1c-3.2,2.2-6.5,4.4-9.7,6.6
	c-6.4-2.6-12.7-5.3-19.1-7.9"/>
<path class="st0" d="M964.4,820.6c-5.4-5-14.5-21.3-12.7-29.6c1.4-2.9,2.8-5.7,4.2-8.6c-0.7-1.9-1.5-3.7-2.2-5.6"/>
<path class="st0" d="M938.1,809.9c-3.5-0.6-26.3-18.5-19.5-23"/>
<path class="st0" d="M1043,878.9c-14.4,12-25.8,2-40.1,1c-9.1,1.7-18.1,3.4-27.2,5.1c-4.4,3.9-8.8,7.8-13.3,11.7
	c-5.8,16.8,0.6,44.4,0.6,44.4"/>
<path class="st0" d="M969.1,731c-2.7,0-5.4,0.1-8,0.1c-0.6,0.7-1.2,1.4-1.8,2.1c-3.3,8.1,4,15.6-4.5,21c-0.7,0.5-1.3,1-2,1.6
	c-5.2-0.1-10.4-0.2-15.6-0.3c-10.6,4.3-22.4,14.4-34.3,13c-2.2-0.1-4.3-0.1-6.5-0.2"/>
<path class="st0" d="M896.2,832.8c-21.5,9.7-39.7-2.3-60.4-0.2c-16.1,2.9-32.3,5.8-48.5,8.8c-14.9-3.5-31.8-8.2-48.6-4.5
	c0,0-21.4-12.1-32.6-16.7c-14-5.8-29.1-4.6-42.7-13.2c-10.3-7.7-20.6-15.4-30.9-23.2"/>
<path class="st0" d="M848.2,859.4c-8.9-3.8-17.8-7.7-26.8-11.5c-10.9-1.5-24.2,3.8-36,3.1c-4.2-0.3-8.2-4.5-13.6-4.7
	c-10.9,0.5-21.9,1-32.8,1.5c-3.6-5.2-9.7-16.9-8.5-26.1c6.2-8.4,38.3-8.7,49-11c2.8,1.8,5.5,3.6,8.3,5.4c15.2-0.6,61.5-17.2,65.4-34
	c1.3-5.8-2.7-7-4.5-11.6c6.4-5.9,12.9-11.8,19.3-17.7c14-27.7,17.1-59.4,7.2-90.2c-8.2-25.4-62.3-42.1-68.4-74
	c1.6-6.2,3.2-12.4,4.8-18.5c-0.7-32.7-85.3-37.4-100.4-56.9c-5.6-2.3-9.8,3.8-15.6,4.2c-3.7-0.7-7.3-1.5-11-2.2"/>
<path class="st0" d="M702,512.6c-2.9-3.1-5.8-6.2-8.7-9.4"/>
<path class="st0" d="M827.5,617.3c-1.5-5.8-2.9-11.6-4.4-17.5c1-0.3,1.9-0.5,2.9-0.8c1.4-3.7,2.8-7.4,4.2-11.1
	c0.9-6.5-8.4-7.3-10.6-12.2c-0.9-4.7-1.8-9.4-2.7-14.2"/>
<path class="st0" d="M879.5,686c-12-9.2-39.9,2.2-54.6-1.7c-6.4-4.8-12.9-9.7-19.3-14.5"/>
<path class="st0" d="M733.3,823.5c1.4,0.3,2.8,0.7,4.3,1c-1.7-0.1-3.3-0.3-5-0.4c-7.8-0.9-31.2-4.3-35.6-13
	c-0.1-0.4-0.2-0.8-0.2-1.3"/>
<path class="st0" d="M687.1,814c41,2,85.4-2.7,123.4-18.9c8.7-3.7,33.1-9.6,37-19.5c7.3-18.8-18-55.6-26-71.8
	c-9.1-18.5,8.3-38.7,2.9-58.5c-4.5-16.7-32.5-31.9-41.4-55c-7.3-0.7-14.6-1.3-21.9-2c-5.9,0.2-41.2,11.5-41.4,16.6
	c-1.8,50.6,59.8,36.1,49.7,9.8c-7.9-7.4-25.9-4.6-35.5-2.2c-1.4,0.1-2.8,0.3-4.2,0.4"/>
<path class="st0" d="M592.1,714.3c-0.3-3.2-0.6-6.4-0.9-9.6c3.9-4.6,7.8-9.1,11.7-13.7c7.1-4.1,39-8.5,43.7-17
	c4.4-17.9-10.7-17.8,12.6-28c7-9.5,6-41.5,26.5-33c8.3,3.4,10.1,10,20.5,12.2c7.4-0.6,14.9-1.2,22.3-1.8"/>
<path class="st0" d="M721.1,609.6c-2.9-5.1-9.4-10.1-15.6-10.1c-0.9,0.2-1.7,0.4-2.6,0.5c-0.7,0.4-1.4,0.8-2,1.1
	c-7.6,6.2-19.5,7.3-28.9,8.2c-1.1-0.2-2.2-0.4-3.2-0.6"/>
<path class="st0" d="M700.7,606.2c-2.5-5.2-5.1-10.4-7.6-15.6c1.5-2.6,3-5.3,4.5-7.9c2.1-1,4.3-1.9,6.4-2.9"/>
<path class="st0" d="M692.6,591c-6.3-10.3-14.1-13.3-18.7-25.3"/>
<path class="st0" d="M675.8,571c-6.7-18.9-14.7-18.3-26.2-31.7c-3.5-4.1-16.3-17.4-16.3-17.4"/>
<path class="st0" d="M653.6,650.3c-5.3-9.8-10.6-19.5-15.8-29.3c2.2-1.3,4.5-2.7,6.7-4c-0.3-4.8-0.7-9.5-1-14.3
	c1.8-3.8,3.6-7.5,5.3-11.3c-1.3-11.7-9.7-25.1-16.7-34.2c-5.8-7.5-12.7-11.1-16.5-20.5c-0.4-1.8-0.8-3.6-1.2-5.5"/>
<path class="st0" d="M684.7,595.6c0.3-1.5,0.6-3,0.9-4.4c-10.1-2.8-33.9-1.6-44.8,1.6c-2,2-3.9,4.1-5.9,6.1
	c-16.6-18.1-32.5-12.1-53.1-14.6c-8.4-2.2-16.9-4.4-25.4-6.6c-10.6-1-25.8-10.1-25.8-10.1"/>
<path class="st0" d="M599.8,689.8c1.6-0.1,3.1-0.1,4.7-0.2c2.1-12.4,2.7-23.4,1.4-35.3c12.1-8.4,17.5-18.8,26.5-29.1
	c1.5-0.7,2.9-1.4,4.4-2.2"/>
<path class="st0" d="M839.5,736.2c-20.5,4.8-31.1-6.4-49.9-7c-10.4,4.3-20.9,8.5-31.3,12.8c-17.9,10-34.6,31.9-41.6,51.5
	c-4.1,6.2-8.3,12.4-12.4,18.6"/>
<path class="st0" d="M1027.9,615.4c5.8-1.8,11.7-3.5,17.5-5.3c0-15,28.5-22.6,39.6-22.6c1.7-1.1,3.3-2.2,5-3.3"/>
<path class="st0" d="M1004.7,636.8c-2.6-7.7-5.3-15.4-7.9-23.2c-4.5-3-9-5.9-13.6-8.9c-7.3-5.5-30.1-43.6-30.1-50.9
	c3.9-3.5,7.8-7,11.7-10.5c-0.2-4.1-0.4-8.1-0.5-12.2c1.8-3.3,3.6-6.6,5.5-9.9c-0.1-2.4-0.3-4.8-0.4-7.2"/>
<path class="st0" d="M1012.9,678.2c-3.5-6.9-9.6-18-14.1-24c-2.4-2.1-22.9-10.6-25.1-10.6"/>
<path class="st0" d="M998,643.3c-8.6-4.4-35.5-13.4-42.4-18.5c-7.5-5.6-13.7-17.6-21.2-22.6c-6.9-4.5-19.5-4.2-22.9-10.7"/>
<path class="st0" d="M966.7,695c-8.8-7.8-33.2-10.2-46.4-16.1c-0.6-0.6-1.2-1.3-1.9-1.9"/>
<path class="st0" d="M1002.4,1074.5c24.8-11.6,98,29.6,132.8,29.6"/>
<path class="st0" d="M1015.1,1070.6c33.3-20.4,53.3,0.9,86.7-4.6c4.7-2,9.4-4.1,14.1-6.1c10.5-1.2,21-2.3,31.4-3.5"/>
<path class="st0" d="M960.8,1186.9c8.8,4.8,17.6,9.6,26.3,14.4c3.1,6.1,8.2,42.7,6.5,48.6c-2.9,4.1-5.9,8.1-8.8,12.2
	c-1.3,3.8,1.7,16.5,1.7,16.5"/>
<path class="st0" d="M995.8,1222.9c8.9,8.7,42.5,14.8,42.5,29.9c-5.4,4.9-4.6,11.4-8.3,16.4c-8.7,3-17.4,6-26.1,9"/>
<path class="st0" d="M1082.1,1179.6c-18-11.7-21.5-1.6-38.3,2.2c-13.1,3-33.1,2.5-45.6-0.9"/>
<path class="st0" d="M1084.3,1210.5c0,0-61.6-14.1-48.9-14.1"/>
<path class="st0" d="M1587.2,959.5c-1.3-3.2-2.6-6.4-4-9.6c5.4-4,7-9.8,13.8-12.3c12.3-4.6,28.5-2.1,39.4-12.3
	c11.7-11,13.2-28.7,23.7-40c-0.8-2.7-1.5-5.5-2.3-8.2"/>
<path class="st0" d="M1605.2,937c-3-18.5,15.7-25.1,19.6-35.7c-0.2-2.2-0.5-4.3-0.7-6.5"/>
<path class="st0" d="M1569.9,822.5c-8.7,0,8.5,14.5,9.5,16.1c0,20.1-26.9,21-39.9,28.7c-12.4-1.6-24.8-3.2-37.3-4.7
	c-9.2,1.6-18.4,3.2-27.5,4.9c-11.9,0-36.5-0.8-36.6,15.1c0,0-2.3,7.6-3.4,11.4c2.6,5.9,15.8,12.1,20,18.9c0.4,0.6,7.9,46.1,7.7,47
	c-2.9,15.7-23.3,30.9-17.4,48.8c4.7,3.2,15.7,9,19.6,13.3c0,8.3,0,16.6-0.1,24.9c2.9,4.3,21.8,13.7,27.3,11.1
	c5.4-2.5,13.8-5.6,19.8-2.6c6.2,3.1,7.3,11.7,9,17.1c2,2,4,4.1,6,6.1"/>
<path class="st0" d="M1510.1,850.2c7.4-13.3,71.1-36.3,81.8-35.1c13,1.5,21.1,13,29.8,19.5c3-0.8,5.9-1.5,8.9-2.3
	c5.9,8.8,15,12,25.7,14c0.3,0.5,0.6,1,1,1.5"/>
<path class="st0" d="M1474.5,862.6c21.5-22.4,55.8-32.8,61.3-65.3c6.3-3.3,12.7-6.7,19-10c4.4-19.6,19.7-25.6,19.7-48.8
	c5.9-6.6,13,2,18.1,2c8.9-9.4,18.7-38.2,15.7-51.5c-1.4-1.7-2.9-3.4-4.3-5.1"/>
<path class="st0" d="M1578.5,729.3c-3.9-15.9-11.1-27.8-13.6-44.2c-2.8-1.9-5.7-3.7-8.5-5.6"/>
<path class="st0" d="M1420.9,871.6c6.3-6.1,27.7-14.2,31.3-18.7c2.8-12.5,11.3-16.8,15.2-28.3c6-4.5,11.6-2.8,18.2-2.8
	c3.7-4.3,7.5-8.5,11.2-12.8c13.7-11.5,17.8-3.9,28.3-22.7c1.1-6.2,2.1-12.3,3.2-18.5c5.2-7.8,11.8-13.6,9.7-24.3
	c-2-10.3-10.5-14.2-10.5-25.4c1.6-1.7,3.2-3.3,4.8-5c1-9.7,2.1-19.5,3.1-29.2c1.4-2.1,2.8-4.2,4.2-6.4c-2.9-1.4-5.7-2.8-8.6-4.1"/>
<path class="st0" d="M1464.9,891.2c-1.6,21.7,17.5,32.9,22.6,51.3c5.4,19.3-3.8,39.2,2.5,52.9c8.4,8.1,16.8,16.3,25.1,24.4
	c-0.4,3.4-0.7,6.7-1.1,10.1c8.5,11.5,24.1,15.7,37.7,15.7"/>
<path class="st0" d="M1494.8,901.9c0.2,3.1,0.3,6.2,0.5,9.3c4.6,8.1,16.4,7.1,21.9,13.5c3.9,4.6,12.5,37.2,15.6,46.5
	c3.4,10.1-18.2,22.1-6.5,33.6c5.1,5,11.1,3.2,17.3,5.2c6.7,3.9,13.4,7.8,20.1,11.7c10.3,1.9,20.5,3.9,30.8,5.8
	c8,2.1,16.1,4.1,24.1,6.2"/>
<path class="st0" d="M1544.1,990.1c11,7,21.9,13.9,32.9,20.9c3.1,8-7.3,34.2-7.1,34.4"/>
<path class="st0" d="M1315,868.4c17.4,1.3,75.7-5.4,88.1,2c2.3,3.7,4.7,7.4,7,11"/>
<path class="st0" d="M1339.9,867.5c15.5-9.5,27-23.3,40-33.9c10.8-8.9,28.8-12.8,37.9-24.2c0.5-6.2,1.1-12.5,1.6-18.7
	c3.9-5.8,19.7-25,28.1-25c-0.5-6.5-1-13.1-1.6-19.6c15.6,0,53.3-13,53.3-32.1"/>
<path class="st0" d="M1346.1,845.4c-2.3-13.1,5.9-18.5,6.5-30.1c16.7,7,36.7-39.9,36.7-56.5c-10-15-1.7-1.1-0.9-18
	c0.3-2.1,0.7-4.3,1-6.4"/>
<path class="st0" d="M1301.9,953.9c-2.9-1.4-17.2-8.8-19.6-9c-10.6,4.1-21.2,8.2-31.7,12.3"/>
</svg>
