<?xml version="1.0" encoding="utf-8"?>
<!-- Generator: Adobe Illustrator 19.2.1, SVG Export Plug-In . SVG Version: 6.00 Build 0)  -->
<svg version="1.1" id="Ebene_1" xmlns="http://www.w3.org/2000/svg" xmlns:xlink="http://www.w3.org/1999/xlink" x="0px" y="0px"
	 viewBox="0 0 1920 822" style="enable-background:new 0 0 1920 822;" xml:space="preserve">
<style type="text/css">
	.st0{fill-rule:evenodd;clip-rule:evenodd;fill:none;}
</style>
<path class="st0" d="M1242.4,0c-14.9,25.3-39.5,25.3-54.4,45.7c-16.9,23.2-10.6,59.2-18.3,85.4c-6.8,13-13.6,26.1-20.4,39.1
	c0.7,7.5,1.4,14.9,2,22.4c0.9,36.6,4.6,73.9,14.8,109.2c2.5,8.6,15.7,27.1,15.2,34.4c-7.2,32.9-14.5,65.8-21.7,98.7
	c-3,10.7-14.1,17.4-13.9,29c0,0,12.2,6.8,15.6,13c18.4,33.4-14.9,42.3-25.5,64.2c-5.3,10.9-4.1,25.8-12.3,35.1
	c-9.7,5.9-19.4,11.9-29.1,17.8c2.5,11.5-7.5,48.9-12.2,60.4c-0.9,11.8,14.8,35.5-1.9,42c0,0-21.3,32.7-45.3,42
	c0.9,4.2-6.9,15.1-7.5,12.1"/>
<path class="st0" d="M1150,179.4c-6.3-4.7-16.9-48.9-16.3-59.5c0.8-12,6.1-21.8,5-34.5c-1.2-13.7-7.8-26.9-8.6-40.2
	c-0.5-8-15.9-45.2-18.4-45.2"/>
<path class="st0" d="M1152.4,0c-10.2,0-18.1,46.9-22.6,55.6c0,0-32-55.6-50.4-55.6"/>
<path class="st0" d="M1152.2,190.4c6-11.7,4.8-33.6,13.5-42.3c17.3-17.2,32.1,12.2,42.5,18.5c12.1,5.3,24.2,10.7,36.3,16.1
	c2.8,5,5.6,10,8.4,15c5.8,6.9,31.3,27.3,39.6,30.1c12.2,4.1,38.9-11.8,47.9,5.2c0,2.4,0,4.8-0.1,7.2c-0.8,0.3-1.6,0.6-2.4,0.9
	c0,10.5,1.7,22.3,1.7,33.2c8.2-4,16.4-7.9,24.6-11.9c2.7,4.5,5.3,8.9,8,13.4c3.1-7.8,6.3-15.5,9.4-23.3c1.5-0.1,3-0.2,4.5-0.3
	c8.1-10.8-0.3-13,15.5-16.5c2.3-3.6,25.6-42.2,25.6-42.2c0.4,0,0.8,0,1.3,0c-0.4-0.2-0.8-0.5-1.1-0.7"/>
<path class="st0" d="M1254.8,191.4c6.8-0.9,11.2,3.9,17.7,5.7c8.3-0.5,16.6-0.9,24.9-1.4c9.8-1.4,11.6-11.8,24.4-10.6
	c7.2,6.4,11.8,14.4,23.3,14.4c0.3,0.7,0.6,1.5,0.8,2.2"/>
<path class="st0" d="M1378.3,253.3c-1.2-39.3,9.4-50.5-16.5-85c-6.8-1.1-13.6-2.2-20.4-3.4c-1-0.7-2.1-1.4-3.1-2.1"/>
<path class="st0" d="M1422.1,204.7c-1.8-15.2-3.6-30.4-5.4-45.5c-6.2-9.7-52.3-15.8-56.2-11.8"/>
<path class="st0" d="M1376.9,143.1c-6.2,0.6-6.8-10.4-11.2-13.4"/>
<path class="st0" d="M1409.2,274.1c3.7-15.9,7.4-31.8,11.1-47.8c11.2,0,9.4-17.5,9.6-25.3c-2.2-14.7-4.4-29.5-6.5-44.2
	c1.5-11.8,11-21.2,11-33.1c1.7-1.7,3.4-3.4,5.1-5.1c4.3-1.4,22.9,3.9,22.9-4.9"/>
<path class="st0" d="M1424,151.4c-3.3-7.6-6.7-15.2-10-22.8c-5.1-1.3-10.1-2.6-15.2-3.9c-4.5-5.5-9-11.1-13.5-16.6"/>
<path class="st0" d="M1423.1,142.3c0.6-12,8.6-19.5,10.5-30.6c-0.7-6.5-1.4-13-2-19.5c2.7-5,5.4-9.9,8.1-14.9"/>
<path class="st0" d="M1431.1,94.7c-2.1-5.6-4.2-11.3-6.3-16.9c-1.1-0.6-2.2-1.2-3.3-1.8"/>
<path class="st0" d="M1233.9,645.1c5.6-11.1,15.8-8.8,24.5-13.7c2.1-3.7,2.5-4.2,1.7-9.2c0,0-3.4-15-5.1-22.5c1.5-7,2.9-14,4.4-20.9
	c-0.2-10.8-0.3-21.6-0.5-32.4c4.4-11.1,8.8-22.1,13.2-33.2c0.8-7.1,1.7-14.1,2.5-21.2c5.7-9.8,19.4-17.9,26.8-27.7
	c1.2,0,2.5,0.1,3.7,0.1c9.1-7.7,11.9-26,16.7-32.4c1.6-0.4,24.7-38.1,26.2-43.8c-0.1-7.5-0.2-15.1-0.3-22.6c0,0,42.5-55.3,42.5-55.3
	c1.2,0.1,2.5,0.2,3.7,0.4c3.8-3.2,5.1-8.2,10.4-8.2c1.6-9.4,3.2-18.9,4.9-28.3c10.3-2.6,19.9-19.5,24.6-28.7
	c8.9-17.4,23.7-29.8,33.6-44.4c3.2-8.8,6.3-17.6,9.5-26.4c3.4-6.8,6.9-13.5,10.3-20.3c-0.3-1-0.5-2-0.8-3c0.7-0.7,1.5-1.5,2.2-2.2"
	/>
<path class="st0" d="M1475.3,176.7c-5.8-13.9-4.5-18.2-4.5-32.1"/>
<path class="st0" d="M1455.8,218.5c1.4-0.3,2.7-0.6,4.1-1c4.4-3.2,8.9-6.3,13.3-9.5c3.8-1.7,48.7-10.2,48.7,3.2"/>
<path class="st0" d="M1505.6,203.5c4.6-1.5,10.5-14.6,10.5-14.6"/>
<path class="st0" d="M1469.4,195.8c10.8-8,37.8-14.5,50.4-14.5c2.6-0.7,5.1-1.4,7.7-2.1"/>
<path class="st0" d="M1470.4,189.9c4.7-4.9,28.5-24.9,26.1-34.2"/>
<path class="st0" d="M1463.6,104.4c10.1-8.3,14.8-1.8,24.9-6c4.2-3,28.1-45,29.5-50.3c0-0.1,0-0.1-0.1-0.2"/>
<path class="st0" d="M1192.5,779.5c-0.9-21.5,10.4-23,25-29.7c12.3-5.7,21.2-18.7,35.7-20.7c28.4-3.9,58.1,7.6,86.8,2.6
	c10.6-4.3,21.1-8.7,31.7-13c6.1-5.6,7.2-21,15.6-25.1c5.9-2.9,22.6-4.6,22,7.2"/>
<path class="st0" d="M1191.8,774c-3.3-19.6-4.5-54.9,23.2-58c11.6-1.5,23.2-3,34.8-4.4c11.4-13.1,16.5-29.9,35.5-35.2
	c8.2-1.9,16.5-3.8,24.7-5.6c5.6-4.8,11.2-9.6,16.8-14.3c22.4,1.2,30.2,25.3,48.4,32.2c13.5,5.1,69.1-3.8,84.6-9.7"/>
<path class="st0" d="M1329.4,657.9c6-8.7,37.1-15.1,47.1-9.5c5.7,5.3,11.4,10.6,17.1,16c16.8-3.5,33.5-7.1,50.3-10.6"/>
<path class="st0" d="M1339.9,650.4c3-14.2,21-18.6,29.1-29c3.1-5.8,6.3-11.6,9.4-17.4c3.9-3,10-4.3,14.8-3.2
	c9.8,2.1,18,17.4,28.3,20.9c14.4,0.8,35.6-16,49.4-3.5c0.7,1.4,1.5,2.8,2.2,4.3"/>
<path class="st0" d="M1317.7,664.6c1-44.7,13.7-85,22.9-127.9c1.8-8.5-2.7-17.2-1-24.9c2.8-12.1,12.2-21.8,14.5-34.5
	c2-11.2-5.7-60.3-1-65c1.3-0.8,2.5-1.7,3.8-2.5"/>
<path class="st0" d="M1359.4,481.7c-1.2,0-2.5,0-3.7,0c0-0.1-0.1-0.2-0.1-0.3c11.3-15.2,23.7-8.8,37.6-16.9c3-3.1,6-6.2,9-9.4"/>
<path class="st0" d="M1338.8,550.3c3.6-14.3,18.2-13.4,25.6-23.3c4.6-14.2,9.3-28.3,13.9-42.5c6.2-5.7,22.8-14.4,30.8-11.8
	c1.3,0.1,2.7,0.1,4,0.2"/>
<path class="st0" d="M1355.1,470.1c11.2-9.3,12.9-23.7,24.1-33.2"/>
<path class="st0" d="M1321.6,659.4c9.1-11.3,18.1-22.7,27.2-34c4.8-3.6,9.6-7.3,14.4-10.9c-0.1-6.3-0.1-12.7-0.2-19
	c5.7-21.1,23.4-45,37.1-62.4c11.7-13.4,23.4-26.8,35.1-40.3"/>
<path class="st0" d="M1366.7,605.9c4.1-6.7,9.9-16.7,8.1-25c1.5-6.3,66.8-21.5,60.2-52"/>
<path class="st0" d="M1259.7,564.6c2.9-19.4,59-32.2,64.9-43.2c6-11.4,5.9-31.4,17-39.7c1.4-1.2,2.8-2.5,4.2-3.7"/>
<path class="st0" d="M1278.5,544.1c10.3-10.8,20.6-21.5,30.9-32.3c1.4-10.1,2.7-20.2,4.1-30.3c7.5-3.5,15-7,22.5-10.5"/>
<path class="st0" d="M1289,532.1c8.4-17.7,18.3-27.5,14-47.2c2.7-7.5,14-8.8,14-8.8"/>
<path class="st0" d="M1089,680.4c8.7-8.4,8.7-21.5,15.9-29.4c7.4-4.5,14.7-8.9,22.1-13.4c6.6-6.7,13.2-13.4,19.7-20.1
	c36.9-16.4,80.7,17.1,103.6,42c4.8,5.3,39.5,14.8,39.6,18.6"/>
<path class="st0" d="M1251,655c17.6-14.7,50.8,15.3,41.9-25.5c-5.8-12.4-22.8-7-32.9-7.3c-13.2-13.8-29.8-6.6-44.3-1
	c0,1.4,0,2.9,0,4.3"/>
<path class="st0" d="M1234.4,614.2c-7.7-2.7-15.4-5.5-23.1-8.2c-2.7-5.6-5.4-11.2-8.1-16.8c-6-8.4-30.1-7.4-38.1-3.2
	c-7.1,3.7-19,27.1-19,27.1"/>
<path class="st0" d="M1134.3,611.4c4.4-28.9,34.9-26.5,50.1-46.6c2.8-10.2,5.7-20.5,8.5-30.7"/>
<path class="st0" d="M1268.3,520.6c-8-20.4,27.6-98.8-8-107.5c-6.7,2-13.4,4-20.1,6c-7.7,1-16.2-2.4-23.4,2.5
	c-18.2,12.2-22,82.8-13.4,99.9c5.6,8.8,11.2,17.5,16.8,26.3c0.2,7.8-16.4,31.8-24.5,32c-0.7,0-1.4,0.1-2.1,0.1"/>
<path class="st0" d="M1212,566.9c3.8,8.6,7.6,17.3,11.4,25.9c-1.8,2.8-11.1,16.3-6.1,18.5"/>
<path class="st0" d="M1314.7,222.7c-4.6,13.6-9.2,13.8-18.2,22.9c-9.2,9.3-11.2,32-9.8,44.9c1.6,14.9,11.6,29.1,16.6,42.3
	c0.8,7.9,1.6,15.8,2.4,23.7c3.7,10.6,8.1,18.9,10.5,30.2c5.6,6,11.2,12,16.8,18"/>
<path class="st0" d="M1289.4,261.2c5.9-0.1,11.7-0.1,17.6-0.2c3-4.6,6-9.2,8.9-13.8"/>
<path class="st0" d="M1261.9,412.9c-7.8-37.6-33.3-60.7-51.8-92.2c-12.7-21.6-17.3-47.2-30.7-68c-5.9-3.9-11.9-7.7-17.8-11.6
	c-3.5-5.4-7-10.8-10.5-16.1c0,0-16.2-21.5-19.8-35c0.3-3.6,0.5-7.2,0.8-10.8c-2-5.6-4-11.2-6-16.8c0.9-10.1,0.2-34-5.2-43.7
	c-13.6-24.5-13.7-12.6-28.9-19c-4.7-3.2-9.5-6.3-14.2-9.5c-5-2.2-10-4.3-15-6.5c-3.2-7.2,2.9-18.4-4.1-24.9
	c-12.5-11.5-59.6-30.2-63.1-46c-3.9-2.4-7.8-4.8-11.7-7.3c0-1.9,0.1-3.7,0.1-5.6c-2.8,0-5.7,0-8.5,0"/>
<path class="st0" d="M1152.1,217c33.6-35.4,54.2,43.8,65.6,39.4"/>
<path class="st0" d="M1244.4,368.3c-9.6,0.8-14.6-4.3-22.5-7.6c-1.7,0.4-3.4,0.7-5.2,1.1c-8.1,3.1-12.2,12.6-21.9,14
	c-4.5,0.6-22.5-1-22.5-1s-69.5,8.2-57.9,32c2.3,1.7,15.4,11.6,16.2,8.1"/>
<path class="st0" d="M1249.6,412.8c-7.9-2.9-25.7-21.1-34.2-17.8c-12.5,12.4-31.3,3-45.8,8.6"/>
<path class="st0" d="M1219.9,421c-19.3-2-38.2,32.2-58.2,25.6c-2.6-1.3-5.2-2.7-7.8-4"/>
<path class="st0" d="M916.5,747.3c4.2,3.6,6,5.2,11.2,3.2c11.7-13.1,24.3-2.8,38.5-0.9c5.8,0.1,11.7,0.2,17.5,0.2
	c4.4,2.6,8.8,5.3,13.2,7.9c11,2.1,19.4-6.1,32-2.2c0,0,10.3,15.6,17.7,23.1c6.8,2.4,47.8,6.7,54.7,3c11.2-6.1,22.4-12.3,33.6-18.4
	c22.6-0.6,26.1,18.6,44.6,23.1c21.4,5.3,44.7-5.7,67.2-1.3c7.7,1.5,9.6,11.7,15.4,15.6c12,2.2,24,4.5,36,6.7
	c5.1,4.3,10.2,8.7,15.3,13c1.6,0.2,3.1,0.4,4.7,0.6c0,0-0.6-3.4,3.1-8.7c5.3-8.9,10.7-17.7,16-26.6c9.6-8.3,22.4-9.6,30.2-19.7
	c3.2-4.1,1.9-23.2,1.6-23.1"/>
<path class="st0" d="M1312.6,818.2c-0.2-9.6-0.4-19.2-0.5-28.7c-8.3-19-29.6-22.9-34.8-43.4c-1.8-2.9-3.6-5.8-5.3-8.6"/>
<path class="st0" d="M1358.6,822c15.5-10.1,26.7,0.4,43.1-4.7c8-2.5,14-14,20-16.3"/>
<path class="st0" d="M1264.2,536.5c-0.3-1.3-0.6-2.6-0.9-3.9c-8.2,3.2-27.7,27.4-15.9,35.6"/>
<path class="st0" d="M1184.6,614.4c-40.8,4.1-42.2,91.1-64.1,114.3c-12.7,13.5-27.9,32.3-48.2,32.3c-4.8,0-37.3-5.6-37.8-8
	c-0.3-1.1-0.6-2.2-0.9-3.3"/>
<path class="st0" d="M1117.6,685.4c-6.1,0.9-14.4,4.4-17.9,10c0.6,2.9,1.2,5.8,1.8,8.7c34.4,34.6,134,14.6,120.8-46.4
	c-0.3-0.5-0.5-0.9-0.8-1.4c-0.3-0.4-0.7-0.8-1-1.2c-9-8.1-25.1-11.9-34.5-20.9c-5.3-5.1-5.7-12.1-11.9-16.3"/>
<path class="st0" d="M1127.6,751.8c-22.9-19.8-14.4-126.4,34.3-106.4c20.2,8.3,21.7,79,11.3,94.4c-4.7,7-13.4,21.8-21.3,24.8
	c-1.1,0.4-2.2,0.8-3.3,1.3"/>
<path class="st0" d="M1137.2,747.2c2.2,6.7,4.5,13.3,6.7,20c-0.1,9-10.7,54.8-13.7,54.8"/>
<path class="st0" d="M1136.4,810.8c14.9-16.6,47.8-47.3,72.4-36.9c8.4,5.4,18.3,48.1,35.3,48.1"/>
<path class="st0" d="M1190.3,788.3c1.9,2.4,43.4,29.6,46,28.6"/>
<path class="st0" d="M1180.3,789.9c7.1,12.7,21.2,20,32,28.3c1.8,1.3,3.6,2.5,5.4,3.8"/>
<path class="st0" d="M1032.9,735.9c-9.3,3.5-26.3-9.6-37.2-10.5c-17.9-1.5-24.9,12.1-38.3,18.8c-5.2,2.6-17.2,1.9-19,9.4
	c1,4.5-0.1,9.1,4.9,11.6c2.8,0,5.5,0,8.3,0c1.8,8.4,15.8,16.6,20,23.8c2.3,9,4.6,18,6.9,27.1c1.7,1.9,3.4,3.9,5.1,5.8"/>
<path class="st0" d="M1084.1,649.2c-8.4-2.6-37.5-0.1-45.3,6.7c-4.3,6.7-8.6,13.3-12.9,20c-9.9,4.6-19.8,9.3-29.7,13.9
	c-3.3,4.2-6.6,8.5-9.8,12.7c-12.8,4.3-25.6,8.5-38.4,12.8c-2.5,4.8-5.1,9.5-7.6,14.3c-16.1,11.2-32.1,22.4-48.2,33.5
	c-6.6-0.5-13.3-0.9-19.9-1.4c-5.7,4-3,13.4-11.7,14.2c-15.1-3.7-11.2,2-24.3,7.9c-4.8,2.2-9-0.2-14.4,3.7c-2.9,3.1-5.8,6.1-8.7,9.2
	C815.6,807.9,802,822,802,822"/>
<path class="st0" d="M923.7,752.9c-9.7,3.7-12,11.4-19.6,16.8c-9.4,6.7-19.3,8.6-29.4,12.5c-4.8,13.2-9.5,26.5-14.3,39.7
	c-1.2,0-2.4,0-3.5,0"/>
<path class="st0" d="M905.2,770.5c5.1,2.3,10.1,4.5,15.2,6.8c2.6,12.1-0.8,31.1,0.4,44.7c1.2,0,2.4,0,3.7,0c-0.1,0-0.1,0-0.2,0"/>
<path class="st0" d="M907.4,775.1c4.8,8-5.7,46.9-4.5,46.9"/>
<path class="st0" d="M1163.1,283.3c-5-1.3-9.9-2.7-14.9-4c-10.8-20.8-63.4-9.1-83.2-13.9c-1.4-1.9-2.8-3.7-4.1-5.6
	c-9.6-2.4-12,9.3-17.9,12.4c-6.1,1.6-12.1,3.2-18.2,4.8c-11,10.1-1.6,31.1-6.8,43.8c-9.5,14.9-19,29.7-28.5,44.6
	c-9.7,21.6-12,45.7-21.2,67.8c-5.8,13.9-4,55.3-32.8,46.5c-8.6-6.3-18-61.3-34.5-60.5c-4.3,3.6-8.5,7.3-12.8,10.9
	c-9.6,3.1-19.2,6.2-28.8,9.3c-6,7.4-9,7.6-16.8,10.6"/>
<path class="st0" d="M1084.8,245.7c-2.5,1.8-3,2.4-1.8,5.2c8.6,5.6,18.9-8.4,26.9-9.3c9.1-1,33.9,8.3,38.8,16.4
	c-1,9.5-2,19-3.1,28.4c3.2,24.7,11.8,48.8,13.8,74.1c1.8,9.9,3.6,19.8,5.4,29.6"/>
<path class="st0" d="M1149.7,465.1c-6.6-4.6-16.9-3.1-24.9-3.1c-35.1,0.4-40.1,3.1-57.8,33.7c-7.7,13.4-16.1,37-0.8,49.1
	c14.5,11.6,26.1-1.3,38.7-6.1c5,2.2,10,4.3,14.9,6.5c1.1,2.6,3,15.8,7.7,14.1"/>
<path class="st0" d="M1043.3,654.4c-2.6-19.7,25.1-51.3,42.1-57.9"/>
<path class="st0" d="M1051,620.8c-5.2-19.1,10.8-24.7,19.8-39.9c4.2-10.3,8.4-20.6,12.5-31c3.7-7.8,7.5-15.7,11.2-23.5
	c15.7-7.2,40,3.9,54.1-1.6"/>
<path class="st0" d="M1096.4,527.2c-2.2-18.9,22.6-14.7,33.2-18.7c2.6-5.1,8.3-18.2,8.3-18.2"/>
<path class="st0" d="M1113.9,510.6c2.6-6.1,5.3-12.2,7.9-18.3c11.5-6.5,23-12.9,34.5-19.4"/>
<path class="st0" d="M1102.2,514.7c0.7-5,3.9-34.5,5.3-38c1.4-1,21.3-7.5,19.3-12.3"/>
<path class="st0" d="M1041.9,274.3c-1.3,12.8-2.6,25.6-3.8,38.4c-5.5,9.1-11,18.3-16.5,27.4c-6,15.2-4.3,44.6-0.9,60.5
	c-14.6,5.6-42.7,46.2-20.5,59.2c2.2-0.5,4.5-0.9,6.7-1.4c4.4,1.1,3.8,38.1,11,43.4c1.8-0.3,3.5-0.6,5.3-0.9
	c3.5,16.2,25.5,9.9,36.3,17.9c0.5,0.1,1,0.2,1.5,0.3"/>
<path class="st0" d="M1015.5,411.7c5.5,12.7,14.6,48.5,34,48.3c8.9-0.1,16-14.4,26.2-11.1c6.4,3.6,28.1,17.3,36.3,14.1"/>
<path class="st0" d="M1065.2,449.5c7.3-11.2,18.5-8.3,25.5-20.1c3.5-11.7,7-23.4,10.6-35.1"/>
<path class="st0" d="M1019.6,406.1c8.5,1.3,17,2.5,25.4,3.8c3.1,2.3,16.3,25.4,14,30.7c-1.1,1.2-2.2,2.4-3.3,3.6"/>
<path class="st0" d="M1063.6,76.3c-8.2-2.7-14,4.5-21.7,3.9c-16.5-1.2-36.5-13.4-53.5-9.8c-11,2.3-18.3,9.1-28.5,13
	c-15.1-17-36.7-55.8-64.3-45.2c-4.7,4.1-14.5,8.8-18.5,13.3c-4.9,5.4-2.1,10.7-10.2,13.8c-3.4-0.8-6.8-1.7-10.3-2.5"/>
<path class="st0" d="M904,34.5c-8.9-2.2-12.7,3.1-20.7,3.2c0,0-23-22.8-25.6-24.6c-4.3,0.6-8.6,1.2-12.9,1.8"/>
<path class="st0" d="M885.5,39.1c-5.1,0.9-10.3,1.8-15.4,2.8c-2.5-1.5-5-2.9-7.5-4.4c-6.9-1-19.2,8.7-19.2,8.7"/>
<path class="st0" d="M899.1,29.8c-4.9-4.4-9.8-8.8-14.7-13.2c-3.4-0.1-6.7-0.2-10.1-0.2c-2.6-4.1-5.3-8.1-7.9-12.2"/>
<path class="st0" d="M1048.8,77.4c-10.3-9.2-20.6-18.5-30.8-27.7c-13.7-3.1-27.4-6.3-41.1-9.4c-8.5-4.3-15.8-16.9-27-15.2
	c-8,5.4-15.9,10.7-23.9,16.1"/>
<path class="st0" d="M1096,100.3c0.1,6.8,0.2,13.6,0.2,20.4c-0.2,0.1-0.5,0.2-0.7,0.3c-6.6-2-13.1-10.8-20.3-8
	c-9.6,11.9-13.4,24.4-27,34c-8.7,3.7-17.3,7.4-26,11.1"/>
<path class="st0" d="M1105.7,124.4c-5.9,19.4,8.4,81.5-14.9,90.5"/>
<path class="st0" d="M1110.7,243.4c-7.6-6.4-15.2-12.8-22.8-19.2c-3.4-0.1-6.9-0.3-10.3-0.4"/>
<path class="st0" d="M1056,258.5c-23.5-30.6-64.1-2.3-91.3-22.2c-4.3-6.2-4.4-11.4-11.2-16.3c-1,0.4-1.9,0.7-2.9,1.1
	c-15.3-0.8-33-87.4-36.4-103.4c-1.1-0.3-2.1-0.7-3.2-1c-13.2,5.1-10.2,19.8-15.9,30.4c-8.2,5.2-16.5,10.4-24.7,15.6"/>
<path class="st0" d="M902.6,127.4c8.6,15.7-0.9,22.5,0.2,37.9c-0.2,1.7-0.4,3.4-0.7,5.1"/>
<path class="st0" d="M903.1,135.3c-6.7-1.2-15,4.6-20.4-3.3c-0.3-0.4-0.5-0.9-0.8-1.3"/>
<path class="st0" d="M1051.9,254.3c-4.6-6.4-9.2-12.7-13.8-19.1c-4.8-4.9-18.3-6.3-20.1-14.5c-35.9,13.8-34.7-48.5-46.6-68.1
	c-9.5-5.9-19-11.8-28.5-17.6c-7.8-11.2-15.5-22.4-23.3-33.6"/>
<path class="st0" d="M1021.8,222.1c-0.5-6-1-12-1.4-18c-3.2-8.6-11.8-10.8-15.1-26.3c-18.2-7.7-27.2-18.5-27.2-18.5"/>
<path class="st0" d="M1004,177c-1.9-15.1-10-19.4-16.3-30.9c-1.8-7-3.6-14-5.3-21c-3.1-2.9-6.1-5.9-9.2-8.8
	c-1.3-4.4-2.6-8.9-3.9-13.3c-1.1-2.5-10-23.6-13.1-22.4"/>
<path class="st0" d="M931,114.5c4.4-15.7,2.1-52.6-23.5-48.4c-13.3,2.2-14.3,14.4-26.2,19"/>
<path class="st0" d="M912.4,65.4c-1.3-5.4-7.2-19.8-7.2-19.8"/>
<path class="st0" d="M1098.2,226.1c-3.5-4.8-7.1-9.6-10.6-14.4"/>
<path class="st0" d="M1153.5,324c-3.8-2.4-22.8-18.7-22.8-18.7"/>
<path class="st0" d="M1024.5,277c-2.9-7-11.6-16.6-20.2-13.4c-1.8,3-3.7,6-5.5,9.1c-4.7,5-15.6,1.8-21.7,2.1c-1.5-3.5-3-7-4.6-10.5
	c-15.6-2.1-31.2,26.7-46.4,15.5c-3-13.8-18.7,5.9-25.1,9.8c-13.9,8.6-47.7,47.7-61.4,50.4c-0.3,0-0.5,0-0.8,0
	c-5.4-1.4-10.9-2.9-16.4-4.3c-10.4,0.3-20.8,0.7-31.3,1c-3.3-2.1-6.6-4.1-9.9-6.2c-1.4-1.8-2.8-3.5-4.2-5.3c0,0-14-6.4-21-9.6
	c-2.1-4.6-4.2-9.1-6.2-13.7c-4.9-7.6-29.4-24.3-37.5-24.3c-3.2,2-6.5,4-9.7,6.1c-1.8,2.7-3.6,5.3-5.3,8"/>
<path class="st0" d="M808.2,238.2c1.8,8.1-7.7,26.9-8.1,39.4c-0.3,8.9,6.9,11.3,9.5,17.9c3.4,13.5,6.8,27,10.2,40.4
	c0,0-7.5,8.4-12.5,10.9c-3.6,0.5-7.1,0.9-10.7,1.4c-4.1,3.1-2.1,10.7-8,12.1"/>
<path class="st0" d="M804.5,331.5c-0.6-6.3-1.1-12.6-1.7-18.8"/>
<path class="st0" d="M839.6,370.5c-0.6,6.9-1.2,13.9-1.8,20.8c-1.2,1.8-2.4,3.6-3.6,5.4c0,0,24.3-17.5,36.4-26.3
	c29.8-20.3,53.3-55.4,59.5-90.5"/>
<path class="st0" d="M979.3,272.7c-18.5,6.4-15.8,28.2-25.3,39.5c-1.8,2.1-30.3,25.7-32.9,27.3c-22.3,14-48.8-0.2-71.2,8.4
	c-3.7,7-7.5,14-11.2,21c-5.5,4.7-20.2,8.5-20.2,8.5"/>
<path class="st0" d="M857.9,337.5c-1.3,0.2-2.5,0.4-3.8,0.6c0.4,3.6,0.8,7.2,1.2,10.8"/>
<path class="st0" d="M922.1,308c-4.2-2.1-20-11.5-24.4-8.4c-9,28.8,2.7,46.6-1.5,70.3c-1.9,10.6-17.9,16.6-23.5,24.5
	c-6.7,9.4-2.6,26.9-1.4,37.2c1.1,9.3-6,23.6-10.8,31.3c-0.4,1.2-0.8,2.4-1.2,3.6"/>
<path class="st0" d="M1021.5,298c-8.5,6.5-10.3,17.6-20.2,23.9c-11,7-54,11.9-59.5,27.2c-3,8.3,0.1,16.6-1.9,24.3
	c-2,1.8-4.1,3.5-6.1,5.3c2,5.3,4.1,10.6,6.1,15.8c-3.8,9.1,2.8,13.4,3.7,22.2c-1.9,4-5.1,6.2-3.1,10.9c2.2,3.2,4.4,6.5,6.6,9.7
	c-2.6,6.4-5.3,12.7-7.9,19.1"/>
<path class="st0" d="M980.8,388.2c-5,5.4-21.3,14.5-29.6,12.7c-2.9-1.4-5.7-2.8-8.6-4.2c-1.9,0.7-3.7,1.5-5.6,2.2"/>
<path class="st0" d="M970,414.5c-0.6,3.5-18.5,26.3-23,19.5"/>
<path class="st0" d="M1039.1,309.7c12,14.4,2,25.8,1,40.1c1.7,9.1,3.4,18.1,5.1,27.2c3.9,4.4,7.8,8.8,11.7,13.3
	c16.8,5.8,44.4-0.6,44.4-0.6"/>
<path class="st0" d="M891.2,383.6c0,2.7,0.1,5.4,0.1,8c0.7,0.6,1.4,1.2,2.1,1.8c8.1,3.3,15.6-4,21,4.5c0.5,0.7,1,1.3,1.6,2
	c-0.1,5.2-0.2,10.4-0.3,15.6c4.3,10.6,14.4,22.4,13,34.3c-0.1,2.2-0.1,4.3-0.2,6.5"/>
<path class="st0" d="M993,456.5c9.7,21.5-2.3,39.7-0.2,60.4c2.9,16.1,5.8,32.3,8.8,48.5c-3.5,14.9-8.2,31.8-4.5,48.6
	c0,0-12.1,21.4-16.7,32.6c-5.8,14-4.6,29.1-13.2,42.7c-7.7,10.3-15.4,20.6-23.2,30.9"/>
<path class="st0" d="M1019.6,504.5c-3.8,8.9-7.7,17.8-11.5,26.8c-1.5,10.9,3.8,24.2,3.1,36c-0.3,4.2-4.5,8.2-4.7,13.6
	c0.5,10.9,1,21.9,1.5,32.8c-5.2,3.6-16.9,9.7-26.1,8.5c-8.4-6.2-8.7-38.3-11-49c1.8-2.8,3.6-5.5,5.4-8.3
	c-0.6-15.2-17.2-61.5-34-65.4c-5.8-1.3-7,2.7-11.6,4.5c-5.9-6.4-11.8-12.9-17.7-19.3c-27.7-14-59.4-17.1-90.2-7.2
	c-25.4,8.2-42.1,62.3-74,68.4c-6.2-1.6-12.4-3.2-18.5-4.8c-32.7,0.7-37.4,85.3-56.9,100.4c-2.3,5.6,3.8,9.8,4.2,15.6
	c-0.7,3.7-1.5,7.3-2.2,11"/>
<path class="st0" d="M672.7,650.6c-3.1,2.9-6.2,5.8-9.4,8.7"/>
<path class="st0" d="M777.4,525.1c-5.8,1.5-11.6,2.9-17.5,4.4c-0.3-1-0.5-1.9-0.8-2.9c-3.7-1.4-7.4-2.8-11.1-4.2
	c-6.5-0.9-7.3,8.4-12.2,10.6c-4.7,0.9-9.4,1.8-14.2,2.7"/>
<path class="st0" d="M846.2,473.2c-9.2,12,2.2,39.9-1.7,54.6c-4.8,6.4-9.7,12.9-14.5,19.3"/>
<path class="st0" d="M983.6,619.4c0.3-1.4,0.7-2.8,1-4.3c-0.1,1.7-0.3,3.3-0.4,5c-0.9,7.8-4.3,31.2-13,35.6
	c-0.4,0.1-0.8,0.2-1.3,0.2"/>
<path class="st0" d="M974.2,665.6c2-41-2.7-85.4-18.9-123.4c-3.7-8.7-9.6-33.1-19.5-37c-18.8-7.3-55.6,18-71.8,26
	c-18.5,9.1-38.7-8.3-58.5-2.9c-16.7,4.5-31.9,32.5-55,41.4c-0.7,7.3-1.3,14.6-2,21.9c0.2,5.9,11.5,41.2,16.6,41.4
	c50.6,1.8,36.1-59.8,9.8-49.7c-7.4,7.9-4.6,25.9-2.2,35.5c0.1,1.4,0.3,2.8,0.4,4.2"/>
<path class="st0" d="M874.5,760.5c-3.2,0.3-6.4,0.6-9.6,0.9c-4.6-3.9-9.1-7.8-13.7-11.7c-4.1-7.1-8.5-39-17-43.7
	c-17.9-4.4-17.8,10.7-28-12.6c-9.5-7-41.5-6-33-26.5c3.4-8.3,10-10.1,12.2-20.5c-0.6-7.4-1.2-14.9-1.8-22.3"/>
<path class="st0" d="M769.8,631.6c-5.1,2.9-10.1,9.4-10.1,15.6c0.2,0.9,0.4,1.7,0.5,2.6c0.4,0.7,0.8,1.4,1.1,2
	c6.2,7.6,7.3,19.5,8.2,28.9c-0.2,1.1-0.4,2.2-0.6,3.2"/>
<path class="st0" d="M766.3,652c-5.2,2.5-10.4,5.1-15.6,7.6c-2.6-1.5-5.3-3-7.9-4.5c-1-2.1-1.9-4.3-2.9-6.4"/>
<path class="st0" d="M751.2,660.1c-10.3,6.3-13.3,14.1-25.3,18.7"/>
<path class="st0" d="M731.1,676.9c-18.9,6.7-18.3,14.7-31.7,26.2c-4.1,3.5-17.4,16.3-17.4,16.3"/>
<path class="st0" d="M810.5,699.1c-9.8,5.3-19.5,10.6-29.3,15.8c-1.3-2.2-2.7-4.5-4-6.7c-4.8,0.3-9.5,0.7-14.3,1
	c-3.8-1.8-7.5-3.6-11.3-5.3c-11.7,1.3-25.1,9.7-34.2,16.7c-7.5,5.8-11.1,12.7-20.5,16.5c-1.8,0.4-3.6,0.8-5.5,1.2"/>
<path class="st0" d="M755.8,668c-1.5-0.3-3-0.6-4.4-0.9c-2.8,10.1-1.6,33.9,1.6,44.8c2,2,4.1,3.9,6.1,5.9
	c-18.1,16.6-12.1,32.5-14.6,53.1c-2.2,8.4-4.4,16.9-6.6,25.4c-1,10.6-10.1,25.8-10.1,25.8"/>
<path class="st0" d="M849.9,752.9c-0.1-1.6-0.1-3.1-0.2-4.7c-12.4-2.1-23.4-2.7-35.3-1.4c-8.4-12.1-18.8-17.5-29.1-26.5
	c-0.7-1.5-1.4-2.9-2.2-4.4"/>
<path class="st0" d="M896.3,513.2c4.8,20.5-6.4,31.1-7,49.9c4.3,10.4,8.5,20.9,12.8,31.3c10,17.9,31.9,34.6,51.5,41.6
	c6.2,4.1,12.4,8.3,18.6,12.4"/>
<path class="st0" d="M775.6,324.7c-1.8-5.8-3.5-11.7-5.3-17.5c-15,0-22.6-28.5-22.6-39.6c-1.1-1.7-2.2-3.3-3.3-5"/>
<path class="st0" d="M796.9,348c-7.7,2.6-15.4,5.3-23.2,7.9c-3,4.5-5.9,9-8.9,13.6c-5.5,7.3-43.6,30.1-50.9,30.1
	c-3.5-3.9-7-7.8-10.5-11.7c-4.1,0.2-8.1,0.4-12.2,0.5c-3.3-1.8-6.6-3.6-9.9-5.5c-2.4,0.1-4.8,0.3-7.2,0.4"/>
<path class="st0" d="M838.4,339.7c-6.9,3.5-18,9.6-24,14.1c-2.1,2.4-10.6,22.9-10.6,25.1"/>
<path class="st0" d="M803.5,354.7c-4.4,8.6-13.4,35.5-18.5,42.4c-5.6,7.5-17.6,13.7-22.6,21.2c-4.5,6.9-4.2,19.5-10.7,22.9"/>
<path class="st0" d="M855.2,385.9c-7.8,8.8-10.2,33.2-16.1,46.4c-0.6,0.6-1.3,1.2-1.9,1.9"/>
<path class="st0" d="M1234.6,350.3c-11.6-24.8,29.6-98,29.6-132.8"/>
<path class="st0" d="M1230.7,337.6c-20.4-33.3,0.9-53.3-4.6-86.7c-2-4.7-4.1-9.4-6.1-14.1c-1.2-10.5-2.3-21-3.5-31.4"/>
<path class="st0" d="M1347.1,391.9c4.8-8.8,9.6-17.6,14.4-26.3c6.1-3.1,42.7-8.2,48.6-6.5c4.1,2.9,8.1,5.9,12.2,8.8
	c3.8,1.3,16.5-1.7,16.5-1.7"/>
<path class="st0" d="M1383.1,356.9c8.7-8.9,14.8-42.5,29.9-42.5c4.9,5.4,11.4,4.6,16.4,8.3c3,8.7,6,17.4,9,26.1"/>
<path class="st0" d="M1339.8,270.6c-11.7,18-1.6,21.5,2.2,38.3c3,13.1,2.5,33.1-0.9,45.6"/>
<path class="st0" d="M1370.7,268.4c0,0-14.1,61.6-14.1,48.9"/>
</svg>
