<?xml version="1.0" encoding="utf-8"?>
<!-- Generator: Adobe Illustrator 19.2.1, SVG Export Plug-In . SVG Version: 6.00 Build 0)  -->
<svg version="1.1" id="Ebene_1" xmlns="http://www.w3.org/2000/svg" xmlns:xlink="http://www.w3.org/1999/xlink" x="0px" y="0px"
	 viewBox="0 0 1920 822" style="enable-background:new 0 0 1920 822;" xml:space="preserve">
<style type="text/css">
	.st0{fill-rule:evenodd;clip-rule:evenodd;fill:none;}
</style>
<path class="st0" d="M1195.6,579.5c11.6,0.2,23.3,0.3,35,0.5c10.1,6.3,21.8,7.2,33.5,7.2c12.8-8.6,29.7-18.3,45.1-11.4
	c1.8,7.4,25.9,31.4,35,31.4c1.7-1.1,3.3-2.3,5-3.4c23,23,35.3,4.8,56.9-6c10.9-4.4,21.7-8.8,32.6-13.1
	c15.9-11.1,57.3-78.9,64.6-97.3c3.7-9.5,7.6-50.8,9.2-52.7c22.9-27.9,56.1-38.4,79.6-61.9c0.9,0.2,1.7,0.4,2.6,0.6
	c3.8-1.8,17.9-40.4,23.3-48.7c1.4-2,2.7-4.1,4.1-6.1c1.8,7.3-4.9,17.4,3.4,22.9c3.5,0.2,7,0.4,10.4,0.6c1.8-10.8,3.5-21.6,5.3-32.4
	c4.2-8,12.8-16.4,13.9-25.4c1.1-8.3,0.2-21.7-5.7-27.9c-2.5-2.3-5-4.5-7.5-6.8c-3.8-11.5,0.8-24.9-3.7-36.8c-3-3-6-5.9-9-8.9
	c-3.2-10.8,11.4-25.3,15.9-34.2c7.5-14.8-1.1-44.5,17.4-54c6.8-0.2,13.7-0.5,20.5-0.7c13.3-10.3,29.4-37.8,46-37.8
	c-1,2.1-2,4.2-3,6.3c4.6,3.5,9.2,6.9,13.8,10.4c4.5-5.9,2.4-24.3,6.7-34.1c7.2-7.1,14.3-14.3,21.5-21.4
	c28.7-26.1,50.9-19.6,87.4-19.6c4.4-2.9,9.3-13.6,9.3-18.8c3.1,0,6.3,0,9.4,0"/>
<path class="st0" d="M1634.8,343.4c5.9,17.7,11.7,31.7,13.7,50.4c23.5,22,40.1,2.1,66.8,2.1c1.1,10.2,2.2,20.4,3.2,30.7
	c2.8,5,5.5,10.1,8.3,15.1c3.5,13.5,7,55,20.4,62.3c3.1-1.2,6.1-2.4,9.2-3.6c11.7-1.3,24.2,8.7,24.2,20.9c-1.8,2.4-3.6,4.8-5.3,7.2
	c1,5.5,2,11,3,16.6c20.5,0,30.7,19.3,49.9,21.3c11.6,1.2,48.3-15.6,53-13.5c5.7,8.7,10.2,13.8,18.8,19.6c7.8,1.7,19.7-11,19.7-11"/>
<path class="st0" d="M1746.7,0c-2,3.5-4,7-6.1,10.6c-17.9,11-47.5,10.3-68.4,15.7c-5.9,2.6-11.8,5.1-17.7,7.7
	c-5.4-0.9-10.8-1.9-16.2-2.8c-3.5,1-6.9,2.1-10.4,3.1c-0.3,0-0.5-0.1-0.8-0.1c-9-2.2-11.1-7.2-21.4-4.2c-1.6,2.7-3.3,5.4-4.9,8.2
	c-4.8,0-10.4,4.7-16.9,4.7c-31.2-22.9-39.4,17.5-63.8,13.9c-9.8-8.7-22.3-1.7-33.3-9.4c-4.5-5.4-9-10.9-13.5-16.3
	c-19.6-11.6-46.7,26.4-63.8,3.6c0.7-2.3,1.4-4.6,2.1-6.9c-1.4,2.1-2.8,4.2-4.2,6.3c-7.9-0.2-15.7-0.5-23.6-0.7
	c-1.5,2.2-3,4.4-4.5,6.5c-12.5-2.4-24.9-4.8-37.4-7.2c-14.8-1.5-28.6,15.5-50.4,1c-6.6-4.4-48.3-27.5-49-29.8
	c-1.2-4.6-7.2-3.7-7.2-3.7"/>
<path class="st0" d="M1713.1,82.8c0.1,2.6,0.2,5.2,0.2,7.8c0-11.8-18.1-6.1-23.8-10.2c-1.6-2.1-3.2-4.2-4.8-6.2
	c-20.8-6.4-70.9,34-78.7,51.7c-6.9,15.6,1.2,24.5-0.9,40c-2.7,6.1-5.4,12.2-8.1,18.4c-7.9,22.6-5.5,75.1-1.4,100.3
	c3.3,20.6,13.9,43.3,13.9,63.8"/>
<path class="st0" d="M1742.8,87.6c8.8,7.4,5.7,13.1,10.4,21.6c11.5,9.2,37.9,11.6,51.9,18.3c3.9,4.2,7.9,8.3,11.8,12.5
	c6.3,2.3,12.6,4.6,18.9,6.8c0.3,0.2,0.7,0.5,1,0.7c2,2.9,4.1,5.7,6.1,8.6c10.4,1.5,20.6-4.9,31.8-3.7c7.8,4.2,15.7,8.3,23.5,12.5
	c2.9-1.5,5.8-3,8.7-4.5c2.4,5.1,13.1,35.8,12.5,30.8"/>
<path class="st0" d="M1659.6,399c-8.2,24.7-28.9,59.3-33.1,81.9c-2.8,14.8,6.1,28.9,7.4,43.3c1,21,2,42.1,3,63.1
	c2.4,14.5,3.9,64.7-10.7,72c-0.4,0-0.8,0-1.2,0c-14.9,14.9-12.6,65.3-15.9,88.7c-2.9,10.4-5.7,20.8-8.6,31.1
	c0,7.2,11.6,42.8,5.2,42.8"/>
<path class="st0" d="M1601,782c-4.9,12.9-9.8,25.8-14.8,38.7c0.3,0.5,0.5,0.9,0.8,1.4"/>
<path class="st0" d="M1718.3,418.2c-2.6,7.2-4.3,5-10.2,5.7c-11.5,5.5-13.4,33.3-14.5,43.6c-1.6,15.6-6.9,27.8-6.9,44.2
	c-0.1,0.3-0.1,0.6-0.2,0.8c-13.3,29.1-29.8,37.2-29.8,72.4c9.6,0,22.4,17.6,27.3,24.1c4.7,14.5,5,24.6,14.2,37.5
	c5,2.6,10,5.1,15,7.7c-0.5,9.1-0.9,18.2-1.4,27.3c0.3,0,0.7,0.1,1,0.1c4,2.6,14,29,19.3,36.1c5.4,2.8,10.8,5.6,16.1,8.3
	c6.7,7.1,13.4,14.3,20,21.4c0.3,0,0.5,0,0.8,0c0.9-0.7,1.7-1.5,2.6-2.2c9.6,15.1,7.9,34.1,20.6,48.7c7,3.5,14.1,7,21.2,10.5
	c6.6,6.4,3.5,17.8,14.7,17.8"/>
</svg>
