<?xml version="1.0" encoding="utf-8"?>
<!-- Generator: Adobe Illustrator 19.2.1, SVG Export Plug-In . SVG Version: 6.00 Build 0)  -->
<svg version="1.1" id="Ebene_1" xmlns="http://www.w3.org/2000/svg" xmlns:xlink="http://www.w3.org/1999/xlink" x="0px" y="0px"
	 viewBox="0 0 1920 822" style="enable-background:new 0 0 1920 822;" xml:space="preserve">
<style type="text/css">
	.st0{fill-rule:evenodd;clip-rule:evenodd;fill:none;}
</style>
<path class="st0" d="M1743.3,0c-1.6,3-3.2,5.9-4.9,8.9c-8,3.5-56.9,23-63,21.7c-8.5-1.9-7.6-8.2-13.7-12.8
	c-14-10.4-45.6-27.9-64.9-16.9c-1.9,3.8-3.7,7.7-5.6,11.5c-2,0.1-4,0.2-6,0.3c-7.4-4-14.8-7.9-22.2-11.9"/>
<path class="st0" d="M1673,29.5c-11.2,2.4-24.5,7.4-35.1,8.9c-4.6-1.1-9.2-2.2-13.9-3.3c-20.8,0.6-43.4,0.5-63.4,1.5
	c-13.9,0.7-24.5,26-41.1,23.6c-18.7-2.6-37-28-53-32.3c-11.2,2.9-25.3,7.3-36.1,9.2c-7.6-2.1-11.1-11-20.5-10.3
	c-14.1,1-25.8,13.2-41.5,8.9c-2-1.7-4-3.4-6-5.1c-6.3,3.8-12.6,7.6-19,11.4c-0.7-0.4-1.4-0.9-2.1-1.3c-7.7-9.3-46.9-2-48.8-3.1
	c-2.2-1.2-4.5-2.4-6.7-3.6c0.2-0.5,0.5-0.9,0.7-1.4"/>
<path class="st0" d="M1293.3,32.2c-15.6,1.2-32.4-25.2-49.1-29.1c-2.7-0.3-5.4-0.7-8.2-1"/>
<path class="st0" d="M1562.5,35.3c-12.5-30.9-47.8-2.5-59.6,13.1c-1.5,1.9-4.9,2.6-6.4,0.2c0,0-36.1-1-47.7-1.1
	c-5.8,2.4-11.6,4.8-17.4,7.2c-1.8,0.3-3.5,0.5-5.3,0.8c-6.6-9-37.9-7.7-48.1-4.9C1368,53.3,1365,64,1354,61.5
	c-5.4,4.6-10.9,9.1-16.3,13.7c-4.9,0.6-9.8,1.3-14.7,1.9c-21.5,11.7-30.8,28.3-45.8,48.1c-14.7,4.9-16.4,6.2-26.6,19.7
	c-1.6,1.5-3.3,3-4.9,4.5"/>
<path class="st0" d="M1454.9,0.9c-6.5,1.4-14.9,7.1-19.3,12.3c-2.5,3-26.3,45.5-23.9,50.9c4.6,2.6,9.3,5.2,13.9,7.8
	c-1.4,2.3-2.9,4.6-4.3,6.9c-13.4,4-16.2-0.1-26.2,13.1c1.2,1.9,2.3,3.8,3.5,5.8c1.9-0.2,3.8-0.3,5.7-0.5c1.4,3.9,2.8,7.8,4.2,11.7
	c-3.1,3.6-6.1,7.1-9.2,10.7c-4.6,23.9-37.9,29.6-14.7,60.9c2.9,15.9-25.7,47.8-40,43.9c-12,5.2-19.1,27.8-25.6,36.3
	c-1.1,0.5-2.2,1-3.3,1.5c-1.6-1-3.1-1.9-4.7-2.9c-10.2,1.4-10.8,12.7-18.7,16.1c-3.8,1.6-26.2,6.9-30.2,7.2
	c-13.9-3.2-12.4-23.1-37-23.7c-4.5,1.4-9,2.8-13.5,4.3c-4.7-0.4-9.4-0.8-14.1-1.2"/>
<path class="st0" d="M1583.6,14.2c6.2-1.8,14.3,15.9,18.3,21.3c-4.4,9.6-26.5,31-26.5,37.3c1.2,1.6,2.3,3.2,3.5,4.8
	c18.1,3.9,31,10.6,47.9,18.2c0.5,0,1,0.1,1.5,0.1"/>
<path class="st0" d="M1737.4,74.8c-38.6,25.6-41.8-8.1-65.9-1.2c-17.3,4.9-38.7,24.3-51.7,31.9c-6.2,3.6-13.4-2.5-17.9,0.1
	c-29.9,17.3-54.7,42.2-79.5,65.6c-11.8,11.1-37.9-4.4-53.5,16.2"/>
<path class="st0" d="M1526.3,171.1c-3.9,12.2-6.9,28-16.1,37.6c-18.4,19-47.8,11.7-63.9,36.7c-6.8,10.5-0.5,23.1-5.3,33.8
	c-5.7,12.6-24.1,11.4-28.9,24.8c-4,14.4-8,28.7-12,43.1c-0.6,0.1-1.1,0.2-1.7,0.3c-13.1-17.7-33.8,1.6-46.7,1.5
	c-10.8-14.5-33.3,12.9-37.8,18.9c-1.6,0.1-3.2,0.3-4.8,0.4"/>
<path class="st0" d="M1459.6,229.1c-5.7-8.1-25.6-6-33.8-5.3c-8.4,2.5-13,23.2-23.3,21.1c-4.5,6.4-9,12.8-13.4,19.2
	c-18.6,10-34.4,19.2-47.3,36.2c-10.5,3.4-26.6,8.2-34.9,15.5c-7.7,10.2-15.5,20.3-23.2,30.5"/>
<path class="st0" d="M1521.1,58c-17.4,19.3-30.2,10.9-51.9,14.8c-1.6,2-3.3,4-4.9,6c2.6,5.5,5.2,10.9,7.8,16.4
	c-11.8,29.3-33.8,51.6-54.4,74.4c-12.4,13.7-19,32.4-29.5,46.2c5.9,8,13.7,6.8,19.6,14.7c-0.8,2.3-1.6,4.6-2.4,6.9"/>
<path class="st0" d="M1599.8,87.2c-2.4,2.2-4.8,4.4-7.2,6.7c-21.4-2.8-28.2,22-46.7,24.1c-7.7-1-28.1-2.9-34.8-8.2
	c-4.2-5.3-8.4-10.7-12.6-16c-9.7,3.1-16.9-0.6-27.2,1.2c-0.3-0.1-0.5-0.2-0.8-0.3"/>
<path class="st0" d="M1556,40.6c-7.4,13.8-8.1,29.3-21,40.2c-5.3,4.5-37.1,25.9-30.7,17.4"/>
<path class="st0" d="M1578.1,71.7c-8.4,0.4-18.9,10.7-27.4,7.8c-3.2-3.7-6.3-7.4-9.5-11c-2.8,1.2-5.5,2.4-8.3,3.5
	c-1.8-1.8-3.7-3.6-5.5-5.3"/>
<path class="st0" d="M1403.8,98c-10.8,11.3-21.7,22.7-32.5,34c-6.1,4.2-11.3,2-17.4,4.4c-5.4,2.1-17.8,16.1-23.9,20.6
	c-7.2,8.2-14.4,16.4-21.7,24.5c-4.1-1.1-8.2-2.1-12.3-3.2"/>
<path class="st0" d="M1772.1,2.8c3.6,15.4,20.6,8,26.5,20c0.4,11.2,8.4,24.1,8.2,29.1c-0.8,17.7-29.9,54.5-47.7,58.2
	c-6.5,1.3-22.6-3.1-29.9-3.7c-1.7-1.5-3.4-3-5.2-4.4"/>
<path class="st0" d="M1728.4,132.6c1.3-2.3,2.5-4.7,3.8-7c8.8-12.2,9.6-26.8,9.6-41.3c0.1-36.2,28-54.8,59.5-64.2c0,0,44-2,65.7-9.9
	c3.5-2.9,1.9-7.1,0.2-10.2c4.1,2.7,17.3,1.9,17.3,1.9"/>
<path class="st0" d="M1719.6,47.2c3.5,6.3,7,12.6,10.5,18.8c1.7,6.1-0.7,11.1,3.2,16.8c9.6,14.1,23.2,14.2,28.4,31.9
	c4.6,15.5-6.2,25.4-5.5,39.8c6.4,15.5,12.9,31,19.3,46.6c2.4,13.4-8.2,20-8.2,32.1c4.1,4,8.1,7.9,12.2,11.9c-0.7,4.1-1.4,8.3-2,12.4
	c8.3,10.9,16.7,21.9,25,32.8c-10.5,13.9,3.4,32.9-2.3,47.9c0.2,6.3,4.6,12.9,8.3,17.9c-0.4,3.9-0.9,7.8-1.3,11.6
	c1.3,1.4,2.6,2.7,3.9,4.1"/>
<path class="st0" d="M1867.2,0c-1.9,7.4-1.9,17.1-10.3,18.2c1,13.4-16.6,21-18.4,33.7c-0.2,5.6-0.4,11.2-0.5,16.8
	c-2.2,5.6-4.3,11.2-6.5,16.8c1.5,9.2,3,18.4,4.4,27.6c-3.1,9.5-12.9,16.4-15.5,24.5c0.2,6.2,0.5,12.5,0.7,18.7
	c-6,25.1-29.8,36.3-52.3,39.3"/>
<path class="st0" d="M1764.1,106.6c7.2,2.9,32.7,9.5,37.7,12.6c9.6,5.9,14.1,16,22.3,23c23.2,19.7,55,16.9,83.5,13.2
	c4.1,2.8,8.2,5.6,12.3,8.4c0,1,0,2,0,3"/>
<path class="st0" d="M1764.3,114.8c20.2,11.2,30.7,29.1,46.3,43.4c20.3,18.7,40,38.1,63.1,53.1c12.5,8.1,27.5,6.4,41.1,11.8
	c1.7,0.7,3.5,1.3,5.2,2"/>
<path class="st0" d="M1860.6,123.9c2,0.3,3.9,0.5,5.9,0.8c4-2.5,5.9-7,11.3-3.4c0.8,0.3,1.6,0.7,2.4,1"/>
<path class="st0" d="M1838.5,58.5c19.6,8.2,14.4-2.2,31.4-6.5c6.8,0.4,13.6,0.7,20.3,1.1"/>
<path class="st0" d="M1807.4,60.7c7.9-2.5,30.7-3.6,32.4,2.3c1.8,0.4,3.6,0.7,5.4,1.1"/>
<path class="st0" d="M1807.6,152c-9,9.4-19.9,33.7-31.3,39.1"/>
<path class="st0" d="M1918.2,345.3c-12.7,0-22.3-5.9-34.7-7.8c-11.5,8.5-29.4-1-44,4.8c-22.8,9.1-31.6,32.1-42.3,49.4
	c-10,8.4-32.4-0.5-37.8,17.5c-5.7,20-8.7,32.3-33.2,35.5c-0.4,0.8-0.8,1.5-1.2,2.3c-0.7-0.2-1.5-0.3-2.2-0.5"/>
<path class="st0" d="M1766.2,236.7c-6.2-0.4-8.2,4.7-12.2,8.6c-18.8,18.3-16,22.4-17.8,49.7c-1.5,21.9-6.8,36.7-18.2,55.3
	c1.6,20.9,1.5,43.4,0.4,65.6c-0.2,3.2,4.4,17.9,4.9,24c2.3,1.4,4.7,2.7,7,4.1c0,0,4.4,23.2,6.1,35.3c2.6,4.4,5.3,8.8,7.9,13.3
	c10.5,21,19.5,23.4,40.4,20.7c4.8-4.6,3.8-12.9,11.5-13.9c2.8,0.9,5.6,1.8,8.4,2.7c4-3,8-6.1,12-9.1"/>
<path class="st0" d="M1779.9,515.5c-0.4-3.3,0.4-4.6-2.3-4.2c0.2,3.5,0.4,7.1,0.6,10.6c-1.1,3.5-2.2,7.1-3.3,10.6
	c-1.1,9.6,8.9,10.4,12.9,15.9c16.5,22.7,66.7,9.4,91.9,6.1c9.4,3.3,16.2,13.6,24.7,17.4c3.8-2.2,7.6-4.3,11.4-6.5"/>
<path class="st0" d="M1832.1,822c-1.3,0-2.6,0-3.8,0c-2.9-15.3-10.2-27.3-11.4-43.4c-6.4,0.8-29.2-44.7-37.3-43.6
	c-1.5-1.9-3-3.7-4.5-5.6c-6.7-0.3-13.5-0.7-20.2-1c-11.6-7.6-23.2-15.2-34.9-22.8c-2.1-6.2-4.2-12.4-6.3-18.6
	c-2.4-6.5-4-14.5,0.5-20.6c-7.7-10.4-15.3-20.8-23-31.1c-8.1-12.8-10.3-26.5-16.2-40.1c-4.3-6.5-8.6-12.9-12.9-19.4
	c-4.4-11.8,2-30.7,10.1-39.4c3.3-2.9,6.7-5.9,10-8.8c0.2-0.6,7.3-36.4,7.3-36.4c-1.5-8.4-5.4-12.9-3.9-22.5
	c1.7-11.3,11-14,13.6-22.8c2.6-8.6,1.4-18.1,7-25.6c5.4-0.7,10.2-4.4,15.2-1.5c0,0,46.4-33.8,45.7-49.7c-0.4-2-0.7-4-1.1-6"/>
<path class="st0" d="M1710.9,657.9c12.6,0.8,25.2,1.6,37.8,2.4c19.5,9.9,38.2,34.2,58.1,46.7c4.4,0,8.8,0.1,13.1,0.1
	c2.4,1.2,19.4,9.7,20.8,9.5c14.8-2.1,29.5-4.3,44.3-6.4c5.9,1.6,30,19.5,35,14.9c0-0.2,0-0.4,0-0.7"/>
<path class="st0" d="M1826.4,709.7c2.9,16.9,20.3,10.3,28.7,19.5c5.4,5.9,9.1,16.2,15.6,23c15.1,15.7,40.4,29.3,49.3,50.3
	c0,1.7,0,3.4,0,5.1"/>
<path class="st0" d="M1882.3,766.7c3.6,9.6,21.1,51.1,27.1,55.3c1.6,0,3.1,0,4.7,0"/>
<path class="st0" d="M1789.5,551.6c-5.4,11.3-1.6,25.3-8.4,36.9c-3.2,5.5-10.6,1.4-14.5,4.9c-9,8.2-8.7,17.2-15,26.6
	c-3.7,3-7.5,6-11.2,9c-3.2-0.9-6.4-1.7-9.6-2.6c-6.1,0.2-9.2,4.9-14.3,5.1c-10.4-5.4-20.7-10.8-31.1-16.2"/>
<path class="st0" d="M1723.6,630.7c11.9-1.8,19.2,7.4,28.9,12.3c10.7,1.4,51.8-14,52.2,1.4c1.7-0.9,3.3-1.8,5-2.8"/>
<path class="st0" d="M1754.2,656.2c7.2,3.9,34.9,23.8,43.6,16.5c2.6-6.1,5.2-12.2,7.8-18.3c16-7.6,29.7-11.6,46.4-16.2
	c11.8-4.8,23.6-9.6,35.4-14.3c1.8-0.2,32.5,1.2,32.5-1.4c0,0,0,0,0,0"/>
<path class="st0" d="M1738.2,484c2,18.3-29.5,20.6-38,32.6c-11.3,16.2-1.1,43.9,2.6,59.8c15.6,17,36.6,29.1,61.2,25.9"/>
<path class="st0" d="M1717.8,350.7c-11.3,6.1-13.2,4.8-23.6,6.2c-7.4,9-7,18.2-12.7,27.5c-6.2,5.1-12.4,10.3-18.6,15.4
	c-11.8,15-15.3,39.3-20.4,56.9c-5.1,8.3-10.2,16.6-15.3,25c-0.4,9.3,4.8,14.6,5.8,22.8c4.1,35.1,14.1,115.7-1.8,146.5
	c-4.8,4.2-9.5,8.3-14.3,12.5c1.4,5.4,2.8,10.7,4.2,16.1c-2.8,5.5-5.7,11-8.5,16.6c-6.7,37.9-10.7,75.1-27.1,110.2
	c-2.2,5.2-4.4,10.5-6.6,15.7c-0.7,0-1.3,0-2,0"/>
<path class="st0" d="M1631.4,652.8c-2.9,12.9,4.5,19.6,6.4,31.6c-0.4,8.7-0.9,17.4-1.3,26.1c1.5,11.6,2.9,23.2,4.4,34.8
	c-2.5,7.5-4.9,15-7.4,22.5c-0.2,4.5-0.3,9-0.5,13.6c-2.3,1.8-4.5,3.6-6.8,5.4c-3.4,8.2,1,35.3-11.7,35.3"/>
<path class="st0" d="M1643.1,612.7c0.3,3.8,17.6,48,17.6,48c17.2,0.6,14,28.2,16.7,38.8c5.2,7.4,10.4,14.8,15.6,22.2
	c0.9,8.6,1.8,17.1,2.8,25.7c-1.1,1.8-16.4,25.8-16.4,25.8"/>
<path class="st0" d="M1718.2,703.1c-4.4,1.7-8.8,3.3-13.1,5c-0.4,3.8-0.9,7.6-1.3,11.4c-2.7,0.9-5.5,1.9-8.2,2.8
	c-0.3,0.5-0.6,0.9-0.9,1.4"/>
<path class="st0" d="M1660.2,565.8c-4-1-8-2-12.1-3c-3.1,8.7-6.2,17.5-9.2,26.2"/>
<path class="st0" d="M1647.5,563.5c0.2,0,0.4,0,0.5-0.1c-0.4,0.1-0.8,0.1-1.2,0.2c0.9-8.7,1.9-17.4,2.8-26.1
	c1-12.7,4.3-17.5,8.8-29.6c-1.4-3.9-2.8-7.9-4.3-11.8c1.6-13.8,3.1-27.5,4.7-41.3c6.9-3.5,13.8-7,20.7-10.6c0.3-0.3,0.5-0.6,0.8-0.9
	c0.5-2.9,1.1-5.8,1.6-8.6c11.5-12.1,30-24.1,37.9-38.7c0,0-51,15.8-55.4,10.1"/>
<path class="st0" d="M1718,84c-16.1,4.2-8.4,15.9-14.4,25.6c-14.3,15.6-38.7-4.1-52.3,11.3c-9.4,10.6-7.4,36.3-11.2,49.7
	c-4.2,11.5-8.4,23-12.6,34.6c-4.5,5.4-8.9,10.8-13.4,16.1c-0.1,0.6-0.3,1.1-0.4,1.7c0.2,14.6,0.3,29.1,0.5,43.7
	c4.2,13.1,12.3,33.2,10.1,47.5c-1.6,10.2-8.7,10.7-11.9,18.7c-3.9,12.8-7.7,25.6-11.6,38.4c-4.8,8.3-13.5,12.4-16.3,17
	c-6.4,37.5,1.2,69.5-19.2,102.7c-19.4,2.6-5.2,64.6-12.8,69.2c-5.8,0.8-8.5,11.8-8.2,16.7c-15.3,2-19.6,22.1-26.6,32.1
	c-8.8,12.6-21.2,22.6-28.9,35.6c-9.4,15.9-12.1,32.6-23.2,46.2c-7.9,9.6-4.1,23.3-5.6,34.4c-0.4,1.3-0.7,2.7-1.1,4"/>
<path class="st0" d="M1630.2,203.2c-3.5,26.9,12,22.8,13.6,44.5c-0.5,0.4-1,0.9-1.5,1.3c0,0.9,0.1,1.9,0.1,2.8
	c0.9,1.1,1.8,2.2,2.7,3.3c6.3-0.8,26.4,12,34,14.9c2.7,6.3,5.4,12.7,8.1,19c9.8,2.4,45.9-3.8,51.1-13.3"/>
<path class="st0" d="M1742.7,255.7c-5.5-6.1-11-12.3-16.5-18.4"/>
<path class="st0" d="M1771,190.2c-1.4,3.4-17.7,21.9-24.3,24.7c-5.7,1.4-11.3,2.9-17,4.3"/>
<path class="st0" d="M1648.2,262c2.1,10.5,4.1,21,6.2,31.5c-3.3,1.7-6.6,3.5-9.9,5.2c-5.2,14.6-4.2,32.8-10.4,47.7
	c-2.3,0.3-4.5,0.7-6.8,1c-5.1-8.3-2.2-17.3-2.8-25.6c-3.3,3.3-6.5,6.6-9.8,9.8"/>
<path class="st0" d="M1658.6,405.7c-9.7-4-28.9-51.2-24.7-54.9c0,0-4.1,17.1-16,27.2c-3.9,6.3,2.5,17.3-3.4,22.2
	c-1.9,0.9-3.8,1.8-5.6,2.7c-0.3,10.6-0.5,21.3-0.8,31.9c-3,17.5-12.8,30.8-15,48.4c0.8,5.4,1.6,10.7,2.3,16.1
	c-2,6.3-22.1,38.6-22,40.8c-0.4-0.3-0.8-0.6-1.2-0.9"/>
<path class="st0" d="M1656.4,290.5c8.7,2.6,14.5,11.5,20.9,17.4c5.3,5,40.1,19.5,48.5,18.4"/>
<path class="st0" d="M1624.4,485.8c-31.7,20.3-11.1,70.8-6.8,99.8c4,27.3-4.4,27.7-8.8,48.3c0,6.7,0,13.3,0,20
	c-3.7,1.9-7.4,3.8-11.1,5.7c-2.9,7.9-5.9,15.9-8.8,23.8c-5.7,4.1-11.3,8.2-17,12.2c-20.3,20.1-49.9,54-57.7,78.7
	c-2.1,1.8-4.2,3.7-6.3,5.5"/>
<path class="st0" d="M1617.5,107.9c-1.4,0-2.8-0.1-4.2-0.1c-10.1,6.3-5.3,27.3-6.7,37c-5.8,40.4-10.5,81.8-39.8,111.6
	c-4.3,3.8-8.6,7.7-13,11.5"/>
<path class="st0" d="M1595.9,219.7c2.2,13.2,5,29-0.1,41.9c-0.3,0.1-0.7,0.2-1,0.3c-4.5,3.8,5.1,77.4,21.2,75.2"/>
<path class="st0" d="M1602.9,358.5c-3.8-0.2-36.1-2.7-37.9-2.2c-7,2-7.5,11.8-16.5,11.5c-5.3-2-10.6-4.1-15.9-6.1
	c-14.3,19.4-36.9,11-53.8,25.2c-5.5,8.9-14.7,7.5-22.6,1.2c-0.6-1.2-1.2-2.4-1.9-3.7c0,0-6.7-11.5-20.4-16c-3.3-2.7-6.6-5.4-9.8-8.2
	c-0.7,1.2-1.4,2.4-2.2,3.7"/>
<path class="st0" d="M1598.1,372.1c-17.3,0.4-20.1,19.4-33.2,26.9c-8.5,2.7-17.1,5.4-25.6,8.2c-6.7,6.8-13.4,13.6-20,20.4
	c-3.4,6.4-6.8,12.8-10.3,19.2c-9,2.2-18.1,4.4-27.1,6.6c-18.7,8.4-28.3,16.7-49.4,19.5c0.1-0.5,0.3-1,0.4-1.5"/>
<path class="st0" d="M1511.7,445.6c-5.8,10.1-0.6,19.9-4.4,30c-16.2,43-38.6,76-74.6,105.6c-11.2,9.2-13.9,16.8-28.6,21.2
	c-11.6,3.5-33.7,23.7-45.7,10.6c-0.1-1.3-0.2-2.5-0.3-3.8c-6.1-5.5-11.6,0-16.9-3.3c-3.1-11.5-25.2-30.8-37.4-34.1
	c-0.2,0-0.5-0.1-0.7-0.1c-6.4,2.9-12.7,5.7-19.1,8.6c-27,5.9-65.6,14-88.4-0.6"/>
<path class="st0" d="M1525.8,495.8c-3.2,12.5-12.9,17.8-17.1,29.2c-11.2,30.6-15.8,61.2-41.8,83c-6.5,3-13,5.9-19.5,8.9
	c-9.4,7.5-32.3,22.8-43.6,24.3"/>
<path class="st0" d="M1556,517.5c-9.6,9.5-12,26.8-11,39.8c-7.9,6.4-15.8,12.7-23.7,19.1c-1.7,3.8-3.4,7.6-5.1,11.4
	c-7.8,11.6-20.3,23.7-34.9,25.6c0.8,10.5-25.1,43.5-32.4,52c-6.8,4.5-13.6,9-20.4,13.5"/>
<path class="st0" d="M1640.1,583.2c-13.2,3-10.9,37.8-42.3,41.9c-8.8-11.2-5.4-35.3-27.8-29.8c-20.6,8.4-51.2,87.8-53.7,111.2
	c-1,9.1-3.6,47.8-18.9,49.9"/>
<path class="st0" d="M1609.9,115.2c-1.2,0.1-2.3,0.3-3.5,0.4c-18.8,17.1-11.8,44.1-35,47.1c-5.5,11-10.9,22.1-16.4,33.1
	c-7.4,8.7-19.2,4.8-25.7,9.6c-16,11.9-18.6,34.4-40.4,37.3c-4.7,10-9.4,20-14.1,30c-30.3,4-16.6,37.8-30.8,58.8
	c-18.3,27-76.4,23-81,65.2c-5.5,10.3-18.7,17.9-25.1,28.3c0.8,10.1,5.1,19.8,1.8,30.7c0,0-26.2,20.4-28.5,20.8"/>
<path class="st0" d="M1422.7,346.9c1.1,26-30.7,44.3-41.9,63.9c-12.3,21.6,20.1,30-13.9,59.4c-4.6,3.7-9.2,7.4-13.8,11.1
	c0,3.3,0.1,6.5,0.1,9.8l-16,21.2c-0.1,0.1-0.2,0.2-0.2,0.3c-8.5,6.2-17.9,0.3-24-4.5c-3.3,0-6.7-0.1-10-0.1
	c-5.4-2.7-7.2-14.6-14.9-13.5"/>
<path class="st0" d="M1402.2,349.8c-31.8,4.2-43.9,27.9-64.2,49.1c-8.7,2.3-17.4,4.5-26.1,6.8c-11.6,8-26.3,29.5-46.2,21.8
	c-1.7-2-3.4-4-5.1-5.9c-0.9,0-1.8,0.1-2.7,0.1c-0.2-0.5-0.3-1-0.5-1.6"/>
<path class="st0" d="M1566.4,182.9c1.3,2,2.5,3.9,3.8,5.9c-1.7,5.2-3.4,10.5-5,15.7c1.3,5.8,2.7,11.6,4,17.4
	c-0.2,0.2-0.3,0.3-0.5,0.5c-10,8.1-16,16.8-19.4,29.6c-0.8,1.4-1.5,2.7-2.3,4.1"/>
<path class="st0" d="M1562.5,358.6c-3.5-3-6.9-6-10.4-9c-0.9-11.2-1.9-22.3-2.8-33.5c-2.7-1.4-5.4-2.8-8.1-4.2"/>
<path class="st0" d="M1553.7,349.3c-4.9,1.5-9.9,3-14.8,4.5c-6.2-4-12.4-8-18.6-12"/>
<path class="st0" d="M1377.9,517.7c-3.7,11.2,4.4,15.1-0.5,27c0,1.2,0,2.4,0,3.7c1.4,0,2.9,0.1,4.3,0.1"/>
<path class="st0" d="M1405.4,435c-0.3,10.2-0.7,20.4-1,30.6c9.5,1.9,19,3.7,28.5,5.6c0.2,1.7,0.4,3.4,0.7,5.1
	c-2.4,2.2-4.8,4.4-7.2,6.6c0.2,15.2,0.4,30.5,0.7,45.7c-8.1,13-31.3,44-30.1,60.4c0.4,0.8,0.9,1.5,1.3,2.3"/>
<path class="st0" d="M1425.8,535.6c0,19.8-5.7,25.5-11.4,42c-0.2,2.5-0.3,5-0.5,7.5"/>
<path class="st0" d="M1312.2,266.8c-14.3,5-13.5,23.3-19.8,34.7c-4,2.8-8.1,5.6-12.1,8.4c-12.5,18.2-23.4,44.6-27.2,65.5"/>
<path class="st0" d="M1243.2,328.4c-6.4,3.2-18.7,1.8-18.7,1.8"/>
<path class="st0" d="M1919.8,463.5c-4.7,3.5-9.3,7-14,10.5c-12,3.9-22.8-3.4-34.2-3c-7.4,0.3-9.7,5.7-15.9,6.5
	c-3.2-1.4-6.4-2.8-9.7-4.1"/>
<path class="st0" d="M1819.1,168.2c1.8,15.4,6.9,70.6,15,82.1c6.6,9.4,24.5,5.1,32.8,13.2c2.5,5.8,5,11.5,7.5,17.3
	c4.2,3.5,8.5,7,12.7,10.6c7.6,13.7,15.2,27.3,22.8,41"/>
<path class="st0" d="M1780.2,251.7c-11.3,12.1-26.5,7.5-26.5,7.5"/>
<path class="st0" d="M1548.8,407.7c-3.8,5.4-18,23.6-19.2,30.1c-2.2,11.2,1.7,21.1-3.9,31.4c-6.3,8.4-12.6,16.8-18.9,25.2"/>
</svg>
