<?xml version="1.0" encoding="utf-8"?>
<!-- Generator: Adobe Illustrator 19.2.1, SVG Export Plug-In . SVG Version: 6.00 Build 0)  -->
<svg version="1.1" id="Ebene_1" xmlns="http://www.w3.org/2000/svg" xmlns:xlink="http://www.w3.org/1999/xlink" x="0px" y="0px"
	 viewBox="0 0 1920 822" style="enable-background:new 0 0 1920 822;" xml:space="preserve">
<style type="text/css">
	.st0{fill-rule:evenodd;clip-rule:evenodd;fill:none;}
</style>
<path class="st0" d="M1553.1,821c0.4-0.2,0.7-0.4,1.1-0.5c7.9-5.2,37.8-61.9,37.8-61.9c4.3-7.3,25.6-16.3,33.9-19.3
	c18.9,0.1,10.1,14.8,40.2,6c18-5.3,18-56.1,54.5-46.2c7.3,2,7.9-3.7,14.7,3.5c2.1,0.1,4.2,0.2,6.4,0.4c4.6,6.4,24.5-15,31.9-17.3
	c2.2,0.6,4.5,1.2,6.7,1.8c17.2-15.1,36.5-30.8,58.6-24.8c1.7-1.6,3.5-3.2,5.2-4.8c5.6,1.1,11.2,2.2,16.8,3.3
	c6.9-1.7,56.2-23.5,59.2-6.7c0,0-19.8,29.6-28.7,38.5c-1,3-2,6-3,8.9c-0.4-0.7-0.7-1.5-1.1-2.2c-21.7,9.1-34.8,46.8-49.6,63.8
	c-7.4,4-14.7,8-22.1,12c-5.7,13.1-8.7,27.8-18.9,38.7c-2.1,1.1-4.2,2.2-6.3,3.3"/>
<path class="st0" d="M1918,580.8c-17.6-6.1-40.4-12.6-58.7-13.4c-11.1-0.5-20.8,3.4-31.2,1.2c-15.2-1-29.6,16.8-46.7,12.2
	c-3-1.9-6-3.8-9-5.7c-35.9,10.9-20.2,28.1-37.2,43c0-0.6,0-1.3,0-1.9"/>
<path class="st0" d="M1837,570.7c-15.5,12.9-76.8,60.3-95.7,53.1c-1.6-1.4-3.3-2.9-4.9-4.3c-7.1,3.9-14.2,7.7-21.3,11.6
	c-3.8-1.1-7.6-2.1-11.4-3.2c-8.3,0.1-10.2,6.3-19.2,3.5c-0.5-0.1-1-0.3-1.4-0.4c0.4-0.3,0.7-0.6,1.1-1"/>
<path class="st0" d="M1768.4,575.8c-7.1-2.5-14.2-5.1-21.3-7.6c-3.1,1.6-6.1,3.3-9.2,4.9c-11.7,3.3-30.2-3.1-39,9
	c-9.4,12.9-4.5,38.8-17.7,50.4c-8.7,1.8-17.4,3.6-26.1,5.4c-16.1-0.5-29.9-14.9-47.8-11.7c-0.5,0-1,0.1-1.5,0.1
	c-9.5-19.2-62.8-1.2-81.6-15.6c-6.3-12.7-18.8-7.4-26.8-9.6c-1.5-2.8-3-5.6-4.6-8.4c-1.6-0.1-3.2-0.3-4.8-0.4
	c-2.2-1.7-14.5-4.5-15.1-5.7c0,0-15.5-4.7-28.4-9.2c-6-3.2-12-6.5-18-9.7c-5.7-0.6-8.6,4.7-15.2,3.9c-15.6-12-10.9-41.6-27.4-49.7
	c-1.7-0.6-3.4-1.1-5.1-1.7"/>
<path class="st0" d="M1483.9,589.4c-9.2-16.7-16.7-33.6-24.9-50.2c-20.6-15.8-24.1,13.3-48.5,3.5c-2.4-1-4.7-2.1-7.1-3.1"/>
<path class="st0" d="M1435,536.2c-16.2,3.4-31-5.3-38.8-19c-4.6-5.5-9.1-11-13.7-16.5"/>
<path class="st0" d="M1507.9,599c-2.8-10.3-7.3-16.7-11-26.6c-1.5-6.5-2.9-13.1-4.4-19.6c-10.8-7.5-21.5-15-32.3-22.6
	c-5-5.6-10-11.2-15-16.8c-4.1-8.3-10.2-17.5-14.7-26.5c-0.8-6.9,8.8-13.6-0.1-20.8c-0.6-0.5-1.2-1.1-1.8-1.6"/>
<path class="st0" d="M1446.5,508.1c-4.3-11.5,0.8-25.6,0-36.8c-1.4-2.2-2.7-4.3-4.1-6.5"/>
<path class="st0" d="M1434.1,497.4c-9.1-3.4-16.3,7.5-24.6,9.6c-1.4,0.2-2.7,0.4-4.1,0.5"/>
<path class="st0" d="M1749,566.2c11.5-16.5,10.9-35.3,20.6-52.8c2.8-2,5.6-4,8.4-6c1.6-3.7,3.3-7.4,4.9-11.1
	c6.6-0.3,13.2-0.7,19.9-1c0.3-0.1,0.7-0.3,1-0.4c5.5-3,8.7-9.3,14-11.8c5.5-2.6,9.2-1.1,15-4.5c0,0-3.5-6.8-5.3-10.1
	c0,0,5.3-16.9,5.7-17.9c5.4-5.2,10.9-10.4,16.3-15.6c3.4-3.8,0.1-8.4,5.2-12.9"/>
<path class="st0" d="M1862.5,729.7c-17.1-2.1-28.2,26.1-39.5,33.7c-9.8,6.6-24.4,3.1-35.5,9.5c-8.7,9.2-17.3,18.4-26,27.6
	c-0.4,0.2-0.7,0.4-1.1,0.6c-0.4,0.2-0.7,0.5-1.1,0.7c-6.5,0.8-13.1,1.7-19.6,2.5c-9.7,4.8-15.3,13.8-26.3,16.3"/>
<path class="st0" d="M1778,690.6c-8.3,12.9-5.7,15.8-16.5,27.1c-5.7,15.9,2,32.1-9.5,50.4c-13.2,21.1-52.1,38.5-76.8,31.7
	c-3.7-2.8-7.4-5.6-11.1-8.4c-5.8-1.3-11.5-2.6-17.3-3.8c-4.6-6-10.7-7.4-13.1-10.3c-9.3-11-8.4-24.6-11.8-37.4"/>
<path class="st0" d="M1647.5,750.8c-0.5,4.2-1,8.3-1.5,12.5c4.6,9.3,4.8,58.8,17.9,58.8c0,0,0,0,0.1,0c-0.8,0-1.5,0-2.3,0"/>
<path class="st0" d="M1741.7,703.4c-8.9,5-31.9,54.4-41.3,51.9c-0.8-1.1-1.5-2.2-2.3-3.3c-4.7,1-9.3,2-14,3
	c-4.9-3.8-9.9-7.6-14.8-11.4c-0.4,0.1-0.9,0.2-1.3,0.2"/>
<path class="st0" d="M1758.4,700.3c-3.6,11.1-16.5,47-27.8,54.4c-7.8,2.1-15.6,4.2-23.3,6.3c-8.6,4.7-20,12.9-30.3,10.1
	c-15.4-4.2-12.3-16.6-20.7-20.1"/>
<path class="st0" d="M1700.6,700c-2.1,0.7-4.2,1.3-6.3,2c-1.9-1.6-3.7-3.3-5.6-4.9c-7.6-0.6-12.1,19.4-23.5,19.3
	c-16.1-4.4-33.3,13.8-49.6,7.6c-3.4-2.3-21.1-10-22.7-13.3c-18.2,16-47.1,0.3-66.4,1.3c-3.2,1.5-6.4,3-9.6,4.5
	c-0.1-0.2-0.2-0.3-0.3-0.5"/>
<path class="st0" d="M1592.5,759.3c-3,0.5-6,1-9,1.4c-0.4-0.4-0.9-0.8-1.4-1.2c-6.2,1.4-12.4,2.8-18.7,4.1
	c-3.7-0.7-23.2-15.9-23.2-15.9c-6,2.2-12.1,4.5-18.1,6.7c-2.2-0.7-4.4-1.3-6.6-2c-6.3,0.6-11.2,3.9-17.7,1.4
	c-2.7-4-5.4-7.9-8.1-11.9l-40.6-26.6c-9.1,3.1-14.3-3.8-19.1-10.2c-7.7-5.3-20.8-0.5-27.4,5.3"/>
<path class="st0" d="M1640.6,633.1c-2.2,1.8-4.3,3.6-6.5,5.4c-0.5-1-1-2-1.5-3c-1.1,0-2.1-0.1-3.2-0.1c-6.4,4.2-10.2,8.6-18.6,10.9
	c-7.4,2-18.3-2.4-24.9,3.4c-1.9-1-3.9-2-5.8-3.1c-1.2,0.3-2.3,0.5-3.5,0.8c-7.9,6.1-15.8,6.8-23.2,12.2c-5.4-1.1-10.7-2.2-16.1-3.3
	c-9.2,0-16.1,5.5-27.2,1.9c-6.7-3.9-13.5-7.9-20.2-11.8c-0.3,0.2-0.6,0.3-0.8,0.5c-2.7-1.6-5.4-3.3-8.1-4.9
	c-2.9,0.7-5.9,1.4-8.9,2.1c-2.9-3.8-5.7-7.5-8.6-11.3"/>
<path class="st0" d="M1558.2,657.2c-9-1.3-11.2-8.3-17-14.1c-2.5-1.4-13.1-3.4-16.1-4.3c-8.3-16.7-10.2-13.1-25.5-20.2
	c-2.2-2.2-4.3-4.5-6.5-6.7c-14.1-1.5-20.5-1.5-32.6-11.3c-2.5-5.9-5-11.8-7.5-17.6"/>
<path class="st0" d="M1522,627.6c-8.3,0.4-16.7,3.7-24.6,3.7c-23.4-18-41.5,12.9-59.5,8c-1.7-1.2-3.4-2.3-5-3.5
	c-6.4,0-18.9,3.7-24.8,0.4c-2.3-4-4.7-8-7-12c-4-0.9-7.9-1.7-11.9-2.6c-2.6-5.2-9.1-16.1-15.9-15.2c-0.9-0.1-1.8-0.1-2.7-0.2
	c-3.7-11.8-7.4-23.6-11.1-35.4"/>
<path class="st0" d="M1389.8,619.9c-4.8,2.5-9.5,5-14.3,7.5c-3.4-2.2-6.7-4.4-10.1-6.6"/>
<path class="st0" d="M1455.4,636c-3,5-6,10-9,15c-3.5,2.1-7,4.2-10.5,6.4c-4.9,6.2-3.9,14.3-9.5,19.3"/>
<path class="st0" d="M1525.9,711.4c-29.5-1-21.2-41-46.2-47.8c-0.1-0.2-0.2-0.3-0.2-0.5c0-0.1-0.1-0.2-0.1-0.3c-0.3-0.5-0.7-1-1-1.6
	c-8-2.2-22.7-3.3-26.8-11.8c-0.2-0.9-0.4-1.9-0.6-2.8"/>
<path class="st0" d="M1481.6,662.6c-6.3,1.7-14.3,9.5-21.2,4.5"/>
<path class="st0" d="M1483.1,735c-0.8-2.9-1.5-5.8-2.3-8.8c-12.5-7.4-31-35.6-29.7-52.5c0.4-4.9,12.9-11.6,10-17.5"/>
<path class="st0" d="M1456.9,696.5c-1.5-6.9-18.8-7-24.9-10.6c-1.1-0.6-2.2-1.2-3.2-1.8"/>
<path class="st0" d="M1457.2,680.6c-4.5-0.3-9.1-0.6-13.6-0.9c-1.6-2.7-3.2-5.3-4.7-8c-2.1,0.3-4.1,0.7-6.2,1"/>
<path class="st0" d="M1473.5,716.7c-0.2-3.7-0.5-7.3-0.7-11c0.5-0.4,1-0.8,1.5-1.2c1.8-0.2,15.1,2.4,22,1.9c0.8,0.3,1.5,0.6,2.3,0.9
	c3.4,3.5,6.9,6.9,10.3,10.4"/>
<path class="st0" d="M1589.4,766.4c-0.8-2-20.3,7.6-27.5,7c-13.8-1.1-19.3,5.4-31,8.8c-25.4,7.5-50.9,15.9-76.2,22.5"/>
<path class="st0" d="M1494,795c-1.2,0.1-2.3,0.2-3.5,0.3c-2.3,8.7-0.9,18.3-7.9,24.6c-1.1,0.7-2.2,1.4-3.2,2.1"/>
<path class="st0" d="M1535.3,779.8c-5.2,12.9-12.8,27.5-22,38c-1.5,1.4-3,2.8-4.5,4.2"/>
<path class="st0" d="M1491.1,791.8c-10.7-5.1-13.2-21-24.3-24c-5.8-0.3-13.3,8.8-13.3,8.8"/>
<path class="st0" d="M1578.5,644c-0.9-2.5-1.8-5.1-2.7-7.6c-3.7-2.2-27.6-5.4-30.1-2"/>
<path class="st0" d="M1574.8,619.6c0,2.3-10.1,18.7-13.7,16.1"/>
<path class="st0" d="M1633.1,632c0.6-15-16.1-20.8-21.3-35.6c-1.6-11.1-3.2-22.2-4.8-33.3c-9.1-12.2-22.9-19.3-27.9-35.6
	c-2.2-7.3,3.1-13.4-0.7-21.2c14-12.3,28.8-64.1,25.2-82.1c-3.2-4.5-6.3-9-9.5-13.5c2.7-10-1.1-22.9-2.3-26.3
	c-1.2-3.4-13.6-22.5-17.1-36.2c-1.1-4.3-9.8-19.6-9.8-19.6"/>
<path class="st0" d="M1592.4,379.3c2.5-5,10.5-17.8,11.5-22.8c-0.6-7.4-1.1-14.7-1.7-22.1c2.9-18.8,6.6-9.1,2.4-30.7"/>
<path class="st0" d="M1603.7,423.8c6.8-11.5,2.8-15.3,7.3-24.4c13.9-20.3,15.2-47.9,35.1-65.4"/>
<path class="st0" d="M1620.1,385.1c9.7-5.9,15.6-14.3,25.6-21.3c0.6,0.1,13.2,6,12.8,2.6"/>
<path class="st0" d="M1626.8,369.5c11.1-4.5,13.6-16.9,23.2-19.6c2.5-0.7,3.4-4.4,3.3-4.3"/>
<path class="st0" d="M1600.5,401c14.9-17.1,17.2-34.5,20-55.6c3.2-8.5,6.3-17,9.5-25.4"/>
<path class="st0" d="M1580.6,356.9c2.8-5.8,5.5-11.6,8.3-17.3c1.4-9.3-7.6-15.5,1.1-23.8c1.1-1.9,2.1-3.7,3.2-5.6"/>
<path class="st0" d="M1673.3,625.8c0.8-11-13.7-21-17.9-31.4c-6.6-16.4-2.2-56.4-14.1-62.7c-3.5-0.5-7.1-1.1-10.6-1.6
	c-6.3-1.7-12.6-3.3-19-5c-15.1,5.4-4.7,20.8-11.2,29"/>
<path class="st0" d="M1820.3,564.4c-9.5-6.3-13.5,1.4-22.2,0.8c-6.8-0.5-18.6-4.4-25.6-6.3c-2.2-3.6-4.3-7.2-6.5-10.9
	c-6.6-4.6-39-23.4-44.6-19.2c-10.2,12.6-20.4,25.1-30.6,37.7c-3.4-1.6-6.7-3.2-10.1-4.8"/>
<path class="st0" d="M1756.9,622c-10.2,8.2-14.1,26.4-28.7,29.4c-18.7,3.8-28.8-15.6-44.9-1.4"/>
<path class="st0" d="M1796.8,666.5c-5.5-0.6-11-1.2-16.5-1.7c-2.8,1.8-53.4,21.1-54.3,20.8c-10.2-7.9-22.3-3.5-34.3-6.8
	c-2.8,1.9-5.6,3.7-8.4,5.6c-18.7-5.1-36.4,2.5-51.5-2.7c-1,0.4-2,0.8-3,1.2c-1.2,7.6-9.7,9.9-9.7,9.9"/>
<path class="st0" d="M1609.3,650.9c-2.1,1.7-12.9,18.2-14.2,22c0,0,6.4,5.2,9.6,7.8c6.7,4,17.7,0.6,25.7,5.1"/>
<path class="st0" d="M1669.2,639.1c4.4,1.4,27.2,24.5,27,29.7c-1.4,4.1-2.8,8.1-4.2,12.2"/>
<path class="st0" d="M1596.1,762.4c2.1,2.1,4.3,4.3,6.4,6.4c-4.2,3.7-7.4,28.1-4.7,33.4l-6.4,16.1"/>
<path class="st0" d="M1598.4,794.9c6.2,8,19.4,3.8,27.8,6.1c3.8,6.3,7.6,12.6,11.3,18.9"/>
<path class="st0" d="M1629.5,805.3c4.4-1.5,8.8-3.1,13.2-4.6c2.9,1.4,5.8,2.8,8.7,4.2"/>
<path class="st0" d="M1832.9,751.7c-4.6,0.2-9.2,0.5-13.8,0.7c-19.4-11.8-24.4-40.7-47.1-47.7"/>
<path class="st0" d="M1767,717.9c2.6,7.4,5.2,14.9,7.8,22.3c-2.1,2.7-4.1,5.4-6.2,8.1c3,6,2.2,14.5,0.3,20.6
	c-8.1,25.9-16.5,10.5-31.5,21.1c-3.3,4-6.6,8-9.9,12c-6.6,4.7-13.3,9.5-20,14.2"/>
<path class="st0" d="M1778.3,742.3c4.1,7.2,18.8,7,21.9,13.1c-2.5,4.8-4.9,9.6-7.4,14.4c-0.4-0.3-0.7-0.6-1.1-0.9
	c-10-4-17.5,19.5-27.4,17"/>
<path class="st0" d="M1912.7,763.1c-0.5,0.1-1,0.1-1.5,0.2c0.9-1.1,1.8-2.1,2.7-3.2c-6.9-5.1-13.8-10.2-20.7-15.3
	c-7.1-14.4-3.8-28.1-3-43.5c0,0-2.5,65-21.9,90.2c-5.5,6.1-11,12.3-16.4,18.4c-8.8,4-25,3.6-31.8,9.6"/>
<path class="st0" d="M1920,758.2c-1.3,1.2-2.6,2.4-3.9,3.6c-15.9,7.4-9.7,40.6-28.6,43.6c-3.8,5-7.7,10-11.5,14.9"/>
<path class="st0" d="M1887.1,705c-11.9,14-11.9,37.2-25.7,49.4c0.4,4.6,5.2,2.7,1.2,7.5c-5.1,11.8-11.6,24.3-20.1,33.6
	c-4.6,3.3-9.3,6.6-13.9,9.8c0.4,1.5,0.7,3.1,1.1,4.6c-1.8,4.3-14.2,12.1-16.5,12.1"/>
<path class="st0" d="M1863.3,569.3c-2.6,2.5-5.3,5.1-7.9,7.6c3.7,7.5-3.9,11.7-8.1,15.4c-0.2,1-0.4,1.9-0.6,2.9"/>
<path class="st0" d="M1919.8,594.1c-4.3,1-8.7,2-13,3c0.1,0.3,0.2,0.5,0.2,0.8c-3,2.7-6.1,5.4-9.1,8c-1.3-0.4-2.6-0.8-3.9-1.2
	c-9.1,0.6-7.8,9.9-27.4,7.7c-1.4-0.3-2.8-0.5-4.1-0.8c-2.7-5.4-25.6-23.4-31.8-28.7c-1.3-1.5-2.6-3-3.9-4.6"/>
<path class="st0" d="M1837.1,588.5c-1.8,6.1-3.5,12.2-5.3,18.3c1.9,7.3,9.3,6.6,12.1,12.4c-0.3,3.3-0.5,6.6-0.8,9.9
	c4.5,16,18.9,15.5,25.2,28.4c0,0-0.1,0.1-0.1,0.1"/>
<path class="st0" d="M1910.8,645.9c0.2-2.2-14.9-14.7-18.1-21.1c-12.9,11.4-49.4,40.7-67.6,26.7c-3.1-5.6-6.2-11.2-9.3-16.8
	c-1.4-0.9-2.8-1.9-4.2-2.8c-2.6-29.9-25.6-33.7-43.1-51.6c0-1.5,0-3-0.1-4.5c-1.6,0-3.2,0-4.7-0.1c-0.4,0.3-0.7,0.7-1.1,1"/>
<path class="st0" d="M1918.7,505.2c-12,2.7-44.5,17.1-55.4,10.5c-0.4-0.8-0.8-1.6-1.2-2.4c0.2-0.5,0.5-1.1,0.7-1.6"/>
<path class="st0" d="M1797.7,475.1c4.3-4.9,8.7-9.9,13-14.8c0.4-0.1,0.8-0.1,1.1-0.2c13.6-3.5,28.8,11.2,44.2,6.3c0.5,0,0.9,0,1.4,0
	c11.4,10.8,8.2,33.3,15.4,45.8c3.8,2.5,7.7,5,11.5,7.5c0.1,0.1,0.2,0.2,0.3,0.3c5.3,6,4.1,14.5,8.7,20.1c5.1,4.5,10.2,8.9,15.2,13.4
	c0.1,0.3,0.2,0.5,0.4,0.8c-1,9.4,1.9,14.9,2.1,23"/>
<path class="st0" d="M1638.3,281.7c30.8-0.6,44.7,30.9,71.6,38.3c11.8-4.2,47.9-36.8,53.5-35.3c0.9,0.9,1.9,1.8,2.8,2.6
	c3.4-0.6,21.1-4.3,21.7-4.3c0.2,1.1,0.4,2.3,0.6,3.4c0.7,4.1,1.5,8.3,2.2,12.4c2.9,4.4,5.8,8.8,8.7,13.2c0.1,5.4,0.2,10.9,0.3,16.3
	c3.1,4,6.2,8.1,9.2,12.1c4.4,12.6,3.2,31.5,7.9,42.7c4,9.6,13,14.9,18.8,22.3c3.5,7.5,7,15,10.5,22.5c1.9,0.1,3.8,0.2,5.8,0.3
	c2.4,4.8,12.5,39.9,6.8,44.9"/>
<path class="st0" d="M1815.6,397c3.2,4.1,5.1,43.2,12.7,56.1c18.7,11.6,15.2,28.1,35.7,37.5c1.2,0.7,2.3,1.3,3.5,2
	c-0.2-0.4-0.5-0.9-0.7-1.3"/>
<path class="st0" d="M1802.1,286c4.6,2.1,9.1,4.2,13.7,6.3c2.5,5.1,20.7,24.6,27.7,23.5c1.3-1.3,2.6-2.6,3.9-3.9
	c4.2,2.1,8.3,4.1,12.5,6.2c-2.8,2.4-4.8,12.8-6.7,16.5c-0.3,4-0.1,6.5-0.8,10.7c0.3,0.7,0.7,1.5,1,2.2c3.8,2.1,7.5,4.3,11.3,6.4
	c-2.2,4.6-4.4,9.2-6.6,13.7c-1.1,7,5.8,18,4.5,26.4c-1.1,0.6-2.2,1.2-3.3,1.8c-0.5,1.8-0.9,3.6-1.4,5.3c4.2,8.4-1.8,8.9,0.4,16.1
	c0.9,2.2,13.2,14.8,7.9,18c-3.7-1.8-7.4-3.5-11.1-5.3c-0.8,0.9-1.6,1.9-2.5,2.8"/>
<path class="st0" d="M1865.2,393.7c7.2,10,5.9,18.7,10.2,30c4.7,8,9.3,16,14,24c0.8,6.9,1.7,13.9,2.5,20.8c2,3.2,4,6.4,6,9.5
	c-0.8,8.4-1.6,16.8-2.5,25.2c1.6,3.1,3.2,6.2,4.8,9.2c0-0.2,0-0.4,0-0.6"/>
<path class="st0" d="M1918.7,437.1c-5.6-2.3-24.5-10.3-31-4.6c-0.1,1.8-0.2,3.5-0.3,5.3c-3.1,1.5-6.1,3-9.2,4.5
	c-2.9-2.3-5.8-4.5-8.7-6.8"/>
<path class="st0" d="M1860.4,314.7c9.1-0.1,17.5-7.5,23.9-13.1c2.6,0.6,5.3,1.2,7.9,1.8c0,0-0.1,0.1-0.1,0.1c-0.1,0-0.1,0.1-0.2,0.1
	c0.6,6.8,14.7,18,19.1,25.4c2.9,0.5,5.9,1.1,8.8,1.6c0,2.7,0,5.3,0,8"/>
<path class="st0" d="M1920,320.2c-9.3,6.7-16.9,18.8-25.6,26.4c-2.7,4.6-2.4,13.5-2.4,13.5"/>
<path class="st0" d="M1920,412.6c-3.8,2.1-7.6,4.1-11.3,6.2"/>
<path class="st0" d="M1918.3,385c-5.4,4-10.7,8.1-16.1,12.1"/>
<path class="st0" d="M1809.7,314.4c-8.2,9.5-19.1,20.8-23.9,32.4c-5.4,12.9-6,27.7-11.2,39.6c-2.4,1.7-4.9,3.3-7.3,5
	c-1.7,6.7-3.4,13.3-5.1,20c1.3,9,9.9,15.9,8.1,25.8c-0.8,2.9-1.6,5.8-2.4,8.7"/>
<path class="st0" d="M1819.5,376.9c-8.9,5.9-17.9,11.9-26.8,17.8c-0.5-0.3-0.9-0.7-1.4-1"/>
<path class="st0" d="M1797,397.7c-1.4,9.7-2.9,19.4-4.3,29.1c-1.2,3.6-15.9,19.4-19.3,22.4c-11.5,1.8-35,13.2-46.1,10.2
	c-0.3-0.6-0.7-1.1-1-1.7"/>
<path class="st0" d="M1760.8,532.7c1.7-6.8,1.4-10.7-1.5-16.7c-0.8,0.1-1.7,0.3-2.5,0.4c-3.8-1.3-10.6-36.7-11-41.8
	c-0.7-2-1.4-3.9-2.2-5.9"/>
<path class="st0" d="M1861.9,573c16.8,6,26.1,24.1,45.6,18.8c3.7,0.6,7.1,3.2,8.7,6.4c1.1-0.1,2.2-0.1,3.3-0.2"/>
<path class="st0" d="M1794.5,290.9c-4.2,0.7-10.9,12.3-13.1,7.9c-6.1-0.4-10.5,11.9-14.8,9.6"/>
</svg>
