<?xml version="1.0" encoding="utf-8"?>
<!-- Generator: Adobe Illustrator 19.2.1, SVG Export Plug-In . SVG Version: 6.00 Build 0)  -->
<svg version="1.1" id="Ebene_1" xmlns="http://www.w3.org/2000/svg" xmlns:xlink="http://www.w3.org/1999/xlink" x="0px" y="0px"
	 viewBox="0 0 1920 822" style="enable-background:new 0 0 1920 822;" xml:space="preserve">
<style type="text/css">
	.st0{fill-rule:evenodd;clip-rule:evenodd;fill:none;}
</style>
<path class="st0" d="M385.7,821.6c-6.4-16,0.7-15.7,3-29.7c1.3-20.3,2.5-40.5,3.8-60.8c-12.1-16.2-16.6-35.8-27-53
	c-7.8-10.5-15.7-21.1-23.5-31.6c0-10.8,0-21.5,0-32.3c-5.2-22.4-10.4-44.7-15.6-67.1c-4.6-6.5-9.2-13-13.9-19.5
	c-2.4-8.2-4.8-16.5-7.2-24.7c-3.3-3.9-6.6-7.8-9.9-11.7c-10.7-21.4-18.2-42.3-18.2-67.3c-6.1-6.8-17,0.4-23.5-8.4
	c-13.7-18.3-20.5-45.3-39.7-59c-2.4-0.1-4.7-0.2-7.1-0.3c-0.5,1-1,2-1.4,3c-1.1,0-2.2,0-3.2-0.1c-1.9-2.2-12.5-19.4-9.4-21.1
	c0,0-12.6-10.7-19-16c-4.6-6.5-9.3-13-13.9-19.5c-8.6-5.9-18.5-4-27.3-7c-10.4-3.6-33.3-25.8-39-35.8c-2.9-5.2,0.8-61.5-15.8-62.7
	c-1.2,0.4-2.5,0.9-3.7,1.3"/>
<path class="st0" d="M377.8,703.3c-13.2,1.5-29.6,77.5-24.2,92c2.3,1.3,4.6,2.6,6.9,3.8c-2.4,7.6-4.7,15.3-7.1,22.9"/>
<path class="st0" d="M368.4,683.4c-8.6-2.6-15.7,1.8-24,1.9c-6.3-1.5-12.5-3-18.8-4.5c-0.4,0-0.9,0-1.3,0c-3.9,2-7.8,4-11.7,6
	c-7.3,0.8-7.8-6.7-15.1,0.1c-1.9,11.6-3.9,23.2-5.8,34.8c1,6.2,2,12.4,3,18.5"/>
<path class="st0" d="M307.9,681.9c-9.1,1.9-11-8.3-16.7-9.2c-3.4,2.8-6.8,5.6-10.2,8.5c-6-4-12-7.9-18-11.9
	c-15.4-5.2-66.8-10.5-73.2-27.4c0.1-3.2,0.2-6.4,0.2-9.7c-9.4,0.1-9.8,16.6-16.9,20c-2,0.3-4,0.6-6.1,0.9
	c-10.5,14.2-4.5,17.3-23.6,17.4c-2.4,1.8-4.9,3.6-7.3,5.4c-8.3,1.2-10.5-0.8-17.9,4.2c1.8,4.7,3.4,10.3-1.7,13.7
	c-3.4-1.8-6.8-3.7-10.2-5.5c-3,1-6,2.1-9.1,3.1c-0.5-0.7-1-1.4-1.6-2.1c-3.9,0.5-7.7,1-11.6,1.6c-8.3-9.7-21.4-1.6-31.6-8.9
	c-11.2-8-22.6-21.4-31.2-31.4c-1.6-3.3-3.1-6.6-4.7-9.9c-2.1-0.6-4.3-1.3-6.4-1.9c-0.5-1.1-1-2.3-1.5-3.4"/>
<path class="st0" d="M331.9,563c-14.1,3.6-34.8-7.8-39.4-4.6c-13.2-16.5-26.5-33-39.7-49.5c5.5-3.7-7.3-26.7-12-28.8
	c-2.8-7.7-5.6-15.5-8.4-23.2c-4.3-3.3-8.6-6.5-12.8-9.8c-5-10.7,2.1-17.3-4.9-24.3c-4.2-11.1-12.2-26.8-20.5-36.4
	c-5.6-5.9-11.2-11.8-16.7-17.6c-7.4,5-51.3-18.2-63-21.9c-0.8-1.5-1.6-2.9-2.3-4.4c-8.3-3.4-16.7-6.9-25-10.3
	c-11.6,0.8-23.1,1.7-34.7,2.5c-0.2-0.6-11.8-12-13.7-13.5c-6.8,2.1-13.5,4.1-20.3,6.2c-0.2-0.4-0.4-0.8-0.6-1.3
	c-5.2,1.3-10.5,2.6-15.7,3.8c0-0.3,0.1-0.5,0.1-0.8"/>
<path class="st0" d="M355.5,666.7c-14.6-9.1-28.4-17.5-42.4-27.9c-4-3.6-8-7.2-12-10.9c-12-5.8-29.6-2.6-39.9-11.7
	c-6.1-12.3-12.1-24.6-18.2-36.9c-3.9,0-38.5-4.9-38.5-4.9c-7.4-19.4-33.1-22.3-48.8-29.2c-3.8,0-9.2,4.6-12.7,1.1
	c-0.9-2.3-1.8-4.7-2.7-7c-4.9,3.3-4.9,10.9-11.2,15.2c-5.2,1-23.7-13.4-34.4-6.2c-7.4,14.6,5.8,31.7,0,47.1
	c-1.2,0.1-2.3,0.3-3.5,0.4"/>
<path class="st0" d="M119.3,680.4c-4.6-7.5-9.3-15.1-13.9-22.6c-20.8-9.1-24.6-42.8-42.9-52.6c-5.7-10.9,7-28.2,2.1-41.1l-39.1-36
	c0.9-5.5,1.3-13.4-3.1-18.2c-3.7-0.4-7.4-0.8-11.1-1.3C7.6,504,3.8,499.5,0,494.9c0-1,0-2,0-2.9"/>
<path class="st0" d="M102.4,658c1.4-6.4,2.8-12.7,4.2-19.1c-10.1-27.3-20.3-54.5-30.4-81.8c-3.3,1.9-6.6,3.9-9.9,5.8"/>
<path class="st0" d="M43.7,532.5c2.4-3.2,4.8-6.4,7.1-9.6c2.5,0.3,18.5,13.1,18.5,13.1c-2.2-8.5-4.4-17-6.5-25.5
	c-0.9-7.9-1.7-15.9-2.6-23.8c-0.1-0.1-0.2-0.2-0.2-0.3c-6.1-3.8-12.2-7.7-18.4-11.5c-2.3-3.4-4.5-6.7-6.8-10.1
	c-9-4.7-17.5-4.2-25.9-10.8"/>
<path class="st0" d="M55.7,485.9c5.8-4.3,8.5-21.2,6.2-27.3c-1.1-0.9-2.2-1.9-3.4-2.8"/>
<path class="st0" d="M215.1,420.2c-1.6,2.4-3.2,4.9-4.8,7.3c-13.7-11.1-32.2-15.5-47.5-5.1"/>
<path class="st0" d="M242.6,575.9c-5.3-14.4-13.1-31.6-16.8-46.5c-2-12-4-24.1-5.9-36.1c-6.3-6.5-12.6-13.1-18.9-19.6
	c-4.2-7.1-8.5-14.1-12.7-21.2c-3-1.6-6-3.2-8.9-4.7c-2-5.8-3.9-11.5-5.9-17.3c-16.3-12.9-32.9-21.2-49.5-32.5
	c-2.6-3.1-5.1-6.2-7.7-9.3c-8.9-3.6-17.8-7.2-26.7-10.8c-4.4-1.4-9.7-8.6-15.1-10.8c-6.6-2.6-30.8-4.6-35.3-7.9
	c-0.4-1-0.8-1.9-1.3-2.9c-8.2,5.6-3.2,26.3-17.3,23c-1.6,0.3-3.1,0.6-4.7,0.9"/>
<path class="st0" d="M29.2,380.5c-1.1,2.7-6.4,14.2-10.6,13.7"/>
<path class="st0" d="M5.6,306.2c9.5,3.4,10.7,13.3,19.7,17.2l-13.9,26.3"/>
<path class="st0" d="M231.9,614.2c2.4,8.2,5.1,35.8-0.6,42c-9.4,6.3-9.8,32.5-3,43.6"/>
<path class="st0" d="M122.5,690.5c3.4,9.8,17.6,26.4,26.4,30.3c0.6,1.4,1.3,2.8,1.9,4.1c1.9-1.3,3.9-2.6,5.8-3.9
	c1.7,1.2,3.4,2.3,5.1,3.5c4.1,8,8.2,16,12.3,24c5,2.5,9.7,0,13.8,1.8c3.2,3.3,6.3,6.6,9.5,9.9c6,3.6,28.1,0,28.9,13.3
	c0.7,1.7,1.5,3.3,2.2,5"/>
<path class="st0" d="M154.1,727.1c5.7,19,11.4,38,17.1,57c6.5,1.9,17.9-0.6,20.9,7.3c5.7,14.9,18.1,30.6,18.1,30.6"/>
<path class="st0" d="M205.6,812.1c6.9-2.8,13.9-5.5,20.8-8.3c2-3.1,4.1-6.2,6.1-9.4c12.6-0.1,11.6,17.7,10.3,25.8
	c-0.4,0.6-0.7,1.1-1.1,1.7"/>
<path class="st0" d="M94.6,694.3c-0.5-0.9-1.1-1.7-1.6-2.6c0,0,0,0,0,0c1.4,3.6-1,9.6,0.8,14.2c1.1,0.2,2.3,0.4,3.4,0.5
	c4.5,3.6,5.3,37.7,9.5,45.7c1.2,2.2,16.7,16.7,18.7,17.8c3.1,0.1,6.2,0.3,9.3,0.4c13.9,15.9,11.4,27.6,18.1,45.3
	c0.8,2.2,1.5,4.3,2.3,6.5"/>
<path class="st0" d="M423.5,819.6c-1.5-3.9-6.5-6.2,0.4-13.2c6.9-7,7.8-18.4,8.7-26.2c0.6-5.2-28.2-84.8-28.5-85
	c-1.3,0.7-2.6,1.5-3.9,2.2c-3.1,8,2.1,20.8-6.2,26.4c-0.8-0.3-1.6-0.6-2.4-0.9c-0.8-1-1.7-1.9-2.5-2.9"/>
<path class="st0" d="M418.6,812c16.2-0.2,27.7-23.6,43.9-19.2c0,0,12.4,29.2,20.3,29.2"/>
<path class="st0" d="M463,793.3c2.1-5,9-18.7,14.5-21.3c0.7,0.2,1.4,0.3,2.1,0.5c4.3-3.2,8.6-6.5,12.9-9.7c4.7,1.1,9.5,2.2,14.2,3.3
	c5.5,5.4,7.8,11,16.3,12.8c2.3-0.4,4.7-0.9,7-1.3c2.1,5.7,9.8,4.7,11.2,10.3c-1.9,7.9-9.7,13.9-16.9,14.5c-0.6,0.2-1.2,0.3-1.8,0.5"
	/>
<path class="st0" d="M568.2,822c-8-13.6-21.7-19.5-25.4-36.1c-2.9-12.7,6.8-35.6,0.5-54c-7.6-12.9-15.2-25.9-22.8-38.8
	c-10-10.8-29.1-3.9-40.7-12c-12.7-8.9-7.1-35.6-22.5-43.3c-2.7-0.2-5.4-0.4-8.2-0.7c-1.9-2-2.7-8.6-6.7-9.1
	c-4-0.4-32.8-62.1-33.8-75.7c-3.4-4.8-18.5-28.8-16.8-34.8c1.3,0.2,2.5,0.5,3.8,0.7c-0.5-8.7-0.9-17.4-1.4-26.1
	c7-25.1,26.6-65.2,17.1-93c-6-4.9-22.5-25.2-19.9-34.2c-5.8-14.5-34.1-20.7-26.9-46.3c0.1-0.1,0.2-0.2,0.2-0.3
	c-2.2-3.1-24.7-22.2-19.5-26.4c0.3-0.3,0.6-0.6,1-1c-11.4-12.3-21.9-28.5-37-36c-5.1-5.5-10.2-10.9-15.3-16.4
	c1.2,0.1,2.3,0.2,3.5,0.3c0,0,0-0.1,0.1-0.1c4-14.2-17-20.8-23.2-30.9c-0.5-3.6-1-7.2-1.4-10.9c-6.2-3-12.4-5.9-18.5-8.9
	c-4.6-7.9-9.1-15.8-13.7-23.7c0.2,0,0.5,0,0.7-0.1c0.1-0.2,0.2-0.5,0.3-0.7c-4.9-7-9.8-14.1-14.7-21.1c0.4-0.6,0.8-1.2,1.2-1.8
	c-0.8-1.8-1.7-3.5-2.5-5.3c1.1-1.4,2.1-2.8,3.2-4.2c-7.9-25.9-58.4-94-49.1-115.3c1.7-1.2,3.3-2.4,5-3.6"/>
<path class="st0" d="M440.1,626.2c-1.4,7.1-23,23.8-26.6,35c-1.9,11.7-3.7,23.5-5.6,35.2c0,0,0,0-0.1,0c0-0.7-0.1-1.3-0.1-2"/>
<path class="st0" d="M433.5,769.3c7.2-18.3,72.9-45.2,91.8-50.5c10.1,0.1,20.3,0.2,30.4,0.2c13.8-4.3,19.2-34.5,43.8-15.5
	c10.8,8.3,3.2,24.4,2.9,35.5"/>
<path class="st0" d="M554.4,808.4c-3.9,1.1-7.9,2.2-11.8,3.2c-6.3,3.8-2.4,10.3-11.5,10.3"/>
<path class="st0" d="M440.4,404.2c-15-21.1,0.1-26.2,3.4-45.4c1.1-9.7,2.2-19.3,3.3-29c3.2-3.9,19-17.4,23.2-16.9
	c3.6,1.4,7.2,2.8,10.7,4.2c11.4-5.6,9.1-22.7,19.2-27.2c4.1,1.7,6.1,2.7,9.8,0.1c0,0,2.6,3.3,3.9,5c-0.7,4.6-2.3,6.8-5.8,9.3
	c0,2.8,0,5.6,0.1,8.4c-5.6,8.3-12.9,17.6-19.6,25.2c-4,2.2-8.1,4.3-12.1,6.5c-0.8,7.5-1.6,15.1-2.4,22.6
	c-6.4,17.9-19.9,26.9-32.3,40.1c0.7,2.9,1.5,5.8,2.2,8.7c-1.1,7.4-2.2,14.8-3.3,22.1c2.5,14.2,23.7,25.3,29.2,39.8
	c0,4.8,0,9.5,0.1,14.3c3.3,16.4,10.7,30.8,12.7,48.1c-0.6,4.8-1.2,9.6-1.7,14.4c4.4,8.4,8.9,16.7,13.3,25.1
	c2.4,6.8,4.4,18.3,10.7,22.9c5.9,4.3,11.6-0.8,17.1,2c0.1-0.3,0.2-0.5,0.2-0.8c2.3,29.2,3.8,61.1-2.4,90"/>
<path class="st0" d="M510,284.6c2.9-38.3,44.5-51.9,70.4-71.4c0.3-0.3,0.6-0.6,0.9-0.9c8.1-9.3,5.5-17.1,10.2-28
	c9.6-13.5,19.2-26.9,28.8-40.4c4.4-9.3-7.7-58.6-11.4-69.2c0.2-3.1,0.4-6.1,0.5-9.2"/>
<path class="st0" d="M410.8,398.2c2.2-16.5,2.2-63-5.3-78.3c-8.6-8.4-17.2-16.8-25.7-25.2c-1.3-6-2.7-12.1-4-18.1
	c-6.3-8.7-31-27.6-34.1-36.7c0.8-2.9-11.2-50.7-13.8-53.4c-6.3-3.9-12.5-7.9-18.8-11.9c-4.9-10.6-9.8-21.1-14.7-31.7
	c-6.1-8.9-12.2-17.9-18.3-26.8C286.8,98.4,233.3,0,214.4,0"/>
<path class="st0" d="M364.6,315.5c3.6-3.6,6.9-4.2,8.3-9.2c-2-11.9-10.4-22.5-19.4-29.2c-2.2-8.3-4.4-16.6-6.6-24.9
	c-0.2-1-0.5-1.9-0.7-2.9"/>
<path class="st0" d="M350.8,272.1c-5.9-12-19.3-18.2-26.2-28.2c-10.3-30-28.3-19.8-42.4-42.2c-0.1-6.1-0.2-12.1-0.3-18.2
	c-3.3-4.3-6.5-8.5-9.8-12.8c-3-9.2-6-18.5-9-27.7c-4.7-7.2-19.8-6.1-27.3-6.4c-1.1-0.1-2.3-0.3-3.4-0.4"/>
<path class="st0" d="M312.9,221.4c-12.3-17.9-1.2-32.8-6.8-51.5c-5.6-5.5-11.2-10.9-16.8-16.4c-1.4-4.4-2.8-8.7-4.1-13.1
	c-5.4-6-10.8-12-16.2-18c-2.8-8.8-5.6-17.6-8.4-26.4c-6.7-4.7-13.3-9.4-20-14.1c-10.8-14.6-21.6-29.3-32.4-43.9
	c-5.4-7.9-26.7-18.1-23.3-16.7"/>
<path class="st0" d="M302.3,214.5c-0.7-4.3-14.7-59.5-15.9-61.3c-9.6-13.7-28.9-20.9-41-31.7c-4.5-4.1-14.6-27.5-18.1-34.3
	c-0.2-0.3-0.3-0.5-0.5-0.8c-0.6-1-1.1-2-1.7-3c-5.7-14.3-13.5-22.2-25.2-32.6c-1.9-1.3-3.8-2.5-5.7-3.8"/>
<path class="st0" d="M257.3,286.3c-2-8.7-8.4-14.8-10.7-22.5c-1.2-7.7-2.4-15.4-3.7-23.1c-5.2-7.9-10.5-15.8-15.7-23.6
	c-3.8-7.9-1.3-16.8-8.9-23.4c-16.5-14.4-39.7-24.8-56.9-38.5c0,0,15.9,32,25.8,42.3c3.6,1.9,7.1,3.7,10.7,5.6
	c9.5,14.5,21.5,18.8,29.9,31.4c3.7,12.3,7.4,24.6,11.1,36.8c3.6,9.4,14,8.5,18.4,16.7c5.2,9.6,1.3,20.5,4.2,28.9
	c6.9,7.5,13.9,15.1,20.8,22.6c9.8,12.5,22,53.8,41.9,52.3c9.9-6.7,19.9-13.3,29.8-20c6.7-14.1,5-25.8,24.1-15.2"/>
<path class="st0" d="M292.2,237.8c-19.6-10.6-15-19.1-31.3-34.4c-8.9-8.3-19-6.8-28.4-12.7c-16.3-10.2-36.1-32.4-44.9-49.4
	c-3.3-12-6.7-24.1-10-36.1c-2.3-6.1-6.8-7.6-8.3-14.8c0-4.3,0-8.6,0.1-13c-0.5-1.2-0.9-2.4-1.4-3.6"/>
<path class="st0" d="M194.6,157c-9.4-8.7-19.1-11.3-24.4-21.6c-1.2-1.4-2.4-2.7-3.5-4.1c-1,1.1-2.1,2.1-3.1,3.2
	c-0.5-0.2-1-0.4-1.6-0.6"/>
<path class="st0" d="M328,544.7c-1.4-15.2,1.4-31.7-2.3-47.3c-4-5.2-8.1-10.4-12.1-15.6c-0.5-4.5-1-9.1-1.4-13.6
	c-6.6-17.5-35.2-67.1-52.9-75.9c0.8-3-17.3-35.1-19.6-38.1c-18.6-24.2-43.5-44.1-56.1-73.3c-15.3-35.6-17.5-75.3-26.9-113.1
	c-0.7-8.5-1.5-17-2.2-25.5c-5.6-16.5-23.4-22.4-29.9-37.7c-3.7-8.6-0.1-25.3-5.4-32.2c-0.6-0.3-1.2-0.6-1.7-0.9"/>
<path class="st0" d="M150.2,134.3c-3-8.7-5.4-17-5.3-26.2c0.7-2.8,1.5-5.7,2.2-8.5c-0.7-1.3-1.3-2.6-2-3.9"/>
<path class="st0" d="M184.3,133.6c-4.5-2.6-9-5.2-13.5-7.8c4.4-15.9-9.6-30.8-22.5-37.3c-0.7-3.6-1.4-7.2-2.1-10.8"/>
<path class="st0" d="M290.9,424.8c-1.5-13.3-4.5-17.6-11.8-28.1c-1.7-21.6-1.3-48.8-12.4-67.1c-8.7-8.4-17.3-16.8-26-25.2
	c-9.6-16.6,4.5-21.7-18.3-40.8c-9.5-7.9-27-4.9-40.5-12.8"/>
<path class="st0" d="M219.6,260c-2.3-6.2-13.2-20.6-20.9-22.3c-7.7,2.4-15.2,4.4-22.1-1.3c-2.3-6.7-2.5-16.9,1.9-22.3
	c0.7-1.2,1.3-2.4,2-3.6"/>
<path class="st0" d="M298.1,486.2c0.7-6.9,1.3-13.8,2-20.7c1.6-1.2,3.2-2.5,4.8-3.7"/>
<path class="st0" d="M328.3,822c0,0-20.9-24.8-29.2-27.1"/>
<path class="st0" d="M351.6,795.5c-5.2-3.7-10.4-7.4-15.5-11.1c-4.3-4.9-4-12-10.1-16.1c-1.7-0.9-3.5-1.7-5.2-2.6"/>
<path class="st0" d="M96,701.3c-2.9-1.4-5.8-2.9-8.6-4.3c-9.6,3.1-19.2,6.1-28.8,9.2c-0.4-0.1-0.8-0.1-1.3-0.2
	c-5.9-3.7-11.8-7.5-17.7-11.2c-10.3,2.4-27.8-1-37.7-6"/>
<path class="st0" d="M26.1,700.9c-0.9-0.6-1.8-1.1-2.7-1.7c-4.3,4.4-11.9,5.8-13.2,12.4c-1.6,7.9,7.3,10.3,8.1,17
	c1.3,10.5-11.1,32,3.4,39.2"/>
<path class="st0" d="M92.3,818.2c-5.1-10.2-16.6-14.8-26.5-19.7c-9.8-28.8-19-7.5-33.9-16.2c-3.4-4.8-6.8-9.7-10.2-14.5
	c-5.8,0.2-16.5-1.2-20.4-6.5c-0.4-0.8-0.9-1.5-1.3-2.3"/>
<path class="st0" d="M98.6,688.6c-14.6-14.8-38.7-16.7-52.3-32c-6.2-7-5.3-13.7-10.2-20.2c-4.2-3.8-8.4-7.6-12.6-11.4
	c-2.2-11.1-4.5-22.2-6.7-33.3c-5.5-2.3-11.1-4.7-16.6-7c0-1.4-0.1-2.8-0.1-4.2"/>
<path class="st0" d="M15.7,592c-1.9-2.2-3.8-4.3-5.7-6.5c-0.2-8.6-0.3-17.2-0.5-25.8C6.3,546.3,3.1,533,0,519.6"/>
<path class="st0" d="M404.4,696.8c6-4.3-11.9-23.6-9.7-31.6c-17.6-8.7-10.4-14.8-13.9-29.9c-3.2-7-6.4-14-9.6-20.9
	c-3.3-14.9,0.6-33.9-2.9-48.1c-3.4-13.6-14.4-31.7-19.3-46.2c8.1-28.8-14.7-39.9-25-64.6c-0.4-5.9-0.7-11.7-1.1-17.6
	c-5.3-15.4-16.3-26.8-20-43.4c0.5-4.5,1-9,1.6-13.5"/>
<path class="st0" d="M321.2,394.8c6.7,17.9,10.8,47.6,2.9,66.8c-1.6,3.8-13.8,25.2-7.2,27.6"/>
<path class="st0" d="M392.8,518.4c-6.2-4.5-12.4-9-18.6-13.6c-2.2-16.2-4.3-32.4-6.5-48.6c0.3-21.8,18.9-36.5,21.4-56.8
	c-2.3-12-4.6-24.1-6.8-36.1"/>
<path class="st0" d="M399.4,392.2c0.4-1.2,0.9-2.5,1.3-3.7c-0.1-0.1-0.3-0.1-0.4-0.2c-3.9,3.7-7.9,7.4-11.8,11.1
	c-6.4-2.6-12.8-5.3-19.2-7.9"/>
<path class="st0" d="M400.7,316.1c-2.8-20,9.6-40.9,12.4-60.8c-0.4-8.3-0.8-16.6-1.2-24.9c1.8-4.5,3.5-8.9,5.3-13.4
	c1.1-27.6-21.1-49.3-24.5-76c6.5-20.5,13.1-41,19.6-61.5c3.2-20.4,5.7-45.7,20.7-61.6c2.1-2.2,9.8-17.9,7.9-17.9"/>
<path class="st0" d="M406.7,184.2c0.6-13.1,2.2-27.9,7.8-39.9c3.1-4.1,6.2-8.1,9.3-12.2c7.2-25,6.4-59.3,26.5-78.2
	c1.9,0.3,3.9,0.6,5.8,0.9c12.1-6.6,19.1-39.7,23.1-51.1c1.5-4.1,3.4-3.6,3.4-3.6"/>
<path class="st0" d="M431.5,75.8c-0.7-22-1.4-43.9-2.2-65.9"/>
<path class="st0" d="M380.8,293.3c0.3-5.8,0.7-11.7,1-17.5c-2.1-8.5-7.4-12.6-7.4-22.8c1.2-9.1,2.4-18.2,3.6-27.2
	c-4.2-13.5-8.3-27.1-12.5-40.6c-5.3-16.8-6.8-32.6-13.9-48.8c-6.4-5.3-12.7-10.7-19.1-16c-6.1-8.3-7.4-21.6-13.2-30.9
	c-9.1-8.7-18.2-17.4-27.3-26c-5.2-9.1-10.4-18.2-15.7-27.3c0,0-4.3-8.3-6.4-12.5c-5.6-2.1-11.2-4.2-16.7-6.3"/>
<path class="st0" d="M346.1,130.9c5.3-14.3-7.5-70.7-4.5-73.5c4.1-1.6,22.8-52.3,18.7-57.4c-0.5,0-1,0-1.5,0"/>
<path class="st0" d="M368.9,190.3c0.7-7.9,1.4-15.7,2.1-23.6c-1.5-9.7-3-19.4-4.5-29.1c1.5-19.4,10.4-39.2,12.5-57.4
	c-0.8-11.5-1.6-23-2.5-34.5c0.1-8.3-5.1-45.7,0.6-45.7"/>
<path class="st0" d="M369.6,89.6c4.7-18.2-9.8-34.3-10.5-50.1c-0.3-2.3-0.6-4.6-0.8-6.8"/>
<path class="st0" d="M327.5,182.5c-1.7-2.7-24.5-100.2-24.5-100.2c1.2-2,2.3-4,3.5-6"/>
<path class="st0" d="M302.1,153.9c-12.3-30.6-17.8-63.7-26.5-95c-3.2-11.3-14.4-17.7-23.8-23c-2.2-0.7-4.4-1.4-6.6-2.1"/>
<path class="st0" d="M273.7,0c10,0,1.1,18.1,0.6,22.8c0,0-10.2-22.8-16.7-22.8"/>
<path class="st0" d="M249.5,379.1c-42.1-26.8-78.2-80.6-95.6-126.4c-3.6-4.7-7.1-9.5-10.7-14.2c-4.6-7.3-10.2-34.7-8.8-42.3
	c1.4-0.6,2.9-1.2,4.3-1.8c2-6.7-8.9-52.7-18.6-50.8"/>
<path class="st0" d="M161,267.6c-7.5-3.5-17.7-15.6-27.1-10.9c-0.8,0.8-1.6,1.7-2.4,2.5c-0.6,2.3-1.2,4.7-1.8,7"/>
<path class="st0" d="M133,216.7c-3.6-3.2-7.2-6.4-10.9-9.5"/>
<path class="st0" d="M134,196.6c-1.6-4.3-3.2-8.6-4.8-12.9"/>
<path class="st0" d="M142.3,296.5c-18.1-12.6-26.6-34.3-31.7-55.2"/>
<path class="st0" d="M253.7,515.4c-5.4-6-13.3-4.5-17.8-8.6c-2.2-4.8-4.4-9.6-6.6-14.4c-11.9-14.2-20.5-30.2-28-47.8
	c-4.3-14.5-8.6-29-12.9-43.5c-0.9,0.5-1.9,0.9-2.8,1.4c-7.4,2.8-42.6-22.7-52.5-25.3c-3,0.6-5.9,1.2-8.9,1.9"/>
<path class="st0" d="M138.7,541.6c-25.2-10.4-7.9-48.3-15.1-68.4c-6.2-17.3-24-29.8-29.9-48.3c-3.1-11.9-6.1-23.8-9.2-35.8
	c0.1,0.7,0.2,1.3,0.3,2"/>
<path class="st0" d="M121.1,456.6c-0.8-7.7-1.6-15.5-2.4-23.2c-4.3-7.6-8.5-15.3-12.8-22.9c0.8-4.6,1.6-9.3,2.4-13.9"/>
<path class="st0" d="M444.9,627.6c1.5-3.4,2.9-6.7,4.4-10.1c4.4-0.3,70.8,28.6,78.7,33.3c5.2,3.1,18.3-0.4,20,4.4"/>
<path class="st0" d="M498.6,591.6c0.5,6.6-1.4,16.5-6.4,21.2c0-0.4-32.5-42.7-36.5-46.9c-4.5-4.6-13-5.7-18.1-11
	c-2.7-5.7-5.5-11.3-8.2-17"/>
<path class="st0" d="M411.3,391.1c2.5,7.3,5.6,23.4,10.3,33.4c0.2,0.4,0.4,0.7,0.6,1.1c3-0.8,16.9,4.4,17.6,7.3"/>
<path class="st0" d="M423.7,424.3c0.5,26.4,17.3,68.4,8.9,92.1"/>
<path class="st0" d="M428.4,477.7c-1.6,0.1-3.2,0.2-4.8,0.2c-7.8,4.2-13.9,31.3-15.5,38.9"/>
<path class="st0" d="M483.5,190.8c1.4-17.6-1.8-32.1-1.6-47.8c0.4-47,6.5-54.4-28.8-92c0,0,3.7,39.5,7.7,47.1c0.1-0.3,0.2-0.7,0.3-1
	c0.6,6,1.1,12.1,1.7,18.1c2.2,5.9,4.5,11.8,6.7,17.7c-0.1,10.7-0.2,21.5-0.3,32.2c2,9.4,9.7,14.1,13.5,21.2
	c-3.9,3.6,3.7,34.5,0.3,45.2c-6.9,13-13.9,26.1-20.8,39.1c-0.9,8.8-1.7,17.6-2.6,26.4c-4.6,4.1-9.2,8.1-13.8,12.2
	c-3.5,7.9-6.9,15.8-10.4,23.8c-16.2,15.3-8.1-3.8-16,23.5c-2.3,1.7-4.6,3.5-6.9,5.2"/>
<path class="st0" d="M497.9,291.1c0.5-10.5,7-43.3,5.9-52.4c-1.8-6.1-3.6-12.2-5.3-18.3c3.2-4.6,6.4-9.2,9.7-13.8
	c7.1-14.1,2.5-26.4,12.4-40.4c5.8-5.1,11.7-10.2,17.5-15.3c6.8-7.9,6.1-26.5,17.2-30c8.8-0.3,9.2,6.7,15.5,8.7
	c9,0.2,18.1,0.5,27.1,0.7c3.7-5,7.4-9.9,11-14.9"/>
<path class="st0" d="M552.8,118.1c5.2-26,5-44.1-3.9-69.4c-2.7-7.6-3.5-16.3-1.8-24.2c0.3-0.7,0.5-1.5,0.8-2.2"/>
<path class="st0" d="M540.5,132.7c-2.9-13.9-5.8-27.8-8.7-41.7c-4.1-12.1-12.5-8.3-10.7-23.7c1.1-9.4,17.9-56.4,16-59.9"/>
<path class="st0" d="M524.7,250.7c0.5-6.5,1-13,1.6-19.5c0.2,0.4,0.4,0.9,0.5,1.3c14.2,3.2,5.6-38.5,5.4-39.6c-0.3-1.5-0.7-3-1-4.6
	c0-1.8-0.1-3.6-0.1-5.4c-0.1-1.3-0.1-2.7-0.2-4c-0.3-0.9-0.5-1.7-0.8-2.6c-0.2-0.5-0.5-1-0.7-1.4c-3.8-1.7-3.5-0.9-6-5.8
	c0,0,1-23.4,0.7-35.9c-0.2-10-14.9-30.9-22.4-37.4c-7.1-6.2-7.3-17.4-8.7-26.3c-0.3-2.2-0.6-4.4-0.9-6.7"/>
<path class="st0" d="M511.3,95.7c-0.7,4-1.3,7.9-2,11.9c-6.5-12.3,3-27.7,0.7-39.7c-3.6-4.4-7.2-8.8-10.8-13.2"/>
<path class="st0" d="M520.9,600.8c1.1-7.1,0.6-15.6,6.2-20.9c2.3,1.1,4.6,2.2,6.9,3.4c1.7-1.9,3.4-3.8,5.2-5.7
	c26.2,3.9,36.2,39.6,46.8,59.7c3.8-1.3,7.5-2.6,11.3-3.9c7.7-0.1,13.1,11,21.7,8.9c0.9,0,1.9-0.1,2.8-0.1c3.3,6.7,6.7,13.4,10,20.1
	c17.3,11.1,26.2,33.2,47.7,39.9c18.5,5.8,36.4,0.9,54.6,2.6c7.3,0.7,11.8,6.1,20,5.5c13-1,16-8,26.4-12.8c5.8-2.7,37.4,5.7,42.5,11
	c0,0,60.6,48.4,73.5,49.3c6.4,0.5,17.5-10.6,20.5-9.9c5.9,11.6,11.8,23.2,17.8,34.8c8.3,7.3,16.7,14.5,25,21.8
	c3.5,4.5,7.8,17.6,13.1,17.6"/>
<path class="st0" d="M921.2,752c13-6.8,22.4-18.3,35-24.9c8-2.5,16-5.1,24-7.6c5.4-4.6,21-20.5,29.1-17.2c19,12.2,50.8,17.3,67,34.1
	c0,0,16.6-1.1,24.8-1.7c10.5,2.4,49.3,33.8,56.9,41.9c2,7.2,4,14.4,6.1,21.6c4.8,9.5,17.6,23.8,17.6,23.8"/>
<path class="st0" d="M534.2,578.9c18.8-23.7,23.8-56.1,41.6-81.4c5-7.2,15.5-5.4,22.4-11.9c8.4-2.7,21.7,16.6,29.5,19.4
	c1.4-0.2,2.8-0.4,4.2-0.6c3.4,5.1,6.7,10.1,10.1,15.2"/>
<path class="st0" d="M547.7,548.9c-5.9-15.5-6.5-30.5-18.3-42.5c-11.8-12-33.5-17.7-40.3-34.2c-2.7-6.4,0.7-54.6,4.9-59.9
	c4.8-6.1,13.2-4.5,19.5-8.1c22.8-12.9,11.8-21.9,43.4-24.3c0.4-9.4,0.8-18.8,1.2-28.2"/>
<path class="st0" d="M509.8,306.3l24.4,3.7c5.6-2.5,10.7-6,17.2-5.4c20.5,6.3,1.3,33.2,6.6,47.2c7.8,20.9,31.9,27.9,43.9,44.6
	c2,7.9,4,15.8,6,23.7c2.4,6.9,8.6,17.8,7,25.5c-5.9,7.4-15,10-17.9,21.2c1.3,7.1,2.5,14.2,3.8,21.3"/>
<path class="st0" d="M615.1,447.8c14.7-3.6,26.7-14.1,43.5-13.8c5,2.3,10.1,4.6,15.1,7c5-0.5,13-8.1,22.5-7.6
	c8.8,3.3,17.6,6.6,26.4,9.9c6.1-4.3,12.2-8.6,18.3-12.9c4.6,1.7,9.3,3.4,13.9,5.1c2.6-0.9,5.2-7.7,5.2-7.7s15.6-60.9,24.5-65.5
	c6.4-3.3,35.9-11.8,38.8-14.6c0.5-1.7,0.5-15.3,5.6-14.1c6.3,1,12.5,1.9,18.8,2.9c8.1-8.7,16.1-17.5,24.2-26.2
	c3.4,1.2,6.8,2.5,10.2,3.7c5-5,10-10.1,15-15.1c15.9-7.8,31.7-15.6,47.6-23.4c2.2,2,4.4,3.9,6.5,5.9c3.5-0.5,7.1-1.1,10.6-1.6
	c11.9,8.5-1.4,39-8.7,45.9c1.5,1.5,2.9,3,4.4,4.6c-6.3,5.9-16,1.3-23.4,3.7c-6.6,3.6-13.2,7.2-19.9,10.8c-1.8,0.8-3.6,1.5-5.4,2.3"
	/>
<path class="st0" d="M564.5,517.3c-4.4,1.4-8.1-1.8-10-5.9c-0.2-2.7-0.4-5.4-0.6-8.1c1.4-1.1,2.9-2.1,4.3-3.2
	c2.3-7.9-7.6-19.9-4.4-22.9c3.6-5.3,3.4-16.4,3.4-16.4"/>
<path class="st0" d="M466.7,471.5c1.9-4.6,4.8-63.2,3-66.5"/>
<path class="st0" d="M446.2,349.9c15,2.5,18.1,9.8,25,22.7"/>
<path class="st0" d="M478,360.5c1.1-0.1,17.1,1.8,17.1,1.8c16.3-4.2,21.8-35.5,29.4-42.6c0.9,0.4,1.7,0.9,2.6,1.3
	c2.3-1.7,4.6-3.5,7-5.2"/>
<path class="st0" d="M736.6,284.8c-2.1-4-14.6-29.7-20.4-24.3c-33.7-63.5-123,30.4-163,44.3c0,0,15.3,10.4,33.6,7.5
	c2.6,2.6,5.2,5.2,7.8,7.8c0.2,0.1,42.2,3.2,42.2,3.2c2.5-3.8,5.1-7.6,7.6-11.4c12.2-2.2,24.4-4.4,36.7-6.6
	c7.3,2.3,12.2,11.6,21.6,12.3c14.1-2.9,36-25.7,51.9-16.3c0.5,0.8,1.1,1.5,1.6,2.3"/>
<path class="st0" d="M702.8,240.1c1.2,0.9,2.4,1.7,3.6,2.6c7.3,0.4,14.5,0.8,21.8,1.3c5.3,1.8,5.1,9,11.6,9
	c11.4-2.3,27.4-27.1,38.2-24.6c0.4,0.7,0.9,1.3,1.3,2c8.7,1.1,15.8-8.1,23.8-2c0.7,0.5,1.3,1.1,2,1.6c3.2-3,6.4-6,9.6-9
	c1.2,1.6,2.5,3.1,3.7,4.7c33.5,9.3,41.2-19.8,62.8-24.3c8.4,1.9,25.8-13.2,32.5-19.5c-0.2,2.9-0.5,5.9-0.7,8.8
	c0.7,1,1.5,2.1,2.2,3.1c1.1,0.2,2.3,0.3,3.4,0.5c6.3-6,43.6-32.5,50.7-27c0.7,2.4,1.4,4.8,2,7.2c2.9,0.6,5.7,1.1,8.6,1.7
	c1.9,3.5,25.8,4.5,25.6,4.7c0,0,6.4-14.4,9.8-12.4c17.8,12.7,42.5-28.2,48.7-41.8c1.3-5,2.7-10,4-15c10.7-2.8,21.4-5.5,32.1-8.3
	c6,3.1,6,10.7,13.3,12.2c11.7,2.5,74.2-1.1,69.4-22.3c-2.3-5.8-8.9-11.1-11.2-18.3c-0.6-1.9,4.8-46.3,5.7-50c0.9-3.7,2.3-25,0.1-25"
	/>
<path class="st0" d="M1172.8,39.7c-16.1,19.1-45.2-11.8-53.4-24.6c-1-5-1.9-10.1-2.9-15.1c-1.3,0-2.6,0-3.9,0"/>
<path class="st0" d="M1099.7,101.2c5.3-20.5-4-32.4-8.4-51.9c-3-13,5.5-15-7.2-33.1c-5.7-5.1-11.5-10.2-17.2-15.2"/>
<path class="st0" d="M1091.5,32.8c-0.8-2-1.4-7.5,2.4-7.8c2.9,3.3,5.8,6.6,8.8,9.9c1.9,0.4,23.8-7.7,23.8-7.7"/>
<path class="st0" d="M901.1,189.2c4.1-22.1,21.9-27.7,29.5-45.8c5.3-12.6-1.9-28.4,4.9-42.2c5.3-10.7,14.8-17,21.6-26.4
	c39.8-55.6,53.9-30.6,105-30.3c3.6,3.4,7.2,6.9,10.8,10.3c5.8-2.5,11.6-4.9,17.4-7.4c11,5.7,16.9,22.1,29.6,23.5
	c6.5,11.7,13,23.4,19.4,35.1c2.1,0.4,4.1,0.8,6.2,1.2c0.7,1.1,1.3,2.1,2,3.2"/>
<path class="st0" d="M965.7,167.7c3.1-8.1,3.6-17.8,6.6-25.3c0.1-0.1,0.3-0.2,0.4-0.3c2.1,0.4,4.1,0.7,6.2,1.1
	c7.4-10,14.8-19.9,22.2-29.9c11.6-10.4,17.9-4.3,25.2-7c26.9-13.9,19.3,3.8,36.9,0.3c0.4-0.6,0.8-1.1,1.2-1.7"/>
<path class="st0" d="M976,142.8c0.6-14.6,1.2-29.1,1.8-43.7c0.2-0.2,0.5-0.5,0.7-0.7c12.3-3.1,74.2-27.7,79.7-24.9
	c8.9,10.2,21,21.3,27,34.1"/>
<path class="st0" d="M685.3,237c23.2-18.8,46.5-37.5,69.7-56.3c3.6-8.2,7.2-16.4,10.9-24.6c10-12,52.8-48.9,67.9-53
	c19.1-5.2,42.5,37.9,54.7,46.7c6.9,4.9,14.7,15.9,23,13.3c1,0.4,2.1,0.8,3.1,1.3"/>
<path class="st0" d="M781.8,136.2c-4.4-34.1,38.4-41.3,58.8-58c14.1-11.5,21.2-30.7,28.3-47.1c7.4-17.4,25.8-31,25.8-31"/>
<path class="st0" d="M712.1,208.8c4.9-1.6,20.9-26.1,29-33.8c1-7.5,2-14.9,3-22.4c-5.5-10.4-1.6-25.8-7.1-34.7
	c-2.7-4.5-11.6-20.1-15.3-23c-5.9-3.1-11.7-6.3-17.6-9.4c1.9-14.7,17-42.4,28.4-53.2c1.4,0.9,2.7,1.7,4.1,2.6
	c8.1,0.1,13.8-25.1,19.8-30.7c6.1-1.4,12.2-2.8,18.2-4.2"/>
<path class="st0" d="M580.8,211.3c18.4-4.5,35,23.1,50,28.8c0.8-0.3,1.6-0.7,2.5-1c4.4,4.1,8.9,8.2,13.3,12.3"/>
<path class="st0" d="M511.3,279c6.9-5.2,13.2-15.7,21.9-16.9c4.3,1.7,8.6,3.4,12.9,5c4.1-0.4,8.3-0.8,12.4-1.2
	c5.5-0.2,27.4-36.8,34.1-41.5c7.9-4,15.8-8,23.7-12c14.8-12.8,19-34.1,29.8-49.8c5.4-7.8,12.7-11.5,16.4-20.9
	c4.3-11.2-2.2-29.9,3.2-38.6c9.2-14.9,20.2-32.3,31.7-45.6c6.6-5.6,13.1-11.2,19.7-16.8c1.9-5.9,3.8-11.7,5.7-17.6
	c6.8-9.2,13.6-4.6,19-23.1"/>
<path class="st0" d="M620.4,137.9c5.2,1.3,36.1-19.6,34.1-23.4c-4.5-19.9,4.6-28.3,6.3-44.6c1.4-13.8-2-26.5,2.2-40.4
	C665.1,22.8,675.4,0,675.4,0"/>
<path class="st0" d="M521.5,253.9c-4.8-0.5-14.6-11.1-17.1-8.7"/>
<path class="st0" d="M563.9,328.1c5.1-1.4,10.2-2.7,15.3-4.1c0.3,0,0.5,0.1,0.8,0.1c4.6,1.7,2.6,8.1,8.3,6c2.3-0.9,4.7-1.8,7.1-2.7
	c3.6,2.5,7.3,4.9,10.9,7.4c0.7-0.6,1.3-1.1,2-1.7c5.9,7.1,9.7,17.4,20.1,19.7c2.9-1.6,5.8-3.1,8.6-4.7c6.4,3,26.5,11,31.3,14.6
	c2.8,4.6,5.5,9.2,8.3,13.7c6.1,6.2,12.2,12.4,18.2,18.6c9.9,15.2,12.9,39,22.5,53.6"/>
<path class="st0" d="M628.6,349.9c1.3,5.3,12.2,24.5,19.3,24.3c0.3-0.1,0.6-0.2,0.9-0.4c5.7,2.2,20,57.5,17.5,62
	c-0.6,0.6-1.3,1.1-1.9,1.7"/>
<path class="st0" d="M560.9,339.2c2.4-0.3,46.5,14.7,52.7,18.1c6.6,3.7,9.3,12.1,18.4,12.2c2.1-1.1,4.2-2.2,6.2-3.4
	c4.9-1,9.3,4.8,15.7,2.5c28.4-10.1,32-41.8,61.7-11.2c6.5,6.4,12.9,12.8,19.4,19.2"/>
<path class="st0" d="M704.6,315.6c11.8,5.9,35,10,48.6,11.4c1.5,0.3,3,0.5,4.5,0.8"/>
<path class="st0" d="M616.9,265.8c-5.6,11.4,12.4,28,21.5,36.8c2.6-0.2,5.3-0.4,7.9-0.6c9.6,6.1,19.3,12.2,28.9,18.4
	c4.6,2,8.3-1,13.5,2c10.6,8.7,21.1,17.4,31.7,26.1c0.2,0.1,0.3,0.2,0.5,0.3c0.2,0.1,0.3,0.2,0.5,0.3c0.3,0.2,0.7,0.3,1,0.5
	c0.2,0.1,0.3,0.2,0.5,0.2c0.3,0.1,0.5,0.2,0.8,0.3c8.1-0.1,16.2-0.1,24.3-0.2c7.3,2.4,14.6,4.7,21.8,7.1c8.5-2.4,17-4.8,25.5-7.2
	c7.5-0.9,11.3,3.6,18,3.4c14.7-0.5,49-4.8,59.1-14.3c16.5,5.1,23.9,0,39.7,2.3c11.8,1.8,24.8,9.4,37.2,12.3c0.6,1.1,1.2,2.2,1.9,3.3
	"/>
<path class="st0" d="M569.3,306.9c5.2-1.7,11.1-7.6,15.7-8.5c35.9-7.3,52.5,24.1,83.2,32.7c16.3,4.6,23.6,4.4,38.9,5
	c0.7,1,1.5,2.1,2.2,3.1"/>
<path class="st0" d="M635.8,320.7c10.7,15.9,27.8,29.1,40.2,44"/>
<path class="st0" d="M673.2,350.5c9.2,6,18.5,12,27.7,18c6.8,2.7,13.7,5.4,20.5,8.2c23,18.7,54.2,84.4,63.6,114.1
	c2.4,18.6,4.8,37.1,7.2,55.7c6.2,2.5,12.4,4.9,18.7,7.4c14.3,18.6,28.7,37.2,43,55.8c-0.4,17,1.7,41.3,9.4,57
	c4.7,7.7,9.3,15.4,14,23.1c-1.2,1.4-2.4,2.7-3.6,4.1c-0.1,17,16.1,30.5,11,49.6c-15.1,25.7-2,17.4-6.9,41.4c-3,2.2-6,4.5-9,6.7
	c-7.4,13.2-4,30.5-21.7,30.5"/>
<path class="st0" d="M599.7,817.8c3.4-9.4,6.7-18.7,10.1-28.1c30.1-10.5,28.4-50.2,19.1-78.1c0.4-0.2,0.7-0.5,1.1-0.7
	c19.5-2.2,9.8-41.2,15.1-49.4c0.1-0.1,0.1-0.2,0.2-0.3c2.5-1.8,5-3.6,7.5-5.4"/>
<path class="st0" d="M635.9,661c-9,13.8-10,20.5-11.5,36.1"/>
<path class="st0" d="M604.7,599c-0.8,7.2-1.7,14.4-2.5,21.6c-6.5,8.8-13,17.5-19.5,26.3c-8.2,12.9-11.9,30.1-15.8,44.2
	c-0.4,0.8-0.8,1.7-1.3,2.5"/>
<path class="st0" d="M524.6,606.6c2.3-2.8,4.6-5.6,6.8-8.4c17.7-2.5,16.2,29,28.2,32.5c0.6-0.3,1.2-0.5,1.9-0.8
	c11.4,0.1,25.7,43.7,30.4,52.6"/>
<path class="st0" d="M600.9,637.3c0,13.5-4.6,25,0.8,38.4"/>
<path class="st0" d="M656.3,713.6c17.2-7.8,26.1-30.6,44-37.4c3.1,2.6,6.1,5.2,9.2,7.9c17.4-8.1,20.2-42.3,44.9-30.5
	c3.4,1.6,14.7,2.4,13.7,8.6"/>
<path class="st0" d="M729.4,664.1c9.1-13.2,0.6-27-1.5-40.6c-0.3-1.9-0.5-3.9-0.8-5.8"/>
<path class="st0" d="M740.5,656.2c0.8-9.4,0.6-20.5,6.8-27.8c1.3-1.5,2.6-3,3.9-4.5"/>
<path class="st0" d="M689.1,652c-4.4,5.3,34.6,47.8,36.6,64.8c1.8,16,4.7,30.4,4.3,46.3c-0.1,0.5-0.2,1-0.3,1.4"/>
<path class="st0" d="M622.3,772c0.8,1.9,1.6,3.7,2.3,5.6c7.1,11.3,15.2,23.9,11.3,37.7c-0.1,2.2-0.1,4.5-0.2,6.7c1.5,0,3,0,4.5,0
	c0,0,5.9-7.6,8.6-12.3c3.4-2.9,6.8-5.8,10.3-8.6c3.6-6.1-0.8-13.4,3.5-19.9c4.5-6.8,26.3-14.1,35.2-23.4c12.7-13.2,7.9-25.9,29-39.9
	c1.2,0.3,2.4,0.7,3.6,1c2.1-4,4.2-8,6.3-12"/>
<path class="st0" d="M660.8,797.7c7.8-6.3,17.9-12.5,26.6-18.6c9.5,0.2,34.2-1.2,39.2,8.3c0.5-0.4,0.9-0.9,1.4-1.3"/>
<path class="st0" d="M679.4,813.9l52-24.5c-1.1-1.1-2.2-2.2-3.3-3.3c2.3-5.1,4.5-10.1,6.8-15.2c11.9-12,32.8-21.8,40-38.1
	c3.5-8-12.2-21-6.5-27.4"/>
<path class="st0" d="M809.2,700.4c-6.3,8.5-15.8,21.1-23.2,28c-3.9,0.3-7.7,0.6-11.6,1c1.4-1.1,2.8-2.2,4.2-3.2c2,3.2,4,6.3,6,9.5
	c-13.5,12.7-11.2,40-17,56.2"/>
<path class="st0" d="M726.8,718.1c2.6,8.6,11.3,8.9,16.8,10.8c4.7,6.2,9.3,12.5,14,18.7"/>
<path class="st0" d="M727.8,435.2c7,19.2-1.7,39.2,4.6,59c4.1,11.2,8.3,22.3,12.4,33.5c3.1,2.4,6.2,4.8,9.3,7.2
	c2.5,6.8,5.1,13.6,7.6,20.4c2.5,2.1,4.9,4.2,7.4,6.3c1.1,7.7,2.2,15.4,3.3,23.2c3.6,9.8,7.3,19.6,10.9,29.4
	c4.1,13.4-11.4,26.9-5.6,37.9c4.6,1.4,9.2,2.8,13.7,4.2c4.5,3.2,17.3,20.5,23.8,27c5.8,5.8,9.4,21.9,9.4,21.9"/>
<path class="st0" d="M790.1,661.2c1.2,3.6,2.5,7.2,3.7,10.9c-2.3,3-4.6,6-6.9,9.1c-1.3,6.6-2.6,13.1-3.9,19.7"/>
<path class="st0" d="M751.9,530.7c-5.6,6.9-11.1,13.7-16.7,20.6c-0.6,0.1-35.1-14.3-36.7-14.3c-3.7,2.1-7.4,4.1-11.1,6.2
	c-1.2-0.5-2.4-0.9-3.7-1.4"/>
<path class="st0" d="M696.8,535.6c4.4,6.1,8.9,12.2,13.3,18.3c-0.2,1-0.3,2.1-0.5,3.1c1.5,1.9,3,3.8,4.4,5.7c3.5-0.2,7-0.4,10.5-0.6
	c19.7,15.8,23.5,46.7,34.7,67.8c5.2,7,10.4,14,15.6,21"/>
<path class="st0" d="M725.5,540.3c-0.5,6.6-1,13.2-1.5,19.8c-1-0.5-2-1-3-1.6c-14.3-2.2-27.3,10.6-36.3,19"/>
<path class="st0" d="M693.7,567.7c-2.5-6.9-4.9-13.9-7.4-20.8"/>
<path class="st0" d="M742.1,583.7c-15.8,10.3-16.5,18.6-27.9,33.1"/>
<path class="st0" d="M757,514.4c7.4,10.7,12.9,20.7,23.3,28.9c3.8,3,13.3,1.3,16.4,7.1"/>
<path class="st0" d="M787,538.7c1.4,17,2.8,34,4.2,51.1c-0.2,3.9-8.2,12-7.4,13.5"/>
<path class="st0" d="M807.4,551.9c-1.3-0.6-2.6-1.3-3.8-1.9c-0.4-19.4,16.2-17.2,24.1-28.3c7.6-10.7,7.1-41.6,1-53
	c1.7,1.2,3.4,2.5,5.1,3.7c4.1-0.8,8.4-0.5,12-1.2c1.5-1.6,3-3.2,4.5-4.8c9.7,5.3,29.6-10,38.7-13.1c4.6,0.5,6.4,5.4,11.6,3.2
	c8.6-6,3.2-16,4.2-24.5c8.4-2.2,16.8-4.3,25.2-6.5c3.5-11.1-5.5-39.3,4.2-48.5c0.1,0.2,0.2,0.4,0.3,0.6c-0.4,0.4-0.8,0.8-1.1,1.2
	c-6-3.8-12.1-7.6-18.1-11.4"/>
<path class="st0" d="M937.3,377.5c1.4-5.6,2.7-11.2,4.1-16.9c7.4-7,10.8-8,18.1-14.8c8.8-4.1,20.4,4.2,30.2-2.1c2,2.9,4,5.7,6,8.6
	c13.8-1.3,21.5-14.2,30.7-22.8c-1.1-4.2-2.3-8.3-3.4-12.5c15.2-14.3,13-38,29.5-49.3c3.3-0.2,6.6-0.4,9.9-0.5
	c1.3,1.5,2.6,2.9,3.9,4.4c7.4-1.5,8.4-11.5,12.4-15.2c0.6-0.2,1.2-0.3,1.8-0.5"/>
<path class="st0" d="M965.2,284.9c3.2-8.4,25.6-14.7,34.5-12.5c3.2,1.5,6.5,3,9.7,4.5c11.1-2.3,18-17,30-12.5c1.7,0.7,3.4,1.3,5.2,2
	"/>
<path class="st0" d="M875.6,204.8c6,6,12.1,12,18.1,18c6-3.6,12-7.1,17.9-10.7c4.9,1.6,9.9,3.2,14.8,4.9c5.7-3.4,11.4-6.9,17.2-10.3
	c11.5-2,23-4.1,34.5-6.1c4.4-1.7,7.9-9,11-9.5c0.4,0,0.7,0,1.1,0c8.5,2.7,17,5.4,25.5,8.1c4-0.2,8-0.5,12-0.7
	c1.6,1.7,3.3,3.5,4.9,5.2c0.7-0.2,1.5-0.4,2.2-0.6c0.2,5.3,0.5,10.6,0.7,15.8c3,9.8,27.6,43.7,39.2,42.8c5.5-1.5,6.4-7.4,13.2-6.3
	c11.1,1.7,20.6,7.9,29.7,14.2c1.5,0.4,2.9,0.9,4.4,1.3c2.8,9.1,5.6,18.2,8.4,27.2c4.1,6.1,12.3,3.9,16.6,12
	c9.2,17.4,31.4,92.5,8.2,104.5c-4.2-2.9-8.5-5.8-12.7-8.8c-4.2,0.4-8.3,0.8-12.5,1.2c-8.8-1.2-33-12.1-33.2-22.5
	c5.3-7.4,4.5-13.7,7.7-21.7c-1.9-4.6-3.9-9.1-5.8-13.7c-3-1-6.1-2.1-9.1-3.1c6.5-16.1-1.2-34.3-9-48.9c-3.9-7.1-7.7-14.2-11.6-21.2"
	/>
<path class="st0" d="M1161.2,349c5,9.7,10,20,18.4,27.3c4.1,3.6,7.8,2,11.5,7.8c2,9.3,4,18.7,6,28c2.4,5.5,4.7,11,7.1,16.6
	c-2.7,4.5-5.4,9-8,13.6c-1.4,8.8-2.9,17.6-4.3,26.4c-6.9,12.6-13.7,25.1-20.6,37.7c-2.8,11,1.8,20.7,0.8,31.4
	c-1.5,4.8-3.1,9.6-4.6,14.5c3.3,6.4,6.6,12.9,9.9,19.3c-1.1,4.4-2.2,8.8-3.3,13.3c4,11.2,7.9,22.5,11.9,33.7
	c3.6,6.3,11.9,6.9,15.5,14.4c8.8,18.6,11.6,40.7,21.1,58.4"/>
<path class="st0" d="M1185.8,617.2c14.8,27.8,22,62.3,28.1,93.1c2.8,8.8,5.7,17.5,8.5,26.3c0.3,5.7,0.7,11.5,1,17.2
	c0.2,1.3,0.4,2.6,0.6,3.9"/>
<path class="st0" d="M1194.5,649c-2.2,8.7-4.3,17.5-6.5,26.2c0.5,9.4,8.8,26.4,10.6,38"/>
<path class="st0" d="M1152,770.9c4.6-11.9,9.3-23.8,13.9-35.6c-0.8-9-1.7-18.1-2.5-27.1c1.4-12.9,7.9-24.7,8.4-38.6
	c-1.7-6.1-3.4-12.3-5.2-18.4c3.8-8.1,7.5-16.2,11.3-24.3c-0.6-16.4-1.1-32.9-1.7-49.3c0,0-9.8,23.6-16.5,34.7
	c-4.5,5.7-8.9,11.3-13.4,17c-1.1,12.8-2.2,25.5-3.3,38.3c-1.5,4.9-11.4,11.7-14.1,18.4c-0.4,0.8-0.7,1.7-1.1,2.5
	c-0.3,0.8-0.7,1.5-1,2.3c-0.2,0.3-0.3,0.7-0.5,1c-6.9,13.5-13.8,22.4-19.3,36c-0.2,0.5-0.4,1.1-0.6,1.6"/>
<path class="st0" d="M1163.9,555.9c-4.5,23.7-21.3,58.5-38.1,76c-3.6,3.8-12.5,3.8-17.1,9.8c-5.4,7.1-6.1,14.7-12.4,21.9
	c-6.6,7.4-27.8,31.2-30.4,28.7"/>
<path class="st0" d="M1136.2,601.5c-10.2,18.9-23.7,23.4-42.9,22.3c-1.3-1.3-2.6-2.7-3.9-4c-4.3,0.7-8.5,1.5-12.8,2.2
	c-5.9-0.8-19.1-12.1-23.6-15.8c-1.6-1.3-2.3-3.4-4.2-1.3"/>
<path class="st0" d="M1110.9,636c-1.4,0.8-2.9,1.7-4.3,2.5c-2.1,0.6-4.2,1.2-6.3,1.8c-13.6-1.4-8.8,3.9-20,9.1
	c-8.8,4.1-18.8-2.7-29.1,2.8c-1.5,1.2-3,2.3-4.6,3.5"/>
<path class="st0" d="M1145,634.9c-3.1,6.4-18,7.2-23.8,14.2l-34.4,58.6c-0.9,2.5-1.8,5-2.7,7.5"/>
<path class="st0" d="M1117.3,745.4c2-11.2,5.2-33.3,15.2-40.6c8.5-3.8,17-7.6,25.5-11.4c29.6,2.3,29.2,50.1,38.8,68.1"/>
<path class="st0" d="M1211.2,816.6c6.4-2.4,41.1-29.2,44.7-38c4.6-11.2,1.6-22.5,2.6-33.9c2.2-25.5,14-49.3,29.5-69.4
	c14.4-11.1,28.9-22.2,43.3-33.2c6.6-2.8,13.1-5.6,19.7-8.4c6.1-5.1,20.3-15.6,21.8-23.8c0.1-1.7,0.2-3.3,0.3-5"/>
<path class="st0" d="M1250.4,783.9c6.9,12.6,14.4,16.1,18.7,30.5c0.6,2.5,1.1,5.1,1.7,7.6"/>
<path class="st0" d="M1307.6,656.1c-0.5-12.1-8.4-18-11.4-28.2c-0.3-9.5-0.6-19.1-0.9-28.6c-2.5-6.4-5.1-12.9-7.6-19.3"/>
<path class="st0" d="M1153.5,311.6c7-1.5,11.4,3.3,17.7,2.9c3.1-1.3,6.2-2.6,9.3-3.9c0.2,0.1,43,39.8,45.7,44.8"/>
<path class="st0" d="M1120.9,268c17.1,11.9,28.4,4.5,44.7,9.7c11.9,3.7,23.7,15,36.6,14.9c5.8-2.3,11.6-4.6,17.5-6.9
	c8,2.2,16,4.4,24,6.7c10.6-0.3,21.2-0.7,31.8-1c11,3.9,35.2,13.7,39.8,25.6c6.6,17.1,6,40,19.1,54.7c11.3,12.7,25.2,14.8,37.5,24.6
	c4.2,5.9,8.3,11.8,12.5,17.7c6.6,5.9,14.9,6.4,19.7,15.5c-4.3,12.9,5.8,33.6,2.6,41.6c-0.8,0.8-1.1-7.2-2.4,2.4
	c-1.3,9.6-17.8,34.8-31.2,49c0,4.5-0.1,9-0.1,13.5"/>
<path class="st0" d="M1391.2,491.5c-4.6,9.3,2.2,13.3,2.4,22.1c0.2,8.3-3,15-5,22.9c-0.2,1.6-0.5,3.2-0.7,4.8"/>
<path class="st0" d="M1403.9,478.7c-0.4,21.2-0.8,42.5-1.2,63.7"/>
<path class="st0" d="M1400.9,429.7c8,10,16,20,24,29.9c2.4,10.4-5.6,18.8-6,28.4c-0.9,19.3,5.7,44,12.2,62c-0.2-0.4-0.4-0.8-0.7-1.2
	"/>
<path class="st0" d="M1422.9,484.4c-0.1,19,13.1,31.2,17.3,48.7"/>
<path class="st0" d="M1417.6,447.1c18.9-0.1,35.8-23.8,48.1-23.9c4,1.3,7.9,2.6,11.9,3.9c11.5,9,6.9,36.9,10,49.9c2.5,7,5,14,7.5,21
	"/>
<path class="st0" d="M1307.6,309.2c16.4-9.3,26.8,15.2,40.1,15.3c2.7-1.4,5.4-2.9,8.1-4.3c2.7,2.5,5.4,5,8.1,7.5
	c16,8.2,70.4,34.3,83.3,22.1c3.4,6.4,11.4,3.7,15.1,9.9c4.2,7.9,8.3,15.8,12.5,23.7c1.8,7.5-1.2,14.9,4,22.4
	c7.2,4.8,14.5,9.5,21.7,14.3c4.4,8.5,8.9,17.1,13.3,25.6c5.8,5.7,11.5,11.5,17.3,17.2"/>
<path class="st0" d="M1339.7,322.5c21.8,14.2,24.1,48.2,43.4,65.1c16.7,14.6,46.5,3.6,68.5,14.4c15.3,7.5,30,39.9,39.3,43.5
	c2-0.6,3.9-1.2,5.9-1.9c12.3,3.9,20.3,29.8,25.3,39.3"/>
<path class="st0" d="M1422.1,390.7c0.6,2.4,1.1,4.7,1.7,7.1c1.4-5,10.1-10.3,15.1-11.3c15.2,3.5,33.2,9.1,41.4,24.5"/>
<path class="st0" d="M1481.7,416.7c1,2.5,2.1,5,3.1,7.5c3.2,2.5,24.1,3.5,22.7,1.1"/>
<path class="st0" d="M1109.7,262.6c3.3-2.5,6.5-4.9,9.8-7.4c3.9,1.5,7.8,3.1,11.8,4.6c6.7-6.3,12.1-12.2,21.9-14.2
	c4.5,2,8.9,4.1,13.4,6.1c6.8-0.6,13.5-1.3,20.3-1.9c8.1-1.2,48.1-19.6,54.3-18.1c4.5,8.4,10.2,22.1,22.6,20.4
	c2.9-1.1,5.7-2.3,8.6-3.4c3.4,6.5,12.8,22.7,20.4,24.4c14.6-13.8,34,2.1,45.2,1.9c6.7-1.7,13.4-3.4,20.1-5.1
	c11.6,6.8,7.2,14.2,24.3,18.1c1.2,1.2,2.5,2.4,3.7,3.6c7.9,14.8,31.8,8.6,34.5,13.6c1.8-0.2,3.6-0.5,5.4-0.7
	c4.8,9.1,22,8.7,29.9,14.6c2.9,5.2,5.7,10.4,8.6,15.6c15.2-3.1,24.8,32.5,42.1,36.5c7.6,14.4,10.5,22.4,26.6,26.8
	c15.7,4.3,27.5,4.6,27.5,4.6"/>
<path class="st0" d="M1463.3,341.9c0.6,1.6,1.2,3.1,1.9,4.7c2.8,8.9,33.3,66,43.5,56.3c1.8,3.8,3.5,7.7,5.3,11.5
	c9.6,2.2,18-2.7,27.1-1.1c0.9-0.2,1.8-0.5,2.6-0.7c0,0.1,0.1,0.1,0.1,0.2"/>
<path class="st0" d="M1244.5,232.7c1.8-1.8,3.6-3.6,5.3-5.4c1.5,2.5,3,4.9,4.6,7.4c12.9,6.6,27.6-12,39.2-9.4
	c6.2,11.6,26.6,6,36.3,10.9c2.5,3.9,5,7.8,7.5,11.8c7.6,5,17.3-0.2,24.8,3c3,3.3,6.1,6.6,9.1,9.8c11.9,2.7,23.3-3.8,34.3-5.9
	c17.2,1.2,34.3,2.4,51.5,3.6c3.6,5.7,7.1,11.4,10.7,17c8.2,3.8,16.3,7.6,24.5,11.4c3.8,6.6,7.6,13.3,11.4,19.9
	c3.6,2.3,7.3,4.5,10.9,6.8c8.8,10,10,20.6,14.4,32.6c3.5,9.6,12.1,28.4,25.3,23.6c1.8,1.8,3.7,3.5,5.5,5.3"/>
<path class="st0" d="M1026.2,166.6c2.8,2.4,10.5,11.6,15.6,10.2c12.6-7.5,22.6-18,35.9-24.8c6.5,0.7,13,1.4,19.5,2.2
	c6.2-3.4,12.5-6.8,18.7-10.1c18.4,0.9,36.9,1.8,55.3,2.7c17.9,22.5,40.5,0.6,61.7,0.6c6.4,3.1,12.8,6.2,19.2,9.3
	c0.8,0,1.6-0.1,2.4-0.1c6.8-1.6,13.7-3.2,20.5-4.8c3.9,2,7.7,3.9,11.6,5.9c1-0.5,2-1.1,3-1.6c0.2,0.3,0.5,0.7,0.7,1
	c8.6,10.5,21.2,21,28.5,31.7c7.3,10.6,7,29.1,20.1,36.4c5.8,0.9,11.5,1.7,17.3,2.6c3.8,3.4,7.6,6.7,11.5,10.1
	c5.4,0.4,10.8,0.8,16.1,1.1c6.7,5.6,13.5,11.1,20.2,16.7"/>
<path class="st0" d="M1182.1,88.4c4.6,7.9,27.5,5.1,33.6-0.7c4.6,1.6,9.1,3.3,13.7,4.9c3.5-1.1,7.1-2.2,10.6-3.3
	c0.2,0,0.4,0.1,0.6,0.1c7.3,3.6,14.7,7.1,22,10.7c20.5,2.5,41.5-4.4,61.9,0.3c5,9.3,12.8,5.5,20.3,11.4c7.2,5.7,4.6,11.9,10.5,18.2
	l44.7,26.5c7,1.4,11.2-1.8,15.7-6c0,0,23,16.4,28.5,17.7c11,2.5,14,19.7,24.5,24.9c11.9,5.8,22.5,12.1,35.3,15.8
	c6.2-0.1,12.5-0.1,18.7-0.2c8,9.4,16,18.8,23.9,28.2c10.6,10.3,30.9,5,37.5,17.4"/>
<path class="st0" d="M1413,159.6c4.6,8.1,14.1,17.5,23.8,17.9c8.8,3.1,12.7,21.2,22.6,26.1c18.4,9,40.9,10.8,55,21
	c13.7,9.8,18.7,26.8,31.4,37.7c7.1,6,19.9,5.6,24.9,12.9"/>
<path class="st0" d="M1484.7,218.6c5.2,5.9,27.1,44.7,33.2,45.6c18.6-2.9,29.6,16.2,40.6,27.9c0-0.5,0-0.9,0-1.4"/>
<path class="st0" d="M1444.8,166.5c7.3-4.9,20.9,3.7,29.7,1.6c2.3-2.5,4.7-5,7-7.5c21,12.3,34.9-9.1,45.2-5.4c1.3,1,2.7,1.9,4,2.9
	c11-3.1,26.9,0.3,35.8-7.1c1.3-0.9,2.6-1.8,3.9-2.7c4,7.6,7.7,18.1,14.9,23.7c4.6,1.3,9.2,2.7,13.8,4"/>
<path class="st0" d="M1453.3,176.1c0.6,1,1.3,1.9,1.9,2.9c8.3,3.2,16.6,6.3,25,9.5c5.3-3.7,10.6-7.5,15.9-11.2
	c9.2,7.6,18.4,15.1,27.6,22.7c4.8-2.3,9.7-4.5,14.5-6.8c20.6-1.8,42.1,12.3,59.9-4.6c0.6-1.5,1.1-3,1.7-4.5"/>
<path class="st0" d="M1532,196.2c8.6,6,17.1,12.1,25.7,18.1c14.2,0.2,30.3-18.8,44.7-8.1c1.1,1.1,2.1,2.1,3.2,3.2"/>
<path class="st0" d="M1482,195.4c9.7,3.9,20.9,0.6,29.4,3.9c1.1,0.5,2.2,1.1,3.3,1.6"/>
<path class="st0" d="M1475.1,159.8c13.7,4.6,59.3-39.1,70.8-49.9c4.4,3.8,13.6,10.4,20.4,9.8c4.3-0.4,28.6-19.5,26.4-23.6"/>
<path class="st0" d="M1546.8,148.7c4.8-13.3,9.5-26.5,14.3-39.8c8.2-4.1,16.3-8.3,24.5-12.4c0.2-1.8,0.4-3.6,0.6-5.3"/>
<path class="st0" d="M1507.3,136.5c4.3-8.1,6.8-20.7,12.8-26.7c6.2-6.2,14.2-6.2,19.7-14.2c2.7-6.7,5.3-13.5,8-20.2
	c8.8-13,29.7-16.6,27.7-14.3"/>
<path class="st0" d="M1179.8,80.7c3.6-0.4,7.1-0.9,10.7-1.3c2.1,2.3,4.2,4.6,6.3,6.8c6.3-5.2,12.5-10.3,18.8-15.5
	c8.8-0.5,15.2,11.6,25.7,7.9c19.7-6.8,54.8-27,72.5-27.7c4-3.1,7.9-6.2,11.9-9.2c5.4,0.9,10.7,1.9,16.1,2.8
	c28.9-3.3,12.6-11.9,39.5,0.2c10.1,1.5,18.8-9.6,30.2-5.8c28.2,9.3,36.8,38.6,64.8,48.5c10.9,3.9,17.7-4.9,27.3-2.7
	c3.8,3.7,7.5,7.5,11.3,11.2c0.1-0.6,0.3-1.2,0.4-1.8"/>
<path class="st0" d="M1371.6,38c5.5-5.2,12.3-13.1,20.5-13.7c2,1.8,4,3.6,6,5.4c4.7,0,9.4,0.1,14.1,0.1c0.2,0.1,0.5,0.2,0.7,0.3
	c5.3,3.5,10.6,6.9,15.9,10.4c8.7,1.4,14.5-8.2,22.2-7.6c10.4,1.1,12.3,12.3,18.9,17.2c13.8,4.1,27.6,8.1,41.5,12.2
	c2.2-1.8,4.4-3.7,6.6-5.5c0.6-2.2,1.2-4.3,1.9-6.5"/>
<path class="st0" d="M1466.9,34.7c38.5,0,34.7-19.7,63.8,19.7"/>
<path class="st0" d="M1410.4,26.1c7-2.5,14-5,21-7.5c11.3,21.3,37.4-0.5,44.6-13.9c1.7-1.6,3.5-3.2,5.2-4.8"/>
<path class="st0" d="M1349.7,6.6c-8.1,7.6-11.7,26.3-11.7,37.4c0.8,6.6,20.2,38,27,40.9c2.8-1.4,5.5-2.7,8.3-4.1
	c2.4,1.6,4.8,3.2,7.2,4.8"/>
<path class="st0" d="M1360.7,72.4c5.6,1.7,11.2,3.4,16.8,5.1c2.7-1.6,16.4-10.7,14.8-13.8"/>
<path class="st0" d="M1277,64.5c-1.6-1.1-3.2-2.1-4.7-3.2c-1.3-21.4,26.9-34.3,32.2-53.6c0.9-2.6,1.8-5.1,2.8-7.7"/>
<path class="st0" d="M1187.9,78.7c4.8-9.5,15.1-12.8,20.3-20.1c3.6-10.8,7.2-21.7,10.9-32.5c7.8-3.7,15.7-7.4,23.5-11.1
	c0.8-5,1.5-10,2.3-15"/>
<path class="st0" d="M1225.7,18.3c3.3-4.8,6.6-9.6,9.9-14.4"/>
<path class="st0" d="M1033,202.8c17.3-5.9,52.3,13.5,64.5,26.4c7.6,8.1,15.1,16.2,22.7,24.3"/>
<path class="st0" d="M1044.4,198.9c-2.4-2.7-2.7-2.9-0.4-5c17.4-0.1,36.2,11,49.5,11.3c9.1,0.2,14.6-8.8,22.9-11.6
	c14.2,2.3,28.3,4.7,42.5,7c12.1,4.1,24.1,23.8,29.1,34.3c0.5,1.8,1.1,3.6,1.6,5.3"/>
<path class="st0" d="M1122,192.1c10.3,0.5,14.7-12.1,27.4-10.4c3.1,2.4,6.3,4.7,9.4,7.1"/>
<path class="st0" d="M843,604.4c-9,18-14.2,34-25,51.4c-0.8,5.7-1.5,11.5-2.3,17.2"/>
<path class="st0" d="M845.1,596.6c2.5,5.3,25.1,9,31.2,9c14.7-4.2,2.2-54.4,13-66.1c14.6-15.8,32.3-14.6,51.4-23.3
	c2.4-3,4.8-5.9,7.2-8.9c4.3-2,19.8,0.2,19.8,0.2"/>
<path class="st0" d="M829.1,516.9c-0.8,16.2,15.4,17.6,19.8,29.6c2.4,11.1,4.8,22.1,7.2,33.2"/>
<path class="st0" d="M921.3,521.8c5.7,13.2,11.5,26.4,17.2,39.5c0.7,20-16.3,45.8-30.2,58.9c-4.7,3-9.4,6.1-14.1,9.1
	c-4.4,7.6-1.7,17.9-2.9,25.9c-5.8,8.6-11.5,17.2-17.3,25.8"/>
<path class="st0" d="M873.7,685.5c-14.1,28.1-23.2,56.2-46.3,77.9c-28.9,4.9-46,7.2-57.5,40c-1.3,5-2.6,10.1-4,15.1"/>
<path class="st0" d="M859.5,742c-4.3,6.2-10.9,11.5-10.1,20c1.5,2.7,3,5.4,4.5,8.1c-7.7,16.9-15.5,33.9-23.2,50.8"/>
<path class="st0" d="M877.2,777c17.2,6.6,29.4,26.4,21.7,45c-2.4,0-4.8,0-7.3,0"/>
<path class="st0" d="M918.5,769.5c-1.2,15.7-5.3,28.8-10.6,43.1c-1.3,1.6-2.6,3.1-3.9,4.7"/>
<path class="st0" d="M891.7,728.2c-2-1.7-4-3.3-5.9-5c-0.3,0.2-0.6,0.4-0.9,0.7c11.4,12.8,24.4,5.8,30.3,24.2"/>
<path class="st0" d="M1079.1,607.5c12.3-15.6,1.4-29.6,1-44.5c-0.4-13.7,7-16,8.5-24.2c2-10.6-6.6-20.8-2.2-32.1
	c2.5-2.3,4.9-4.6,7.4-6.9c1.1-2.2,2.7-33.6,2.7-33.6"/>
<path class="st0" d="M1087.4,508.5c-2.3,3.1-17-8.3-23.4-8.8c-0.1-0.2-0.2-0.5-0.2-0.7"/>
<path class="st0" d="M934.8,388.1c16.7,8.3,33.4,25.4,55,16.3c21.4-9.1,21.3-24.2,36.5-35.2c2-1.1,4.1-2.2,6.1-3.4"/>
<path class="st0" d="M920.8,610c1.5-0.7,3-1.4,4.5-2c13-1.5,14.9,11.2,24.2,13.3c5.5-1.9,11-3.8,16.5-5.7c7.6,2.9,8.7,15,16.9,16"/>
<path class="st0" d="M895.6,726.1c2.2-6.7,22.5-37.8,30.7-36.2"/>
<path class="st0" d="M909.4,722.8c-0.8,0.5-1.6,1-2.4,1.6c3-3.2,6-6.4,9-9.5c9.1-3.4,32.2,9.3,30.1,11.7"/>
</svg>
