<?xml version="1.0" encoding="utf-8"?>
<!-- Generator: Adobe Illustrator 19.2.1, SVG Export Plug-In . SVG Version: 6.00 Build 0)  -->
<svg version="1.1" id="Ebene_1" xmlns="http://www.w3.org/2000/svg" xmlns:xlink="http://www.w3.org/1999/xlink" x="0px" y="0px"
	 viewBox="0 0 1920 822" style="enable-background:new 0 0 1920 822;" xml:space="preserve">
<style type="text/css">
	.st0{fill-rule:evenodd;clip-rule:evenodd;fill:none;}
</style>
<path class="st0" d="M958.7,4.5c-7.9,8.6-15.8,17.1-23.6,25.7c-5.5,12.2-11.1,24.3-16.6,36.5c-0.4,2.6,1.5,2.5-1.2,7.9
	c-2.7,5.4-4.4,29.1-6.5,43.6c1.9,18.4,9.2,34.9,13.3,52.3c6.7,28.3,7.3,64.7,23.5,89.6c8.2,4.1,16.4,8.2,24.7,12.3
	c11.7,3.1,26.3-14.7,34.5-19.4c15.8,0,24.5-12.4,39-16.8c1.8-0.1,3.6-0.1,5.3-0.2c1.5,0.2,2.9,0.4,4.4,0.6
	c16.4,10.1,19.5-0.2,31,5.5c5.2,4.2,8.6,9.5,16.8,8.1c8.3-10.6,16.5-21.3,24.8-31.9c9.5-9,22-17.2,33.7-22.4
	c11.9-15.9,3.2-72.6-24.1-68.6c-17.8,2.6-32.6,9.1-29,31.1c1.2,7.2,17.8,26.8,26.8,22.2c12.8-8.5,11.1-30.2,5.6-42.1"/>
<path class="st0" d="M915.6,79c-2.9,3.8-5.7,7.5-8.6,11.3c0.5,4.9,1.1,9.8,1.6,14.7c-2.4,9.3-4.8,18.6-7.1,27.9c-0.2,0-0.3,0-0.5,0"
	/>
<path class="st0" d="M876.9,144.2c7.7-4.9,17.2-4.6,24.1-11.3c7.1,15,4.7,25,7.2,40.9c1.9,4.9,3.9,9.9,5.8,14.8
	c-0.8,5.9-1.5,11.9-2.3,17.8c3.6,13.5,7.1,27.1,10.7,40.6c1.7,6.4,17.4,33.2,25,30.3c0.8-0.7,1.5-1.4,2.3-2
	c13.3-2.2,23.3,18.8,34.4,22.3c32.2,10.2,57.8,15,91.6,10.8c29.8-3.7,31.6-42.5,48.2-54.1c5.9-3,11.9-6,17.8-9.1
	c4.4-5.8,4.6-14.2,12.2-17.9c0.4-0.1,0.8-0.3,1.2-0.4c13.9-4.1,30.8,4.9,43.5-4.9c24-18.5,25.6-50.5,36.2-75.8
	c4.6-11.1,21.1-36,15.3-49.9"/>
<path class="st0" d="M1056.4,3.9c5.4,5.5,7.1,25.2,11.8,27.5c8,3,16,6,24,9.1c1.1-1.2,2.1-2.4,3.2-3.6c0.1,0,0.1,0,0.2,0
	c10.7,10.7,13.6,20.1,32,20.1c1.6,4.7,3.1,14.4,7.9,13.9c4.8-0.5,3.8,7.4,3.8,11.5c-3.8,3.1-7.7,6.2-11.5,9.2
	c-2.5,10,2.7,28.1-4.2,36.7"/>
<path class="st0" d="M1135.3,71.3c2-1.6,4-3.2,6-4.7c2.5,2,4.9,4.1,7.4,6.1l31,0c3.1-2.1,6.1-4.1,9.2-6.2c0.7,0.7,1.4,1.4,2,2
	c11.5,1.4,17.6-16.4,27.5-16.4c0.3,0.3,0.6,0.6,1,0.9c14.6-8.6,22.1-48.5,32.5-52.9"/>
<path class="st0" d="M1234.6,11c3.8,1.2,7.6,2.4,11.4,3.6c2.4,3.7,0.6,8,5.5,10c5.3,1.1,9-1.5,13.5-1.5c1.9,7.1,10.9,15.5,15.9,21.4
	c4.9,0.2,9.7,0.3,14.6,0.5c0.4,0.5,0.9,1,1.3,1.5c0,0,8.4,7.8,12.5,11.7c8.7-0.8,17.4-1.6,26.2-2.5"/>
<path class="st0" d="M1097.9,0c2.7,2.8,5.4,5.6,8.1,8.4c2.5-1.2,5.1-2.4,7.6-3.6c4.4,7.3,6.2,14.7,8,22.1c4.6,4.3,30.3-1.6,40,4.8
	c0,1.4-0.1,2.7-0.1,4.1c4.9,8.4,6.8,22.5,6.8,33.8"/>
<path class="st0" d="M1100.4,40.8c4.5-3.7,7.6-3.6,13-3.6c4.1-4.5,8.3-9,12.4-13.5"/>
<path class="st0" d="M1163.4,32.2c6.6,1.6,13.2,3.2,19.8,4.8c6-7.1,12-14.2,18.1-21.3c1.6,0.3,3.2,0.7,4.7,1c6-4.6,9.5-16.6,17-16.6
	"/>
<path class="st0" d="M1159,24.5c-0.8,0.1-1.5,0.2-2.3,0.3c1.1-4.3,2.2-8.5,3.3-12.8c1.1-0.3,2.3-0.7,3.4-1c0.9-1.2,6.5-11,3.8-11"/>
<path class="st0" d="M1146.1,121.5c0.4-5.4,3-24.9,8.3-29.2c2,0.6,4,1.1,6,1.7c2-1.4,3.9-2.9,5.9-4.3c1.1,0,2.2,0,3.3,0
	c6.1,8.4,12.1,16.8,18.2,25.2c3.1-1.5,6.1-3.1,9.2-4.6c4.4,6.5,9.4,8.7,13.8,14c3.2,5.5-1.2,18.8-1.2,18.8"/>
<path class="st0" d="M1147.4,241.6c2.3,3.5,18.7,9.8,23.8,8.5c4-4.4,19.5-17.3,19.5-23.4"/>
<path class="st0" d="M912.3,96.3c0.7,10.4,14.3,21.7,22.1,27.9c3.2-1.4,6.4-2.8,9.6-4.2c2.4,2.5,4.9,5,7.3,7.5
	c2.1,0.3,4.2,0.7,6.2,1"/>
<path class="st0" d="M918.6,0c-1,2.1-2,4.2-2.9,6.2C895,13.1,879.8,7,860.5,7C833.9-8.2,783.4,41,783.4,68.6
	c0,10.2,3.9,43.6,21.9,39.8c10.3-8.9,18.7-9.3,29.5-9.3c0.3-0.1,0.7-0.2,1-0.4c4.6-7.6,9.1-15.2,13.7-22.8c8.5-3.4,17-6.8,25.4-10.2
	c3-4.8,6-9.6,8.9-14.5c12.8-5.7,29.5-14.8,44.1-15.6c0.3,0.3,0.5,0.5,0.8,0.8c0,0,0,0,0-0.1"/>
<path class="st0" d="M920.2,4.1c-1.7,6.4-9.4,36-14,37.9"/>
<path class="st0" d="M879.1,55.9c8.6,24-4.8,16.9-4.8,32c1.1,0.2,2.2,0.4,3.4,0.6c-1,12.6-2,25.2-3.1,37.9c2.8,18.4,4.8,41.5,3,61.7
	c-2.1,4.3-4.2,8.7-6.3,13c1.7,13.3,3.5,26.7,5.2,40c-0.9,9.3-19.7,30.3-13.2,39.1c1.4,0,2.9-0.1,4.3-0.1c5.5,7.3,6.4,37,11,47.2
	c3.4-0.4,6.8-0.8,10.2-1.2c0.4,0.2,0.8,0.5,1.2,0.7c4.8,8-5,49.7-14.9,54.7c-23.4,11.8-56.6,2.4-62.4-26.3c1.4-5,2.9-10,4.3-15"/>
<path class="st0" d="M834.3,100.9c-4.3,9.1-6,23-9.8,33.1c1,4.1,2.1,8.2,3.1,12.3c-1.3,13.1-24.6,32.9-29.1,46.2
	c-6.5,19.5-2.1,35.4-15.4,51.8c-10.2,12.7-26.5,12.6-36.3,25.7"/>
<path class="st0" d="M790.7,99.6c-7.2,17.5-14.6,39.2-13.5,58.8c2,4.1,4.1,8.2,6.1,12.4c-2.1,2.8-26.9,11.9-31.5,15.8
	c-17.4,14.3-16.5,31.9-25.5,49.5c-8.2,16.1-23.5,27.9-26.7,46.8c-3.4,20.4,15,27.7,14.2,45.4c-1.1,24.3-15.8,46.8-17.5,70.6
	c-1.6,23.3,7,39.3,12.1,61.5c5.6,24.5,7.6,57.4,10.2,82.5"/>
<path class="st0" d="M714.7,324.7c1.1-2.1,2.3-4.2,3.4-6.4c0.6-0.2,1.1-0.4,1.7-0.6c5.2,5.7,11.2,4.7,18.1,7.2
	c2.5,1.9,5.1,3.8,7.6,5.7c16.7,3.4,37.6-15.2,48.1-26.5c2.5-2.7,2.1-7.3,6.1-7.3c17.3-1.8,8.9-35.6,18.1-43.7c0.5,0,1,0,1.5,0
	c5.7,3.8,45.9,24.2,45.9,25.3"/>
<path class="st0" d="M839.4,265.2c-2.7-7.3-5.4-14.6-8.1-21.9"/>
<path class="st0" d="M770.4,232.8c11.3,4,14.8-14.5,22.8-14.5c3.4,6.9,4.5,16.2,13.1,20c3.7-0.3,7.4-0.6,11.1-0.9"/>
<path class="st0" d="M719.6,246c11.9-9,33.5,4.9,47.4,3.6c10.7-1,13.5-8.7,20.2-15.7c0.5-1,1.1-2.1,1.6-3.1"/>
<path class="st0" d="M794.5,219.1c3.5,1,7.1,2,10.6,3c3.2,2.9,6.5,5.8,9.7,8.6c0,0.3,0,0.6,0,1"/>
<path class="st0" d="M824.4,135.9c-5,4.8-9.9,9.6-14.9,14.3c-0.3,0-0.7-0.1-1-0.1"/>
<path class="st0" d="M784.8,62.9c-1.3,0.8-2.7,1.5-4,2.3c-4.6,12.6-9.2,25.1-13.8,37.7c-3.9,0.1-7.7,0.2-11.6,0.3
	c-7.4,7.5-14.8,15.1-22.2,22.6c-8.6,2.3-11.5,8.8-18.9,12.1c-22.5,0-38.9,4.5-60.6-4.7c-1.7-2.4-3.5-4.7-5.2-7.1
	c-10.3-6.3-20.5-12.5-30.8-18.8c-1.4-4.7-2.8-9.4-4.1-14.1c-16.9-9.6-57.2-25.7-75.9-19.2C530,76.7,526.5,86,520.4,88
	c-18.9,4.6-50.9-35.2-56.5-35.2c-4.1,1.8-5,6-10.2,6.8c-19.2,3.2-45.9-14.6-64-1.9"/>
<path class="st0" d="M670.6,1.7c-8.8,5.2-15,16.4-25.3,19.8c-6.2-0.1-12.5-0.3-18.7-0.4c-6.7,1.8-12.7,6.4-20.3,3.1
	c-0.3-0.5-0.6-1-0.9-1.5c-1.7-0.2-3.4-0.4-5.1-0.5c-8.6,6.9-11.7,37.9-29.1,48.6"/>
<path class="st0" d="M684.6,141.1c0.3-12.9,21.2-22.4,27.2-33.4c12.7-23.2,19.4-51.4,27-76.6c4-5,8.1-10.1,12.1-15.1
	c-0.1-5.3-0.3-10.7-0.4-16"/>
<path class="st0" d="M734.8,101.2c0.7-0.5,1.3-1,2-1.5c-4,2.2-8,4.4-11.9,6.6c-10.2-3.4-20.4-6.8-30.6-10.2
	c-4.5-9.3-9.1-18.7-13.6-28"/>
<path class="st0" d="M684.1,135.3c-3.7-0.6-46-41.7-48.7-46c-1.7-7.1-3.4-14.2-5.1-21.4c0.8-16.5,17.3-25.2,13.8-42.5"/>
<path class="st0" d="M650.1,24.1c1.1,3.2,2.2,6.5,3.3,9.7c0.7,0.1,1.4,0.2,2.1,0.2c5.3-3.2,6.5-12.5,13.8-12.5
	c0.5,0.3,0.9,0.6,1.4,0.9c1.4,1.1,2.9,2.3,4.3,3.4c17.7-4.3,5.7-7.4,28.3-3.7c0.9,0.5,1.8,0.9,2.7,1.4"/>
<path class="st0" d="M462.3,48.5C444.6,29.7,501.5,6.3,511.8,0c1.4,0,2.9,0,4.3,0c5.7,6.1,49.7,10.3,60.5,10.3
	c0.9,0.9,1.8,1.8,2.7,2.8c9.9,2.2,21-13.1,31.1-13.1"/>
<path class="st0" d="M515.2,85.9c-4.1,4.3-8.1,8.7-12.2,13c-9.4,5.7-21.2,0.1-31.6,4c-9,0.7-22.6-17.8-36.6-17.8
	c-4.9,3.4-8.8,11.5-15.1,11.5c-1.6,0.2-3.3,0.4-4.9,0.6"/>
<path class="st0" d="M501.2,103.4c-11.9,3.2-34.6,53.6-49,56.6c-25,5.3-23.5-28.8-45.1-28.8c-7.7,4.7-54.8,16.1-54.8-1.8"/>
<path class="st0" d="M517.7,90c-12.8,15.9-26.4,31.4-38.7,47.9c0,8.6-9.4,44.6-15.7,48c-5,4.8-3.1,16-9.7,21.3
	c-20.7,10.6-25.3,53.2-47.6,68.1"/>
<path class="st0" d="M526.1,82.5c-1.6,14.4,1.4,29-0.1,42.6c-2.8,8.1-5.6,16.2-8.4,24.3c-5.3,26.2-6.6,54.7-12.2,79.9
	c-2,3.6-4,7.2-5.9,10.8c-3.1,14.8-1.3,26.8-9.5,40c-13.7,22-1.4,40.6-1.4,63c-0.3,0.7-0.5,1.4-0.8,2.2"/>
<path class="st0" d="M512,205.1c-5.4,8.5-10.8,17-16.1,25.5c-6,5.3-17.3,6.2-23.7,13.8c-0.2,0.4-0.4,0.8-0.7,1.2
	c-5.5,18-11.1,36-16.6,53.9c-9.4,2.9-15.7,10.4-23.4,15.4c-0.6,0.5-1.2,0.9-1.7,1.4"/>
<path class="st0" d="M485.8,289.4c-1.5,4.6-3.1,9.2-4.6,13.9c-4.9,6.5-12.3,4.3-19,4.3c-6,6.1-12.1,12.1-18.1,18.2"/>
<path class="st0" d="M618.6,105.5c-9.5,7.8-19,15.7-28.4,23.5c-3.1,8.1,7.7,61.2,7.2,75.2c-2.8,7.5-5.6,15-8.4,22.5
	c-6.9,22.9-12.3,39.8-12.3,63.4c-2.5,3.1-5.1,6.2-7.6,9.2c-14.9,7.9-35.4,24.4-35.4,43.2c-10,6.7-18.6,19.2-24,29.9
	c-2,7.1-4,14.2-6,21.3c-23.6,10.5-7.1,42.2-18.8,48.8c-5,5.7-10,11.3-15,17c-0.1-0.4-0.2-0.7-0.2-1.1c0,0-26.9,55.7-41.3,55.7
	c-6.4,8.5-1.8,21.2-5.5,30.9c-3.7,2.6-7.4,5.1-11.1,7.7c-2.8,6.1-5.6,12.3-8.3,18.4c-11.4,15.2-28.4,33.8-36.6,51.9
	c-0.2,0.5-12.6,30.8-17.7,30.8c-0.8-0.3-1.6-0.7-2.4-1c-1,1.7-2,3.4-3.1,5.2c-22.8,6.1-9,18.4-19.9,24.6c-1.4,0-2.7-0.1-4.1-0.1
	c-2.8,4-5.6,8-8.4,12c-3.3,0.1-6.5,0.2-9.8,0.4c-3.6,1.5-18.6,12.3-18.6,12.3"/>
<path class="st0" d="M490,403c-6.1,11-12.2,22-18.2,33c-6.2,2.5-12.4,5.1-18.6,7.6"/>
<path class="st0" d="M593.5,186.7c-5.5,9.3-6.2,20.7-12.9,29.6c-3-0.2-6.1-0.3-9.1-0.5c-6.7,4.7-28.7,50.7-31.1,60
	c-2.5,10,6.7,20.2-4.6,27c-7.7-0.9-15.3-1.9-23-2.8c-6.3,9.7-12.7,19.4-19,29.2"/>
<path class="st0" d="M566.4,225.8c-1.7,0.8-3.4,1.6-5,2.4c-4.2-0.1-8.3-0.2-12.5-0.3c-17.7,7.2-2.3,12.1-29.2,14.2"/>
<path class="st0" d="M602.5,89.9c-0.8,1.6-1.6,3.2-2.5,4.7c-11.6,10.7-34.3-15.5-46.2,2.2c-18.4,27.5,8,30.2,24.1,35.5
	c6.5,2.2,10.1,8.2,17.9,8.2c1.4-1,2.8-2.1,4.1-3.1c5.5,2.3,11,4.6,16.6,6.9c7.3-4.5,7.7-5.7,15.7-2.1c0.5,0,1.1,0,1.6,0
	c3.2-3.1,6.3-6.1,9.5-9.2c0.1-0.9,0.2-1.8,0.2-2.7"/>
<path class="st0" d="M633.2,144.2c2.4,6.2,5.4,5.1,10.2,7c1,4.6,2,9.1,3,13.7c3.4,5.3,22.5,15.5,27.9,18.6
	c9.4,4.3,22.8-8.2,25.1-16.3"/>
<path class="st0" d="M702.1,141.4c-0.4,4.5-0.9,9-1.3,13.4c3.4,2.3,6.9,4.7,10.3,7c1.3-0.5,2.5-1,3.8-1.4"/>
<path class="st0" d="M581.3,251.4c6.9,20.6-5.1,34.6-6.8,53.6c0.5,10.7,1,21.3,1.5,32c-1.1,10.3-5,19-0.4,29.2
	c5.6,12.5,44.1,23.2,55.1,31.5c1.5,3,3,6,4.5,8.9c1.7,0.3,3.3,0.7,5,1c4.8-3.4,9.7-6.8,14.5-10.2c17.3,0,9.2,8.5,30.3-0.9
	c2.5-0.4,5-0.9,7.4-1.3"/>
<path class="st0" d="M602,376c-1.3,0.5-2.6,1-4,1.5c0,0.1,0,0.2,0,0.3c12.2,6.1,22.4-8.9,33.6-8.9c1.9,1.3,2.4,4.4,5.5,3
	c15.8-7.2,29.8-17.5,45.4-24c7-0.7,13.9-1.4,20.9-2.1"/>
<path class="st0" d="M634.8,373.1c2.5-9.9,10.7-15.5,14.6-23.6c7.4-15.4,18.4-64.1,5.7-79.4"/>
<path class="st0" d="M636.8,369.2c9.5-5.7,19.6,14,31.6,7.1c1-2,2-4.1,3-6.1c4.6-10.5,2.9-20.3,8.9-30.5c4.7-5,9.4-10,14.1-15
	c0.9-2,1.8-4,2.7-6"/>
<path class="st0" d="M667.9,400c4,10.8,13.5,12,18.8,20.2"/>
<path class="st0" d="M576.2,366.3c2.6,18.8,26.3,34.4,32.5,54c6,19.1,11.8,41.5,8.5,61.3c-2.1,12.9-7.8,23.7-7.8,36"/>
<path class="st0" d="M600.6,403.1c-0.9,9.3-1.9,18.6-2.8,27.9c-1,0-2-0.1-3-0.1c-0.3,0.3-0.7,0.7-1,1c0.2,9.3,0.5,18.6,0.7,27.9
	c-3.3,6.5-6.6,12.9-9.9,19.4c-0.8,9.1-1.6,18.3-2.4,27.4c-0.9,1.7-1.8,3.5-2.7,5.2c-0.4,0.1-0.7,0.2-1.1,0.3"/>
<path class="st0" d="M594.3,459.5c1.1,12.2,9.4,18,8.8,30.1"/>
<path class="st0" d="M588.9,385.5c0.1,12.1,4.6,58.5-10.5,65.6c-1,0.1-1.9,0.2-2.9,0.3"/>
<path class="st0" d="M613.3,428c14.1,10.8,30,18.6,46,3.2c1.8-3.1,3.6-6.1,5.5-9.2c6.7,0.7,13.3,1.5,20,2.2"/>
<path class="st0" d="M615.9,445.6c0,0,26.2,37.8,26.3,37.8c3.8,2.1,7.6,4.3,11.3,6.4c0.4,5,0.9,10,1.3,15"/>
<path class="st0" d="M618.6,466.8c5.7,10.7,10.9,19.9,17.6,29c1.4,3.8,5.9,18.6,5.9,22.4"/>
<path class="st0" d="M632.2,470.4c0.4,12.7-0.4,38-6.5,49.4"/>
<path class="st0" d="M508,386.1c6.4,11.9,12.7,23.9,19.1,35.9c2,10.4,3.9,20.7,5.9,31.1c4.4,6.8,8.7,13.5,13.1,20.3
	c0.1,1,0.1,2.1,0.2,3.1"/>
<path class="st0" d="M510.7,399.6c3.6,16.7,10.9,31,14.5,47.8c-0.4,5.9-0.8,11.9-1.2,17.8"/>
<path class="st0" d="M495.2,408.5c4.1,13.7,27.1,38.6,19.2,55.1"/>
<path class="st0" d="M495.3,428.9c-3.3,7.4,3.6,13.4,2.1,20.4c-1.6,4.9-3.2,9.7-4.8,14.6"/>
<path class="st0" d="M375.3,605c-4.4,3.1-8.9,6.2-13.3,9.3c-5.9-1.4-11.9-2.8-17.8-4.2c-9.5,4.4-18.9,8.8-28.4,13.2
	c-3,2.7-6,5.4-9,8.2c-4.3,0.3-8.6,0.7-12.9,1c-0.1,5.5-0.2,11-0.3,16.5c-2.9,2.6-5.8,5.3-8.6,7.9c-1,0-2.1,0-3.1,0"/>
<path class="st0" d="M290.6,633.8c-2.4,3.3-4.7,6.7-7.1,10"/>
<path class="st0" d="M370.8,613c-7,7.8-13.9,15.6-20.9,23.4c-4.4,0.3-8.7,0.6-13.1,0.8c-9,4.8-18,9.6-27,14.3
	c-8,2.8-16.1,5.5-24.1,8.3"/>
<path class="st0" d="M315.2,624.3c-2.4-4.3-11.9-10.4-17.5-9.2c-4.2,2.7-8.4,5.5-12.5,8.2"/>
<path class="st0" d="M347,659.6c-9.6,12.4-17.8,28.7-22.7,43c-2.9,8.4-0.4,14.1-6.9,22.2c-5.4,6.8-26.7,14.6-29.1,19"/>
<path class="st0" d="M319.3,721c0.1,5.7,0.1,11.4,0.2,17c-1.9,7-28.1,34.2-34.2,35.8"/>
<path class="st0" d="M318.9,738.1c14.4,22.8-5.4,35.6-8,55.4c-1.3,10-14.3,17.4-14.3,17.4"/>
<path class="st0" d="M693.6,415c-29.2,67.5,6.2,95.3,17.7,156.6c-0.3,9.7-0.5,19.5-0.8,29.2c3.8,33.2,4.7,79.4,25.1,106.6
	c-3,16.1-6,32.3-9,48.5c-0.6,10.1,7,16.7,9,26c2.6,12.1-0.5,27.1,2.1,40.2"/>
<path class="st0" d="M738.3,793.2c0.3,2.1,23.3,28.8,23.3,28.8"/>
<path class="st0" d="M748.8,801.6c2.6,8.3,12,5.3,15.1,10.6"/>
<path class="st0" d="M734.3,792.1c3.1,10.2-1,19.7-5,28.5c-0.7,0.5-1.4,1-2.2,1.4"/>
<path class="st0" d="M715.9,641.3c-6.8,11.2-14.3,18.8-15.7,33.3c-0.1,6.5-0.2,13-0.3,19.6c-3.1,9.9-10.5,18.6-11.1,29.2
	c-1.1,18.4-2.3,36.7-3.4,55.1c-3.5,14.5-11.3,43.6-29.8,43.6"/>
<path class="st0" d="M685.7,764.2c-2.9,8.5-5.8,17-8.7,25.6c-4.9,2.5-9.7,5-14.6,7.5c-7,5.6-8.2,17.4-17.6,20.5c-2,1.1-4,2.1-6,3.2"
	/>
<path class="st0" d="M686.5,726.7c-3.8,10.4-7.7,20.8-11.5,31.2c1.3,7.8,2.7,15.6,4,23.5"/>
<path class="st0" d="M698.9,689.4c-35.2,22.1-33.9-16.1-54.4-30.1c-13-8.9-33.6-6.7-45.5-19.9c-3.2-3.6-23.6-36.9-23.6-36.9
	c-19.1-9.7-39.6,2.5-59.4,2.5c-7.3-3.9-6.6-11.6-16.2-11.6c0,0,1.7-48.4,1.7-52.6c-9,6.6-18.1,13.2-27.1,19.9c-2-5.9-4-11.8-6-17.7
	c-0.5,0-0.9-0.1-1.4-0.1c-11.9,13-17.4,35.2-28.3,49.8c-3.8-0.5-7.5-1-11.3-1.5c-7.9,12.3-15.8,24.7-23.7,37
	c0.2,0.2,0.5,0.4,0.7,0.5c-2,9-3.9,18.1-5.9,27.1c0.5,9.7,7.8,24,7.8,35.5c-1.9,3-3.8,6-5.7,9.1c-0.4-0.4-0.9-0.7-1.3-1.1
	c-2.8,8.9-5.6,17.8-8.3,26.6c-0.3,0-0.7-0.1-1-0.1c-7.7,8.2-19.3,12.6-25.7,22.1c-1,1.4-1.9,2.8-2.9,4.2c-0.2-1.3-0.4-2.7-0.6-4
	c-0.1-0.1-0.2-0.2-0.3-0.3c-3.9,1.1-7.9,2.2-11.8,3.3c0-0.8,0-1.7,0-2.5c-2.6,0.5-5.2,1.1-7.8,1.6c-0.4-2.8-0.7-5.6-1.1-8.4
	c-3.5-1.1-15,7.5-15,10.7"/>
<path class="st0" d="M700.4,533.8c5.1,6.3,10.2,12.7,15.3,19c1-3.3,1.9-6.6,2.9-9.9c2.2,0,4.4-0.1,6.6-0.1
	c11.8,15.7,106.7,19.1,114.5,6c1.9-18.1,3.8-36.1,5.7-54.2c4.9-10,9.8-19.9,14.7-29.9c0.3-10.4,0.6-20.9,0.9-31.3"/>
<path class="st0" d="M830,453.1c3.3,11.1-3.2,22.7-0.2,34.6c2.3,9.3,12.3,20.4,12.3,20.4c13.9-2.3,11.7,30.9,11.5,39.2
	c0,0,7.8,2.8,14.7,8.9c7.6,3.4,51.7-20.6,52.8-29.7"/>
<path class="st0" d="M840.6,543.7c5.7-2.1,11.4-4.2,17-6.3c6-12.1-1.8-29.2,1.5-40.8c7.8-12.1,15.7-24.2,23.5-36.3"/>
<path class="st0" d="M860.8,514.6c6.7-7.3,8.4-14.8,13.3-22.6c5.5-8.9,12.8-9.7,17.4-20.4c1.5-1.7,3-3.3,4.6-5"/>
<path class="st0" d="M888.4,480.6c2-0.1,4-0.2,6-0.4c2.8-2.4,5.6-4.7,8.4-7.1"/>
<path class="st0" d="M862.2,548.4c4.9-11.9,21.2-26.7,33.5-31.4c2.4-1.1,4.9-2.2,7.3-3.3"/>
<path class="st0" d="M820.8,559.9c8.9,5.9,17.8,11.9,26.6,17.8c4.6,0.3,9.1,0.7,13.7,1c2.5,2.9,5.1,5.7,7.6,8.6
	c7.3,2.4,15.3-5.9,22.1-7.8c5.8-1.6,38.4,11.4,38.4,17.9"/>
<path class="st0" d="M804.2,561.2c1.8-1.6,35.5,19.9,40.2,25.3c2.8,5.8,5.6,11.6,8.3,17.4c14.6-0.9,29.2-1.8,43.8-2.7
	c8.1-11.8,17.2-1.3,26-8.3"/>
<path class="st0" d="M884.8,598.5c0.8,14.1,10.1,13.3,14.3,22.9c1.1,12.7,2.2,25.5,3.2,38.2"/>
<path class="st0" d="M863.4,603.9c-1-0.4-2-0.9-3-1.3c3.2,12.1,6.4,24.2,9.5,36.4c3.1,3.5,6.2,7,9.3,10.5c2.6,5.9,6.1,16.7,4.4,23
	c-0.1,1.4-0.2,2.8-0.3,4.2"/>
<path class="st0" d="M862,608.5c0.1,12.6,0.2,25.2,0.2,37.8c4.8,6.8,9.6,13.5,14.4,20.3c0.4,1.3,0.8,2.7,1.1,4"/>
<path class="st0" d="M885.4,654.6c1.5,0.6,14.7,10.1,14.7,10.1"/>
<path class="st0" d="M871.2,628.5c3.2-0.8,6.3-1.6,9.5-2.4c1.6,2.6,3.2,5.3,4.8,7.9"/>
<path class="st0" d="M717.1,553.7c-0.9,14,33.9,26.8,44.8,26.8c4.2,6.6,8.4,13.1,12.6,19.7c6.4,6.5,41.9,9.7,53.1,9.7
	c1.2,1.4,2.4,2.8,3.6,4.1c0.8-3.6,1.5-7.1,2.3-10.7c4.6-1.9,9.1-3.8,13.7-5.7"/>
<path class="st0" d="M791.2,576.9c3.1,27.7-13.5,29.6-21.2,52.7c-3.3,9.9-1.9,33.8-2.6,44.7c-1.2,19.9,6.4,39.2,6.4,59.4
	c0.1,0.2,0.3,0.3,0.4,0.5"/>
<path class="st0" d="M766.8,625.5c-18.4,10.3-8.9,42.5-13.2,56.8c-1.5,5.1-5.6,7.4-5.6,13.5c0,7.1,5.2,14.5,5.2,22.7
	c-0.1,1.7-0.3,3.4-0.4,5.1"/>
<path class="st0" d="M769.8,666.6c-4.5,10.8-8.3,22-8.8,33.8c0.2,7,0.3,14,0.5,21c-0.6,1.8-1.1,3.6-1.7,5.4"/>
<path class="st0" d="M710.7,598c15.7,4,30.8,64.9,32.1,80.6c0,12.3,0.1,24.6,0.1,37c2.9,11.7,17.3,35.4,30.8,38
	c9.8,1.9,22.5,0.4,30,8c2.4,6.6,4.9,13.2,7.3,19.8c5.1,12.2,22.7,35.3,34.1,40.7c0.8,0,1.6,0,2.4,0"/>
<path class="st0" d="M794,756.3c7.8,0.4,14.7-6.5,21.1-10.5c10.7-2.4,12.3,16.1,21.2,19.2c2.3-0.2,4.5-0.3,6.8-0.5"/>
<path class="st0" d="M808.9,766.7c7.4,4.9,23.5,14.9,32.9,14.9"/>
<path class="st0" d="M725.3,662.1c2.4-10,4.3-25.5,13.6-31.7c1.5,0,2.9,0.1,4.4,0.1c2.7,2.5,5.4,5,8.1,7.5
	c4.2,0.4,13.5-1.9,13.5-7.2"/>
<path class="st0" d="M887.4,672.3c3.2,9.7,2.9,19.7,8.2,28.8c7,9.9,13.9,19.7,20.9,29.6c2.5,12.1,4.9,24.3,7.4,36.4
	c18.3,6.1,46.4,54.9,65.4,54.9"/>
<path class="st0" d="M851.3,769.9c9.4,4.6,21.5,16.2,32.8,14.6c9.9-1.4,41.6-14.3,41.6-14.3"/>
<path class="st0" d="M881.3,556.9c4.6,0.5,10.7,0.2,14.6,3.8c0.6,1.3,1.2,2.5,1.8,3.8c0.4,0,0.7,0,1.1,0c9.5-9.9,15.4-4.6,26.6-7.6
	c11.5-3.1,20.3-16.4,33.5-18.1c4.8,1.5,9.7,3,14.5,4.5c15.8-8.2,22.7-21.7,35.9-33c8.4-7.2,19.3-11.5,28.2-18.8
	c4.8-7,9.7-14,14.5-21c0.4,1,0.8,2.1,1.2,3.1c10.5-1,21-1.9,31.5-2.9c1.9,2.4,3.7,4.8,5.6,7.2c6.6-2.5,13.2-5,19.8-7.4
	c6,3.4,46.9,26.6,48.6,29.5c0.1,0.1,0.1,0.3,0.2,0.4c-0.2,1.6-0.4,3.2-0.6,4.8c3.4,6.7,16.8,10.5,16.8,18.4
	c12.1,16.2,36.9,21.9,55.1,28.6c11.2,8.3,30.7,23.7,30.7,41"/>
<path class="st0" d="M937.3,491.2c2.3,0.3,4.7,0.7,7,1c9.5-5.4,15.9-21.2,25.1-24.9c19.9-8,39.6-10.7,61.3-10.7
	c1.9,0,20.9,4.9,20.9,0.4c-0.1,5.9-0.1,11.8-0.2,17.8"/>
<path class="st0" d="M1091.9,477.4c-4.7,18.7,11.5,35,13.6,52.2c1,8.7,2,19-1.9,27c-1.9,2.5-3.8,5-5.7,7.5c0.5,7.4,1,14.9,1.5,22.3
	c-1,3.7-2,7.4-2.9,11.2c4.3,6,8.5,12,12.8,17.9c2.2,7.8,4.4,15.7,6.5,23.5c13.7,9.9,24.3-4.5,36.1-3c1.7,1.1,3.5,2.3,5.2,3.4
	c1,10.4,1.9,20.8,2.9,31.2"/>
<path class="st0" d="M1104.1,470.2c1.8,15.2,16.2,27.9,20.4,42.2c3.2,19.9,6.4,39.7,9.6,59.6c2.2,7.7,9.9,11.4,12.1,17.6
	c4.6,12.8,6.8,28.9,19.8,37c1.7,0,3.4,0,5.1,0c4.7,5.7,2.1,27.3,2.1,23"/>
<path class="st0" d="M1148,594.8c0.6,2,1.3,3.9,1.9,5.9c4.4,1.9,8.8,3.8,13.2,5.7c1.9-2.9,3.8-5.9,5.6-8.8c0.5,0,1,0,1.5,0
	c0.6,0,1.2,0,1.9,0c17.3,0,14.8,11.6,25.2,13.9c12.4,2.7,20.2-4.6,33.5,3.4"/>
<path class="st0" d="M1142.3,488.3c-0.2,2.8-0.4,5.6-0.7,8.4c3,9.7,14.5,12.8,19.2,20.6c2.4,3.9,8,33.9,9.6,40.9
	c-0.6,1.6-1.3,3.1-1.9,4.7c-6.7,11-8,19.2-3.9,30.9c0.2,1.8,0.4,3.6,0.5,5.4"/>
<path class="st0" d="M1171.5,557.9c2.4,5.3,4.8,10.6,7.2,15.9c0.7,0.7,1.4,1.3,2,2c4.4,3.5,11,5.2,14.5,8.6
	c4.8,4.6,7.7,21.2,15.4,21.2"/>
<path class="st0" d="M1002.9,459.3c-5.1,0.8-1.5-13.8-3.6-17.7c-2.2-1-4.4-1.9-6.6-2.9c-6.5-10.9,11-23.7,9-35"/>
<path class="st0" d="M994.4,422.1c-3-1.7-6-3.4-9-5.1c-8.2,1-16.3,2-24.5,3c-5-3.8-8.4-13.6-12.6-16c-3.8,0.7-7.6,1.3-11.4,2
	c-9.9-6.6-16.1-9.7-28.1-2.5c-1.2,3-2.3,5.9-3.5,8.9"/>
<path class="st0" d="M1086,468.1c3.2-4.2,6.4-8.4,9.6-12.6c7.5,1,15,2,22.5,3c1.7-1.2,3.4-2.5,5.1-3.7c2.7,0.7,5.3,1.4,8,2.1
	c8.4-6.2,9.9-17.2,16.5-25.3c3.5-4.3,53.9-33.5,58.1-33.5c3.4,2.3,34.7,22.8,36.6,22.8c0.7-1.6,1.4-3.3,2.1-4.9c0.2,0,0.3,0,0.5,0
	c5.9,7.8,11.5,14.7,22.5,14.7c1.9-1.8,3.9-3.7,5.8-5.5c0.6,0.3,1.2,0.7,1.8,1"/>
<path class="st0" d="M1206.5,544.8c10-3.9,21.7-34.6,27.5-44.4c2.5-6.7,5-13.4,7.5-20.1"/>
<path class="st0" d="M1226.3,518.8c8.2-2.5,34.7-24.3,36.7-31.4c2.4-8.9-0.4-22.1,5.1-29.4c0.2,0,0.4,0,0.5,0
	c0.9,0.8,1.8,1.5,2.8,2.3c1.6-5.1,3.2-10.3,4.8-15.4c0.3,0,0.5,0,0.8,0c0.5,2.4,0.9,4.8,1.4,7.1c3.3-0.3,6.7-0.5,10-0.8"/>
<path class="st0" d="M1264.1,433.3c1,3.7,7.6,9.9,11.3,11.5"/>
<path class="st0" d="M1137.5,449.4c9.1-2.4,19.9,9.7,26,7.9c0.9-0.8,1.8-1.7,2.7-2.5c0.5-1.1,1.1-2.2,1.6-3.3
	c1.3-1.5,2.6-2.9,3.8-4.4c1.5-0.3,3.1-0.7,4.6-1c13.6,0,29.2-1.2,25.4-19.3c-0.9-2.7-1.8-5.3-2.8-8c-2.3-1.3-4.5-2.5-6.8-3.8"/>
<path class="st0" d="M1112.4,455.1c7.4-22.8,30.6-34,43.5-52.1c2.8-6.6,5.7-13.2,8.5-19.7c4-2.8,8.1-5.5,12.1-8.3
	c5.7-8.8,14.8-46.9,19.1-49.7c0.2-0.1,0.4-0.2,0.6-0.3c2.1,0.6,4.2,1.3,6.3,1.9c12.2-3.6,20.8-52,16.9-62.3c-0.7-1-1.4-2-2.2-3"/>
<path class="st0" d="M1070.6,456.9c4.4-1.7,8.7-3.4,13.1-5.2c1.4,0.8,12.5,10.3,14.3,3.5"/>
<path class="st0" d="M1092.7,460c5.6-6.6,11.3-13.3,16.9-19.9c4.7-12.9,9.5-25.8,14.2-38.6c16-10.9,40.6-37.8,41.2-59.6
	c0.3-10.8-8.3-19.8-6.3-31.8c1.7-2.9,3.3-5.8,5-8.7c-0.9-7.1-1.8-14.3-2.7-21.4c0.8-8.3,1.5-16.5,2.3-24.8"/>
<path class="st0" d="M1193.3,326.3c-0.5-6.7-1-13.3-1.5-20c-2.7-12-11.7-25-14.9-36.2"/>
<path class="st0" d="M1042.7,310.5c-1-0.8-2.1-1.7-3.1-2.5c-0.4,5.8-0.9,11.6-1.3,17.5c-2,9.7-9,14.1-9,24.8
	c0.1,0.4,0.1,0.7,0.2,1.1c1-0.2,1.9-0.5,2.9-0.7c0.5,4,1,8,1.5,12c-1.6,3.5-3.3,7.1-4.9,10.6"/>
<path class="st0" d="M1059.3,319.9c0-18-1.8-38,0-55.7c1.8-5.9,3.7-11.8,5.5-17.7c-0.6-3.8-1.2-7.6-1.8-11.4
	c2.2-3.9,4.4-7.8,6.5-11.8"/>
<path class="st0" d="M888.9,326.5c1.9-1.4,3.8-2.8,5.7-4.2c0-21.5-6.3-38.8-6.3-60.2c-0.8-9.2-1.6-18.4-2.4-27.6
	c-0.5-1.7-1-3.4-1.5-5.1"/>
<path class="st0" d="M1172.7,75.1c0.7,4.3,1.4,8.6,2.1,12.8c7.1-1.4,14.1-2.7,21.2-4.1c3.4,2.8,4.2,6.4,9.2,6.4
	c4.2-3.2,28.4-8.5,28.4-9.3c0,0,0,0,0,0"/>
<path class="st0" d="M945.6,17.7c5.4,0.1,10.7,0.1,16.1,0.2c4.9,2.9,4.7,17.8,13.9,14.3c1.8-2.5,3.6-5,5.5-7.5
	c1.7-0.1,3.4-0.2,5.1-0.2c0.9,2.5,1.8,4.9,2.7,7.4"/>
<path class="st0" d="M737,324.3c1.3,0.1,2.5,0.1,3.8,0.2c20.3-7.6,0.2-33.5,9.6-46.4"/>
<path class="st0" d="M772.6,322.2c9,7.7,27.8,14.2,40.5,14.2c24.4-19,39.8,1.7,47.4,24.2c0.9,2.5,2.2,23.8,4.9,23.1"/>
</svg>
