<?xml version="1.0" encoding="utf-8"?>
<!-- Generator: Adobe Illustrator 13.0.0, SVG Export Plug-In . SVG Version: 6.00 Build 14948)  -->
<!DOCTYPE svg PUBLIC "-//W3C//DTD SVG 1.1//EN" "http://www.w3.org/Graphics/SVG/1.1/DTD/svg11.dtd">
<svg version="1.1" id="Ebene_1" xmlns="http://www.w3.org/2000/svg" xmlns:xlink="http://www.w3.org/1999/xlink" x="0px" y="0px"
	 width="800px" height="800px" viewBox="0 0 800 800" enable-background="new 0 0 800 800" xml:space="preserve">
<rect fill-rule="evenodd" clip-rule="evenodd" fill="#FFFFFF" width="800" height="800"/>
<path fill-rule="evenodd" clip-rule="evenodd" d="M400,10c214.804,0,390,175.197,390,389.999C790,614.803,614.805,790,400,790
	C185.196,790,10,614.803,10,399.999C10,185.197,185.196,10,400,10L400,10z M484.617,571.439H311.255l-20.777,82.482
	C324.094,668.504,361.129,676.61,400,676.61c37.544,0,73.378-7.558,106.07-21.215L484.617,571.439L484.617,571.439z M168.87,551.634
	l132.267-409.917C197.367,181.647,123.39,282.453,123.39,399.999C123.39,455.919,140.144,508.043,168.87,551.634L168.87,551.634z
	 M498.744,141.669l132.371,409.987c28.734-43.6,45.496-95.727,45.496-151.657C676.611,282.408,602.578,181.572,498.744,141.669
	L498.744,141.669z M452.742,447.387L398.28,241.211l-54.117,206.176H452.742L452.742,447.387z"/>
</svg>
