<?xml version="1.0" encoding="utf-8"?>
<!-- Generator: Adobe Illustrator 22.1.0, SVG Export Plug-In . SVG Version: 6.00 Build 0)  -->
<svg version="1.1" id="svg2" xmlns:svg="http://www.w3.org/2000/svg"
	 xmlns="http://www.w3.org/2000/svg" xmlns:xlink="http://www.w3.org/1999/xlink" x="0px" y="0px" viewBox="0 0 367.4 367.4"
	 style="enable-background:new 0 0 367.4 367.4;" xml:space="preserve">
<style type="text/css">
	.st0{fill:#231F20;}
	.st1{fill:#ED1C24;}
</style>
<g id="g12" transform="matrix(1.25,0,0,-1.25,0,367.35)">
	<g id="g14" transform="scale(0.12,0.12)">
		<path id="path20" class="st0" d="M1227,33C568.6,33,32,569.6,32,1228c0,658.4,536.6,1195,1195,1195c658.4,0,1195-536.6,1195-1195
			C2422,569.6,1885.3,33,1227,33z M1227,304.7c511.6,0,923.3,411.8,923.3,923.3c0,511.6-411.8,923.3-923.3,923.3
			c-511.5,0-923.3-411.8-923.3-923.3C303.7,716.4,715.4,304.7,1227,304.7z"/>
		<path id="path22" class="st1" d="M1594.8,412.4l437.5,1210.7l-35.4,20.8c-106.2,95.8-152.1,156.2-264.6,200
			c-173.1,67.3-316.7-64.6-464.6-104.2c-227.3-60.8-436.5-44.9-628.2,82.2c-20.6,13.7-27.7,27.1-43.8,45.8
			c-135.4-150-240-343.1-260.2-566.3c-0.6-6.5,1-10.2,2.1-16.7c45.8-37.5,375.9-347.3,836.3-182.8c186.2,66.6,310.4-8.3,470.8-108.3
			c26.1-16.3,24.5-16,39.6-27.1l-197.9-600l52.1,14.6L1594.8,412.4"/>
		<path id="path24" class="st0" d="M1451.1,1054.1l-261-721.1c-12.9-0.5-20.2-0.6-33.1,0.6c-22.9,2.1-35.9,4.9-57.6,12.5l133,393.4
			l-20.8,14.6c-77.1,29.2-111.9,54-214.6,35.4c-218.8-39.6-504.8,62.6-611.7,286.3c-22.9,47.9-35.7,69.9-43.3,118.6
			c-3.2,20-4.2,31.5-4.2,51.8C548,1072,760.8,983.8,1051.1,1033.3c136.4,23.2,223.4,94.6,352.1,43.8
			C1422.4,1069.4,1433.1,1064.4,1451.1,1054.1"/>
	</g>
</g>
</svg>
