<?xml version="1.0" encoding="utf-8"?>
<!-- Generator: Adobe Illustrator 22.0.1, SVG Export Plug-In . SVG Version: 6.00 Build 0)  -->
<svg version="1.1" id="Ebene_1" xmlns="http://www.w3.org/2000/svg" xmlns:xlink="http://www.w3.org/1999/xlink" x="0px" y="0px"
	 viewBox="0 0 1000 259.9" style="enable-background:new 0 0 1000 259.9;" xml:space="preserve">
<g>
	<path d="M534.9,208.8v-8.7l0.2-0.2v-1.1l0.2-0.2v-0.9l-0.2-0.2h-3.3v-0.2l-0.2-0.2c0-0.6,0-1.1,0.9-1.2v-0.8l-0.8-0.1v-1.2h-2.9
		v-10l0.8-0.9v-0.3h-0.8v-1.1h-1.2v-1.8h0.2v-0.4l-0.7-0.1v-5.8c0,0,0-0.8-0.1-1.2c-0.1-0.4-0.3-1.2-0.3-1.2l0.3-0.2v-0.2
		c0,0-0.3-0.1-0.7-0.5c-0.4-0.5-1.2-2.8-1.2-2.8l0.2-0.3V166h-0.3l-0.6-5.2h0.2v-0.8h0.2c0,0-0.5-0.3-0.7-0.5
		c-0.1-0.1-0.1-0.2-0.1-0.3c0.3-0.1,0.6-0.4,0.6-0.7c0-0.4-0.3-0.7-0.6-0.7v-1.4h0.8v-0.2h-0.8v-0.9h-0.2v0.9h-0.8v0.2h0.8v1.4
		c-0.4,0-0.6,0.3-0.6,0.7c0,0.3,0.2,0.6,0.6,0.7c0,0.1-0.1,0.2-0.1,0.3c-0.2,0.2-0.7,0.5-0.7,0.5h0.1v0.8h0.3l-0.6,5.2h-0.3v1.2
		l0.2,0.3c0,0-0.8,2.3-1.2,2.8c-0.4,0.5-0.7,0.5-0.7,0.5v0.2l0.3,0.2c0,0-0.3,0.8-0.3,1.2c-0.1,0.4-0.1,1.2-0.1,1.2v5.8l-0.7,0.1
		v0.4h0.2v1.8h-1.2v1.1h-0.8v0.3l0.8,0.9v10h-2.9v1.2l-0.8,0.1v0.8c0.9,0.1,0.9,0.6,0.9,1.2l-0.2,0.2v0.4h-14.1v-4.8l0.2-0.2v-1.1
		l-0.9-0.4h-0.7v-4.6l0.2-0.4l-0.7-0.4v-3.9l0.2-0.2l-0.2-0.2v-8.1l0.2-0.4l-0.2-0.9l0.2-0.4l-0.2-0.2v-5l0.2-0.2l-0.2-1.1l0.4-1.3
		v-0.9l0.2-0.2l-0.2-1.1l0.2-0.2l-0.4-1.1l-2.2-0.4l-0.9,0.9h-1.5v-1.1h-0.8l-0.8-4.2l0.2-0.4c0,0,0-1,0-1h-0.5v-1.8
		c0.2,0.1,1.2,0.6,2.4,0.8c1.5,0.1,0.6,0,2.5,0.3c0,0-0.1,0-0.1-0.6c0-0.5,0.5-0.6,0.5-1c0-0.4-0.3-0.8-0.3-1.2
		c0-0.4-0.1-0.3-0.1-0.3c-0.8-0.1-1.4,0.2-3.4-1c-0.8-0.5-1.3-0.6-1.4-0.6v-0.3h-0.2v5.6h-0.5l0,1l0.2,0.4l-0.7,4.2h-0.8v1.1h-1.6
		l-0.9-0.9l-2.2,0.4l-0.4,1.1l0.2,0.2l-0.2,1.1l0.2,0.2v0.9l0.4,1.3l-0.2,1.1l0.2,0.2v5l-0.2,0.2l0.2,0.4l-0.2,0.9l0.2,0.4v8.1
		l-0.2,0.2l0.2,0.2v3.9l-0.7,0.4l0.2,0.4v4.6h-0.7l-0.9,0.4v1.1l0.2,0.2v2.1h-11.5v-4.9h0.8l-3.6-5.9l-3.7-35.3
		c0.3,0,0.6-0.3,0.6-0.6c0-0.3-0.2-0.6-0.6-0.6v-3.1c0.1,0,0.2-0.1,0.2-0.3c0-0.1-0.1-0.2-0.2-0.3l0,0c0,0,0,0-0.1,0
		c-0.2,0-0.3,0.1-0.3,0.3c0,0.1,0.1,0.2,0.2,0.3v3.1c-0.3,0-0.6,0.3-0.6,0.6c0,0.3,0.2,0.6,0.6,0.6l-4.5,35.3l-4.2-35.3
		c0.3-0.1,0.5-0.3,0.5-0.6c0-0.3-0.2-0.6-0.6-0.6v-1.2h1.1c0,0.1,0.1,0.2,0.2,0.2s0.2-0.1,0.2-0.2h0.9l0.2,0l-0.2,0h-0.9
		c0-0.1-0.1-0.2-0.3-0.2c-0.1,0-0.2,0.1-0.2,0.1c-0.3-0.2-0.5-0.3-0.7-0.6l0,0h0l-0.3,0v-1.1c0.1,0,0.2-0.1,0.2-0.3
		c0-0.1-0.1-0.2-0.2-0.3c0,0,0,0-0.1,0c-0.2,0-0.3,0.1-0.3,0.3c0,0.1,0.1,0.2,0.2,0.3v1.1h-0.1l0-0.3H458l0,0.2h-0.1l0-0.2h-0.1
		l0,0.2h-0.1l0-0.2h-0.1c0,0,0,0,0,0c0,0-0.1,0.1-0.1,0.1c0,0,0,0-0.1,0c-0.1,0-0.2-0.1-0.2-0.1v0l0,0c0,0,0-0.1,0-0.1l0,0
		c0,0,0,0.1,0,0.1c0.4-0.2,0.3-0.3,0.4-0.4c0,0,0-0.1-0.1-0.1h0c-0.1,0,0,0.1-0.1,0.2c0,0-0.1,0.1-0.3,0.1c0,0,0,0,0,0.1l0,0
		c0,0,0,0,0,0c0-0.1-0.1-0.1-0.1-0.1c0,0-0.1,0,0-0.1c0.1,0,0.1,0,0.1,0c0,0,0,0,0,0c0,0,0,0,0,0c0,0,0,0,0,0c0,0,0,0,0,0
		c0,0,0,0,0,0v0c0,0,0,0,0,0c0,0,0-0.1,0-0.1c0,0,0,0,0,0c0,0,0,0,0,0c0,0,0,0,0,0c0,0,0,0,0,0c0,0,0,0,0,0c0,0,0,0,0,0c0,0,0,0,0,0
		c0,0,0,0,0-0.1c0,0,0,0,0,0H457c0,0-0.1,0-0.2,0c-0.1,0-0.1,0-0.1,0c0,0-0.1,0-0.1,0.1c0,0,0,0.1,0,0.1c0,0.1,0,0.1,0,0.2
		c0,0,0,0.1,0,0.1c0,0.1,0.1,0.2,0.1,0.2c0,0,0,0.1,0,0.1c0,0.1,0,0.2-0.1,0.3l0,0h0c0,0,0,0.2,0,0.3c0,0,0,0.1,0,0.1
		c0,0,0,0,0.1,0.1c0,0.1,0.1,0.1,0.2,0.1c0,0,0,0,0,0v0h1.4v1.2c-0.3,0-0.6,0.3-0.6,0.6c0,0.3,0.3,0.6,0.6,0.6l-4.3,35.3l-3.5,5.9
		h0.9l-0.1,18.7H438c-1.1-29.9-2.4-60.2-2.7-90.1h1v-1.5h-1v-0.5h1v-1.5h-1c0-0.6,0-1,0-1.5c4.4-1.3,7.8-5.2,7.8-9.9
		c0-4-2.2-7.4-5.5-9.2l-0.2-1h-0.5V80.6h0.5v-1h-3.1l-0.5-2.5v-4.3l-0.2-1.9l0.1-18.6l-0.3-2.4l-0.1-21.6l-0.1-0.6V16.4
		c-0.1-0.1-0.3-0.1-0.4-0.2v0c0,0,0,0,0,0c0,0,0,0,0,0c0,0,0,0,0,0v0c-0.1,0-0.3,0.1-0.4,0.2v11.2l-0.1,0.6l-0.1,21.6l-0.3,2.4
		l0.1,18.6l-0.2,1.9v4.3l-0.5,2.5h-3.1v1h0.5v12.9h-0.5l-0.2,1c-3.3,1.8-5.5,5.2-5.5,9.2c0,4.8,3.4,8.7,7.8,9.9c0,0.6,0,1,0,1.5h-1
		v1.5h1v0.5h-1v1.5h1c-0.4,29.9-1.7,60.2-2.7,90.1H420V208h-0.2v-4.8h0.2v-0.4h-0.2l-0.2-0.6v-1.6l0.1-0.2l-0.3-0.1h-0.3v-0.2
		c0.1,0,0.2-0.1,0.2-0.1c0,0,0-0.1-0.1-0.1c0.1,0,0.2,0,0.2-0.1c0.1,0,0-0.1,0-0.1h-1c0,0-0.1,0,0,0.1s0.2,0.1,0.2,0.1
		c0,0-0.1,0.1-0.1,0.1c0,0,0.2,0.1,0.2,0.1v0.2h-0.3l-0.3,0.1l0.1,0.2v0.5h-1.4l0-0.1l-0.3-0.1h-0.3v-0.2c0.1,0,0.2-0.1,0.3-0.1
		c0,0,0-0.1-0.1-0.1c0.1,0,0.2,0,0.2-0.1c0.1,0,0-0.1,0-0.1h-1c0,0-0.1,0,0,0.1c0.1,0,0.2,0.1,0.2,0.1c0,0-0.1,0.1-0.1,0.1
		c0,0,0.2,0.1,0.2,0.1v0.2h-0.3l-0.3,0.1l0,0.1h-2.6v-0.5l0.1-0.2l-0.3-0.1h-0.3v-0.2c0.1,0,0.2-0.1,0.3-0.1c0,0,0-0.1-0.1-0.1
		c0.1,0,0.2,0,0.2-0.1s0-0.1,0-0.1h-1c0,0-0.1,0,0,0.1c0.1,0,0.2,0.1,0.2,0.1c0,0-0.1,0.1-0.1,0.1c0,0,0.2,0.1,0.2,0.1v0.2h-0.3
		l-0.3,0.1l0.1,0.2v0.5l-1.5,0.6v-0.5l0.1-0.2L410,201h-0.3v-0.2c0.1,0,0.2-0.1,0.2-0.1c0,0,0-0.1-0.1-0.1c0.1,0,0.2,0,0.2-0.1
		c0.1,0,0-0.1,0-0.1h-1c0,0-0.1,0,0,0.1c0.1,0,0.2,0.1,0.2,0.1c0,0-0.1,0.1-0.1,0.1c0,0,0.2,0.1,0.2,0.1v0.2h-0.3l-0.3,0.1l0.1,0.2
		v0.1l-3.9-1.7v-1.4l0.4-0.4v-0.4H405v-0.2l-0.2-0.2v-0.2l-0.2-0.2v-10.2h0.2V186l0.2-0.2v-0.6h-0.4v-1.2l1.2-1.7l0.2-0.2v-0.8
		l-1.4-0.3v-0.2l0.2-0.4h-0.2c-0.1-0.2,0.1-1.3,0-1.4c0,0,0,0-0.1,0c-0.1,0-0.3,0.1-0.3,0.1c-0.6-0.1-1,0.4-1,0.9c0,0.1-0.1,0-0.1,0
		c-0.1-0.2-0.2-0.1-0.3-0.1c-0.1,0.1-0.2,0.3-0.2,0.5h-0.1v0.2l-13.4-2.7v-0.3h0.2v-0.2h-0.4l-0.1-0.1c0-0.4-0.1-0.7,0-1.2
		c0.3,0.1,0.3-0.1,0.1-0.3c0-0.3-0.1-0.5-0.3-0.6c0.1-0.3,0-0.5-0.2-0.5c-0.2,0-0.2,0.3-0.1,0.4l-0.2,0.1c0,0.1-0.1,0.1-0.1,0.2
		l-0.1,0c0,0,0-0.2,0-0.3c-0.1-0.1-0.2,0-0.2,0c0.1-0.2,0-0.4,0-0.4c0,0-0.1,0-0.1,0c-0.1,0-0.2,0-0.2,0.1c0,0.1,0,0.4,0.1,0.4
		c0,0-0.3,0.1-0.3,0.2c-0.1,0.1,0,0.3,0,0.3l-0.1-0.2L387,175c0,0,0.2-0.3,0.1-0.4c-0.1-0.1-0.3-0.1-0.3,0c-0.1,0.2-0.1,0.3,0,0.4
		c0,0-0.2,0.1-0.3,0.2c-0.1,0.1,0,0.9,0,0.9l0.2,0c-0.1,0.4-0.1,0.8,0,1.1h-0.4v0.2h0.2v0.3l-13.4,2.7v-0.2h-0.1
		c0-0.2-0.1-0.5-0.2-0.5c-0.1-0.1-0.2-0.1-0.3,0.1c0,0-0.1,0.1-0.1,0c0.1-0.5-0.4-1-1-0.9c0,0-0.2-0.1-0.3-0.1c0,0-0.1,0-0.1,0
		c0,0.1,0.1,1.2,0,1.4h-0.2l0.2,0.4v0.2l-1.4,0.3v0.8l0.2,0.2l1.2,1.7v1.2h-0.4v0.6l0.2,0.2v0.4h0.2v10.2l-0.2,0.2v0.2l-0.2,0.2v0.2
		h-0.4v0.4l0.4,0.4v1.4l-3.9,1.7v-0.1l0.1-0.2l-0.3-0.1H366v-0.2c0.1,0,0.2-0.1,0.3-0.1c0,0,0-0.1-0.1-0.1c0.1,0,0.2,0,0.2-0.1
		c0.1,0,0-0.1,0-0.1h-1c0,0-0.1,0,0,0.1c0.1,0,0.2,0.1,0.2,0.1c0,0-0.1,0.1-0.1,0.1c0,0,0.2,0.1,0.2,0.1v0.2h-0.3l-0.3,0.1l0.1,0.2
		v0.5l-1.5-0.6v-0.5l0.1-0.2l-0.3-0.1h-0.3v-0.2c0.1,0,0.2-0.1,0.3-0.1c0,0,0-0.1-0.1-0.1c0.1,0,0.2,0,0.2-0.1c0.1,0,0-0.1,0-0.1h-1
		c0,0-0.1,0,0,0.1c0.1,0,0.2,0.1,0.2,0.1c0,0-0.1,0.1-0.1,0.1c0,0,0.2,0.1,0.2,0.1v0.2h-0.3l-0.3,0.1l0.1,0.2v0.5h-1.4V201l0.6-1.5
		h-0.6V197h-0.6v-1.8l-0.3-0.3v-2.7l0.3-0.3v-3l0.3-0.3v-0.6l-0.3-0.3v-0.3l-0.6-0.6c0.6-3.1-1.3-4.5-2.6-4.7v-0.2
		c-0.1-0.1-0.3-0.1-0.3-0.3v-0.2c0,0,0.2,0,0.2-0.1s-0.2-0.1-0.2-0.1V181c0.2-0.1,0.3-0.2,0.3-0.4s-0.1-0.4-0.3-0.4V180
		c0,0,0.2,0,0.2-0.1c0-0.1-0.2-0.1-0.2-0.1v-0.1c0,0,0.1,0,0.1-0.1c0,0-0.1-0.1-0.1-0.1v-0.3c0.1,0,0.2-0.1,0.2-0.2l0-0.3
		c-0.1,0.1-0.2,0.2-0.2,0.3c0-0.1-0.1-0.2-0.2-0.3c-0.1,0-0.1,0.1-0.2,0.3c0-0.1-0.1-0.2-0.2-0.3l0,0.3c0,0.1,0.1,0.2,0.2,0.2v0.3
		c0,0-0.1,0-0.1,0.1c0,0,0.1,0.1,0.1,0.1v0.1c0,0-0.2,0-0.2,0.1s0.2,0.1,0.2,0.1v0.1c-0.2,0.1-0.3,0.2-0.3,0.4s0.1,0.4,0.3,0.4v0.2
		c0,0-0.2,0-0.2,0.1s0.2,0.1,0.2,0.1v0.2c-0.1,0.2-0.2,0.2-0.3,0.3v0.2c-1.4,0.3-3.1,1.7-2.6,4.7l-0.6,0.6v0.3l-0.3,0.3v0.6l0.3,0.3
		v3l0.3,0.3v2.7l-0.3,0.3v1.8h-0.6v0.9h-1.8v-1.2l-0.6-1.5v-5.8l0.3-0.3V183h-0.6l-0.3-0.3h-0.3l-0.3-0.3v-0.9l-0.6-0.3v-0.6
		c2.2-6.1-1.5-14-9.9-16c0,0,0-0.3-0.2-0.5s-0.9-0.6-0.9-0.6s0.3,0,0.3-0.3c0-0.3-0.3-0.3-0.3-0.3l-0.1-0.9c0,0,0.2-0.1,0.2-0.1
		c0-0.1-0.2-0.1-0.2-0.1l0-0.5c0.6-0.1,1-0.6,1-1.1c0-0.4-0.3-0.8-0.6-1c0.1-0.2-0.1-0.2-0.2-0.3c-0.1-0.3-0.1-0.7-0.2-1
		c0,0,0.2,0,0.2-0.1c0,0-0.2-0.1-0.2-0.2l0.3-0.5h0.6l-0.3-0.5l0.3-0.5h-0.6l-0.2-0.4c0.1-0.3,0.2-0.4,0.2-0.4
		c0-0.1-0.2-0.1-0.3-0.6c-0.1,0.5-0.3,0.6-0.3,0.6c0,0.1,0.1,0.1,0.2,0.4l-0.2,0.4h-0.6l0.3,0.5l-0.3,0.5h0.6l0.3,0.5
		c0,0-0.2,0.1-0.2,0.2c0,0.1,0.2,0.1,0.2,0.1c0,0.3-0.1,0.7-0.2,1c-0.1,0-0.3,0.1-0.2,0.3c-0.4,0.2-0.6,0.6-0.6,1
		c0,0.6,0.4,1.1,1,1.1l0,0.5c0,0-0.2,0-0.2,0.1c0,0.1,0.2,0.1,0.2,0.1l-0.1,0.9c0,0-0.3,0-0.3,0.3c0,0.3,0.3,0.3,0.3,0.3
		s-0.7,0.4-0.9,0.6c-0.2,0.2-0.2,0.5-0.2,0.5c-8.3,1.9-12.1,9.8-9.9,16v0.6l-0.6,0.3v0.9l-0.3,0.3h-0.3l-0.3,0.3h-0.6v6.1l0.3,0.3
		v5.8l-0.6,1.5v1.2h-1.8V197H321v-1.8l-0.3-0.3v-2.7l0.3-0.3v-3l0.3-0.3v-0.6l-0.3-0.3v-0.3l-0.6-0.6c0.5-2.9-1.2-4.3-2.6-4.7v-0.2
		c-0.1-0.1-0.2-0.1-0.3-0.3v-0.2c0,0,0.2,0,0.2-0.1s-0.2-0.1-0.2-0.1V181c0.2-0.1,0.3-0.2,0.3-0.4s-0.1-0.4-0.3-0.4V180
		c0,0,0.2,0,0.2-0.1s-0.2-0.1-0.2-0.1v-0.1c0,0,0.1,0,0.1-0.1c0,0-0.1-0.1-0.1-0.1v-0.3c0.1,0,0.2-0.1,0.2-0.2l0-0.3
		c-0.1,0.1-0.2,0.2-0.2,0.3c0-0.2-0.1-0.2-0.2-0.3c-0.1,0.1-0.1,0.2-0.2,0.3c0-0.1-0.1-0.2-0.2-0.3l0,0.3c0,0.2,0.1,0.2,0.2,0.2v0.3
		c0,0-0.1,0-0.1,0.1c0,0,0.1,0.1,0.1,0.1v0.1c0,0-0.2,0-0.2,0.1c0,0.1,0.2,0.1,0.2,0.1v0.1c-0.2,0.1-0.3,0.2-0.3,0.4
		s0.1,0.4,0.3,0.4v0.2c0,0-0.2,0-0.2,0.1s0.2,0.1,0.2,0.1v0.2c-0.1,0.2-0.2,0.2-0.3,0.3v0.2c-1.3,0.2-3.2,1.6-2.6,4.7l-0.6,0.6v0.3
		l-0.3,0.3v0.6l0.3,0.3v3l0.3,0.3v2.7l-0.3,0.3v1.8h-0.6v2.4h-0.6l0.6,1.5v7.8h-4.3v-16.9l0.9-1.4h-0.9v-2.7l1.8-1.4V186l0.9-0.5
		l-0.9-0.4h-1.8v-0.5h-0.5v-2.3l1-1.4h-17.7v-0.5h-0.5v-0.4h-0.9V180h-2.9l0-2.1c0,0,0,0,0.1,0c0,0.1,0,0.2,0.1,0.3
		c0,0.2,0,0.4,0,0.6l-0.1,0.2l0.1,0.2c0,0,0,0.1-0.1,0.1l0,0.3c0.1,0,0.1,0,0.2,0.1l0,0.2c0.1,0.1,0.2,0.2,0.4,0.1
		c0-0.1,0-0.1,0-0.3l-0.1-0.1l0-0.1c0.1,0,0.1-0.1,0.1-0.2c0-0.1,0-0.2-0.1-0.3c0-0.1,0-0.2,0-0.2c0.1-0.2,0.1-0.5,0.1-0.7
		c0.1,0,0.1,0,0.2,0c0,0.2,0.2,0.4,0,0.6l-0.1,0.2c0.1,0.3,0,0.6-0.1,0.9c0,0.1,0,0.2,0.1,0.2l0.5,0l0-0.1l-0.1-0.1
		c0-0.1,0-0.2,0-0.4c0-0.4,0-0.5,0.1-0.7c0.2-0.2,0.2-0.2,0.2-0.3c0.1-0.1,0.1-0.2,0.1-0.3l0.2-0.1c0.1,0-0.1,0.2,0,0.2
		c0.1,0,0.1-0.1,0.1-0.1c0.1,0,0.2,0.1,0.3,0.1l0,0.4l-0.1,0.2l0,0.2c-0.3,0.2-0.2,0.5-0.1,0.5c0.1,0,0.2,0,0.3-0.3l0-0.1
		c0,0,0.1-0.1,0.1-0.2c0-0.2,0-0.4,0.1-0.6l0-0.2c-0.1-0.1-0.1-0.2-0.2-0.4c0-0.1,0-0.3,0-0.3c0,0,0.1-0.1,0.1-0.2
		c0-0.1,0.1-0.1,0-0.2c0-0.1-0.1-0.2-0.1-0.3c0-0.1-0.1-0.1-0.1-0.2l0-0.2c0.1-0.1,0.1-0.2,0.1-0.2c0,0,0.1-0.1,0.1-0.1
		c0,0,0.1-0.1,0.1-0.1c0,0-0.1,0,0-0.1c0-0.1,0-0.3,0-0.4l0.1-0.1c0.1-0.1,0.1-0.1,0-0.2l0-0.1l0-0.1c0.1-0.1,0.2-0.1,0.1-0.3
		c-0.1,0.1-0.1,0.1-0.2,0.1c0,0-0.1-0.1-0.2-0.1c0-0.1,0-0.1,0-0.1h0c0,0-0.1,0-0.1,0c-0.1,0-0.2,0-0.3,0.1c-0.1,0-0.2,0.1-0.3,0.2
		c-0.2,0.1-0.2,0.2-0.2,0.4c-0.2,0.2-0.2,0.5-0.2,0.8l0,0.2l0,0.1l0,0.1h0l0,0c-0.5,0.1-0.9,0.1-1.4,0c-0.3-0.1-0.7-0.3-1-0.4l0,0
		l0,0c0-0.1,0-0.1,0-0.2c0,0,0-0.1,0.1-0.1c0-0.1,0-0.1,0-0.2c0,0-0.1-0.1-0.1-0.1c0-0.1,0-0.2,0-0.3c0-0.1,0.1-0.2,0-0.3
		c0-0.1,0-0.1-0.1-0.2c0.1-0.1,0.1-0.3-0.1-0.1c-0.1-0.1-0.2-0.1-0.3,0l-0.1-0.1c0-0.3-0.1-1.1-0.1-1.4c-0.1-0.4-0.3-0.7-0.6-0.4
		c0.1,0.2,0.1,0.4-0.2,0.5c0,0,0,0,0,0c0,0-0.1,0-0.1,0l0,0c0,0,0,0,0,0c0-0.1-0.1-0.1-0.1-0.1c-0.1,0-0.1-0.1-0.1-0.2
		c0-0.1,0.1-0.1,0-0.2c0,0,0,0,0-0.1c0,0,0-0.1,0.1-0.1l0.1,0l0-0.1l0,0l0,0l0,0l0,0l0,0l0,0l0,0l0-0.1l0,0l0-0.1l0,0.1l-0.1-0.1
		l0,0l0-0.1l0,0h0l0,0l-0.1,0l0,0l-0.1,0l0,0l-0.1,0.1l0,0l-0.1,0.1l0,0L284,172l0,0l0-0.6c0,0,0-0.1,0-0.1l0-0.2l0-0.1
		c0,0,0.1,0,0.1-0.1c0,0,0,0-0.1-0.1l0-0.1c0.4,0,0.6-0.3,0.6-0.7c0-0.3-0.3-0.6-0.5-0.7v-0.1c0,0,0.1,0,0.1,0c0,0,0,0.1,0,0.1
		c0,0,0-0.1,0-0.1c0,0,0,0-0.1-0.1c0,0-0.1,0-0.1,0c0,0,0,0,0,0c0,0,0,0,0,0c0,0,0,0,0,0c0,0,0-0.1,0-0.1c0,0,0,0,0,0c0,0,0,0,0.1,0
		c0,0,0,0,0.1,0c0,0,0,0,0.1,0c0,0,0.1,0.1,0.1,0c0,0,0.1,0,0.1-0.1c0,0,0.1,0,0-0.1c0,0,0,0,0-0.1c0,0,0,0,0-0.1c0,0,0,0,0,0
		c0,0,0.1,0,0.1,0c0.1,0,0,0,0-0.1c0,0,0,0,0-0.1c0,0,0,0,0-0.1c0,0,0.1-0.1,0-0.1c0,0,0.1,0,0-0.1c0,0,0.1-0.1,0-0.1
		c0,0,0.1-0.1,0-0.1c0-0.1,0.1-0.1,0.1-0.2c0,0,0-0.1,0.1-0.2h0l0,0c-0.1,0-0.2,0.2-0.3,0.2l0,0c-0.1,0.1-0.3,0.2-0.4,0.3
		c-0.1,0.1-0.2,0.1-0.2,0.2c0.1,0,0.1,0.1,0,0.1c-0.1,0-0.1,0.1-0.2,0.1c0-0.1,0-0.2,0-0.3c0,0,0,0,0,0l0,0c0,0,0.1,0,0.1-0.1
		c0,0-0.1-0.1-0.1-0.1c0,0,0,0,0,0l0,0c0,0,0,0,0,0c0,0,0,0,0,0v0h0v0h0v0l0,0v0h0v0h0v0c0,0,0,0,0,0c0,0,0,0,0,0l0,0c0,0,0,0,0,0
		c-0.1,0-0.1,0-0.1,0.1c0,0,0,0.1,0.1,0.1l0,0c0,0-0.1,0-0.1,0.1c0,0,0,0.1,0,0.1c0,0,0,0,0,0c0,0,0,0,0.1,0c0,0.1,0,0.2,0,0.3
		c-0.1,0-0.2-0.1-0.2-0.2c0.1-0.1,0-0.1,0-0.2c-0.2-0.2-0.5-0.2-0.7-0.4l0,0c-0.1,0-0.2-0.2-0.2-0.1c0,0,0,0.1,0.1,0.2
		c-0.1,0.1,0,0.1,0.1,0.2c-0.1,0.1,0,0.1,0.1,0.2c0,0.1,0,0.1,0.1,0.1c-0.1,0.1,0,0.1,0.1,0.1c0,0.1,0,0.1,0.1,0.1
		c0,0,0,0.1,0.1,0.1c0,0,0,0.1,0.1,0.1c0,0.1,0.1,0.1,0.1,0c0,0,0,0.1,0.1,0.1c0,0.1-0.1,0.1,0,0.1c0,0.1,0,0.1,0.1,0.1
		c0,0,0,0.1,0.1,0c0,0,0,0.1,0.1,0c0,0,0,0.1,0.1,0c0,0,0,0.1,0,0.1c0,0,0,0,0,0v0.1c-0.1,0-0.1,0.1-0.1,0.2c0,0,0,0,0,0
		c-0.2,0.1-0.3,0.4-0.3,0.6c0,0.4,0.3,0.7,0.7,0.7l0,0.1c-0.1,0-0.1,0-0.1,0.1c0,0,0,0,0.1,0.1l0,0.1l0,0.2c0,0,0,0.1,0,0.1l0,0.6
		l-0.2,0.1c-0.1,0.1-0.1,0.1-0.2,0.2c-0.3-0.2-0.4,0-0.5,0.1c-0.1,0.1-0.1,0.7-0.1,1c0.1,0.5,0.1,1.1,0.2,1.7
		c-0.1,0.1-0.6,0.3-0.7,0.4l0-0.1l0.1-0.2l0-0.2c-0.1-0.1,0-0.1,0-0.1c0.1-0.1,0-0.2-0.1-0.3l-0.1-0.1c-0.1,0-0.3-0.2-0.3,0.1
		c0-0.1-0.1-0.1-0.1-0.1c0,0.1,0,0.1,0,0.2l0,0.1c-0.1,0.1-0.1,0.2-0.1,0.3c0,0.1,0,0.2,0,0.2c0,0.2-0.1,0.4-0.1,0.5
		c-0.6,0.2-1.8,0.3-2,0.2l0,0l0,0c-0.1-0.3-0.2-0.7-0.4-1c0-0.1-0.1-0.2-0.2-0.3c-0.2-0.1-0.3-0.3-0.5-0.3c-0.1,0-0.2,0-0.3,0.2
		l-0.1,0c-0.1,0-0.1,0-0.1,0l-0.1,0v0.1c0.1,0,0.1,0.1,0.1,0.1c0,0.1,0,0.1,0,0.2c-0.1,0.1-0.1,0.1-0.1,0.1c0,0,0,0.1,0,0.1l0.1,0.1
		v0.2c0,0.1,0.1,0.3,0,0.4c0,0,0,0.1,0.1,0.2c0,0,0,0.1,0,0.1c0.1,0.1,0.1,0.1,0.2,0c0,0,0.2,0.1,0.2,0.1s0,0.1,0,0.1l0,0l0,0.1
		c-0.1,0.1-0.2,0.2-0.2,0.3c-0.1,0.1-0.1,0.2-0.1,0.2l0.1,0.3c0,0.1,0,0.2,0,0.3c0.1,0.2-0.1,0.3-0.2,0.4l0,0.2
		c0.1,0.2,0.1,0.5,0.1,0.7c0,0.1,0,0.2,0,0.3c0.1,0.2,0.3,0.4,0.4,0.2c0.1-0.2-0.1-0.3-0.1-0.4c-0.1,0,0-0.1,0-0.1
		c-0.1-0.4-0.1-0.5,0-0.6c0,0,0-0.1,0-0.1c0.1,0,0.2-0.1,0.2-0.1c0.1,0,0.1,0.1,0.1,0c0.1,0,0.2,0.1,0.3,0c0,0-0.1-0.1-0.1-0.1
		l0.2,0c0,0.1,0.1,0.2,0.2,0.4c0,0,0,0.4,0,0.4c-0.1,0.1,0,0.4,0,0.4c0,0.2,0,0.4,0,0.6l0,0.2c0,0-0.1,0.1-0.1,0.1
		c0,0.1,0,0.1,0,0.2h-2.1v0.2h-0.6v0.4h-0.5v0.5h-17.8l1.1,1.4v2.3h-0.4v0.5h-1.8l-0.9,0.4l0.9,0.5v0.4l1.8,1.4v2.7h-0.9l0.9,1.4
		v16.9h-4.9l-0.2-0.2v-3.7l0.3-0.2v-0.5l-0.3-0.1v-0.8l-0.5-0.9V191l0.6-1.9h-0.7l0.4-0.8h-0.4v-1.6h1l0.5-0.9h-1.6v-0.7l0.5-0.5
		h-0.5V184h-0.1l0-0.2c0.1,0,0.1-0.2,0.1-0.3c0-0.3,0-0.7-0.2-1c0,0,0-0.3,0-0.3c0-0.1-0.2-0.3-0.2-0.3c0.1-0.2,0-0.4-0.1-0.6
		c0.1,0,0.3-0.1,0.4-0.3c-0.1-0.2-0.3-0.2-0.5-0.3v-0.2c-0.1-0.1-0.8-0.5-0.6,0.5c0.2,0.1,0,0.2-0.1,0.3l-0.1,0.6l-0.1,0.8
		c0.3,0.2,0.2,0.5,0.1,0.9l-0.1,0.3l0.1,0l0,0.2h-0.9v-2l0.5-0.7h-0.2v-0.4h-0.4V180h-0.5v-4.7l1-1.5h-1.4v-0.8l-0.3-0.2v-0.7h-1.3
		c0-0.3-0.2-0.4-0.4-0.4c-0.2,0-0.3,0.2-0.4,0.4h-2.2c0-0.3-0.2-0.4-0.4-0.4c-0.2,0-0.3,0.2-0.4,0.4h-1.4v-7.1h0.1v0.7
		c2.6,0.9,4.3,0.2,5.9,1.3l0-0.7c0,0-0.2-0.2,0.2-0.4c0-0.1-0.2-0.2-0.3-0.5c0-0.6,0.3-0.1,0.6-0.5c0.1-0.3-0.4-0.6-0.1-0.8
		c-1-0.7-2.3-0.8-3.1-1.5c-1.1-1.2-1.8-1.3-3.3-1.7v1h-0.1v-1.5h-0.3v11.7h-0.5c0-0.3-0.2-0.4-0.4-0.4c-0.2,0-0.3,0.2-0.4,0.4h-2.2
		c0-0.3-0.2-0.4-0.4-0.4s-0.3,0.2-0.4,0.4h-1.3v0.7l-0.3,0.2v0.8h-1.1l1,1.4v4.7H237v0.8h-0.4v0.4l-0.3,0.8l-0.3,1.1H232v-0.3
		l-0.2-0.2v-0.3c0.3-0.2,0.1-0.3-0.1-0.4c0.2-0.2,0.4-0.4-0.1-0.4c0.1-0.2,0.1-0.3-0.1-0.4l-0.1-0.2l-0.1,0.2
		c-0.2,0.1-0.2,0.3-0.1,0.4c-0.5,0-0.1,0.3-0.1,0.4c-0.1,0.1-0.4,0.1-0.1,0.4v0.3l-0.2,0.2v0.3h-4.3v-0.3l-0.2-0.2v-0.3
		c0.3-0.2,0.1-0.3-0.1-0.4c0.2-0.2,0.4-0.4-0.1-0.4c0.1-0.2,0.1-0.3-0.1-0.4l-0.1-0.2l-0.1,0.2c-0.2,0.1-0.2,0.3-0.1,0.4
		c-0.5,0-0.1,0.3-0.1,0.4c-0.1,0.1-0.4,0.1-0.1,0.4v0.3l-0.2,0.2v0.3h-4.3v-0.3l-0.2-0.2v-0.3c0.3-0.2,0.1-0.3-0.1-0.4
		c0.2-0.2,0.4-0.4-0.1-0.4c0.1-0.2,0.1-0.3-0.1-0.4l-0.1-0.2l-0.1,0.2c-0.2,0.1-0.2,0.3-0.1,0.4c-0.5,0-0.1,0.3-0.1,0.4
		c-0.1,0.1-0.4,0.1-0.1,0.4v0.3l-0.2,0.2v0.3h-4.3v-0.3l-0.2-0.2v-0.3c0.3-0.2,0.1-0.3-0.1-0.4c0.2-0.2,0.4-0.4-0.1-0.4
		c0.1-0.2,0.1-0.3-0.1-0.4l-0.1-0.2l-0.1,0.2c-0.2,0.1-0.2,0.3-0.1,0.4c-0.5,0-0.1,0.3-0.1,0.4c-0.1,0.1-0.4,0.1-0.1,0.4v0.3
		l-0.2,0.2v0.3h-4.2c-0.1-0.3-0.4-0.7-0.1-1.1c0-0.3,0.2-0.7-0.3-0.8c-0.2-0.1-0.3-0.3-0.2-0.4l0.9-1.5l-1,0l0-1l-0.5-0.4l0.6-1
		h-0.6v-0.7l-0.5-1v-1.9l0.4-0.4l-0.8-0.5v-0.7h-0.2l0.2-0.7c-0.1-0.2-0.3-0.3-0.5-0.3c0,0,0.1-0.1,0.1-0.1c0-0.1,0-0.1-0.1-0.1
		v-0.3h0.2v-0.1h-0.2V170h-0.1v0.1h-0.2v0.1h0.2v0.3c-0.1,0-0.1,0.1-0.1,0.1c0,0.1,0,0.1,0.1,0.1c-0.1,0-0.3,0.1-0.5,0.3l0.1,0.7
		h-0.3v0.7l-0.9,0.5l0.5,0.4v1.9l-0.5,1v0.4H206c0,0-0.7-2.4-1.2-3.3s-1.4-2.2-2-2.9c-0.6-0.6-1.1-1.1-1.6-1.5
		c-0.6-0.4-1.5-0.9-2.2-1.3c-0.7-0.3-2.2-0.8-2.2-0.8v-0.3l-0.6-0.5c0,0-0.1-0.2-2.1-0.2h0c-2,0-2.1,0.2-2.1,0.2l-0.6,0.5v0.3
		c0,0-1.5,0.5-2.2,0.8c-0.7,0.3-1.6,0.8-2.2,1.3c-0.6,0.4-1.1,0.9-1.6,1.5c-0.6,0.6-1.5,1.9-2,2.9c-0.5,0.9-1.2,3.3-1.2,3.3h-0.8
		v-0.4l-0.5-1v-1.9l0.5-0.4l-0.9-0.5v-0.7h-0.3l0.1-0.7c-0.2-0.2-0.3-0.3-0.5-0.3c0,0,0.1-0.1,0.1-0.1c0-0.1,0-0.1-0.1-0.1v-0.3h0.2
		v-0.1h-0.2V170h-0.1v0.1h-0.2v0.1h0.2v0.3c-0.1,0-0.1,0.1-0.1,0.1c0,0.1,0,0.1,0.1,0.1c-0.2,0-0.3,0.2-0.5,0.3l0.2,0.7H179v0.7
		l-0.8,0.5l0.4,0.4v1.9l-0.5,1v0.7h-0.6l0.6,1l-0.5,0.4l0,1l-1,0l0.9,1.5c0,0.2-0.1,0.3-0.2,0.4c-0.5,0.1-0.3,0.5-0.3,0.8
		c0.2,0.4,0,0.7-0.1,1.1h-4.2v-0.3l-0.2-0.2v-0.3c0.3-0.2,0.1-0.3-0.1-0.4c0-0.2,0.5-0.4-0.1-0.4c0.1-0.1,0.2-0.3-0.1-0.4l-0.1-0.2
		l-0.1,0.2c-0.2,0.1-0.1,0.3-0.1,0.4c-0.4,0-0.3,0.2-0.1,0.4c-0.1,0.1-0.3,0.2-0.1,0.4v0.3l-0.2,0.2v0.3h-4.3v-0.3l-0.2-0.2v-0.3
		c0.3-0.2,0.1-0.3-0.1-0.4c0-0.2,0.5-0.4-0.1-0.4c0.1-0.1,0.2-0.3-0.1-0.4L167,181l-0.1,0.2c-0.2,0.1-0.1,0.3-0.1,0.4
		c-0.4,0-0.3,0.2-0.1,0.4c-0.1,0.1-0.3,0.2-0.1,0.4v0.3l-0.2,0.2v0.3h-4.3v-0.3l-0.2-0.2v-0.3c0.3-0.2,0.1-0.3-0.1-0.4
		c0-0.2,0.5-0.4-0.1-0.4c0.1-0.1,0.2-0.3-0.1-0.4l-0.1-0.2l-0.1,0.2c-0.2,0.1-0.1,0.3-0.1,0.4c-0.4,0-0.3,0.2-0.1,0.4
		c-0.1,0.1-0.3,0.2-0.1,0.4v0.3l-0.2,0.2v0.3H157v-0.3l-0.2-0.2v-0.3c0.3-0.2,0.1-0.3-0.1-0.4c0-0.2,0.5-0.4-0.1-0.4
		c0.1-0.1,0.2-0.3-0.1-0.4l-0.1-0.2l-0.1,0.2c-0.2,0.1-0.1,0.3-0.1,0.4c-0.4,0-0.3,0.2-0.1,0.4c-0.1,0.1-0.3,0.2-0.1,0.4v0.3
		l-0.2,0.2v0.3H152l-0.3-1.1l-0.3-0.8v-0.4h-0.4V180h-0.4v-4.7l1-1.4h-1.1v-0.8l-0.3-0.2v-0.7H149c0-0.3-0.2-0.4-0.4-0.4
		c-0.2,0-0.3,0.2-0.4,0.4h-2.2c0-0.3-0.2-0.4-0.4-0.4c-0.2,0-0.3,0.2-0.4,0.4h-0.5v-7h0.1v0.7c3-0.2,4,0.9,5.9,1.3l0-0.7
		c-0.1-0.1-0.3-0.1-0.3-0.5c0-0.1,0-0.2,0.2-0.2c0-0.3,0-0.6-0.1-0.8c0.1-0.3,0.4-0.5,0.7-0.8c-1-0.7-1.8-1.1-3.1-1.5
		c-1.1-0.4-1.8-1.3-3.3-1.7v1h-0.1v-1.5h-0.3h0v11.7h-1.4c0-0.3-0.2-0.4-0.4-0.4c-0.2,0-0.3,0.2-0.4,0.4h-2.2c0-0.3-0.2-0.4-0.4-0.4
		c-0.2,0-0.3,0.2-0.4,0.4h-1.3v0.7l-0.3,0.2v0.8h-1.4l1,1.5v4.7h-0.5v0.8h-0.4v0.4h-0.2l0.5,0.7v2h-0.9l0-0.2l0.1,0l-0.1-0.3
		c0-0.3-0.2-0.7,0.1-0.9l-0.1-0.8l-0.1-0.6c-0.1-0.1-0.4-0.3-0.1-0.3c0.2-1-0.5-0.6-0.6-0.5v0.2c-0.2,0.1-0.4,0.2-0.5,0.3
		c0.1,0.2,0.3,0.2,0.4,0.3c-0.1,0.2-0.1,0.4-0.1,0.6c0,0-0.3,0.2-0.2,0.3c0,0,0,0.3,0,0.3c-0.2,0.3-0.2,0.6-0.2,1
		c0,0.1-0.1,0.3,0.1,0.3l0,0.2h-0.1v0.5h-0.5l0.5,0.5v0.7h-1.6l0.5,0.9h1v1.6h-0.4l0.4,0.8h-0.7l0.6,1.9v11.4l-0.5,0.9v0.8l-0.3,0.1
		v0.5l0.3,0.2v3.7l-0.2,0.2h-5.3v-3.5h-0.4V205h-0.4v-0.3h-0.4v-0.3h-0.2v-4.9l0.1-0.1v-1l0.1-0.2h0.3v-0.7h-4.5V195
		c-0.1,0.1-0.9-0.7-0.4-0.7c0.5,0-0.3-0.7-0.3-0.7l-0.2-11.8l-0.2-11.8c-0.2-0.4-0.1-0.6,0.1-0.7c0.1-0.1,0-0.7,0.2-0.8
		c0.1-0.1,0-0.5,0.1-0.8v-1h-0.8V165c0-0.2-0.1-0.2-0.2-0.3c-0.1-0.3-0.4-0.3-0.5-0.5l0-0.4c0.2,0,0.4,0.1,0.6,0c0.1,0,0.1,0,0.3,0
		l0,0c0.3,0,0.6-0.2,0.8-0.3c-0.1-0.3-0.3-0.7-0.6-1c-0.1-0.2-0.2-0.5-0.3-0.7c-0.1-0.2-0.1-0.4-0.2-0.6c0.2-0.1,0.4-0.1,0.2-0.4
		c-0.1,0-0.1,0-0.2-0.1c-0.1-0.1-0.2-0.3-0.2-0.5c0-0.1,0-0.3-0.1-0.4l0.1-0.1c0.1,0,0.3,0.2,0.4,0.1c0.1-0.1,0.1-0.2-0.1-0.5
		c0,0,0-0.1,0-0.1c0-0.1,0-0.2-0.1-0.3c0.2,0.1,0.2,0.1,0.1-0.1c0.1,0,0.2,0.1,0.2,0.1c0-0.1-0.1-0.2-0.1-0.2c0,0,0.4,0.1,0.4,0.1
		c0-0.1-0.1-0.2-0.1-0.2s0.4,0,0.5-0.1c0-0.1-0.2-0.1-0.2-0.1s0.5,0,0.6-0.1c0-0.1-0.1-0.1-0.1-0.1s0.3-0.1,0.3-0.2
		c0-0.1-0.2,0-0.2,0s0.4-0.1,0.4-0.3c0-0.1-0.3,0-0.3,0s0.1-0.1,0.1-0.2c0-0.1-0.2,0-0.2,0c-0.4,0.1-0.7,0.1-1.1,0.1h0
		c0.1,0,0.2-0.1,0.2-0.3c0-0.2,0-0.3-0.1-0.5c0-0.1,0-0.2,0-0.2c0-0.2-0.3-0.5-0.4-0.7l0-0.3l0.1-0.1c0.1,0,0.2-0.2,0.2-0.5
		c0-0.2-0.1-0.3-0.2-0.3l0-0.1c0.2-0.1,0-0.4,0-0.6l0,0c0,0.2-0.3,0.4-0.1,0.6l0,0.1h0c0,0,0,0,0,0c-0.2,0-0.2,0.2-0.2,0.5
		c0,0.1,0.1,0.2,0.2,0.3l0,0.1l-0.1,1.8c-0.1,0-0.3,0-0.4,0c0-0.1-0.1-0.2-0.2-0.2l0-0.1l0,0c0-0.1,0.2-0.2,0.2-0.3c0,0,0.1,0,0,0
		c0.1,0,0.1,0,0.1,0c0.1,0,0.1,0,0.1,0c0,0,0.1,0,0.1,0c0,0,0.1,0,0.1,0c0,0,0.1,0,0,0l0,0c-0.1-0.1-0.3-0.1-0.6,0.2
		c0,0,0-0.1,0-0.1c0,0-0.1,0-0.1,0l0,0c0.1,0,0,0,0,0.1c-0.1-0.1-0.2-0.3-0.3-0.3c-0.1,0-0.2,0-0.2,0.1c0,0-0.1,0,0,0c0,0,0,0,0,0
		c0,0,0,0,0.1,0c0,0,0,0,0.1,0c0,0,0,0.1,0.1,0c0,0.1,0,0.1,0.1,0c0,0,0,0,0,0c0,0,0,0,0,0c0,0.1,0.1,0.2,0.1,0.3l0,0l0,0
		c-0.2,0.1-0.2,0.1-0.2,0.2c0,0,0,0-0.1,0.1c0,0,0,0.1,0,0.1c0,0,0,0,0,0.1c-0.1,0-0.1,0.1,0,0.2c0,0,0,0.1,0,0.1c0,0,0,0.1,0,0.1
		c0,0.1,0.1,0.2,0.1,0.2c0,0.1-0.1,0.1-0.2,0c-0.1-0.1-0.1-0.1-0.2-0.2c-0.1-0.2-0.2-0.4-0.3-0.5c-0.1-0.1-0.4-0.3-0.7-0.3
		c-0.1-0.2-0.1-0.4-0.1-0.5c0-0.1,0-0.2,0-0.3l0,0l0,0c0,0,0.1,0.1,0.1,0.1c0,0-0.1-0.1-0.1-0.1c0,0,0.1,0,0.2,0l-0.1,0
		c0,0,0,0,0.1,0c0,0,0,0,0,0c0,0,0,0,0,0l-0.1,0c0.1,0,0.2-0.1,0.2-0.2l-0.1,0c0-0.1,0.1-0.1,0.1-0.2c0,0-0.1,0-0.1,0
		c0-0.1,0-0.1,0.1-0.2c0,0-0.1,0.1-0.1,0.1c0-0.1,0.1-0.2,0-0.2l0,0.1c0,0,0,0,0-0.1c0,0,0,0.1,0,0.1c0-0.1,0-0.2-0.1-0.2l0,0.1
		c-0.1-0.2-0.2-0.2-0.3-0.1c0,0,0-0.1,0-0.1c0,0,0,0,0,0c0,0,0,0.2,0,0.2l0,0.1l0-0.2l0,0.1l0-0.2c0,0.1,0,0.2,0,0.3
		c0,0,0-0.1-0.1-0.1l0,0.2l-0.1-0.1c0,0.1,0.1,0.1,0.1,0.2l-0.1,0c0,0.1,0.1,0.2,0.2,0.2c-0.1,0-0.1,0-0.2,0c0.1,0,0.1,0,0.2,0
		c0,0-0.1,0-0.1,0c0,0,0.1,0,0.1,0l0,0c0,0-0.1,0-0.1,0l0.1,0l0,0h0c0,0.1,0.1,0.2,0.2,0.4l0,0.5c-0.3,0-0.8-0.1-1-0.1
		c-0.1,0-0.2,0-0.2,0c0,0-0.1,0-0.1,0c0,0.1,0.2,0.2,0.2,0.2c0,0-0.5-0.2-0.5-0.1c-0.1,0.1,0.5,0.4,0.5,0.4s-0.3-0.1-0.4,0
		c0,0.1,0.4,0.3,0.4,0.3s-0.1,0-0.1,0.1c0,0.1,0.6,0.2,0.6,0.2s-0.2,0-0.2,0.1c0,0.1,0.5,0.1,0.5,0.1s-0.1,0.1-0.1,0.2
		c0,0.1,0.5,0,0.5,0s-0.2,0.1-0.1,0.2c0.1,0.1,0.3-0.1,0.3-0.1s-0.1,0.2-0.1,0.2c0,0,0.2,0,0.2,0s-0.1,0.2-0.1,0.2
		c0,0.1,0.1,0,0.1,0s-0.1,0.1,0,0.2c0,0,0.1-0.1,0.1-0.1s-0.1,0.1,0,0.2c0,0,0.1-0.1,0.1-0.1s0,0.1,0,0.1c0,0,0.2-0.1,0.2-0.1
		s-0.1,0.2,0,0.3c0,0,0.1-0.1,0.1-0.1c0,0,0,0.2,0,0.2c0,0,0.1,0,0.1,0s0,0.2,0,0.2c0,0,0.1,0,0.1,0s0,0.1,0,0.1
		c0,0,0.1-0.1,0.1-0.1l0,0c-0.2,0.3-0.3,0.6-0.3,0.8c0,0.1-0.2,0.4-0.2,0.6c0,0.1,0.1,0.1,0.2,0.2c0,0,0.1,0.1,0.1,0.1
		c-0.1,0.5-0.4,0.9-0.6,1.3c-0.2,0.3-0.3,0.5-0.4,0.8l0,0.1c0,0.2,0.1,0.2,0.2,0.2c0.1,0,0.1,0,0.2,0c0.1,0,0.1-0.1,0.2,0l0,0.1
		c0.2,0.2,0.5,0.1,0.7,0.1c0.1,0.1,0.2,0.2,0.3,0.2c0,0,0.1-0.1,0.1-0.1c0,0.1,0,0.1-0.1,0.2c-0.2,0.1-0.7,0.3-0.7,0.5
		c-0.1,0.1-0.2,0.1-0.3,0.3l0,1.6h-0.9v1c0.1,0.3,0,0.7,0.1,0.8c0.2,0.2,0,0.7,0.2,0.8c0.1,0.1,0.2,0.2,0.1,0.7l-0.2,11.8l-0.2,11.8
		c0,0-0.8,0.7-0.3,0.7c0.5,0-0.3,0.8-0.4,0.7v2.5h-4.3v0.7h0.3l0.1,0.2v1l0.1,0.1v4.9h-0.4v0.3H113v0.3h-0.4v0.3h-0.4v3.5h-6.3v21.9
		h431.6v-21.9H534.9z M458.4,145.7l0.3,0c0.2,0.3,0.5,0.5,0.8,0.6c0,0,0,0,0,0h-1.1V145.7z M457.1,145.5c0,0,0.1,0.1,0.3,0.1
		c0.1,0,0.1,0,0.2-0.1l0,0.1L457.1,145.5C457.1,145.6,457.1,145.6,457.1,145.5C457.1,145.6,457.1,145.6,457.1,145.5L457.1,145.5z
		 M456.8,146.4C456.8,146.3,456.8,146.3,456.8,146.4C456.8,146.3,456.8,146.3,456.8,146.4c-0.1-0.1-0.1-0.1-0.1-0.1
		c0.1-0.1,0.2-0.2,0.2-0.4h0c0,0.1,0,0.1,0,0.2c0,0,0.1,0,0.1,0.1c0.1,0.1,0.1,0.1,0.1,0.2c0,0,0,0,0,0H456.8z M457.2,146.4
		C457.3,146.3,457.3,146.3,457.2,146.4c0.1,0,0.2,0,0.2-0.1c0-0.1,0-0.1,0-0.1c0,0,0,0,0,0c0,0,0,0-0.1,0c0,0,0,0,0,0
		c0-0.1,0-0.2,0-0.3c0-0.1-0.1-0.1-0.2-0.2c0,0,0,0,0,0l0,0c0,0,0,0,0.1-0.1l0.4,0v0.4c0,0,0.1,0.2,0.2,0.2H457.2z M458.2,146.4
		h-0.3c0.1-0.1,0.2-0.2,0.2-0.2v-0.4h0.1V146.4z M289.7,176c0,0.1,0,0.1-0.1,0.1C289.6,176.1,289.6,176.1,289.7,176
		C289.6,176,289.6,176,289.7,176z M283.8,168.2C283.8,168.2,283.8,168.2,283.8,168.2C283.8,168.2,283.8,168.2,283.8,168.2
		C283.8,168.2,283.8,168.3,283.8,168.2C283.8,168.3,283.8,168.3,283.8,168.2C283.7,168.3,283.7,168.2,283.8,168.2z M283.7,168.3
		C283.7,168.3,283.7,168.2,283.7,168.3C283.7,168.2,283.7,168.2,283.7,168.3C283.7,168.2,283.7,168.2,283.7,168.3
		C283.7,168.2,283.7,168.3,283.7,168.3C283.7,168.3,283.7,168.3,283.7,168.3z M283.7,169.3c0,0.1,0,0.1,0,0.2
		C283.7,169.4,283.7,169.4,283.7,169.3L283.7,169.3C283.7,169.3,283.7,169.3,283.7,169.3z M283.6,169.4
		C283.6,169.4,283.6,169.4,283.6,169.4C283.6,169.5,283.6,169.5,283.6,169.4C283.6,169.5,283.6,169.5,283.6,169.4
		c-0.1,0.1-0.1,0.1-0.1,0.1L283.6,169.4C283.5,169.5,283.5,169.4,283.6,169.4z M283.3,170.2c0-0.3,0.2-0.5,0.4-0.5c0,0,0,0,0,0.1
		l-0.2,0c0.1,0.1,0.1,0.3,0.1,0.4c-0.1,0-0.2-0.1-0.3-0.1l0,0.4c0.1-0.1,0.2-0.1,0.3-0.1c0,0.1,0,0.2-0.1,0.4l0.1,0c0,0,0,0,0,0.1
		C283.5,170.7,283.3,170.4,283.3,170.2z M278.7,176.1c0,0-0.1,0-0.1,0c0.1,0,0.1-0.1,0-0.2c0,0,0,0,0.1,0
		C278.7,176,278.7,176.1,278.7,176.1z M278.7,175.9C278.7,175.9,278.7,175.9,278.7,175.9L278.7,175.9L278.7,175.9
		C278.7,175.9,278.7,175.9,278.7,175.9z M278.6,175.9C278.6,175.9,278.6,175.8,278.6,175.9c0-0.1,0-0.1,0.1-0.2
		C278.7,175.7,278.7,175.9,278.6,175.9C278.7,175.8,278.6,175.9,278.6,175.9z M243.5,162.2L243.5,162.2l0.1,2.8h-0.1V162.2z
		 M144.9,162.2L144.9,162.2l0.1,2.8h-0.1V162.2z M121.8,154.8c0,0,0.1,0.1,0.1,0.1c0,0-0.1,0-0.1,0
		C121.7,154.9,121.7,154.8,121.8,154.8z M121.8,155.1C121.8,155.2,121.8,155.2,121.8,155.1C121.7,155.1,121.7,155.1,121.8,155.1
		C121.8,155.1,121.8,155.1,121.8,155.1z M121.8,157.3L121.8,157.3L121.8,157.3L121.8,157.3L121.8,157.3l-0.2,0l-0.1,0l0-0.1
		c0.3-0.3,0.2-0.8,0.1-1.2v0c0.1,0.1,0.3,0.2,0.3,0.4C122,156.8,122,157,121.8,157.3z M122.1,156.6c0,0,0,0.5,0,0.6
		c0,0-0.2,0.1-0.2,0.1l0,0C122,157.1,122.1,156.9,122.1,156.6z M122,156.2c0,0.1,0.1,0.1,0.1,0.2c-0.1-0.2-0.2-0.4-0.4-0.5l0-0.1
		L122,156.2z M121.7,156.1c0.1,0.2,0.1,0.3,0.1,0.5c0,0.2,0,0.4-0.1,0.5L121.7,156.1z M121.6,154.7c0,0.1,0,0.1,0,0.2
		C121.6,154.8,121.6,154.8,121.6,154.7C121.5,154.7,121.5,154.7,121.6,154.7z M121.6,155.1c0,0-0.1-0.1-0.1-0.1c0,0,0,0,0,0h0
		c0,0,0,0,0.1,0C121.6,155,121.6,155.1,121.6,155.1z M118.5,156.2C118.5,156.2,118.5,156.1,118.5,156.2
		C118.5,156.1,118.5,156.1,118.5,156.2C118.5,156.1,118.6,156.1,118.5,156.2C118.6,156.1,118.5,156.2,118.5,156.2z M118.7,156.2
		C118.7,156.2,118.7,156.2,118.7,156.2C118.7,156.1,118.7,156.1,118.7,156.2C118.7,156.1,118.7,156.1,118.7,156.2
		C118.7,156.2,118.7,156.2,118.7,156.2z M118.7,156C118.7,156,118.7,155.9,118.7,156c-0.1,0-0.1,0-0.2,0l-0.1-0.1l0-0.2c0,0,0,0,0,0
		l0.1-0.1l0-0.1c0,0,0.1,0,0.2,0c0,0,0,0,0.1,0c0,0,0,0,0,0c0.1,0,0.1,0,0.1,0.1h0c0,0.1,0.1,0.1,0.1,0.1l0,0.1l0,0l0,0
		C119,155.9,118.9,156,118.7,156C118.8,156,118.8,155.9,118.7,156z M121.5,157.2L121.5,157.2c-0.1,0.1-0.2,0.1-0.3,0.1l0,0
		c0,0,0,0,0-0.1l0,0C121.2,157.2,121.3,157.2,121.5,157.2z M121.4,157.3c-0.1,0.1-0.2,0.1-0.3,0.1l0,0L121.4,157.3z M120.9,158
		c0.1,0,0.2,0,0.2-0.2c0,0,0-0.1,0-0.1c0.1,0,0-0.1,0-0.1c0,0,0-0.1,0-0.1c0,0,0,0,0,0c0,0,0-0.1-0.1-0.1c0,0,0,0,0,0l0.3-0.1h0
		l0,0.1l-0.1,0c-0.1,0.3-0.2,0.6-0.4,0.8v0C120.9,158.2,120.9,158.1,120.9,158z M120.8,163.9c0,0,0.2,0,0.2,0l0,0.2
		c0,0-0.1,0-0.1-0.1C120.9,164,120.9,164,120.8,163.9C120.8,163.9,120.8,163.9,120.8,163.9z M120.4,163.7
		C120.5,163.8,120.5,163.8,120.4,163.7c0,0.1,0,0.2,0,0.2C120.5,163.9,120.4,163.9,120.4,163.7C120.4,163.8,120.4,163.8,120.4,163.7
		z M337.8,156.9h-0.2l0.1-0.1l0-0.1v0L337.8,156.9z M337.8,156.2l-0.1,0.2l-0.1-0.1l-0.1-0.1H337.8z M337.1,155.8l0.1,0.2H337
		L337.1,155.8z M336.5,156.2h0.2l-0.1,0.1l-0.1,0.1L336.5,156.2z M336.5,156.9l0.1-0.2l0.1,0.1l0.1,0.1H336.5z M336.8,156.8
		l-0.1-0.2l0.1-0.2l0.1-0.2v0h0.4l0.1,0.2l0.1,0.2l-0.1,0.2l-0.1,0.2h-0.4L336.8,156.8z M337,157.1h0.2l-0.1,0.2L337,157.1z
		 M301.1,190.5h4.1l0.5,0.5v17.8h-5V191L301.1,190.5z M292.1,190.5h5l0.5,0.5v17.8h-5.9V191L292.1,190.5z M287.5,177.7l-0.6,0
		l0.6-0.4C287.5,177.5,287.5,177.6,287.5,177.7C287.5,177.7,287.5,177.7,287.5,177.7z M286.9,178.1l0-0.2h-0.1v-0.1l0.5,0l0,2.1
		h-0.5l0-0.6v-0.1l0-0.7h0.1l0-0.1h0.1c0-0.1,0-0.1,0-0.2H286.9z M288.5,176.4C288.5,176.3,288.5,176.3,288.5,176.4
		C288.5,176.3,288.5,176.3,288.5,176.4L288.5,176.4z M288.6,176.3L288.6,176.3L288.6,176.3c0,0-0.1,0-0.2,0.1c-0.1,0-0.2,0-0.2,0
		c0,0,0,0,0,0c-0.1,0-0.1,0-0.2,0.1c-0.1,0-0.2,0.1-0.3,0l-0.5-0.2l0,0C287.7,176.3,288.1,176.4,288.6,176.3z M287.7,176.5
		c0,0,0.1,0,0.2,0c-0.1,0.1-0.2,0.1-0.2,0.2c0,0,0,0,0,0l0,0.1c-0.1,0.1-0.1,0.3-0.1,0.4l-0.7,0.4l-0.1,0c0-0.1,0-0.3,0-0.4
		c0-0.3,0-0.6,0-0.9l-0.3,0l0,0.1c-0.1-0.1-0.1-0.2-0.2-0.3c0.3,0.1,0.5,0.1,0.8,0.2C287.3,176.4,287.6,176.5,287.7,176.5z
		 M286.3,179c0-0.1,0-0.2,0-0.3c0.1-0.1,0-0.2,0.1-0.3h0l0.1,0l0.1,0l0,0.1l0,1.4h-0.2l0-0.2c0,0-0.1,0-0.1,0l0-0.4
		C286.4,179.2,286.3,179.1,286.3,179z M287.1,176.3c-0.3,0-0.5-0.1-0.8-0.2c0,0,0,0,0,0c0,0,0-0.1,0-0.1l0,0l0-0.1
		C286.5,176,286.8,176.1,287.1,176.3z M285.4,179.9c0-0.1,0.1-0.2,0-0.3c0-0.2,0-0.5,0.1-0.7c0-0.1-0.1-0.2,0-0.4l0.1,0
		c0,0.1,0,0.3,0.1,0.4l0,0.2c0,0.2,0,0.2,0.1,0.4l-0.1,0.1c0.1,0.1,0.1,0.2,0.3,0.1l0,0.1c0,0,0,0.1,0,0.1l0,0.1L285.4,179.9
		L285.4,179.9z M285,174.6c0,0,0,0.1,0,0.1l0.1,0l0.1,0.4c-0.1,0-0.1-0.1-0.2-0.1l-0.1-0.3C285,174.7,285,174.7,285,174.6z
		 M284.5,178.7L284.5,178.7l0.6-0.2l0,0l-0.1,0c-0.1,0.2-0.1,0.4,0.2,0.4l0,0.6c0,0.1,0,0.2,0,0.3l0,0.1h-0.6l-0.1-0.2L284.5,178.7
		L284.5,178.7z M284,172.5c0,0.1,0,0.1,0,0.2c0,0,0,0,0,0.1L284,172.5L284,172.5z M283.9,169.7c0.1,0,0.1,0,0.1,0
		c0.2,0.1,0.3,0.3,0.3,0.5c0,0.3-0.2,0.5-0.4,0.5l0,0v0l0.1,0c0-0.1-0.1-0.2-0.1-0.4c0.1,0,0.3,0.1,0.4,0.1l0-0.4
		c-0.1,0.1-0.2,0.1-0.4,0.1c0-0.1,0.1-0.3,0.1-0.4L283.9,169.7L283.9,169.7z M283.7,172.5c0,0,0.1,0,0.1,0l0,0.3c-0.1,0-0.2,0-0.2,0
		c0,0,0,0,0,0C283.6,172.7,283.7,172.5,283.7,172.5z M283.6,174.9L283.6,174.9L283.6,174.9c0,0.1-0.1,0.2-0.1,0.2L283.6,174.9
		L283.6,174.9z M284.1,178.6L284.1,178.6l0,1.2l-0.1,0.2h-1l0,0c0,0-0.1-0.1,0-0.2l0-0.3l0-0.5c0.1-0.2,0.1-0.4,0-0.5L284.1,178.6z
		 M283.1,175.2C283.1,175.2,283.1,175.2,283.1,175.2c-0.3,0.2-0.5,0.5-0.7,0.7l0-0.4C282.6,175.5,282.9,175.4,283.1,175.2z
		 M282.9,179.9C282.9,179.9,282.8,179.9,282.9,179.9L282.9,179.9l-0.3,0.1l0-0.4c0.1,0,0.1-0.1,0.1-0.1c0-0.1,0-0.2,0-0.3
		c-0.1-0.2-0.1-0.4-0.1-0.6c0.1,0,0.1,0,0.2,0l0,0.1c-0.1,0.2,0,0.3,0,0.5l0,0.4C282.9,179.6,282.8,179.7,282.9,179.9z M282,179.3
		c0-0.1,0-0.2,0-0.3c0.1-0.1,0.1-0.2,0-0.4c0-0.1,0-0.1,0-0.1h0h0.1c0.1,0.2,0,0.4,0.1,0.6c0,0.1,0,0.2,0,0.3c0,0.1,0.1,0.2,0.2,0.3
		l0,0.4h-0.4l-0.1-0.2L282,179.3z M281.6,179.8c0,0.1,0,0.1,0,0.2H281l0-2.1v0l0.4,0c0,0.3,0.2,0.5,0.1,0.8c0.1,0.2,0.2,0.5,0.1,0.8
		C281.7,179.6,281.7,179.7,281.6,179.8z M280.6,179.3c0.1-0.1,0.2-0.3,0.1-0.4c0-0.2,0-0.4,0-0.6l0,0c0-0.1,0-0.1,0-0.2
		c0-0.1,0.1-0.2,0.1-0.3l0.2,0l0,2.1h-0.4c0-0.2,0-0.5,0-0.5C280.6,179.5,280.6,179.4,280.6,179.3z M280.8,177.7
		c0-0.1,0.1-0.2,0.1-0.2c0.2,0.1,0.3,0.2,0.5,0.2l0,0L280.8,177.7z M281.7,175.9c0,0.1,0,0.2,0,0.2l0,0.1c-0.5,0-1.1,0-1.6,0
		C280.6,176.1,281.1,176,281.7,175.9z M279.7,176.1c0.7,0.1,1.2,0.1,1.9,0.1l0,0l0,0l0,0.1c-0.1,0.1-0.2,0.2-0.3,0.4
		c-0.1,0.1-0.1,0.2,0,0.3c0,0.2,0,0.3,0,0.5l0.1,0.2c-0.1-0.1-0.3-0.2-0.5-0.3c0,0,0,0,0,0c0-0.5,0.1-1.1-0.8-1.1
		c-0.1,0-0.3,0-0.4-0.1L279.7,176.1L279.7,176.1z M280.4,180h-0.2l0-0.3c0.1,0,0.1,0,0.2-0.1L280.4,180z M280.2,178.9
		C280.2,178.9,280.2,178.8,280.2,178.9C280.2,178.8,280.2,178.9,280.2,178.9z M280.1,178.2L280.1,178.2l0.1-0.3v0.1
		C280.1,178.1,280.1,178.1,280.1,178.2z M280.2,180L280.2,180c-0.1,0-0.1-0.1,0-0.1L280.2,180z M279.8,178.9L279.8,178.9
		L279.8,178.9c0.2,0.3,0.2,0.5,0.1,0.8l0,0.1c0,0-0.1,0-0.1,0.1l0-0.2l0.1-0.5L279.8,178.9z M279.9,190.5h8.1l0.5,0.5v17.8h-9V191
		L279.9,190.5z M270.9,190.5h5l0.5,0.5v17.8h-5.9V191L270.9,190.5z M262.3,191l0.4-0.5h4.1l0.5,0.5v17.8h-5V191z"/>
	<polygon points="337.1,154.6 337.1,154.6 337.1,154.6 	"/>
	<polygon points="387.7,174.5 387.7,174.5 387.7,174.5 	"/>
</g>
</svg>
