<?xml version="1.0" encoding="utf-8"?>
<!-- Generator: Adobe Illustrator 19.2.1, SVG Export Plug-In . SVG Version: 6.00 Build 0)  -->
<svg version="1.1" id="Ebene_1" xmlns="http://www.w3.org/2000/svg" xmlns:xlink="http://www.w3.org/1999/xlink" x="0px" y="0px"
	 viewBox="0 0 960 960" style="enable-background:new 0 0 960 960;" xml:space="preserve">
<style type="text/css">
	.st0{fill-rule:evenodd;clip-rule:evenodd;fill:none;}
	.st1{fill:#020304;}
</style>
<path class="st0" d="M159.2,130.2c4.3,1.6,7.7,5.3,12.1,6.6c3.8,0.2,7.6,0.4,11.4,0.5c9,0.9,40.7-8.2,39.7-16.3
	c-0.4-3.1-2-3.8-2.5-6.2c-0.2-2.5-1.2-5-1.3-7.5c-1.5-3.7-2.3-6.9-3.8-10.3c-2.3-5.4-2.7-10-5.5-13.9c-2.3-2.3-4.5-4.6-6.8-7
	c-2.3-3.2-3.8-5-4.6-7.7C195.3,54.3,186.4,49,175.1,44c-23.5-10.2-53.7,13.5-60.6,31.4c-2.6,6.8-3.2,13.4-3,20.6
	c0.5,3.8,1,7.5,1.5,11.3"/>
<path class="st0" d="M150,50.9c11.5-4.7,23-3.9,35.1-5.5c8-1.1,19.1-3.5,27.1-1.3c10.3,2.7,13.3,14.4,24.6,14.7
	c9.1,0.2,19.4-10.9,28.3-13.5c8.7-2.6,20.3-1.3,25.5,6.7c0.2,0.4,2.7,1.6,2.7,1.6"/>
<path class="st0" d="M144.9,43.1c1.4-4.1,14.6-8.2,18.6-9.1c15.9-3.4,21.9,4.2,34.7,10.9c5.4,2.4,10.8,4.8,16.2,7.2
	c6.3,4,10.3,11.2,18.6,10.6c1.9-0.8,3.8-1.5,5.7-2.3c9.7-3.4,32.6-17.1,40.9-11.1"/>
<path class="st0" d="M138.2,66.4c1.7,7.6,8.1,13,13.5,17.9c13.9,12.6,33.3,22.5,52.7,21c7.9-0.6,15.3-3.3,23-4.2
	c8.9-1,18.5-0.5,26.8-4.1c11.2-4.8,19.2-15.9,29.6-22.1c2-1.2,11.5-5.2,12.2-3.6"/>
<path class="st0" d="M117,78.5c-1,6.9,8.5,12.7,13.9,14.5c19.1,6.4,35.7,11.1,51.8,24.8c7.8,6.6,12.4,14.3,11.7,24.2
	c-0.3,3.8-1.7,8.9-3.3,12.5c-2.3,2.8-5.6,3.9-7.9,5.1"/>
<path class="st0" d="M144.8,111.7c-2.5,0.4-5.1-1.8-8.1,0.2c-5.5,3.6,2.1,12.3,5.2,14.8c1.8,1.5,14.1,7.3,11.9,0.2
	c-0.1-0.1-0.3-0.3-0.4-0.4"/>
<path class="st0" d="M118.7,111.4c1.6,3,3.3,6,4.9,9c5,11.9,6,21,20.3,25.8c19.3,6.4,29.7-3.2,44.9,17.4c0,0,12.5,25.1,19.7,37.3
	c2.1,3.6,4.9,6.8,7.8,9.8c0.6,0.5,1.2,1.1,1.8,1.6"/>
<path class="st0" d="M118.4,128.4c0,3.4-0.1,6.8-0.1,10.1c-1.1,5.3-5.8,12.1-1.4,17c2.9,3.2,16.8,3.6,21.4,4.6
	c3.2,1.1,6.4,2.3,9.6,3.4c7.2,3,10.5,7.5,16.3,12.2c5.2,4.1,11,7.2,15.8,11.9c3.7,4.2,7.3,8.4,11,12.6c13.3,11.1,23,4,26.5,27"/>
<path class="st0" d="M129.9,261.8c-0.3-5.8-0.5-11.7-0.8-17.5c-0.8-8.2-2.9-16.4-2.5-24.7c0.6-14.5,7.8-35.6,22-42.3
	c6.6-3.1,16-3,23.1-1.9c11.8,1.9,13,18,18.2,25.9c3.9,6,11.8,8.4,16.7,13.5c13.8,14.2,20.7,30.4,23.9,49.9"/>
<path class="st0" d="M195.2,164.1c4.5-7.1,3.6-16.5,6.4-24.1c0.9-2.5,1.7-6,4.2-7.2c0.2-0.2,1.3-0.6,1.5-0.8"/>
<path class="st0" d="M132,72.8c-7.6,14.5,7.6,42.8,19.8,51.3c7,5,15.8,7.3,22.8,12.5c7.1,5.2,22.8,16.1,16.9,26.9
	c-1.7,1.4-3.3,2.9-5,4.3"/>
<path class="st0" d="M139.9,104c1.6,1.8,5.2,2.8,7.5,3.9c12.5,6.3,25,7.8,38.7,8.9c4.3,0.1,8.7,0.3,13,0.4c5.2,0.9,9.8,2.6,14,5.9
	c2.8,2.2,4.7,4.8,8,6.3c9.2,4,21,2,30.5,0.5c10.8-1.7,18.7-4.8,28.3-10.4c4.5-2.6,12.5-6.7,12.5-7.6"/>
<path class="st0" d="M219,108.4c5.5-3.3,13.1-5.1,18.7-8.4c8.6-4.8,16.4-12.2,22.7-16.4c6.2-4.2,8.2-4.7,12.2-7.1"/>
<g id="_x23_010102ff">
	<path class="st1" d="M300.7,58c6.3,0,12.7,0.1,19,0.1c0,3.4,0.1,6.8-0.1,10.1c0,5.7,0,11.4,0,17.1c0.1,1.3,0.2,2.6,0.2,3.9
		c9.9-10.1,18.9-21,28.5-31.3c8.3,0.1,16.5-0.1,24.8,0c-1.3,1.8-2.9,3.4-4.3,5.1c-11.8,13.5-24.1,26.7-35.8,40.4
		c-0.3,0.4-1,0.8-0.9,1.4c2.7,2.9,5.2,5.9,7.8,9c-13,0-26.1,0-39.1,0c0.1-2.3-0.1-4.7,0.1-7c0-8.8,0-17.5,0-26.3
		c-0.3-4.1,0-8.2-0.2-12.4C300.7,64.8,300.7,61.4,300.7,58z"/>
	<path class="st1" d="M380.7,67.1c8-6.1,18.2-9.5,28.3-9.2c9.5,0.2,18.9,3.4,26.6,9c6.2,4.8,10.8,11.3,14.2,18.2
		c4.2,8.7,6.5,18.6,5.4,28.3c-2,0-4,0-6-0.1c-29.1,0-58.2,0-87.2,0c0-0.2,0-0.5,0-0.7l-0.2-0.2c-0.1-2.4-0.1-4.8,0-7.1
		c0.2-1.5,0.2-3,0.2-4.6C362.9,87.6,370.1,75.1,380.7,67.1z"/>
	<path class="st1" d="M463.3,58c4.1,0.2,8.2,0,12.2,0.1c2.1,0,4.2-0.1,6.3,0.2c9.4,13.7,18.7,27.5,28.1,41.2
		c3.2,4.8,6.6,9.6,9.8,14.4c-7.6,0-15.2,0-22.8,0c-5-7.3-9.8-14.8-14.7-22.2c-0.1,0-0.2-0.1-0.3-0.1c-0.1,4.4-0.2,8.8,0.1,13.2
		c0,3,0.3,6,0.3,9c-2-0.1-3.9,0.1-5.9-0.1c-4.4,0-8.8-0.1-13.2-0.1C463.3,95,463.2,76.5,463.3,58z"/>
	<path class="st1" d="M521.9,58c6.3-0.1,12.6-0.1,18.9,0c0,14.8,0,29.7,0,44.5c0,3.7,0,7.4,0,11.1c-3,0.1-6.1-0.2-9.1-0.1
		c-3.2,0-6.5,0.2-9.7,0.1c-0.3-0.5-0.1-1.1-0.2-1.7c0-5.3,0-10.7,0-16c0-1.8,0-3.7,0-5.5c0.2-1.6-0.1-3.2,0-4.8
		c-0.1-2.4,0.1-4.9-0.1-7.3c0.1-1.3-0.1-2.6,0-3.9c0.1-1.8,0.1-3.7,0-5.5c0-2,0.1-4,0.1-6C521.9,61.3,521.9,59.6,521.9,58z"/>
	<path class="st1" d="M551.9,58c26.1-0.1,52.1,0,78.2,0c0,6.3,0,12.6,0,18.9c-9.9,0-19.8,0-29.8,0c0.3,3,0.2,6,0.3,9
		c0,4.5-0.1,9-0.1,13.5c-0.3,4.7-0.1,9.4,0.1,14.1c-1.3,0.3-2.7,0.1-4,0.2c-4.9,0-9.8,0-14.7,0c0-12.3,0-24.5,0-36.8
		c-10,0.1-20,0-30.1,0c0-1.2,0-2.4-0.1-3.6c-0.1-1.9-0.1-3.8-0.1-5.7c0-1.1-0.2-2.2-0.1-3.4C551.6,62.1,551.6,60,551.9,58z"/>
	<path class="st1" d="M639.5,58c5.5,0,11-0.1,16.5,0c6.7,0,13.4-0.1,20.1,0.1c6.6,1.4,13.1,4.5,17.3,10c2.9,3.9,4.8,8.5,5.6,13.4
		c0.7,4.8,0.4,9.7-1,14.3c-1.6,5.2-4.6,10-9,13.4c-0.7,0.6-1.5,1-2.1,1.5c0.2,1.1,0.7,2,0.9,3.1c-16.1,0-32.2,0-48.3,0
		C639.5,95,639.5,76.5,639.5,58 M658.3,75.8c0.1,7,0,13.9,0,20.9c1.3,0,2.5-0.3,3.7-0.1c1.2,0.1,2.4,0.1,3.6,0.2
		c2.5,0.3,5.1,0.2,7.6-0.3c2.4-0.5,4.6-1.9,6.2-3.8c1.3-1.6,1.9-3.8,1.9-5.9c-0.1-2.3-0.8-4.6-2-6.5c-1.8-2.8-5.1-4.9-8.5-4.5
		C666.7,75.9,662.5,75.8,658.3,75.8z"/>
	<path class="st1" d="M784.4,61.5c4.3-2,9.1-3.2,13.8-3.5c4.7-0.1,9.5,0.3,14,1.9c8.3,2.9,15.4,9.2,19.4,17
		c-1.5,0.7-2.9,1.5-4.4,2.2c-1.5,0.7-2.9,1.6-4.4,2.4c-2,1.2-4.1,2.3-6,3.5c-2.4-2.4-4.4-5.3-7.3-7.1c-3.4-2-7.5-2.8-11.3-1.9
		c-2.2,0.5-4.3,1.6-5.8,3.3c-1.2,1.2-2,2.9-1.9,4.6c-0.1,2.4,1.2,4.6,2.9,6.2c1.1,1,2.1,2,3.4,2.8c6.9,3.9,14.3,7.1,21,11.4
		c3.4,2.2,6.2,5.4,8,9c-2.4,0-4.9-0.1-7.3-0.1c-7.6-0.3-15.3-0.4-22.9-0.9c-0.6,0-1.1-0.4-1.7-0.7c-6.4-3.7-13.1-7.2-18-12.9
		c-1.7-2-3.2-4.3-3.9-6.8c-0.3-1.2-0.7-2.3-0.6-3.5c-0.1,0.2-0.3,0.3-0.5,0.2l0.4-0.2c-0.1-1.1-0.2-2.2-0.3-3.4
		c-0.1-1.1,0.1-2.3,0.2-3.4c0.2-2.3,0.4-4.7,1.2-6.9c1.4-3.7,3.7-7.1,6.6-9.8C780.5,63.4,782.4,62.4,784.4,61.5z"/>
	<path class="st1" d="M843.1,58c26-0.1,52,0,78,0c0,3.2,0.1,6.4,0,9.6c-0.1,3.1,0.2,6.2,0.2,9.3c-2.8,0.1-5.6-0.2-8.3-0.2
		c-2.4,0-4.9,0-7.3,0c-2.3,0.2-4.6,0.1-6.9,0.1c-2.5,0-5,0-7.5,0c0,12.3,0,24.5,0,36.8c-6,0-11.9,0-17.9,0c-0.1-1.1,0.1-2.2,0-3.3
		c0-3.8,0-7.6,0-11.4c-0.1-2.8,0.1-5.6,0-8.5c0-4.5,0-9.1,0-13.6c-10.1,0-20.3,0-30.4,0c0-2.3,0.1-4.5,0-6.8c-0.3-2.4,0.1-4.7,0-7.1
		C843.1,61.3,843.1,59.6,843.1,58z"/>
	<path class="st1" d="M733.5,61.5c0.5-1,0.9-2.2,1.6-3.2c3.9,8.6,8,17,12,25.6c4.5,9.4,8.9,18.9,13.3,28.3c0.3,0.6,0.5,1.2,0.8,1.8
		c-1.5,0-3.1,0-4.6,0c-0.6,0-1.3,0-1.8-0.2c-5.9-0.1-11.9,0-17.8-0.1c-5.9,0-11.8-0.1-17.6,0c-0.7,0.1-1.3-0.4-2-0.3
		c-1.1,0-2.3,0-3.4,0c-1.4,0.2-2.8,0.2-4.3,0c-0.2,0-0.4,0-0.5,0.2c1.1,0.1,2.3-0.1,3.4,0c1.5,0.1,3.1,0.2,4.6,0.1l0.4-0.2
		c0.1,0.1,0.3,0.2,0.5,0.2c-3,0.4-6-0.4-8.9,0.1C717.2,96.5,725.2,79,733.5,61.5z"/>
</g>
</svg>
