<?xml version="1.0" encoding="utf-8"?>
<!-- Generator: Adobe Illustrator 19.2.1, SVG Export Plug-In . SVG Version: 6.00 Build 0)  -->
<svg version="1.1" id="Ebene_1" xmlns="http://www.w3.org/2000/svg" xmlns:xlink="http://www.w3.org/1999/xlink" x="0px" y="0px"
	 viewBox="0 0 960 960" style="enable-background:new 0 0 960 960;" xml:space="preserve">
<style type="text/css">
	.st0{fill-rule:evenodd;clip-rule:evenodd;fill:none;}
</style>
<path class="st0" d="M421.8,401c17,6.4,30.4,20.6,47.6,25.8c14.9,0.7,29.9,1.4,44.8,2.1C549.7,432.5,674,396.5,670,365
	c-1.5-12-7.7-15-9.7-24.5c-0.6-9.8-4.7-19.7-5.3-29.5c-5.9-14.7-9.1-27-14.8-40.5c-8.9-21.3-10.6-39.5-21.7-54.8
	c-8.9-9.1-17.7-18.2-26.6-27.4c-9.1-12.4-15.1-19.6-17.9-30.3c-10.6-55.2-45.4-76.2-89.8-95.5c-92.2-40.3-211,53.1-237.9,123.4
	c-10.2,26.5-12.6,52.8-11.7,80.8c1.9,14.8,3.9,29.6,5.8,44.3"/>
<path class="st0" d="M466.9,243.2c9.4-14,29-28.5,46.7-24.1c3,0.9,6,1.9,9,2.8"/>
<path class="st0" d="M467.6,245.8c16.7,5.2,29.7,0.5,42.9-11.5c4.9-5.8,9.8-11.6,14.8-17.4"/>
<path class="st0" d="M568,162.9c-4,1.8-21.3,3.6-16,23.1c16.7,14.2,32.4,30,56,30c16.6,6.7,4.6,35.3,4.6,44"/>
<path class="st0" d="M643.7,302.4c0.5,0,1,0.1,1.6,0.1c0-8-10.6-22.2-18.3-25.5c-1.3,0.3-4.5,3.5-9,6c-17,1.5-26.9,32.5-37.8,50.5
	c-0.8,0.7,17.1,3.4,34.8-0.5c17.4-3.9,34.5-14.2,34.7-23.4c-0.8-1-1.6-2.1-2.4-3.1c-1.2-0.1-2.3-0.2-3.5-0.3"/>
<path class="st0" d="M638.5,304.7c0,0.3-0.1,0.6-0.1,0.9c-3,0.7-6.1,1.4-9.1,2.1c-12.8,5.1-25.5,15.7-38.2,21.8
	c0,0,8.8-21.5,30-28.6c12.2-5.4,10.8,0.5,16.2,0.7"/>
<path class="st0" d="M385.4,89.6c45.1-18.4,90.4-15.2,138-21.7c31.5-4.3,74.8-13.6,106.4-5.2c40.6,10.8,52.1,56.6,96.6,57.8
	c35.8,1,76.3-42.6,111.3-53.1c34.3-10.2,79.7-5.3,100.1,26.2c0.9,1.4,10.6,6.2,10.6,6.2"/>
<path class="st0" d="M365.7,58.8c5.6-16.2,57.2-32.2,73.2-35.6c62.3-13.3,86.1,16.5,136.4,42.6c21.2,9.4,42.3,18.7,63.5,28.1
	c24.9,15.7,40.4,43.9,73,41.5c7.4-2.9,14.9-5.9,22.3-8.8c38-13.5,128.2-67.3,160.5-43.5"/>
<path class="st0" d="M339.5,150.4c6.7,29.7,31.7,51,52.9,70.3c54.6,49.7,130.8,88.3,207.1,82.4c30.9-2.4,60.1-13.1,90.4-16.6
	c34.8-4,72.8-2,105.4-16c43.8-18.9,75.4-62.5,116.1-87c8-4.8,45.3-20.4,47.8-14.3"/>
<path class="st0" d="M256,197.8c-3.9,27.1,33.2,49.9,54.5,57c75,25,140.1,43.5,203.5,97.2c30.6,25.9,48.8,56.4,46,95
	c-1.1,14.8-6.8,35.1-13,49c-8.9,10.9-22,15.5-31,20"/>
<path class="st0" d="M365.2,328.1c-9.9,1.4-20.2-7-31.7,0.6c-21.5,14.2,8.4,48.1,20.3,58.3c7.1,6,55.4,28.8,46.8,0.9
	c-0.6-0.5-1.2-1-1.8-1.6"/>
<path class="st0" d="M262.6,326.9c6.5,11.8,13,23.7,19.4,35.5c19.6,46.9,23.6,82.5,79.6,101.2c75.6,25.2,116.8-12.7,176.5,68.2
	c0,0,49.2,98.7,77.6,146.6c8.3,14.1,19.1,26.8,30.7,38.4c2.3,2.1,4.7,4.2,7,6.3"/>
<path class="st0" d="M261.4,393.7c-0.1,13.3-0.2,26.5-0.3,39.8c-4.2,20.8-22.8,47.6-5.6,66.9c11.2,12.5,66.1,14.2,84,18
	c12.6,4.4,25.2,8.9,37.7,13.3c28.1,11.8,41.4,29.6,64.1,47.8c20.3,16.2,43.4,28.5,62.1,46.7c14.4,16.6,28.8,33.1,43.2,49.7
	c52.4,43.5,90.2,15.9,104.2,106"/>
<path class="st0" d="M306.5,917.7c-1.1-22.9-2.1-45.9-3.2-68.8c-3.3-32.3-11.3-64.3-9.8-97c2.5-57,30.8-139.8,86.5-166.3
	c25.7-12.2,62.8-11.9,90.6-7.5c46.5,7.4,51,70.5,71.4,101.7c15.3,23.4,46.2,33.1,65.5,53c54.2,55.7,81.3,119.3,93.9,196"/>
<path class="st0" d="M563.3,534c17.6-27.8,14.1-64.8,25.1-94.8c3.5-9.7,6.7-23.4,16.6-28.2c0.9-0.7,5.1-2.3,6-3"/>
<path class="st0" d="M314.9,175.6c-29.8,57.1,30,167.9,77.7,201.6c27.7,19.5,61.9,28.7,89.5,49.1c27.7,20.5,89.6,63.2,66.5,105.8
	c-6.6,5.6-13.1,11.2-19.7,16.9"/>
<path class="st0" d="M565.5,255.7c-8.5,20.5,8.5,29,19.5,18.3c6.2-6,15.9-18.1,15.9-25.8c-1.1-0.1-2.2-0.3-3.3-0.4
	c-3.9,3.6-12.8,7.1-12.8,13.8c0.1,1.2,0.2,2.3,0.3,3.5"/>
<path class="st0" d="M560.2,192.7c0.3-6.1,20-15.3,23.8-15.7c0.5,1.1,2.5,4.9,3,6c3,6.2-0.3,10.4-11,16c-0.3,0-0.3,4.2-0.6,4.1"/>
<path class="st0" d="M408.3,102.7c15.8-1,30.4,12.7,42.7,20.8c34.3,22.3,78.7,55.1,99.4,91.5"/>
<path class="st0" d="M432.9,92c6.3,4.7,14.4-1.9,21.8,0.5c17.5,5.8,34.3,15.7,49.1,26.9c29.9,22.7,53.8,51.2,81.5,76.1
	c28.7,25.9,62.3,47.4,95.9,65.6"/>
<path class="st0" d="M370.1,133c5.6,8,11.1,15.9,16.7,23.9c22.3,36.1,46.3,74.6,90,86.3c12.6,3.4,42.4,9.7,50.8-0.8"/>
<path class="st0" d="M345.8,298c6.2,7.1,20.5,11.1,29.3,15.5c48.9,24.9,98.1,30.7,151.9,34.9c17.1,0.6,34.1,1.2,51.2,1.7
	c20.5,3.4,38.6,10.4,55.2,23.2c10.9,8.5,18.4,18.9,31.6,24.6c36.1,15.6,82.4,8,119.9,2c42.4-6.8,73.3-19,111.2-41
	c17.8-10.3,49-26.5,49-30"/>
<path class="st0" d="M656.7,315.1c21.8-13.1,51.5-20,73.3-33.1c33.8-19,64.5-47.8,89-64.3c24.5-16.5,32-18.6,48-27.9"/>
</svg>
