<?xml version="1.0" encoding="utf-8"?>
<!-- Generator: Adobe Illustrator 19.2.1, SVG Export Plug-In . SVG Version: 6.00 Build 0)  -->
<svg version="1.1" id="Ebene_1" xmlns="http://www.w3.org/2000/svg" xmlns:xlink="http://www.w3.org/1999/xlink" x="0px" y="0px"
	 viewBox="0 0 960 960" style="enable-background:new 0 0 960 960;" xml:space="preserve">
<style type="text/css">
	.st0{fill-rule:evenodd;clip-rule:evenodd;fill:none;stroke:#010202;stroke-miterlimit:10;}
	.st1{fill:#020304;}
</style>
<g>
	<path class="st0" d="M427.7,271.4c10.8,4.1,19.3,13.1,30.2,16.4c9.5,0.4,18.9,0.9,28.4,1.3c22.5,2.3,101.3-20.5,98.8-40.5
		c-1-7.6-4.9-9.5-6.2-15.5c-0.4-6.2-3-12.5-3.3-18.7c-3.7-9.3-5.8-17.1-9.4-25.7c-5.6-13.5-6.7-25-13.7-34.7
		c-5.6-5.8-11.2-11.6-16.9-17.4c-5.8-7.9-9.5-12.4-11.4-19.2c-6.7-35-28.8-48.3-56.9-60.6C408.9,31.2,333.5,90.4,316.5,135
		c-6.4,16.8-8,33.5-7.4,51.2c1.2,9.4,2.5,18.7,3.7,28.1"/>
	<path class="st0" d="M404.7,73.9c28.6-11.7,57.3-9.7,87.5-13.8c20-2.7,47.5-8.6,67.5-3.3c25.8,6.8,33,35.9,61.3,36.7
		c22.7,0.6,48.4-27,70.6-33.6c21.8-6.5,50.5-3.3,63.5,16.6c0.6,0.9,6.7,3.9,6.7,3.9"/>
	<path class="st0" d="M392.2,54.4c3.6-10.3,36.3-20.4,46.4-22.6c39.5-8.4,54.6,10.5,86.5,27c13.4,5.9,26.8,11.9,40.3,17.8
		c15.8,9.9,25.6,27.8,46.3,26.3c4.7-1.9,9.4-3.7,14.2-5.6c24.1-8.6,81.3-42.7,101.8-27.6"/>
	<path class="st0" d="M375.5,112.5c4.3,18.8,20.1,32.3,33.6,44.6c34.6,31.5,82.9,56,131.3,52.3c19.6-1.5,38.1-8.3,57.3-10.5
		c22-2.5,46.2-1.2,66.9-10.2c27.8-12,47.8-39.6,73.6-55.2c5-3,28.8-12.9,30.3-9.1"/>
	<path class="st0" d="M322.6,142.5c-2.5,17.2,21.1,31.7,34.6,36.2c47.6,15.8,88.8,27.6,129,61.7c19.4,16.5,30.9,35.7,29.2,60.2
		c-0.7,9.4-4.3,22.3-8.2,31.1c-5.6,6.9-14,9.8-19.7,12.7"/>
	<path class="st0" d="M391.9,225.2c-6.3,0.9-12.8-4.4-20.1,0.4c-13.6,9,5.3,30.5,12.9,37c4.5,3.8,35.1,18.2,29.7,0.6
		c-0.4-0.3-0.7-0.7-1.1-1"/>
	<path class="st0" d="M326.8,224.4c4.1,7.5,8.2,15,12.3,22.5c12.4,29.8,15,52.4,50.5,64.2c48,16,74.1-8.1,111.9,43.2
		c0,0,31.2,62.6,49.2,93c5.3,8.9,12.1,17,19.4,24.4c1.5,1.3,3,2.7,4.4,4"/>
	<path class="st0" d="M326,266.8c-0.1,8.4-0.1,16.8-0.2,25.2c-2.7,13.2-14.5,30.2-3.5,42.4c7.1,7.9,41.9,9,53.3,11.4
		c8,2.8,16,5.6,23.9,8.5c17.8,7.5,26.3,18.8,40.7,30.3c12.9,10.3,27.5,18,39.4,29.6c9.1,10.5,18.3,21,27.4,31.5
		c33.2,27.6,57.2,10.1,66.1,67.2"/>
	<path class="st0" d="M354.6,599.1c-0.7-14.5-1.4-29.1-2-43.6c-2.1-20.5-7.1-40.8-6.2-61.5c1.6-36.1,19.5-88.7,54.8-105.4
		c16.3-7.8,39.9-7.5,57.5-4.7c29.5,4.7,32.4,44.7,45.3,64.5c9.7,14.8,29.3,21,41.6,33.6c34.3,35.3,51.6,75.6,59.6,124.3"/>
	<path class="st0" d="M517.5,355.8c11.2-17.6,9-41.1,15.9-60.1c2.2-6.1,4.2-14.8,10.5-17.9c0.5-0.4,3.3-1.5,3.8-1.9"/>
	<path class="st0" d="M360,128.4c-18.9,36.2,19,106.5,49.3,127.8c17.5,12.4,39.3,18.2,56.8,31.1c17.6,13,56.8,40.1,42.1,67.1
		c-4.2,3.6-8.3,7.1-12.5,10.7"/>
	<path class="st0" d="M379.5,206.1c3.9,4.5,13,7,18.6,9.8c31,15.8,62.2,19.5,96.4,22.1c10.8,0.4,21.6,0.7,32.5,1.1
		c13,2.2,24.5,6.6,35,14.7c6.9,5.4,11.7,12,20,15.6c22.9,9.9,52.3,5.1,76,1.3c26.9-4.3,46.5-12,70.5-26c11.3-6.6,31.1-16.8,31.1-19"
		/>
	<path class="st0" d="M576.7,216.9c13.8-8.3,32.7-12.7,46.5-21c21.4-12,40.9-30.3,56.5-40.8c15.5-10.5,20.3-11.8,30.5-17.7"/>
</g>
<g id="_x23_010102ff">
	<path class="st1" d="M233.7,548.9c6.3,0,12.7,0.1,19,0.1c0,3.4,0.1,6.8-0.1,10.1c0,5.7,0,11.4,0,17.1c0.1,1.3,0.2,2.6,0.2,3.9
		c9.9-10.1,18.9-21,28.5-31.3c8.3,0.1,16.5-0.1,24.8,0c-1.3,1.8-2.9,3.4-4.3,5.1c-11.8,13.5-24.1,26.7-35.8,40.4
		c-0.3,0.4-1,0.8-0.9,1.4c2.7,2.9,5.2,5.9,7.8,9c-13,0-26.1,0-39.1,0c0.1-2.3-0.1-4.7,0.1-7c0-8.8,0-17.5,0-26.3
		c-0.3-4.1,0-8.2-0.2-12.4C233.7,555.7,233.7,552.3,233.7,548.9z"/>
	<path class="st1" d="M313.7,558c8-6.1,18.2-9.5,28.3-9.2c9.5,0.2,18.9,3.4,26.6,9c6.2,4.8,10.8,11.3,14.2,18.2
		c4.2,8.7,6.5,18.6,5.4,28.3c-2,0-4,0-6-0.1c-29.1,0-58.2,0-87.2,0c0-0.2,0-0.5,0-0.7l-0.2-0.2c-0.1-2.4-0.1-4.8,0-7.1
		c0.2-1.5,0.2-3,0.2-4.6C295.9,578.5,303.2,566,313.7,558z"/>
	<path class="st1" d="M396.3,548.8c4.1,0.2,8.2,0,12.2,0.1c2.1,0,4.2-0.1,6.3,0.2c9.4,13.7,18.7,27.5,28.1,41.2
		c3.2,4.8,6.6,9.6,9.8,14.4c-7.6,0-15.2,0-22.8,0c-5-7.3-9.8-14.8-14.7-22.2c-0.1,0-0.2-0.1-0.3-0.1c-0.1,4.4-0.2,8.8,0.1,13.2
		c0,3,0.3,6,0.3,9c-2-0.1-3.9,0.1-5.9-0.1c-4.4,0-8.8-0.1-13.2-0.1C396.3,585.9,396.2,567.4,396.3,548.8z"/>
	<path class="st1" d="M454.9,548.9c6.3-0.1,12.6-0.1,18.9,0c0,14.8,0,29.7,0,44.5c0,3.7,0,7.4,0,11.1c-3,0.1-6.1-0.2-9.1-0.1
		c-3.2,0-6.5,0.2-9.7,0.1c-0.3-0.5-0.1-1.1-0.2-1.7c0-5.3,0-10.7,0-16c0-1.8,0-3.7,0-5.5c0.2-1.6-0.1-3.2,0-4.8
		c-0.1-2.4,0.1-4.9-0.1-7.3c0.1-1.3-0.1-2.6,0-3.9c0.1-1.8,0.1-3.7,0-5.5c0-2,0.1-4,0.1-6C454.9,552.2,454.9,550.5,454.9,548.9z"/>
	<path class="st1" d="M484.9,548.9c26.1-0.1,52.1,0,78.2,0c0,6.3,0,12.6,0,18.9c-9.9,0-19.8,0-29.8,0c0.3,3,0.2,6,0.3,9
		c0,4.5-0.1,9-0.1,13.5c-0.3,4.7-0.1,9.4,0.1,14.1c-1.3,0.3-2.7,0.1-4,0.2c-4.9,0-9.8,0-14.7,0c0-12.3,0-24.5,0-36.8
		c-10,0.1-20,0-30.1,0c0-1.2,0-2.4-0.1-3.6c-0.1-1.9-0.1-3.8-0.1-5.7c0-1.1-0.2-2.2-0.1-3.4C484.6,553,484.6,550.9,484.9,548.9z"/>
	<path class="st1" d="M572.5,548.9c5.5,0,11-0.1,16.5,0c6.7,0,13.4-0.1,20.1,0.1c6.6,1.4,13.1,4.5,17.3,10c2.9,3.9,4.8,8.5,5.6,13.4
		c0.7,4.8,0.4,9.7-1,14.3c-1.6,5.2-4.6,10-9,13.4c-0.7,0.6-1.5,1-2.1,1.5c0.2,1.1,0.7,2,0.9,3.1c-16.1,0-32.2,0-48.3,0
		C572.5,585.9,572.5,567.4,572.5,548.9 M591.3,566.7c0.1,7,0,13.9,0,20.9c1.3,0,2.5-0.3,3.7-0.1c1.2,0.1,2.4,0.1,3.6,0.2
		c2.5,0.3,5.1,0.2,7.6-0.3c2.4-0.5,4.6-1.9,6.2-3.8c1.3-1.6,1.9-3.8,1.9-5.9c-0.1-2.3-0.8-4.6-2-6.5c-1.8-2.8-5.1-4.9-8.5-4.5
		C599.7,566.7,595.5,566.7,591.3,566.7z"/>
	<path class="st1" d="M717.4,552.4c4.3-2,9.1-3.2,13.8-3.5c4.7-0.1,9.5,0.3,14,1.9c8.3,2.9,15.4,9.2,19.4,17
		c-1.5,0.7-2.9,1.5-4.4,2.2c-1.5,0.7-2.9,1.6-4.4,2.4c-2,1.2-4.1,2.3-6,3.5c-2.4-2.4-4.4-5.3-7.3-7.1c-3.4-2-7.5-2.8-11.3-1.9
		c-2.2,0.5-4.3,1.6-5.8,3.3c-1.2,1.2-2,2.9-1.9,4.6c-0.1,2.4,1.2,4.6,2.9,6.2c1.1,1,2.1,2,3.4,2.8c6.9,3.9,14.3,7.1,21,11.4
		c3.4,2.2,6.2,5.4,8,9c-2.4,0-4.9-0.1-7.3-0.1c-7.6-0.3-15.3-0.4-22.9-0.9c-0.6,0-1.1-0.4-1.7-0.7c-6.4-3.7-13.1-7.2-18-12.9
		c-1.7-2-3.2-4.3-3.9-6.8c-0.3-1.2-0.7-2.3-0.6-3.5c-0.1,0.2-0.3,0.3-0.5,0.2l0.4-0.2c-0.1-1.1-0.2-2.2-0.3-3.4
		c-0.1-1.1,0.1-2.3,0.2-3.4c0.2-2.3,0.4-4.7,1.2-6.9c1.4-3.7,3.7-7.1,6.6-9.8C713.5,554.3,715.5,553.3,717.4,552.4z"/>
	<path class="st1" d="M776.1,548.8c26-0.1,52,0,78,0c0,3.2,0.1,6.4,0,9.6c-0.1,3.1,0.2,6.2,0.2,9.3c-2.8,0.1-5.6-0.2-8.3-0.2
		c-2.4,0-4.9,0-7.3,0c-2.3,0.2-4.6,0.1-6.9,0.1c-2.5,0-5,0-7.5,0c0,12.3,0,24.5,0,36.8c-6,0-11.9,0-17.9,0c-0.1-1.1,0.1-2.2,0-3.3
		c0-3.8,0-7.6,0-11.4c-0.1-2.8,0.1-5.6,0-8.5c0-4.5,0-9.1,0-13.6c-10.1,0-20.3,0-30.4,0c0-2.3,0.1-4.5,0-6.8c-0.3-2.4,0.1-4.7,0-7.1
		C776.1,552.2,776.1,550.5,776.1,548.8z"/>
	<path class="st1" d="M666.5,552.4c0.5-1,0.9-2.2,1.6-3.2c3.9,8.6,8,17,12,25.6c4.5,9.4,8.9,18.9,13.3,28.3c0.3,0.6,0.5,1.2,0.8,1.8
		c-1.5,0-3.1,0-4.6,0c-0.6,0-1.3,0-1.8-0.2c-5.9-0.1-11.9,0-17.8-0.1c-5.9,0-11.8-0.1-17.6,0c-0.7,0.1-1.3-0.4-2-0.3
		c-1.1,0-2.3,0-3.4,0c-1.4,0.2-2.8,0.2-4.3,0c-0.2,0-0.4,0-0.5,0.2c1.1,0.1,2.3-0.1,3.4,0c1.5,0.1,3.1,0.2,4.6,0.1l0.4-0.2
		c0.1,0.1,0.3,0.2,0.5,0.2c-3,0.4-6-0.4-8.9,0.1C650.3,587.4,658.2,569.9,666.5,552.4z"/>
</g>
</svg>
