<?xml version="1.0" encoding="UTF-8" ?>
<!DOCTYPE svg PUBLIC "-//W3C//DTD SVG 1.1//EN" "http://www.w3.org/Graphics/SVG/1.1/DTD/svg11.dtd">
<svg width="700pt" height="700pt" viewBox="0 0 700 700" version="1.1" xmlns="http://www.w3.org/2000/svg">
<g id="#2b3346fd">
<path fill="#2b3346" opacity="1.00" d=" M 224.22 211.12 C 234.70 222.06 245.02 233.15 255.67 243.93 C 255.57 233.95 255.43 223.97 255.71 214.00 C 257.79 214.00 259.88 214.00 261.98 214.00 C 261.98 229.10 262.13 244.22 261.89 259.33 C 251.34 248.99 241.62 237.82 230.95 227.61 C 230.44 237.38 230.83 247.17 230.73 256.95 C 228.57 256.95 226.42 256.95 224.26 256.95 C 224.26 241.67 224.36 226.40 224.22 211.12 Z" />
<path fill="#2b3346" opacity="1.00" d=" M 152.61 211.74 C 158.34 222.08 162.21 233.32 167.38 243.94 C 172.91 233.39 176.90 222.09 182.72 211.69 C 184.33 218.87 185.36 226.16 186.66 233.40 C 187.94 241.28 189.74 249.09 190.55 257.05 C 188.41 256.99 186.28 256.94 184.15 256.87 C 182.77 248.50 181.71 240.07 179.97 231.77 C 175.27 240.44 172.03 249.82 167.26 258.46 C 162.96 249.71 159.46 240.60 155.23 231.82 C 152.77 240.08 152.18 248.74 150.17 257.11 C 148.04 257.04 145.92 256.99 143.80 256.93 C 146.50 241.82 149.55 226.78 152.61 211.74 Z" />
<path fill="#2b3346" opacity="1.00" d=" M 365.61 211.74 C 371.34 222.08 375.22 233.32 380.38 243.94 C 385.91 233.39 389.90 222.09 395.72 211.69 C 397.32 218.87 398.35 226.15 399.66 233.39 C 400.94 241.28 402.73 249.09 403.55 257.05 C 401.41 256.99 399.28 256.94 397.15 256.88 C 395.69 248.53 394.88 240.05 392.81 231.82 C 388.36 240.58 384.95 249.83 380.26 258.46 C 375.96 249.71 372.46 240.60 368.23 231.82 C 365.77 240.08 365.18 248.74 363.17 257.11 C 361.04 257.04 358.92 256.99 356.80 256.93 C 359.50 241.82 362.55 226.77 365.61 211.74 Z" />
<path fill="#2b3346" opacity="1.00" d=" M 107.39 213.56 C 120.03 210.80 133.37 221.12 133.88 234.02 C 135.13 245.66 125.39 256.69 113.89 257.66 C 105.35 258.70 96.45 254.34 92.02 246.97 C 89.24 242.31 88.44 236.62 89.36 231.31 C 90.94 222.44 98.55 215.09 107.39 213.56 M 108.42 219.54 C 100.43 220.89 94.56 228.98 95.59 237.00 C 96.00 245.91 104.95 253.13 113.74 251.60 C 122.78 250.59 129.19 240.82 127.10 232.09 C 125.69 223.68 116.74 217.70 108.42 219.54 Z" />
<path fill="#2b3346" opacity="1.00" d=" M 461.37 227.64 C 458.95 220.31 465.77 213.03 473.06 213.21 C 478.32 212.54 482.60 216.13 485.57 220.05 C 484.08 221.07 482.59 222.09 481.10 223.10 C 478.47 221.35 475.73 218.62 472.29 219.37 C 468.76 219.71 465.77 224.43 468.58 227.30 C 473.43 231.41 480.90 231.79 484.69 237.32 C 487.87 242.56 486.92 250.13 482.21 254.19 C 476.93 259.24 467.36 259.05 462.53 253.46 C 460.45 251.10 459.73 247.95 458.83 245.02 C 460.93 244.71 463.03 244.41 465.14 244.14 C 466.25 246.44 466.93 249.26 469.12 250.83 C 472.04 252.44 476.21 252.06 478.36 249.34 C 480.90 246.34 480.59 241.06 477.02 238.98 C 471.72 235.45 463.54 234.58 461.37 227.64 Z" />
<path fill="#2b3346" opacity="1.00" d=" M 534.39 213.56 C 547.03 210.80 560.36 221.12 560.88 234.02 C 562.13 245.66 552.39 256.69 540.89 257.66 C 532.35 258.70 523.45 254.34 519.02 246.97 C 516.24 242.31 515.44 236.62 516.36 231.31 C 517.93 222.44 525.55 215.09 534.39 213.56 M 535.42 219.54 C 527.43 220.89 521.55 228.98 522.59 237.01 C 523.00 245.91 531.95 253.13 540.74 251.60 C 549.79 250.60 556.19 240.82 554.10 232.09 C 552.68 223.68 543.74 217.70 535.42 219.54 Z" />
<path fill="#2b3346" opacity="1.00" d=" M 46.25 214.09 C 51.96 213.99 57.75 213.61 63.39 214.75 C 70.67 216.23 76.86 222.11 78.64 229.34 C 80.04 235.07 79.55 241.43 76.55 246.59 C 73.57 251.69 68.32 255.45 62.47 256.43 C 57.12 257.37 51.65 257.00 46.25 256.91 C 46.30 242.63 46.30 228.36 46.25 214.09 M 52.83 219.94 C 52.63 230.33 52.64 240.72 52.82 251.12 C 57.60 250.85 62.87 250.93 66.86 247.86 C 74.84 242.29 74.88 228.69 66.95 223.08 C 62.86 220.16 57.63 220.23 52.83 219.94 Z" />
<path fill="#2b3346" opacity="1.00" d=" M 203.26 214.05 C 205.42 214.04 207.58 214.04 209.74 214.05 C 209.71 228.35 209.71 242.65 209.74 256.95 C 207.58 256.95 205.42 256.95 203.26 256.95 C 203.29 242.65 203.30 228.35 203.26 214.05 Z" />
<path fill="#2b3346" opacity="1.00" d=" M 275.27 214.05 C 277.42 214.04 279.58 214.04 281.74 214.05 C 281.70 228.35 281.71 242.65 281.74 256.95 C 279.58 256.95 277.42 256.95 275.26 256.96 C 275.29 242.65 275.29 228.35 275.27 214.05 Z" />
<path fill="#2b3346" opacity="1.00" d=" M 295.26 214.05 C 297.42 214.04 299.58 214.04 301.74 214.05 C 301.68 219.51 301.66 224.97 301.92 230.43 C 307.06 226.08 311.48 221.00 316.14 216.16 C 318.80 212.90 323.37 214.21 327.03 214.02 C 320.95 220.64 314.02 226.45 308.19 233.28 C 308.90 235.24 310.28 236.83 311.58 238.43 C 316.82 244.54 322.03 250.69 327.01 257.02 C 324.17 256.97 321.23 257.33 318.47 256.53 C 312.42 250.83 308.46 243.22 302.13 237.75 C 301.48 244.13 301.73 250.55 301.75 256.95 C 299.58 256.95 297.42 256.95 295.26 256.95 C 295.29 242.65 295.29 228.35 295.26 214.05 Z" />
<path fill="#2b3346" opacity="1.00" d=" M 416.27 214.05 C 418.42 214.04 420.57 214.04 422.73 214.05 C 422.76 222.37 422.68 230.69 422.67 239.02 C 422.80 242.16 422.68 245.66 424.66 248.31 C 428.20 253.13 436.59 252.89 439.80 247.83 C 441.60 244.92 441.54 241.35 441.64 238.05 C 441.62 230.03 441.42 222.01 441.71 214.00 C 443.79 214.00 445.88 214.00 447.98 214.00 C 448.02 222.68 448.02 231.37 448.04 240.06 C 448.06 244.15 447.34 248.45 444.73 251.74 C 439.38 258.87 427.76 259.92 421.31 253.72 C 417.89 250.87 416.14 246.46 416.26 242.06 C 416.24 232.72 416.31 223.38 416.27 214.05 Z" />
<path fill="#2b3346" opacity="1.00" d=" M 498.26 214.05 C 500.42 214.04 502.57 214.04 504.74 214.04 C 504.71 228.35 504.71 242.65 504.73 256.96 C 502.57 256.95 500.42 256.95 498.26 256.95 C 498.29 242.65 498.29 228.35 498.26 214.05 Z" />
<path fill="#2b3346" opacity="1.00" d=" M 573.26 214.04 C 575.42 214.04 577.57 214.04 579.74 214.05 C 579.78 226.35 579.57 238.65 579.81 250.94 C 583.95 250.98 588.09 251.01 592.23 251.06 C 592.23 253.02 592.22 254.99 592.23 256.96 C 585.90 257.07 579.57 257.07 573.25 256.91 C 573.31 242.62 573.28 228.33 573.26 214.04 Z" />
<path fill="#2b3346" opacity="1.00" d=" M 601.26 214.05 C 603.42 214.04 605.57 214.04 607.74 214.05 C 607.71 228.35 607.71 242.65 607.74 256.95 C 605.57 256.95 603.42 256.95 601.26 256.95 C 601.29 242.65 601.29 228.35 601.26 214.05 Z" />
<path fill="#2b3346" opacity="1.00" d=" M 622.27 214.05 C 624.42 214.04 626.58 214.04 628.74 214.05 C 628.68 219.51 628.66 224.97 628.92 230.43 C 634.06 226.08 638.48 220.99 643.14 216.16 C 645.80 212.91 650.38 214.20 654.03 214.01 C 647.74 220.57 641.16 226.83 634.82 233.34 C 640.78 241.58 647.85 248.94 654.01 257.03 C 651.17 256.97 648.23 257.32 645.47 256.53 C 639.42 250.83 635.46 243.21 629.13 237.75 C 628.47 244.13 628.73 250.55 628.75 256.95 C 626.58 256.95 624.42 256.95 622.27 256.95 C 622.29 242.65 622.29 228.35 622.27 214.05 Z" />
<path fill="#2b3346" opacity="1.00" d=" M 348.22 323.12 C 358.70 334.06 369.02 345.15 379.67 355.93 C 379.57 345.95 379.44 335.97 379.71 326.00 C 381.79 325.99 383.88 326.00 385.98 326.00 C 385.97 341.10 386.13 356.21 385.88 371.32 C 375.33 360.99 365.63 349.81 354.95 339.61 C 354.44 349.39 354.84 359.17 354.74 368.95 C 352.58 368.95 350.42 368.95 348.26 368.95 C 348.26 353.67 348.36 338.40 348.22 323.12 Z" />
<path fill="#2b3346" opacity="1.00" d=" M 194.43 336.36 C 196.33 332.10 198.26 327.85 200.62 323.82 C 207.52 338.81 214.22 353.89 220.93 368.96 C 218.63 368.98 216.34 369.00 214.04 369.02 C 212.46 365.54 210.88 362.06 209.36 358.55 C 203.32 358.33 197.29 358.38 191.25 358.42 C 189.47 361.94 187.78 365.50 186.04 369.04 C 183.87 369.00 181.70 368.97 179.54 368.93 C 184.04 357.87 189.53 347.25 194.43 336.36 M 193.90 352.58 C 198.21 352.61 202.52 352.60 206.84 352.61 C 204.70 347.76 202.62 342.88 200.50 338.02 C 197.99 342.73 195.77 347.59 193.90 352.58 Z" />
<path fill="#2b3346" opacity="1.00" d=" M 319.41 323.82 C 326.72 338.64 333.10 353.91 339.93 368.96 C 337.63 368.99 335.34 369.00 333.05 369.02 C 331.46 365.54 329.88 362.06 328.36 358.55 C 322.32 358.33 316.29 358.38 310.25 358.42 C 308.48 361.94 306.78 365.50 305.04 369.03 C 302.87 369.00 300.70 368.97 298.54 368.93 C 301.47 361.31 305.32 354.10 308.62 346.64 C 312.28 339.06 315.58 331.31 319.41 323.82 M 312.90 352.58 C 317.21 352.61 321.52 352.60 325.84 352.61 C 323.70 347.75 321.62 342.87 319.49 338.02 C 316.99 342.73 314.77 347.58 312.90 352.58 Z" />
<path fill="#2b3346" opacity="1.00" d=" M 437.41 323.82 C 444.72 338.64 451.09 353.91 457.93 368.96 C 455.63 368.98 453.34 368.99 451.04 369.02 C 449.46 365.54 447.88 362.06 446.36 358.55 C 440.32 358.33 434.29 358.38 428.25 358.42 C 426.47 361.94 424.78 365.50 423.04 369.04 C 420.87 369.00 418.70 368.97 416.54 368.93 C 419.47 361.31 423.32 354.10 426.62 346.64 C 430.27 339.06 433.58 331.32 437.41 323.82 M 430.90 352.59 C 435.21 352.61 439.52 352.60 443.84 352.61 C 441.70 347.75 439.62 342.87 437.49 338.02 C 434.99 342.73 432.76 347.58 430.90 352.59 Z" />
<path fill="#2b3346" opacity="1.00" d=" M 474.61 323.74 C 480.34 334.07 484.21 345.31 489.38 355.93 C 494.92 345.39 498.90 334.08 504.72 323.69 C 506.50 331.75 507.64 339.94 509.12 348.06 C 510.31 355.05 511.84 361.99 512.55 369.05 C 510.41 368.99 508.28 368.94 506.15 368.87 C 504.70 360.53 503.88 352.05 501.81 343.83 C 497.36 352.58 493.95 361.83 489.26 370.46 C 484.96 361.71 481.45 352.60 477.23 343.81 C 474.78 352.08 474.18 360.74 472.17 369.11 C 470.04 369.04 467.91 368.99 465.79 368.93 C 468.51 353.82 471.55 338.78 474.61 323.74 Z" />
<path fill="#2b3346" opacity="1.00" d=" M 232.54 329.56 C 236.07 325.46 242.17 324.26 247.21 325.88 C 250.35 326.93 252.43 329.67 254.57 332.04 C 253.08 333.06 251.59 334.09 250.10 335.10 C 247.47 333.35 244.74 330.62 241.29 331.37 C 237.76 331.71 234.77 336.42 237.58 339.30 C 242.44 343.41 249.90 343.78 253.69 349.31 C 256.74 354.34 256.02 361.56 251.73 365.69 C 246.55 371.22 236.53 371.24 231.53 365.46 C 229.45 363.10 228.73 359.95 227.83 357.03 C 229.93 356.71 232.03 356.41 234.13 356.13 C 235.25 358.44 235.93 361.25 238.12 362.83 C 240.84 364.31 244.63 364.13 246.88 361.87 C 249.69 359.15 249.89 353.81 246.58 351.40 C 242.42 348.30 236.92 347.49 233.05 343.94 C 229.03 340.32 228.96 333.49 232.54 329.56 Z" />
<path fill="#2b3346" opacity="1.00" d=" M 267.37 339.64 C 264.94 332.31 271.77 325.04 279.06 325.21 C 284.33 324.53 288.60 328.13 291.57 332.04 C 290.08 333.06 288.59 334.08 287.11 335.10 C 284.32 333.17 281.20 330.26 277.52 331.55 C 274.35 332.31 271.98 336.69 274.58 339.30 C 279.27 343.28 286.31 343.72 290.27 348.73 C 294.00 353.93 293.08 361.99 288.21 366.19 C 282.93 371.25 273.36 371.04 268.53 365.46 C 266.45 363.10 265.73 359.95 264.83 357.03 C 266.93 356.71 269.03 356.41 271.14 356.14 C 272.25 358.44 272.93 361.25 275.12 362.83 C 278.04 364.44 282.21 364.06 284.36 361.34 C 286.90 358.35 286.59 353.06 283.02 350.99 C 277.72 347.45 269.55 346.58 267.37 339.64 Z" />
<path fill="#2b3346" opacity="1.00" d=" M 139.26 326.05 C 141.42 326.04 143.59 326.04 145.75 326.05 C 145.66 331.61 145.68 337.17 145.89 342.72 C 151.96 342.74 158.03 342.74 164.11 342.72 C 164.32 337.17 164.34 331.61 164.25 326.05 C 166.41 326.04 168.57 326.04 170.74 326.05 C 170.71 340.35 170.71 354.65 170.73 368.95 C 168.57 368.95 166.42 368.95 164.26 368.95 C 164.28 362.32 164.36 355.68 164.18 349.05 C 158.06 348.95 151.94 348.95 145.82 349.05 C 145.64 355.68 145.72 362.32 145.74 368.95 C 143.58 368.95 141.42 368.95 139.26 368.95 C 139.29 354.65 139.29 340.35 139.26 326.05 Z" />
<path fill="#2b3346" opacity="1.00" d=" M 525.25 326.09 C 530.96 325.99 536.75 325.61 542.39 326.75 C 549.39 328.19 555.40 333.67 557.41 340.54 C 558.85 345.53 558.72 351.03 556.86 355.90 C 554.32 362.33 548.31 367.29 541.48 368.43 C 536.12 369.37 530.65 369.00 525.25 368.91 C 525.30 354.63 525.30 340.36 525.25 326.09 M 531.83 331.93 C 531.63 342.33 531.64 352.72 531.82 363.12 C 536.60 362.85 541.87 362.93 545.86 359.86 C 553.83 354.28 553.88 340.70 545.96 335.09 C 541.86 332.16 536.63 332.23 531.83 331.93 Z" />
<path fill="#2b3346" opacity="1.00" d=" M 342.22 434.12 C 352.70 445.06 363.03 456.15 373.68 466.93 C 373.57 456.95 373.43 446.97 373.71 437.00 C 375.79 436.99 377.88 436.99 379.98 436.99 C 379.97 452.10 380.14 467.21 379.89 482.32 C 369.33 471.99 359.62 460.81 348.94 450.61 C 348.44 460.38 348.84 470.17 348.73 479.95 C 346.57 479.95 344.42 479.95 342.27 479.95 C 342.26 464.67 342.36 449.40 342.22 434.12 Z" />
<path fill="#2b3346" opacity="1.00" d=" M 194.20 454.28 C 197.38 447.82 199.97 441.06 203.61 434.82 C 210.53 449.80 217.22 464.89 223.93 479.96 C 221.63 479.98 219.34 479.99 217.04 480.02 C 215.46 476.53 213.88 473.05 212.36 469.55 C 206.33 469.33 200.29 469.38 194.25 469.42 C 192.48 472.94 190.78 476.50 189.04 480.04 C 186.87 480.00 184.70 479.97 182.54 479.93 C 185.98 471.18 190.37 462.86 194.20 454.28 M 196.91 463.59 C 201.22 463.61 205.53 463.60 209.84 463.61 C 207.70 458.75 205.62 453.88 203.50 449.02 C 200.99 453.73 198.77 458.59 196.91 463.59 Z" />
<path fill="#2b3346" opacity="1.00" d=" M 81.37 450.64 C 78.95 443.31 85.77 436.03 93.06 436.21 C 98.33 435.53 102.60 439.14 105.57 443.04 C 104.09 444.06 102.59 445.08 101.10 446.10 C 98.48 444.34 95.74 441.62 92.29 442.37 C 88.76 442.71 85.78 447.42 88.58 450.30 C 93.27 454.27 100.31 454.72 104.27 459.74 C 107.99 464.94 107.08 472.99 102.21 477.19 C 96.93 482.24 87.37 482.05 82.54 476.46 C 80.45 474.11 79.74 470.95 78.83 468.03 C 80.93 467.71 83.03 467.41 85.14 467.13 C 86.26 469.44 86.93 472.25 89.12 473.83 C 92.04 475.44 96.21 475.05 98.36 472.35 C 100.90 469.35 100.59 464.06 97.02 461.98 C 91.72 458.44 83.54 457.58 81.37 450.64 Z" />
<path fill="#2b3346" opacity="1.00" d=" M 501.01 458.00 C 500.92 446.05 512.03 435.43 523.99 436.21 C 530.73 436.06 536.70 439.90 541.04 444.78 C 539.65 446.21 538.26 447.63 536.88 449.06 C 533.16 445.92 529.20 442.09 523.96 442.25 C 514.94 441.71 506.83 450.00 507.51 459.01 C 507.26 468.78 517.84 477.23 527.26 474.11 C 531.92 472.66 534.84 468.41 536.28 463.95 C 532.60 463.76 528.91 463.71 525.23 463.64 C 525.25 461.56 525.27 459.48 525.28 457.41 C 531.19 457.47 537.09 457.47 543.00 457.39 C 542.98 462.34 542.77 467.64 539.81 471.85 C 535.84 478.04 528.32 481.56 521.02 480.73 C 509.69 480.11 500.38 469.24 501.01 458.00 Z" />
<path fill="#2b3346" opacity="1.00" d=" M 113.77 437.04 C 122.44 436.97 131.11 436.90 139.78 437.10 C 139.78 439.02 139.78 440.94 139.79 442.86 C 136.53 442.94 133.27 443.03 130.02 443.09 C 129.94 455.39 130.07 467.70 129.98 480.00 C 127.89 480.00 125.80 479.99 123.71 480.00 C 123.43 467.73 123.58 455.45 123.66 443.18 C 120.36 443.07 117.06 442.97 113.77 442.89 C 113.76 440.94 113.77 438.98 113.77 437.04 Z" />
<path fill="#2b3346" opacity="1.00" d=" M 149.25 437.06 C 155.19 437.03 161.48 436.39 167.03 438.95 C 173.36 441.90 175.01 450.79 171.39 456.42 C 169.63 459.06 166.70 460.52 164.09 462.16 C 168.28 468.16 172.77 473.95 176.93 479.99 C 174.32 479.99 171.71 479.98 169.11 479.98 C 164.64 474.00 160.82 467.55 156.01 461.84 C 155.59 467.87 155.70 473.91 155.74 479.95 C 153.58 479.95 151.42 479.95 149.26 479.95 C 149.29 465.65 149.31 451.36 149.25 437.06 M 155.85 442.83 C 155.61 447.56 155.64 452.30 155.97 457.03 C 158.51 456.70 161.16 456.62 163.56 455.61 C 167.96 453.69 168.11 446.29 163.75 444.25 C 161.26 443.19 158.49 443.18 155.85 442.83 Z" />
<path fill="#2b3346" opacity="1.00" d=" M 233.26 437.05 C 235.42 437.04 237.59 437.04 239.75 437.05 C 239.66 442.60 239.68 448.16 239.89 453.72 C 245.96 453.74 252.04 453.74 258.11 453.72 C 258.32 448.17 258.34 442.61 258.25 437.06 C 260.41 437.04 262.57 437.04 264.74 437.04 C 264.71 451.35 264.70 465.65 264.74 479.95 C 262.57 479.95 260.41 479.95 258.26 479.95 C 258.27 473.32 258.36 466.68 258.18 460.05 C 252.06 459.95 245.94 459.95 239.82 460.05 C 239.64 466.68 239.72 473.32 239.74 479.95 C 237.58 479.95 235.42 479.95 233.26 479.95 C 233.29 465.65 233.29 451.35 233.26 437.05 Z" />
<path fill="#2b3346" opacity="1.00" d=" M 278.26 437.05 C 280.42 437.04 282.58 437.04 284.74 437.05 C 284.78 449.35 284.57 461.65 284.82 473.94 C 288.95 473.98 293.09 474.00 297.23 474.06 C 297.23 476.02 297.23 477.98 297.23 479.95 C 290.90 480.07 284.57 480.07 278.25 479.90 C 278.31 465.62 278.28 451.33 278.26 437.05 Z" />
<path fill="#2b3346" opacity="1.00" d=" M 306.25 437.10 C 314.09 436.92 321.94 436.90 329.78 437.12 C 329.77 439.04 329.77 440.97 329.78 442.90 C 324.10 443.01 318.42 443.03 312.74 443.03 C 312.71 446.57 312.76 450.11 312.92 453.65 C 318.36 453.51 323.79 453.57 329.23 453.68 C 329.21 455.55 329.20 457.43 329.23 459.32 C 323.81 459.43 318.39 459.48 312.97 459.35 C 312.63 464.21 312.62 469.09 312.81 473.97 C 318.47 473.97 324.13 473.98 329.78 474.10 C 329.77 476.02 329.77 477.95 329.78 479.88 C 321.94 480.10 314.09 480.07 306.25 479.90 C 306.30 465.63 306.30 451.36 306.25 437.10 Z" />
<path fill="#2b3346" opacity="1.00" d=" M 394.25 437.05 C 400.86 437.09 409.66 435.72 413.78 442.28 C 416.94 446.69 415.59 452.27 413.34 456.75 C 416.09 459.33 419.36 462.10 419.65 466.15 C 420.54 472.06 416.31 478.15 410.45 479.36 C 405.12 480.48 399.64 479.97 394.25 479.90 C 394.30 465.62 394.30 451.34 394.25 437.05 M 400.84 442.69 C 400.62 447.13 400.64 451.59 401.06 456.02 C 403.36 455.45 405.96 455.40 407.93 453.94 C 410.53 451.28 410.43 445.96 407.07 443.95 C 405.10 443.11 402.92 443.03 400.84 442.69 M 400.80 460.88 C 400.67 465.30 400.67 469.73 400.81 474.16 C 404.25 473.83 408.10 474.24 411.09 472.19 C 414.50 469.71 413.79 463.76 410.01 462.00 C 407.12 460.74 403.86 461.06 400.80 460.88 Z" />
<path fill="#2b3346" opacity="1.00" d=" M 431.25 437.10 C 439.09 436.93 446.94 436.90 454.78 437.12 C 454.77 439.04 454.77 440.97 454.78 442.90 C 449.10 443.01 443.42 443.03 437.74 443.03 C 437.71 446.57 437.76 450.11 437.92 453.65 C 443.35 453.51 448.79 453.56 454.23 453.68 C 454.20 455.55 454.20 457.43 454.23 459.32 C 448.81 459.43 443.39 459.48 437.97 459.35 C 437.64 464.21 437.62 469.09 437.81 473.97 C 443.46 473.97 449.12 473.98 454.78 474.10 C 454.77 476.02 454.77 477.95 454.79 479.88 C 446.94 480.10 439.09 480.08 431.25 479.90 C 431.30 465.63 431.30 451.36 431.25 437.10 Z" />
<path fill="#2b3346" opacity="1.00" d=" M 466.25 437.06 C 472.19 437.03 478.48 436.39 484.03 438.95 C 490.36 441.90 492.00 450.79 488.39 456.42 C 486.63 459.07 483.70 460.53 481.08 462.15 C 485.27 468.16 489.77 473.95 493.93 479.99 C 491.32 479.99 488.71 479.98 486.11 479.98 C 481.64 474.00 477.82 467.56 473.01 461.85 C 472.59 467.87 472.70 473.91 472.75 479.95 C 470.58 479.95 468.42 479.95 466.26 479.95 C 466.29 465.66 466.31 451.36 466.25 437.06 M 472.85 442.84 C 472.61 447.56 472.63 452.30 472.96 457.03 C 475.51 456.70 478.16 456.63 480.56 455.61 C 484.95 453.68 485.11 446.30 480.75 444.25 C 478.26 443.19 475.49 443.18 472.85 442.84 Z" />
<path fill="#2b3346" opacity="1.00" d=" M 555.25 437.10 C 563.09 436.92 570.94 436.90 578.78 437.12 C 578.77 439.04 578.77 440.97 578.78 442.90 C 573.10 443.01 567.42 443.03 561.74 443.03 C 561.71 446.57 561.76 450.11 561.92 453.65 C 567.36 453.51 572.79 453.57 578.23 453.68 C 578.20 455.55 578.20 457.44 578.23 459.32 C 572.81 459.43 567.38 459.48 561.97 459.35 C 561.63 464.21 561.62 469.09 561.81 473.97 C 567.47 473.97 573.12 473.98 578.78 474.10 C 578.77 476.02 578.77 477.95 578.79 479.88 C 570.94 480.10 563.09 480.07 555.25 479.90 C 555.30 465.63 555.30 451.37 555.25 437.10 Z" />
<path fill="#2b3346" opacity="1.00" d=" M 590.25 437.06 C 596.18 437.03 602.48 436.39 608.03 438.95 C 614.36 441.90 616.00 450.79 612.39 456.42 C 610.63 459.07 607.70 460.53 605.08 462.15 C 609.27 468.16 613.77 473.95 617.93 479.99 C 615.31 479.99 612.70 479.98 610.10 479.97 C 605.64 474.00 601.82 467.56 597.01 461.84 C 596.59 467.87 596.70 473.92 596.74 479.96 C 594.58 479.95 592.42 479.95 590.26 479.95 C 590.28 465.65 590.31 451.36 590.25 437.06 M 596.85 442.84 C 596.61 447.57 596.63 452.31 596.97 457.04 C 599.51 456.70 602.16 456.62 604.57 455.61 C 608.95 453.68 609.10 446.30 604.75 444.25 C 602.26 443.19 599.49 443.18 596.85 442.84 Z" />
</g>
</svg>
