<?xml version="1.0" encoding="UTF-8" ?>
<!DOCTYPE svg PUBLIC "-//W3C//DTD SVG 1.1//EN" "http://www.w3.org/Graphics/SVG/1.1/DTD/svg11.dtd">
<svg width="2800pt" height="415pt" viewBox="0 0 2800 415" version="1.1" xmlns="http://www.w3.org/2000/svg">
<g id="#010102ff">
<path fill="#010102" opacity="1.00" d=" M 50.39 83.22 C 78.07 83.36 105.75 83.63 133.44 83.67 C 133.29 98.44 133.99 113.25 132.81 128.00 C 132.82 152.98 132.82 177.97 132.81 202.95 C 133.17 208.68 133.60 214.41 133.54 220.16 C 176.80 176.15 216.11 128.49 258.30 83.49 C 294.38 84.05 330.47 83.11 366.56 83.50 C 360.71 91.23 353.99 98.24 347.73 105.63 C 295.95 164.86 242.43 222.57 191.30 282.38 C 190.17 284.29 186.79 285.96 187.58 288.33 C 199.39 300.99 210.44 314.33 221.51 327.65 C 164.56 327.60 107.60 327.54 50.64 327.48 C 50.86 317.33 50.22 307.14 51.20 297.01 C 51.28 258.68 51.18 220.35 51.25 182.02 C 49.99 164.05 51.13 146.01 50.49 128.01 C 50.36 113.08 50.56 98.15 50.39 83.22 Z" />
<path fill="#010102" opacity="1.00" d=" M 400.40 123.39 C 435.59 96.76 479.84 81.89 524.05 83.22 C 565.63 83.97 606.74 98.25 640.26 122.79 C 667.16 143.77 687.58 172.12 702.51 202.58 C 721.06 240.78 731.10 283.91 726.31 326.42 C 717.54 326.45 708.75 326.62 700.00 325.97 C 572.86 325.91 445.72 326.02 318.58 325.89 C 318.53 325.12 318.42 323.59 318.37 322.82 L 317.69 322.04 C 317.10 311.67 317.12 301.25 317.75 290.88 C 318.67 284.28 318.55 277.62 318.64 270.98 C 322.64 212.94 354.17 158.21 400.40 123.39 Z" />
<path fill="#010102" opacity="1.00" d=" M 761.47 83.19 C 779.32 83.85 797.18 83.09 815.03 83.66 C 824.17 83.84 833.36 83.16 842.45 84.41 C 883.63 144.32 924.43 204.49 965.34 264.59 C 979.54 285.64 994.15 306.41 1008.25 327.53 C 975.01 327.55 941.76 327.43 908.52 327.66 C 886.56 295.63 865.74 262.84 844.14 230.57 C 843.80 230.45 843.11 230.23 842.77 230.11 C 842.47 249.40 842.06 268.73 843.34 288.00 C 843.49 301.15 844.55 314.27 844.70 327.43 C 836.11 327.18 827.48 327.84 818.92 326.80 C 799.72 326.64 780.52 326.40 761.32 326.46 C 761.37 245.37 761.20 164.28 761.47 83.19 Z" />
<path fill="#010102" opacity="1.00" d=" M 1017.76 83.36 C 1045.34 82.76 1072.95 83.05 1100.54 83.22 C 1100.57 148.14 1100.54 213.07 1100.55 277.99 C 1100.63 294.14 1100.38 310.31 1100.69 326.46 C 1087.44 326.78 1074.22 325.75 1060.98 325.95 C 1046.84 325.76 1032.72 326.90 1018.58 326.39 C 1017.26 324.23 1018.08 321.48 1017.88 319.09 C 1017.77 295.73 1017.80 272.36 1017.82 249.00 C 1017.80 241.00 1017.94 233.00 1017.83 225.00 C 1018.75 218.01 1017.40 211.01 1018.01 204.00 C 1017.38 193.34 1018.25 182.67 1017.79 172.01 C 1018.14 166.35 1017.57 160.68 1017.85 155.01 C 1018.38 147.02 1018.30 139.00 1017.80 131.01 C 1017.66 122.31 1018.10 113.62 1018.07 104.92 C 1017.52 97.74 1017.90 90.55 1017.76 83.36 Z" />
<path fill="#010102" opacity="1.00" d=" M 1148.75 83.25 C 1262.71 82.90 1376.67 83.08 1490.64 83.07 C 1490.57 110.57 1490.55 138.07 1490.64 165.57 C 1447.25 165.77 1403.85 165.77 1360.45 165.59 C 1361.85 178.68 1361.31 191.85 1361.72 204.98 C 1361.63 224.67 1361.26 244.35 1361.24 264.04 C 1359.86 284.54 1360.90 305.11 1361.60 325.63 C 1355.78 326.74 1349.85 326.17 1343.97 326.42 C 1322.49 326.47 1301.01 326.45 1279.53 326.43 C 1279.70 272.80 1279.33 219.17 1279.73 165.54 C 1235.93 165.90 1192.12 165.64 1148.32 165.68 C 1148.46 160.45 1148.46 155.20 1147.85 149.99 C 1147.54 141.62 1147.60 133.24 1147.44 124.86 C 1147.32 119.97 1146.64 115.08 1147.20 110.19 C 1147.53 101.19 1147.54 92.19 1148.75 83.25 Z" />
<path fill="#010102" opacity="1.00" d=" M 1531.81 83.26 C 1555.88 83.29 1579.96 82.93 1604.03 83.05 C 1633.37 83.16 1662.72 82.72 1692.05 83.59 C 1720.81 89.82 1749.47 103.36 1767.81 127.10 C 1780.48 144.24 1788.96 164.43 1792.21 185.51 C 1795.17 206.33 1794.07 227.87 1787.85 248.03 C 1781.01 270.85 1767.56 291.94 1748.48 306.43 C 1745.50 308.86 1742.03 310.61 1739.10 313.08 C 1739.85 317.68 1741.96 321.91 1742.98 326.45 C 1672.58 326.42 1602.19 326.51 1531.80 326.40 C 1531.85 245.36 1531.80 164.31 1531.81 83.26 M 1614.33 161.31 C 1614.75 191.75 1614.43 222.21 1614.50 252.66 C 1619.97 252.68 1625.42 251.31 1630.88 252.15 C 1636.15 252.71 1641.47 252.41 1646.76 252.83 C 1657.74 254.00 1668.95 253.89 1679.78 251.55 C 1690.31 249.23 1699.98 243.30 1706.80 234.94 C 1712.65 227.73 1715.23 218.35 1715.29 209.17 C 1714.95 199.07 1711.85 189.12 1706.40 180.62 C 1698.52 168.24 1684.09 159.06 1669.03 161.16 C 1650.80 161.48 1632.56 161.17 1614.33 161.31 Z" />
<path fill="#010102" opacity="1.00" d=" M 2165.48 98.72 C 2184.43 89.85 2205.06 84.62 2225.95 83.47 C 2246.50 83.20 2267.47 84.58 2286.99 91.57 C 2323.34 104.31 2354.35 131.64 2371.66 166.04 C 2365.11 169.07 2358.78 172.52 2352.23 175.52 C 2345.60 178.60 2339.47 182.62 2333.10 186.17 C 2324.23 191.23 2315.25 196.12 2306.68 201.68 C 2296.18 191.14 2287.33 178.63 2274.61 170.53 C 2259.85 161.94 2241.81 158.12 2225.06 162.44 C 2215.52 164.78 2206.41 169.47 2199.67 176.71 C 2194.31 181.99 2191.09 189.47 2191.30 197.02 C 2191.02 207.41 2196.50 217.13 2203.78 224.21 C 2208.48 228.55 2213.12 233.09 2218.71 236.31 C 2249.08 253.51 2281.36 267.27 2310.70 286.30 C 2325.66 296.00 2337.88 309.72 2345.89 325.65 C 2335.25 325.84 2324.63 325.33 2314.00 325.35 C 2280.65 324.20 2247.27 323.50 2213.95 321.40 C 2211.19 321.27 2208.94 319.53 2206.65 318.24 C 2178.80 302.09 2149.34 286.75 2128.13 261.84 C 2120.69 253.07 2114.33 243.15 2111.28 231.97 C 2110.03 226.91 2108.10 221.79 2108.69 216.51 C 2108.10 217.21 2107.39 217.67 2106.48 217.56 L 2108.04 216.73 C 2107.51 211.83 2107.36 206.91 2106.84 202.01 C 2106.36 197.00 2107.45 192.02 2107.51 187.01 C 2108.27 176.82 2109.11 166.45 2112.75 156.81 C 2118.81 140.43 2129.14 125.78 2141.70 113.74 C 2148.43 107.04 2157.00 102.77 2165.48 98.72 Z" />
<path fill="#010102" opacity="1.00" d=" M 2422.28 83.21 C 2536.02 82.95 2649.77 83.03 2763.51 83.09 C 2763.32 97.06 2763.85 111.03 2763.67 125.00 C 2763.39 138.53 2764.48 152.03 2764.44 165.56 C 2752.27 165.87 2740.15 164.53 2727.99 164.81 C 2717.33 164.86 2706.67 164.71 2696.03 164.88 C 2686.02 165.92 2675.95 165.13 2665.92 165.53 C 2655.06 165.62 2644.20 165.61 2633.34 165.53 C 2633.23 219.16 2633.29 272.79 2633.32 326.42 C 2607.26 326.52 2581.20 326.36 2555.15 326.50 C 2554.61 321.69 2555.38 316.88 2555.22 312.06 C 2555.04 295.37 2555.13 278.70 2555.22 262.00 C 2554.72 249.67 2555.48 237.34 2555.17 225.01 C 2555.24 205.21 2555.13 185.42 2555.22 165.63 C 2510.88 165.77 2466.55 165.74 2422.22 165.57 C 2422.21 155.69 2422.49 145.80 2422.11 135.93 C 2420.72 125.64 2422.67 115.33 2422.27 105.02 C 2422.27 97.75 2422.26 90.48 2422.28 83.21 Z" />
<path fill="#010102" opacity="1.00" d=" M 1942.80 98.84 C 1945.20 94.27 1946.74 89.23 1949.77 85.01 C 1966.98 122.45 1984.94 159.54 2002.36 196.88 C 2021.83 238.13 2041.21 279.43 2060.54 320.75 C 2061.76 323.30 2062.91 325.89 2063.99 328.52 C 2057.31 328.55 2050.63 328.47 2043.96 328.54 C 2041.25 328.56 2038.48 328.73 2035.90 327.83 C 2009.95 327.43 1983.99 327.95 1958.04 327.54 C 1932.35 327.69 1906.66 327.25 1880.97 327.41 C 1877.86 327.68 1875.11 325.80 1872.02 326.14 C 1867.01 326.25 1862.01 326.08 1857.02 326.25 C 1850.83 326.94 1844.57 326.99 1838.38 326.37 C 1837.55 326.32 1836.82 326.57 1836.20 327.14 C 1841.13 327.41 1846.08 326.91 1851.02 327.20 C 1857.69 327.70 1864.45 328.25 1871.12 327.50 L 1872.74 326.55 C 1873.38 326.89 1874.05 327.25 1874.74 327.62 C 1861.75 329.27 1848.68 326.01 1835.76 328.00 C 1871.92 251.84 1906.78 175.06 1942.80 98.84 Z" />
</g>
</svg>
