<?xml version="1.0" encoding="utf-8"?>
<!-- Generator: Adobe Illustrator 22.0.1, SVG Export Plug-In . SVG Version: 6.00 Build 0)  -->
<svg version="1.1" id="Layer_1" xmlns="http://www.w3.org/2000/svg" xmlns:xlink="http://www.w3.org/1999/xlink" x="0px" y="0px"
	 viewBox="0 0 1300 1100" style="enable-background:new 0 0 1300 1100;" xml:space="preserve">
<style type="text/css">
	.st0{fill-rule:evenodd;clip-rule:evenodd;fill:#E3001D;}
</style>
<g>
	<path class="st0" d="M279.2,490.1h-29.8v132.3h29.8V490.1z M340.1,490.1h-29.7v132.3h29.7V490.1z M401.1,490.1h-29.7v132.3h29.7
		V490.1z M432.3,433.4H249.4v30h182.9V433.4z M395.9,395.3c0,11.8,9.6,21.1,21.1,21.1c11.9,0,21.4-9.3,21.4-21.1
		c0-11.6-9.6-21.1-21.4-21.1C405.4,374.2,395.9,383.7,395.9,395.3 M583.9,563.5H1150v-230H493.3v99.9h90.6v30H432.3v159h29.8V491.8
		h31.2v130.6H523V491.8h31.2v130.6h29.6V563.5z"/>
</g>
</svg>
