<?xml version="1.0" encoding="utf-8"?>
<!-- Generator: Adobe Illustrator 22.0.1, SVG Export Plug-In . SVG Version: 6.00 Build 0)  -->
<svg version="1.1" id="Layer_1" xmlns="http://www.w3.org/2000/svg" xmlns:xlink="http://www.w3.org/1999/xlink" x="0px" y="0px"
	 viewBox="0 0 1300 1100" style="enable-background:new 0 0 1300 1100;" xml:space="preserve">
<style type="text/css">
	.st0{fill-rule:evenodd;clip-rule:evenodd;fill:#E3001D;}
	.st1{fill:#006AAF;}
	.st2{fill:#E3001D;}
</style>
<g>
	<path class="st0" d="M973,387.7c0-6.2-5.3-8.4-12.7-8.4c-0.8,0-3,0-3.8,0.1v16.9c0.9,0.2,2.7,0.3,5.4,0.3
		C969.8,396.7,973,392.9,973,387.7 M971.9,365.7c0-4.2-1.9-7.3-9.7-7.3c-2.2,0-4.2,0.1-5.8,0.1v15.7h3.7
		C968,374.2,971.9,371,971.9,365.7 M1008.9,379.7c0.1-5.2-2.6-8.3-7.4-8.3c-4.7,0-7.5,3.1-8,8.3H1008.9z M1016,381.4
		c0,0.9,0,2.2-0.1,3.1H993c-0.2,8.6,3.2,12.8,10.7,12.8c3.6,0,7.6-0.9,10.7-2.2v5.5c-3.4,1.4-7.4,2-11.7,2
		c-10.8,0-16.6-5.5-16.6-17.9c0-10.6,5.7-18.5,15.7-18.5C1011.8,366.3,1016,373,1016,381.4 M1092.5,371.2v-3.8
		c3.6-0.3,8-0.6,12.9-0.5c0,1.3,0,4.2-0.3,6.4h0.1c0.7-2.5,3-4.2,4.1-4.9c1.9-1.1,4.4-2.1,8.1-2.1c7.2,0,10.4,3.7,10.4,11.5v24.2
		h-6.9v-22.4c0-4.6-0.5-8.1-5.5-8.1c-2.7,0-5,1.3-6.6,2.9c-2.2,2.5-3.4,5.9-3.4,10.4v17.2h-7v-30.2
		C1096.7,371.7,1094.6,371.5,1092.5,371.2 M1082,397.3c1.8,0.2,4.2,0.6,6.2,0.9v3.9H1069v-3.9c1.7-0.4,4.1-0.7,6-0.9v-25.4
		c-1.9-0.2-3.9-0.5-6-0.7v-3.8c3.7-0.3,7.9-0.6,13-0.5V397.3z M1057.7,397.3c1.8,0.2,4.2,0.6,6.1,0.9v3.9h-19v-3.9
		c1.9-0.4,4.1-0.7,6-0.9v-42c0.2,0-2.8-0.6-6.2-0.7v-3.7c0,0,7.9-0.7,13.2-0.3V397.3z M1019.7,371.2v-3.8c3.7-0.3,7.9-0.6,12.7-0.5
		c0,4.4-0.4,7.1-0.2,7.1c0.9-3.6,3.9-8.5,11.3-7.5v6.6c-7.5-1.4-10.9,2.7-10.9,14v14.8h-7v-30.2
		C1023.8,371.7,1021.7,371.5,1019.7,371.2 M804.2,395.7h-11.8v52.5h11.8V395.7z M828.4,395.7h-11.8v52.5h11.8V395.7z M852.6,395.7
		h-11.8v52.5h11.8V395.7z M865,373.2h-72.6v11.9H865V373.2z M850.6,358.1c0,4.7,3.8,8.4,8.4,8.4c4.7,0,8.5-3.7,8.5-8.4
		c0-4.6-3.8-8.4-8.5-8.4C854.4,349.7,850.6,353.4,850.6,358.1 M949.2,357.9c-1.8-0.2-4.1-0.6-6-1v-3.8h6.3c3.6,0,8.3-0.2,14-0.2
		c10.5,0,15.6,4.6,15.6,11.8c0,5.1-3.3,9.9-8.7,11.5c6.8,1.1,9.8,6.3,9.8,11.3c0,5.7-3.6,14.8-18.6,14.8c-5,0-7.8-0.2-18.5-0.2v-3.9
		c1.9-0.4,4.1-0.7,6-0.9V357.9z M925.2,424.8H1150v-91.3H889.2v39.7h36v11.9H865v63.1h11.8v-51.8h12.4v51.8h11.8v-51.8h12.4v51.8
		h11.8V424.8z M1078,352.2c2.6,0,4.7,2.1,4.7,4.7c0,2.7-2.1,4.7-4.7,4.7c-2.6,0-4.7-2-4.7-4.7C1073.2,354.3,1075.3,352.2,1078,352.2
		"/>
	<path class="st1" d="M1149.9,591.7v-14.9c-2,0.6-3.1,0.9-5.1,0.9c-5.5,0-7.8-3.4-7.8-9.8v-43.3h12.9v-15.7h-12.9v-24.1l-24.2,6.2
		v17.9h-9.2v15.7h9.2v45.2c0,12.9,7.6,24.3,25.2,24.3C1143.5,594,1147.9,592.6,1149.9,591.7 M1095.9,524.6v-15.7H1083v-10.6
		c0-9.7,4.8-12.5,12.9-12.2v-15.4c-22.7-2.5-37.2,8.5-37.2,29.6v8.6h-9.2v15.7h9.2v68.2h24.3v-68.2H1095.9z M1036.3,592.8v-58.9
		c0-15.3-9.5-26.6-36.1-26.6c-14.9,0-26.8,2.5-35.2,6.2v79.2h24.3v-68.6c2.8-1,5.4-1.8,10.2-1.8c9.8,0,12.5,5.8,12.5,11.7v58.7
		H1036.3z M946.6,587.8v-78.9h-24.3V576c-2.6,1.4-5.8,2-10.1,2c-8.2,0-11.5-5-11.5-11v-58h-24.3v56.3c0,20.2,11.6,29.1,35.2,29.1
		C927.3,594.3,938.8,591.7,946.6,587.8 M868.5,592.8l-29.9-46.3l26.3-37.6h-24.3l-23.5,37h-0.3v-75.3h-24.1v122.2h24.1v-42.4h0.3
		l24.2,42.4H868.5z M773.8,587.8v-78.9h-24.3V576c-2.6,1.4-5.7,2-10.1,2c-8.2,0-11.5-5-11.5-11v-58h-24.3v56.3
		c0,20.2,11.5,29.1,35.2,29.1C754.6,594.3,766.1,591.7,773.8,587.8 M689.2,592.8V577h-27.7l27.1-68.1h-55.7v15.7h25.7L630,592.8
		H689.2z"/>
	<path class="st2" d="M617.7,591.7v-14.9c-2,0.6-3.1,0.9-5.1,0.9c-5.4,0-7.8-3.4-7.8-9.8v-43.3h12.9v-15.7h-12.9v-24.1l-24.3,6.2
		v17.9h-9.1v15.7h9.1v45.2c0,12.9,7.6,24.3,25.2,24.3C611.3,594,615.7,592.6,617.7,591.7 M569.8,592.8l-29.9-46.3l26.3-37.6h-24.3
		l-23.5,37h-0.3v-75.3H494v122.2h24.1v-42.4h0.3l24.1,42.4H569.8z M458.6,543.1l-29.2,4.4c-0.8-17.3,5.4-25.8,15.4-25.8
		C453.7,521.7,458.6,528.2,458.6,543.1 M481.2,552.1c1.1-28.3-11.2-44.8-35.5-44.8c-24.1,0-37.8,17-37.8,43.3
		c0,26.8,14.8,43.7,40.4,43.7c14.2,0,23.5-2.8,30.1-6.1l-5.4-15.1c-4.5,2.3-12,4.5-21.8,4.5c-12.4,0-18.6-6.1-20.3-18.3L481.2,552.1
		z M395.1,583.4v-74.5h-24.3v77.5c0,16.9-4.8,22.4-13.8,25.4v16C378.9,626.9,395.1,610.7,395.1,583.4 M395.9,484.9
		c0-6.4-5.7-11.5-12.9-11.5c-7.1,0-12.9,5.1-12.9,11.4c0,6.4,5.8,11.4,12.9,11.4C390.1,496.1,395.9,491.1,395.9,484.9 M332.4,550.4
		c0,15.1-2.2,27.4-13,27.4c-10.6,0-12.9-12.3-12.9-27.4c0-14.9,2.2-28,12.9-28C330.2,522.4,332.4,535.5,332.4,550.4 M356.6,550.7
		c0-25.1-12.8-43.4-37.2-43.4c-24.1,0-36.9,18.4-36.9,43.4c0,25.1,12.8,43.6,37,43.6C343.8,594.3,356.6,575.8,356.6,550.7
		 M280.6,507.6c-22.6-1.1-35.6,1.4-45,5.9v79.2h24.3v-68.5c4-1.9,10.2-2,16.2,0.5L280.6,507.6z M199.3,550.6c0,18.8-5.8,29-18.7,29
		c-2.6,0-4.9-0.5-6.4-1.1v-55.5c2-0.8,4.2-1.2,7.5-1.2C194.7,521.7,199.3,531.8,199.3,550.6 M223.3,550.3
		c0-28.2-16.2-42.9-41.3-42.9c-14.9,0-24.9,2.6-32,6.2v112.7h24.3v-33.8c2.5,0.7,7,1.4,12.1,1.4
		C208.2,593.9,223.3,577.2,223.3,550.3"/>
</g>
</svg>
