<?xml version="1.0" encoding="utf-8"?>
<!-- Generator: Adobe Illustrator 22.0.1, SVG Export Plug-In . SVG Version: 6.00 Build 0)  -->
<svg version="1.1" id="Layer_1" xmlns="http://www.w3.org/2000/svg" xmlns:xlink="http://www.w3.org/1999/xlink" x="0px" y="0px"
	 viewBox="0 0 1300 1100" style="enable-background:new 0 0 1300 1100;" xml:space="preserve">
<style type="text/css">
	.st0{fill-rule:evenodd;clip-rule:evenodd;fill:#E3001D;}
</style>
<g>
	<path class="st0" d="M704.2,470.1c0-15.6-13.3-21.1-32-21.1c-2.1,0-7.5,0-9.6,0.3v42.5c2.3,0.5,6.7,0.8,13.6,0.8
		C696.1,492.7,704.2,483.2,704.2,470.1 M701.5,414.6c0-10.7-4.8-18.5-24.5-18.5c-5.6,0-10.5,0.3-14.5,0.3V436h9.2
		C691.7,436,701.5,428,701.5,414.6 M794.6,449.8c0.3-13.2-6.4-21-18.5-21c-11.9,0-18.8,7.8-20.2,21H794.6z M812.5,454
		c0,2.2,0,5.6-0.3,7.8h-57.5c-0.5,21.6,8.1,32.4,26.9,32.4c9,0,19.1-2.3,26.9-5.5v13.9c-8.5,3.4-18.6,5.1-29.5,5.1
		c-27.2,0-41.9-13.8-41.9-45c0-26.6,14.4-46.5,39.6-46.5C801.8,416.1,812.5,432.8,812.5,454 M1005.3,428.5V419
		c9.1-0.8,20.2-1.5,32.5-1.2c0,3.3,0,10.7-0.8,16.2h0.3c1.7-6.4,7.7-10.7,10.3-12.5c4.7-2.9,11-5.2,20.3-5.2
		c18.2,0,26.3,9.2,26.3,28.9v61h-17.3v-56.4c0-11.5-1.3-20.4-14-20.4c-6.9,0-12.7,3.2-16.5,7.2c-5.7,6.3-8.6,14.9-8.6,26.3v43.3
		h-17.6v-76C1015.7,429.7,1010.5,429.1,1005.3,428.5 M978.6,494.1c4.6,0.5,10.7,1.4,15.6,2.4v9.8h-48.3v-9.8
		c4.4-0.9,10.4-1.8,15.1-2.4v-63.9c-4.7-0.5-9.8-1.2-15.1-1.8V419c9.4-0.8,19.9-1.5,32.7-1.2V494.1z M917.6,494.1
		c4.6,0.5,10.6,1.4,15.4,2.4v9.8h-48v-9.8c4.7-0.9,10.4-1.8,15-2.4V388.4c0.5,0-7.2-1.5-15.7-1.7v-9.3c0,0,19.9-1.7,33.2-0.8V494.1z
		 M821.8,428.5V419c9.2-0.8,19.9-1.5,32-1.2c0,11-0.9,17.9-0.5,17.9c2.2-9.1,9.7-21.4,28.5-18.8v16.7c-18.8-3.4-27.4,6.7-27.4,35.3
		v37.3h-17.7v-76C832.1,429.7,827,429.1,821.8,428.5 M644.4,395c-4.6-0.5-10.3-1.4-15-2.6v-9.5h15.8c9,0,20.8-0.6,35.3-0.6
		c26.5,0,39.3,11.6,39.3,29.7c0,12.7-8.4,24.8-21.9,29c17.2,2.9,24.8,15.8,24.8,28.6c0,14.5-9,37.3-46.8,37.3
		c-12.7,0-19.7-0.6-46.6-0.6v-9.8c4.7-0.9,10.4-1.8,15-2.4V395z M968.6,380.5c6.7,0,11.9,5.3,11.9,11.9c0,6.7-5.2,11.8-11.9,11.8
		c-6.7,0-12-5.1-12-11.8C956.6,385.8,961.9,380.5,968.6,380.5"/>
</g>
</svg>
