<?xml version="1.0" encoding="utf-8"?>
<!-- Generator: Adobe Illustrator 19.2.1, SVG Export Plug-In . SVG Version: 6.00 Build 0)  -->
<svg version="1.1" id="Ebene_1" xmlns="http://www.w3.org/2000/svg" xmlns:xlink="http://www.w3.org/1999/xlink" x="0px" y="0px"
	 viewBox="0 0 822 822" style="enable-background:new 0 0 822 822;" xml:space="preserve">
<style type="text/css">
	.st0{fill-rule:evenodd;clip-rule:evenodd;fill:none;}
</style>
<path class="st0" d="M647,9l-26,11l-41,10l-39,13l-21-6l-49,4l-41,17.9l-32-5l-18-17.9l-53-3l-45,8l-16-6l-32,12L165,13"/>
<path class="st0" d="M761,18.9l-43,8l-45,5l-29,35.9l-12,13l-18,2l-29-5l-23,7l-33,15.9l-32,12l-26,19.9l-35,27.9l-24,15.9l-19-3
	l-30,16.9l-25-5l-20-11l-19,30.9l-25,10l-30,13.9l-32,28.9l-11,11l-26,13L153,267l-20-4l-38,8"/>
<path class="st0" d="M759,28.9l-56,3l-33,5l-16,20.9l-26,23.9l-15,7l-7,22.9l-25,6l-27,7l-10,42.8l-10,29.9l-11,21.9l-4,26.9V274
	l8,15.9l-3,29.9l-8,19.9l-14,27.9l-18,27.9l1,38.9l-6,23.9l-5,20.9l-17,26.9l1,23.9l-5,25.9l-15,23.9l-21,29.9l-27,19.9l-7,16.9"/>
<path class="st0" d="M753,36.9l-11,12v13.9l-6,14.9l1,28.9l-13,31.9v12l-6,13.9l-23,23.9l6,37.9l3,35.9l-1,18.9l1,42.8l-4,27.9
	l4,20.9l-7,17.9l-12,5l-16,13l-15,26.9l-22,11l9,24.9l-7,23.9l-31,25.9l-4,32.9l14,31.9l40,15.9l29-9"/>
<path class="st0" d="M647,9l-26,11l-41,10l-39,13l-21-6l-49,4l-41,17.9l-32-5l-18-17.9l-53-3l-45,8l-16-6l-32,12L165,13"/>
<path class="st0" d="M761,18.9l-43,8l-45,5l-29,35.9l-12,13l-18,2l-29-5l-23,7l-33,15.9l-32,12l-26,19.9l-35,27.9l-24,15.9l-19-3
	l-30,16.9l-25-5l-20-11l-19,30.9l-25,10l-30,13.9l-32,28.9l-11,11l-26,13L153,267"/>
<path class="st0" d="M759,28.9l-56,3l-33,5l-16,20.9l-26,23.9l-15,7l-7,22.9l-25,6l-27,7l-10,42.8l-10,29.9l-11,21.9l-4,26.9V274
	l8,15.9l-3,29.9l-8,19.9l-14,27.9l-18,27.9l1,38.9l-6,23.9l-5,20.9l-17,26.9l1,23.9l-5,25.9l-15,23.9l-21,29.9l-27,19.9l-7,16.9"/>
<path class="st0" d="M753,36.9l-11,12v13.9l-6,14.9l1,28.9l-13,31.9v12l-6,13.9l-23,23.9l6,37.9l3,35.9l-1,18.9l1,42.8l-4,27.9
	l4,20.9l-7,17.9l-12,5l-16,13l-15,26.9l-22,11l9,24.9l-7,23.9l-31,25.9l-4,32.9l14,31.9l40,15.9l29-9"/>
<path class="st0" d="M664,38.9l-21,41.8l13,14.9l12,21.9l-5,35.9l11,40.9l-1,36.9l-29,27.9l-4,42.8l-18,50.8l-26,3l-14,28.9
	l-18,21.9l-20,47.8l-13,28.9l1,27.9l9,32.9l2,25.9l-8,25.9l-15,24.9l-10,25.9l-13,12l-15,29.9l-24,26.9l-14,8c0,0-5.3,10.2-7,12
	c-1.7,1.8-13,15.9-13,15.9l-17,5l-13,12l-12,14.9l-8,13l-11,13"/>
<path class="st0" d="M514,109.6l-6,25.9l2,27.9l-9,44.8l-3,52.8v40.9l12,33.9"/>
<path class="st0" d="M495,221.2l-13,18.9L463,266"/>
<path class="st0" d="M428,169.4l-6,26.9c0,0-8.9,12.6-10,16.9c-1.1,4.3-32,13.9-32,13.9l-27-1l-27,5l-16,5l-17-16.9"/>
<path class="st0" d="M509,116.6l-15,17.9l-6,19.9l-12,11l-9,19.9l-27,19.9l-22,18.9l-23,23.9l-9,12L375,276l-15,8l-6,14.9l11,9
	l-9,23.9l-8-7l-7,12l-12,7l-6,20.9l-9,14.9l-1,20.9l-10,25.9l3,29.9l7,13.9l20-1l-3,20.9v30.9l-3,18.9L314,556l-7,16.9l-5,18.9l11,5
	"/>
<path class="st0" d="M323,349.7l-19,10l-10-16.9l-19,5l-17,2l-11-10"/>
<path class="st0" d="M501,352.7l-19,4l-23,3l-13,3l-19,6l-20,5l-26,12l-3,9l-10-6l-15-16.9l-22-7"/>
<path class="st0" d="M476,454.3l-16,4l-26,21.9l-17,19.9l-18,8l-11,21.9L367,557"/>
<path class="st0" d="M337,471.3h22l25-19.9l27-7l14-20.9l25-16.9l29-18.9l15-11"/>
<path class="st0" d="M434,483.2l-16,28.9L401,542l-5,21.9l-11,24.9l-12,15.9l-16,7"/>
<path class="st0" d="M395,562.9l-19,8h-23l-10,9l-31,19.9l-29,13.9l-28-10l-21-4l-16-26.9l-11-4l-28,9l-24,4l-31,2H99l-17-3
	l-16-18.9"/>
<path class="st0" d="M456,520.1l-7,16.9l-4,21.9l-18,19.9l-13,13.9l-4,11l-20,6l-19,14.9c0,0-6.3,0.1-7,3c-0.7,2.9-8,13-8,13l-18,7
	l-8,5"/>
<path class="st0" d="M479,474.3l-1,27.9l-6,14.9l1,19.9l6,24.9l-5,25.9l-10,17.9l-13,18.9c0,0-11.4,15.5-13,20.9
	c-1.6,5.4-9,25.9-9,25.9l-14,13l-6,15.9l-8,15.9l-11,13l-9,13l-10,6l-6,11l-4,10l-8,3"/>
<path class="st0" d="M438,585.9l3,25.9l10,7"/>
<path class="st0" d="M473,591.8l14,5l14,19.9l16,9"/>
<path class="st0" d="M624,352.7l-3,32.9l2,33.9h-10l-13,27.9l-9,39.9l-10,40.9L565,555l-5,14.9l-13,1l-4,29.9l-7,45.8l-16,18.9
	l-11,20.9l-15,23.9l-10,30.9l-6,14.9l-9,7l-8,16.9l-9,13l-6,16.9l-4,5"/>
<path class="st0" d="M561,575.9l10,13.9l18,15.9l6,21.9l16,21.9l5,23.9l4,17.9l8,16.9l-2,13l5,9l-1,31.9l-6,6"/>
<path class="st0" d="M652,614.8l-5,19.9l4,29.9l-12-1l-18-5"/>
<path class="st0" d="M642,472.3l8,21.9l18,15.9l11,6V535l12,13.9l30,11l31-1h20l25,6"/>
<path class="st0" d="M707,238.1l15,23.9l5,14.9l16,15.9l13,19.9l13,14.9l17,14.9l28,1"/>
<path class="st0" d="M706,320.8l8,33.9v13l18-15.9l29-13.9l24,2"/>
<path class="st0" d="M671,111.6l22,13l23,7l24,22.9l25,7h31l19,5"/>
<path class="st0" d="M809,270v-23.9l-12-23.9l-26-13.9l-21-14.9l-20-16.9l-16-13l-7-18.9l-16-4l-21-18.9"/>
<path class="st0" d="M717,166.4l6,24.9l7,28.9l11,25.9l24,21.9l18,20.9l19,23.9"/>
<path class="st0" d="M534,208.2l8,25.9l10,9l-3,14.9l12,7l14,7l17-22.9l15-16.9"/>
<path class="st0" d="M553,259.1l5,19.9l-2,14.9l-11,26.9l-6,22.9l-6,2l-5-22.9"/>
<path class="st0" d="M539,349.7l6,20.9l10,23.9l7,13"/>
<path class="st0" d="M533,351.7l-5,27.9c0,0-7.2-4.6-8,0c-0.8,4.6-5,27.9-5,27.9l-6,31.9l3,10l-8,13l-4,13l-4,11l2,14.9l-3,14.9
	l-8,10L476,544"/>
<path class="st0" d="M531,96.6l-20-9l-24-3l-9-10l18-19.9l7-27.9L486,9"/>
<path class="st0" d="M502,85.7l-18,10l-28,17.9l-29,1l-19-10l-30-8l-16,21.9l-20,30.9l-17,15.9l-23,11h-17l-6-28.9"/>
<path class="st0" d="M372,95.7l-10-15.9l-29,11l-26,9l-10-13"/>
<path class="st0" d="M303,361.7l-17,5l-12,11l-17,25.9l-7,24.9l-9,33.9"/>
<path class="st0" d="M296,349.7l-17,14.9c0,0-11-1.7-13,3c-2,4.7-11,16.9-11,16.9l-17,13l-16,8l-13,23.9l-15-3l-17,5l-8-7l-8,1"/>
<path class="st0" d="M211,272l-5,15.9l-6,12l-26,24.9l-21,10"/>
<path class="st0" d="M536,646.6l-1,30.9l5,9l1,19.9l1,23.9l-4,24.9l-3,17.9l-6,14.9l-3,19.9l-2,8"/>
<path class="st0" d="M519,669.6l1,18.9l-7,14.9l2,18.9l-3,15.9l-3,22.9l-7,14.9l-2,13.9l-5,8l-9,7l-3,8"/>
<path class="st0" d="M589,613.8l-14,13l-2,22.9l-9,17.9l14,13l6,23.9l12,17.9l1,18.9l-5,13.9l-7,13v17.9"/>
<path class="st0" d="M559,292.9l20,15.9l28,11l21,9l28,10c0,0,14.9,14.3,17,10c2.1-4.3,10-16.9,10-16.9"/>
<path class="st0" d="M662,390.6c-3.4,1.9-20,21.9-20,21.9l-19,11l6,20.9"/>
<path class="st0" d="M813,388.6v39.9l-10,20.9l-10,26.9l-11,32.9l-6,34.9"/>
<path class="st0" d="M790,481.2l-13-17.9l-15,10l-14-1"/>
<path class="st0" d="M427,64.8l-31,10l-31-1c0,0-37.6-25.1-38-20.9c-0.4,4.2-55,7-55,7l-29,12l-29,17.9l-18,12l-31,24.9l-21,26.9"/>
<path class="st0" d="M249,223.2l-12-17.9l-28-21.9h-15"/>
<path class="st0" d="M171,280l-15,23.9"/>
<path class="st0" d="M201,298.9l13,14.9l25-17.9l24-11c0,0,21.3-17.7,24-21.9"/>
<path class="st0" d="M358,282l-15,2l-27,18.9"/>
<path class="st0" d="M370,230.2l-17,14.9L343,266l-17,12"/>
<path class="st0" d="M313,380.6l-15,17.9l-14,24.9l-3,29.9l-17,24.9l-12,9l-15,26.9l-10-3l-14-1l-9-10l-12-7l-9-7l-11-2l-6-8l-9-2
	l-3-8"/>
<path class="st0" d="M168,577.9l-23-10L128,550l-14-4"/>
<path class="st0" d="M142,565.9l-11,4l-15-5l-10,8"/>
<path class="st0" d="M351,614.8l-19,13l-19,8l-20,5l-21,6l-20-1l-16,2l-13-5l-9,6l-13-13.9l-11,5l-9,2"/>
<path class="st0" d="M428,600.8l-13,22.9l-11,5l-12,24.9l-20,2l-25,7l-27,17.9l-10,17.9l-4,23.9l-5,22.9l-9,15.9l-8,22.9l-9,8l-2,10
	l-4,10l-4,3"/>
<path class="st0" d="M285,456.3l7,6l-8,20.9l-3,23.9l-9,17.9"/>
<path class="st0" d="M469,184.3l4,7l-6,18.9v20.9l-11,10l-5,16.9"/>
<path class="st0" d="M463,360.7l-12-13.9l2-21.9l5-15.9"/>
<path class="st0" d="M498,262L485,281l-9,12"/>
<path class="st0" d="M575,644.6l12,10l15,13l4,16.9v35.9"/>
<path class="st0" d="M657,670.5l17,14.9l34,17.9l43,12l46,4l23,8"/>
<path class="st0" d="M633,666.6l17,20.9l13,21.9l9,15.9l21,14.9l22,26.9l15,42.8"/>
<path class="st0" d="M630,714.4l27,16.9l19,13l11,24.9l20,27.9l12,13.9"/>
<path class="st0" d="M756,723.4l14,24.9l29,23.9l18,30.9"/>
<path class="st0" d="M654,647.6l23,8l13-12l14-21.9l19-27.9l4-31.9"/>
<path class="st0" d="M683,685.5c4.1-2.2,17-10,17-10l7-22.9l13-22.9l25-33.9l13-30.9"/>
<path class="st0" d="M728,628.7l21-1l16-18.9l7-47.8"/>
<path class="st0" d="M714,651.6l21-14.9l20-5l40-8l25-5"/>
<path class="st0" d="M712,657.6l26-2l23-12l22,21.9l29-1"/>
<path class="st0" d="M567,410.5c1.3-2.5,26-9,26-9l26-8l22-30.9"/>
<path class="st0" d="M684,390.6l-7-21.9l-9-12"/>
<path class="st0" d="M581,274l11,14.9l24-2l22-12"/>
<path class="st0" d="M687,236.1l-13,22.9l-26,2l-19-25.9"/>
<path class="st0" d="M673,235.1l24,39.9l6,24.9"/>
<path class="st0" d="M673,134.5l12,24.9l7,29.9l-15,9"/>
<path class="st0" d="M477,72.7l-18,10l-12-9l-11,11l-25,15.9"/>
<path class="st0" d="M483,13.9L461,2l-37,17.9L405,5"/>
<path class="st0" d="M578,29.9l-30-14.9L526,3l-26-3l-6,8"/>
<path class="st0" d="M733,23.9l-22-5L695,7l-4,11L673,4"/>
<path class="st0" d="M777,67.8l-10-20.9l-3-21.9L773,5l19,5l9,16.9l3,29.9"/>
<path class="st0" d="M369,305.9l12,5l5-13l11-2l10-8"/>
<path class="st0" d="M309,102.6l1,13l-14,17.9l-13-5l-25,13.9"/>
<path class="st0" d="M415,443.4l-7,21.9l-9,16.9l-19,9l-6,11"/>
<path class="st0" d="M619,684.5l18,13.9"/>
<path class="st0" d="M594,616.7l10,3l11,19.9l19,15.9"/>
<path class="st0" d="M291,173.4l-8,17.9l-12,21.9"/>
<path class="st0" d="M157,300.9l-9-2l-10-4l-14,7l-12,9l-10,12l-8-1"/>
<path class="st0" d="M160,299.9l-3,14.9l-12,15.9l-5,15.9l-18,3l-12,13.9c0,0-7.5,6.1-8,9c-0.5,2.9-6,17.9-6,17.9l-9,7l-6,12l-17,2"
	/>
<path class="st0" d="M97,392.6l-2,9l2,17.9"/>
<path class="st0" d="M177,326.8l-4,8l-11,12v13.9v7l-7,18.9v11"/>
<path class="st0" d="M177,330.8l4,12l1,16.9l1,17.9v13l5,14.9"/>
<path class="st0" d="M162,358.7l7,10l4,13"/>
<path class="st0" d="M140,348.7l5,10l5-3"/>
<path class="st0" d="M236,515.1l-7,12l-8,5l-9-1l-10,6l-13,5l-13-3l-12-7"/>
<path class="st0" d="M303,429.4l-4,12l-6,16.9"/>
<path class="st0" d="M314,237.1v5l-8,12l-1,14.9l-10,12"/>
<path class="st0" d="M302,593.8l-2,9"/>
<path class="st0" d="M199,633.7l-5-11l2-11"/>
<path class="st0" d="M223,641.7l-5-15.9l-8-13v-9"/>
<path class="st0" d="M250,645.6l-7,13.9l-14,7"/>
<path class="st0" d="M348,617.7l-17,14.9l-15,13l-10,10l-12,15.9l-10,12"/>
<path class="st0" d="M406,604.8l-19,15.9l-13,20.9l-13,7l-14,12l-21,9l-21,13l-13,18.9h-11l-11,11"/>
<path class="st0" d="M284,784.1v9"/>
<path class="st0" d="M301,745.3l-11,8l-10,5"/>
<path class="st0" d="M374,656.6l-5,13.9l-9,13l-6,13.9l-11,21.9l-3,15.9l-3,19.9l-1,18.9l-2,9l-13,13"/>
<path class="st0" d="M390,656.6l-10,11l-4,9l-1,9l-8,10l-1,8l-2,2l-2,17.9l-4,11l-2,16.9l-4,14.9l-1,17.9l-3,14.9l-3,6l-15,13"/>
<path class="st0" d="M440,643.6l-8-2c0,0-6.1,7-8,8c-1.9,1-8,18.9-8,18.9"/>
<path class="st0" d="M428,674.5l-5,14.9l-7,14.9v12l-10,15.9l-8,13l-9,13l-14,6l-11,10l-7,8"/>
<path class="st0" d="M413,688.5l-11,5l-9,4"/>
<path class="st0" d="M385,776.2l-9,9l-11,4l-4,11"/>
<path class="st0" d="M451,726.3"/>
<path class="st0" d="M456,718.4l-7,11l-11,11l-15,20.9l-10,20.9l-7,19.9l-6,13.9"/>
<path class="st0" d="M507,649.6l4,10l-5,15.9l-8,13.9l-10,11l-14,13.9l-8,18.9l-7,13l-8,15.9l-2,14.9l-8,10l-12,16.9L414,818"/>
<path class="st0" d="M466,734.3l-2,16.9v13.9c0,0-4.7,8.9-6,11c-1.3,2-6,7-6,7l-7,16.9l-8,10l-2,8"/>
<path class="st0" d="M476,760.2l-1,15.9l-1,15.9l1,13l-4,6l-3,10"/>
<path class="st0" d="M476,772.2l-6,7l-6,9l-7,11l-3,12l-7,8"/>
<path class="st0" d="M496,798.1l-2,10l1,10"/>
<path class="st0" d="M510,756.2l1,13.9l-1,12l-4,14.9l2,9l4,12"/>
<path class="st0" d="M539,766.2l2,17.9l9,15.9l5,18.9"/>
<path class="st0" d="M562,579.9l-2,12h-4l-3,11l-3,14.9l2,17.9l9,9l1,11l5,9"/>
<path class="st0" d="M595,748.3l1,15.9l1,18.9v13.9l-1,11"/>
<path class="st0" d="M597,724.4h11v14.9l6,10l3,11l7,13.9l6,13.9l3,14.9"/>
<path class="st0" d="M628,782.1l-2,14.9l-6,13.9l-4,9"/>
<path class="st0" d="M593,657.6l10,8l7,11l6,3"/>
<path class="st0" d="M679,517.1l8-9l8-5l5,1l11-9L692,549l-3,13l-2,13.9l-4,11c0,0-8,11.8-10,13c-2,1.1-7.6,4.1-8,7s2,11,2,11v12
	l13-4l14-11l6,9l9,6"/>
<path class="st0" d="M716,603.8l5,11l6,7"/>
<path class="st0" d="M679,653.6c0,0,11.3-1.2,13-1c1.7,0.2,12.5-5.5,13-3c0.5,2.5,4,4,4,4"/>
<path class="st0" d="M613,632.7l11-5l13,5l12,8l14,4l16-4l15-4"/>
<path class="st0" d="M651,624.7l9-11l9-2"/>
<path class="st0" d="M649,492.2l2,14.9l-1,15.9"/>
<path class="st0" d="M648,480.2l11-7l12,13.9l11,13.9"/>
<path class="st0" d="M773,461.3c0.1-2,4-12,4-12l10-11l-12-11l-8-16.9l-5-7"/>
<path class="st0" d="M771,418.5l-8-5"/>
<path class="st0" d="M671,179.3l-6,10c0,0-4.5,7.7-7,9s-8.7-1.9-11-1c-2.3,0.9-6,2-6,2"/>
<path class="st0" d="M674,192.3l-6,10l-8,6l-10,6"/>
<path class="st0" d="M639,268c-1.7-0.8-9-3-9-3l-8-6"/>
<path class="st0" d="M585,261c1.3-0.9,13-1,13-1l9-5"/>
<path class="st0" d="M757,556l3-10l-2-13l6-13.9"/>
<path class="st0" d="M783,502.2l-7,14.9l-6,23.9"/>
<path class="st0" d="M765,556c2.9-0.6,12.5-2.7,14-3c1.5-0.3,9-5,9-5"/>
<path class="st0" d="M773,458.3c0,0-7,0.9-9,1c-2,0.1-10,12-10,12"/>
<path class="st0" d="M774,427.4c-1.3,0.7-11,3-11,3l-7-8"/>
<path class="st0" d="M764,431.4c0,0-4,11.2-5,12c-1,0.8-7.8,6.6-9,9c-1.2,2.4-3,9-3,9"/>
<path class="st0" d="M703,372.6c1.6-1,10-2,10-2l6,7"/>
<path class="st0" d="M627,383.6h12l-1-24.9"/>
<path class="st0" d="M609,428.4c-1.2-2.5-7-13-7-13s-13.7,20.6-15,21.9c-1.3,1.3-13,13.9-13,13.9l-4-2l-12,20.9l6,3"/>
<path class="st0" d="M545,508.1l8,24.9c0,0-0.7,25.2-1,23.9c-0.3-1.3-2,12-2,12"/>
<path class="st0" d="M484,532.1l8,3"/>
<path class="st0" d="M534,595.8l-7-5l-3,7l-9,9l-6,1"/>
<path class="st0" d="M525,590.8c0,0-4.6-13.2-5-14.9c-0.4-1.8-1-12.3-3-13.9c-2-1.6-7-14.1-7-15.9c0-1.9,6-14.9,6-14.9l-1-13.9"/>
<path class="st0" d="M442,725.3l-8-3l-7,4l-7,9c0,0-14.9,17.9-15,19.9"/>
<path class="st0" d="M405,734.3l2,15.9"/>
<path class="st0" d="M433,720.4l7-17.9c0,0,1.5-12.5,2-13.9c0.5-1.5,8-10,8-10s10.7-5.8,12-7c1.3-1.1,15-7,15-7"/>
<path class="st0" d="M436,670.5c0,0,8.8-5.5,11-11c2.2-5.4,11-6,11-6l16-9l5-2"/>
<path class="st0" d="M435,668.6l-5,2"/>
</svg>
