<?xml version="1.0" encoding="utf-8"?>
<!-- Generator: Adobe Illustrator 19.2.1, SVG Export Plug-In . SVG Version: 6.00 Build 0)  -->
<svg version="1.1" id="Ebene_1" xmlns="http://www.w3.org/2000/svg" xmlns:xlink="http://www.w3.org/1999/xlink" x="0px" y="0px"
	 viewBox="0 0 822 822" style="enable-background:new 0 0 822 822;" xml:space="preserve">
<style type="text/css">
	.st0{fill-rule:evenodd;clip-rule:evenodd;fill:none;}
</style>
<path class="st0" d="M647,6l-26,11l-41,10l-39,13l-21-6l-49,4l-41,18l-32-5l-18-18l-53-3l-45,8l-16-6l-32,12l-69-34"/>
<path class="st0" d="M761,16l-43,8l-45,5l-29,36l-12,13l-18,2l-29-5l-23,7l-33,16l-32,12l-26,20l-35,28l-24,16l-19-3l-30,17l-25-5
	l-20-11l-19,31l-25,10l-30,14l-25,33l-18,7l-26,13l-19-22"/>
<path class="st0" d="M759,26l-56,3l-33,5l-16,21l-26,24l-15,7l-7,23l-25,6l-27,7l-10,43l-10,30l-11,22l-4,27v28l8,16l-3,30l-8,20
	l-14,28l-18,28l1,39l-6,24l-5,21l-17,27l1,24l-5,26l-15,24l-21,30l-27,20l-7,17"/>
<path class="st0" d="M753,34l-11,12v14l-6,15l1,29l-13,32v12l-6,14l-23,24l6,38l3,36l-1,19l1,43l-4,28l4,21l-7,18l-12,5l-16,13
	l-15,27l-22,11l9,25l-7,24l-31,26l-4,33l14,32l40,16l29-9"/>
<path class="st0" d="M647,6l-26,11l-41,10l-39,13l-21-6l-49,4l-41,18l-32-5l-18-18l-53-3l-45,8l-16-6l-32,12l-69-34"/>
<path class="st0" d="M761,16l-43,8l-45,5l-29,36l-12,13l-18,2l-29-5l-23,7l-33,16l-32,12l-26,20l-35,28l-24,16l-19-3l-30,17l-25-5
	l-20-11l-19,31l-25,10l-30,14l-25,33l-18,7l-26,13l-19-22"/>
<path class="st0" d="M759,26l-56,3l-33,5l-16,21l-26,24l-15,7l-7,23l-25,6l-27,7l-10,43l-10,30l-11,22l-4,27v28l8,16l-3,30l-8,20
	l-14,28l-18,28l1,39l-6,24l-5,21l-17,27l1,24l-5,26l-15,24l-21,30l-27,20l-7,17"/>
<path class="st0" d="M753,34l-11,12v14l-6,15l1,29l-13,32v12l-6,14l-23,24l6,38l3,36l-1,19l1,43l-4,28l4,21l-7,18l-12,5l-16,13
	l-15,27l-22,11l9,25l-7,24l-31,26l-4,33l14,32l40,16l29-9"/>
<path class="st0" d="M664,36l-21,42l13,15l12,22l-5,36l11,41l-1,37l-29,28l-4,43l-18,51l-26,3l-14,29l-18,22l-20,48l-13,29l1,28
	l9,33l2,26l-8,26l-15,25l-10,26l-13,12l-15,30l-24,27"/>
<path class="st0" d="M514,107l-6,26l2,28l-9,45l-3,53v41l12,34"/>
<path class="st0" d="M495,219l-13,19l-19,26"/>
<path class="st0" d="M428,167l-6,27c0,0-8.9,12.7-10,17c-1.1,4.3-32,14-32,14l-27-1l-27,5l-16,5l-17-17"/>
<path class="st0" d="M509,114l-15,18l-6,20l-12,11l-9,20l-27,20l-22,19l-23,24l-9,12l-11,16l-15,8l-6,15l11,9l-9,24l-8-7l-7,12
	l-12,7l-6,21l-9,15l-1,21l-10,26l3,30l7,14l20-1l-3,21v31"/>
<path class="st0" d="M323,348l-19,10l-10-17l-19,5l-17,2l-11-10"/>
<path class="st0" d="M501,351l-19,4l-23,3l-13,3l-19,6l-20,5l-26,12l-3,9l-10-6l-15-17l-22-7"/>
<path class="st0" d="M476,453l-16,4l-26,22l-17,20l-18,8"/>
<path class="st0" d="M337,470h22l25-20l27-7l14-21l25-17l29-19l15-11"/>
<path class="st0" d="M434,482l-16,29l-17,30l-5,22l-11,25l-12,16l-16,7"/>
<path class="st0" d="M395,562l-19,8h-23l-10,9"/>
<path class="st0" d="M456,519l-7,17l-4,22l-18,20l-13,14l-4,11l-20,6l-19,15"/>
<path class="st0" d="M479,473l-1,28l-6,15l1,20l6,25l-5,26l-10,18l-13,19c0,0-11.4,15.6-13,21c-1.6,5.4-9,26-9,26"/>
<path class="st0" d="M438,585l3,26l10,7"/>
<path class="st0" d="M473,591l14,5l14,20l16,9"/>
<path class="st0" d="M624,351l-3,33l2,34h-10l-13,28l-9,40l-10,41l-16,27l-5,15l-13,1l-4,30l-7,46l-16,19l-11,21l-15,24l-10,31"/>
<path class="st0" d="M561,575l10,14l18,16l6,22l16,22l5,24l4,18l8,17"/>
<path class="st0" d="M652,614l-5,20l4,30l-12-1l-18-5"/>
<path class="st0" d="M642,471l8,22l18,16l11,6v19l12,14l30,11l31-1h20l25,6"/>
<path class="st0" d="M707,236l15,24l5,15l16,16l13,20l13,15l17,15l28,1"/>
<path class="st0" d="M706,319l8,34v13l18-16l29-14l24,2"/>
<path class="st0" d="M671,109l22,13l23,7l24,23l25,7h31l19,5"/>
<path class="st0" d="M670,119l21,19l16,4l7,19l16,13l20,17l21,15l26,14l12,24v24"/>
<path class="st0" d="M717,164l6,25l7,29l11,26l24,22l18,21l19,24"/>
<path class="st0" d="M534,206l8,26l10,9l-3,15l12,7l14,7l17-23"/>
<path class="st0" d="M553,257l5,20l-2,15l-11,27l-6,23l-6,2l-5-23"/>
<path class="st0" d="M539,348l6,21l10,24l7,13"/>
<path class="st0" d="M533,350l-5,28c0,0-7.2-4.6-8,0c-0.8,4.6-5,28-5,28l-6,32"/>
<path class="st0" d="M531,94l-20-9l-24-3l-9-10l18-20l7-28L486,6"/>
<path class="st0" d="M502,83l-18,10l-28,18l-29,1l-19-10l-30-8l-16,22l-20,31l-17,16l-23,11h-17l-6-29"/>
<path class="st0" d="M372,93l-10-16l-29,11l-26,9l-10-13"/>
<path class="st0" d="M303,360l-17,5l-12,11l-17,26l-7,25l-9,34"/>
<path class="st0" d="M296,348l-17,15c0,0-11-1.7-13,3c-2,4.7-11,17-11,17l-17,13l-16,8l-13,24"/>
<path class="st0" d="M211,270l-5,16l-6,12l-26,25"/>
<path class="st0" d="M536,646l-1,31l5,9l1,20l-2,20l5,30"/>
<path class="st0" d="M519,669l1,19l-7,15l2,19l-3,16l-3,23"/>
<path class="st0" d="M589,613l-14,13l-2,23l-9,18l14,13l6,24l12,18"/>
<path class="st0" d="M559,291l20,16l28,11l21,9l28,10c0,0,14.9,14.3,17,10"/>
<path class="st0" d="M662,389c-3.4,1.9-20,22-20,22l-19,11l6,21"/>
<path class="st0" d="M813,387v40l-10,21l-10,27l-11,33l-6,35"/>
<path class="st0" d="M790,480l-13-18l-15,10l-14-1"/>
</svg>
