<?xml version="1.0" encoding="utf-8"?>
<!-- Generator: Adobe Illustrator 19.2.1, SVG Export Plug-In . SVG Version: 6.00 Build 0)  -->
<svg version="1.1" id="Ebene_1" xmlns="http://www.w3.org/2000/svg" xmlns:xlink="http://www.w3.org/1999/xlink" x="0px" y="0px"
	 viewBox="0 0 822 822" style="enable-background:new 0 0 822 822;" xml:space="preserve">
<style type="text/css">
	.st0{fill-rule:evenodd;clip-rule:evenodd;fill:none;}
</style>
<path class="st0" d="M641.6,10.1l-26.3,11.1l-41.4,10.1l-39.4,13.1l-21.2-6.1l-49.5,4l-41.4,18.2l-32.3-5L372,37.4l-53.5-3L273,42.4
	l-16.2-6.1l-32.3,12.1l-69.7-34.3"/>
<path class="st0" d="M756.7,20.2l-43.4,8.1l-45.4,5l-29.3,36.4l-12.1,13.1l-18.2,2l-29.3-5l-23.2,7.1L522.4,103l-32.3,12.1
	l-26.3,20.2l-35.3,28.3l-24.2,16.2l-19.2-3l-30.3,17.2l-25.2-5l-20.2-11.1L290.2,209l-25.2,10.1l-30.3,14.1l-25.2,33.3l-18.2,7.1
	L165,286.8l-19.2-22.2"/>
<path class="st0" d="M754.7,30.3l-56.6,3l-33.3,5l-16.2,21.2l-26.3,24.2l-15.1,7.1l-7.1,23.2l-25.2,6.1l-27.3,7.1l-10.1,43.4
	l-10.1,30.3l-11.1,22.2l-4,27.3v28.3l8.1,16.2l-3,30.3l-8.1,20.2l-14.1,28.3L477,401.9l1,39.4l-6.1,24.2l-5,21.2L449.7,514l1,24.2
	l-5,26.3l-15.1,24.2L409.3,619l-27.3,20.2l-7.1,17.2"/>
<path class="st0" d="M748.6,38.4l-11.1,12.1v14.1l-6.1,15.1l1,29.3l-13.1,32.3v12.1l-6.1,14.1l-23.2,24.2l6.1,38.4l3,36.4l-1,19.2
	l1,43.4l-4,28.3l4,21.2l-7.1,18.2l-12.1,5L663.8,415l-15.1,27.3l-22.2,11.1l9.1,25.2l-7.1,24.2l-31.3,26.3l-4,33.3l14.1,32.3
	l40.4,16.2l29.3-9.1"/>
<path class="st0" d="M641.6,10.1l-26.3,11.1l-41.4,10.1l-39.4,13.1l-21.2-6.1l-49.5,4l-41.4,18.2l-32.3-5L372,37.4l-53.5-3L273,42.4
	l-16.2-6.1l-32.3,12.1l-69.7-34.3"/>
<path class="st0" d="M756.7,20.2l-43.4,8.1l-45.4,5l-29.3,36.4l-12.1,13.1l-18.2,2l-29.3-5l-23.2,7.1L522.4,103l-32.3,12.1
	l-26.3,20.2l-35.3,28.3l-24.2,16.2l-19.2-3l-30.3,17.2l-25.2-5l-20.2-11.1L290.2,209l-25.2,10.1l-30.3,14.1l-25.2,33.3l-18.2,7.1
	L165,286.8l-19.2-22.2"/>
<path class="st0" d="M754.7,30.3l-56.6,3l-33.3,5l-16.2,21.2l-26.3,24.2l-15.1,7.1l-7.1,23.2l-25.2,6.1l-27.3,7.1l-10.1,43.4
	l-10.1,30.3l-11.1,22.2l-4,27.3v28.3l8.1,16.2l-3,30.3l-8.1,20.2l-14.1,28.3L477,401.9l1,39.4l-6.1,24.2l-5,21.2L449.7,514l1,24.2
	l-5,26.3l-15.1,24.2L409.3,619l-27.3,20.2l-7.1,17.2"/>
<path class="st0" d="M748.6,38.4l-11.1,12.1v14.1l-6.1,15.1l1,29.3l-13.1,32.3v12.1l-6.1,14.1l-23.2,24.2l6.1,38.4l3,36.4l-1,19.2
	l1,43.4l-4,28.3l4,21.2l-7.1,18.2l-12.1,5L663.8,415l-15.1,27.3l-22.2,11.1l9.1,25.2l-7.1,24.2l-31.3,26.3l-4,33.3l14.1,32.3
	l40.4,16.2l29.3-9.1"/>
<path class="st0" d="M658.8,40.4l-21.2,42.4l13.1,15.1l12.1,22.2l-5,36.4l11.1,41.4l-1,37.4l-29.3,28.3l-4,43.4l-18.2,51.5l-26.3,3
	L576,390.8L557.8,413l-20.2,48.5l-13.1,29.3l1,28.3l9.1,33.3l2,26.3l-8.1,26.3l-15.1,25.2l-10.1,26.3l-13.1,12.1L475,698.8
	l-24.2,27.3"/>
<path class="st0" d="M507.3,112.1l-6.1,26.3l2,28.3l-9.1,45.4l-3,53.5V307l12.1,34.3"/>
<path class="st0" d="M488.1,225.2L475,244.4l-19.2,26.3"/>
<path class="st0" d="M420.4,172.7l-6.1,27.3c0,0-9,12.8-10.1,17.2c-1.1,4.4-32.3,14.1-32.3,14.1l-27.3-1l-27.3,5l-16.2,5l-17.2-17.2
	"/>
<path class="st0" d="M502.2,119.1l-15.1,18.2l-6.1,20.2l-12.1,11.1l-9.1,20.2L432.6,209l-22.2,19.2l-23.2,24.2l-9.1,12.1l-11.1,16.2
	l-15.1,8.1l-6.1,15.1l11.1,9.1l-9.1,24.2l-8.1-7.1l-7.1,12.1l-12.1,7.1l-6.1,21.2l-9.1,15.1l-1,21.2l-10.1,26.3l3,30.3l7.1,14.1
	l20.2-1l-3,21.2v31.3"/>
<path class="st0" d="M314.4,355.4l-19.2,10.1l-10.1-17.2l-19.2,5l-17.2,2l-11.1-10.1"/>
<path class="st0" d="M494.2,358.5l-19.2,4l-23.2,3l-13.1,3l-19.2,6.1l-20.2,5L373,391.8l-3,9.1l-10.1-6.1l-15.1-17.2l-22.2-7.1"/>
<path class="st0" d="M468.9,461.5l-16.2,4l-26.3,22.2l-17.2,20.2l-18.2,8.1l-11.1,22.2l-21.2,27.3"/>
<path class="st0" d="M328.6,478.6h22.2l25.2-20.2l27.3-7.1l14.1-21.2l25.2-17.2l29.3-19.2l15.1-11.1"/>
<path class="st0" d="M426.5,490.8L410.3,520l-17.2,30.3l-5,22.2L377,597.8L364.9,614l-16.2,7.1"/>
<path class="st0" d="M387.1,571.5l-19.2,8.1h-23.2l-10.1,9.1l-31.3,20.2L274,623.1L245.7,613l-21.2-4l-16.2-27.3l-11.1-4l-28.3,9.1
	l-24.2,4l-31.3,2H88.2l-17.2-3l-16.2-19.2"/>
<path class="st0" d="M448.7,528.1l-7.1,17.2l-4,22.2l-18.2,20.2l-13.1,14.1l-4,11.1l-20.2,6.1l-19.2,15.1"/>
<path class="st0" d="M471.9,481.7l-1,28.3l-6.1,15.1l1,20.2l6.1,25.2l-5,26.3L456.8,615l-13.1,19.2c0,0-11.5,15.7-13.1,21.2
	c-1.6,5.5-9.1,26.3-9.1,26.3"/>
<path class="st0" d="M430.5,594.8l3,26.3l10.1,7.1"/>
<path class="st0" d="M465.9,600.8l14.1,5l14.1,20.2l16.2,9.1"/>
<path class="st0" d="M618.4,358.5l-3,33.3l2,34.3h-10.1l-13.1,28.3l-9.1,40.4l-10.1,41.4l-16.2,27.3l-5,15.1l-13.1,1l-4,30.3
	l-7.1,46.5l-16.2,19.2l-11.1,21.2L487.1,721L477,752.3"/>
<path class="st0" d="M554.8,584.7l10.1,14.1L583,615l6.1,22.2l16.2,22.2l5,24.2l4,18.2l8.1,17.2"/>
<path class="st0" d="M646.6,624.1l-5,20.2l4,30.3l-12.1-1l-18.2-5"/>
<path class="st0" d="M636.5,479.7l8.1,22.2l18.2,16.2l11.1,6.1v19.2l12.1,14.1l30.3,11.1l31.3-1h20.2l25.2,6.1"/>
<path class="st0" d="M702.2,242.3l15.1,24.2l5,15.1l16.2,16.2l13.1,20.2l13.1,15.1l17.2,15.1l28.3,1"/>
<path class="st0" d="M701.2,326.2l8.1,34.3v13.1l18.2-16.2l29.3-14.1l24.2,2"/>
<path class="st0" d="M665.8,114.1l22.2,13.1l23.2,7.1l24.2,23.2l25.2,7.1h31.3l19.2,5"/>
<path class="st0" d="M805.2,274.7v-24.2l-12.1-24.2l-26.3-14.1l-21.2-15.1l-20.2-17.2l-16.2-13.1l-7.1-19.2l-16.2-4l-21.2-19.2"/>
<path class="st0" d="M712.3,169.6l6.1,25.2l7.1,29.3l11.1,26.3l24.2,22.2l18.2,21.2l19.2,24.2"/>
<path class="st0" d="M527.5,212.1l8.1,26.3l10.1,9.1l-3,15.1l12.1,7.1l14.1,7.1l17.2-23.2"/>
<path class="st0" d="M546.7,263.6l5,20.2l-2,15.1l-11.1,27.3l-6.1,23.2l-6.1,2l-5-23.2"/>
<path class="st0" d="M532.5,355.4l6.1,21.2l10.1,24.2l7.1,13.1"/>
<path class="st0" d="M526.5,357.5l-5,28.3c0,0-7.3-4.7-8.1,0c-0.8,4.7-5,28.3-5,28.3l-6.1,32.3"/>
<path class="st0" d="M524.5,99l-20.2-9.1l-24.2-3l-9.1-10.1l18.2-20.2l7.1-28.3L479,10.1"/>
<path class="st0" d="M495.2,87.8L477,97.9l-28.3,18.2l-29.3,1L400.2,107L370,99l-16.2,22.2l-20.2,31.3l-17.2,16.2l-23.2,11.1H276
	l-6.1-29.3"/>
<path class="st0" d="M363.9,97.9l-10.1-16.2l-29.3,11.1l-26.3,9.1l-10.1-13.1"/>
<path class="st0" d="M294.2,367.6l-17.2,5l-12.1,11.1L247.8,410l-7.1,25.2l-9.1,34.3"/>
<path class="st0" d="M287.1,355.4L270,370.6c0,0-11.1-1.7-13.1,3c-2,4.7-11.1,17.2-11.1,17.2l-17.2,13.1l-16.2,8.1l-13.1,24.2"/>
<path class="st0" d="M201.3,276.7l-5,16.2l-6.1,12.1l-26.3,25.2"/>
<path class="st0" d="M529.5,656.4l-1,31.3l5,9.1l1,20.2l-2,20.2l5,30.3"/>
<path class="st0" d="M512.3,679.6l1,19.2l-7.1,15.1l2,19.2l-3,16.2l-3,23.2"/>
<path class="st0" d="M583,623.1l-14.1,13.1l-2,23.2l-9.1,18.2l14.1,13.1l6.1,24.2l12.1,18.2"/>
<path class="st0" d="M552.7,297.9l20.2,16.2l28.3,11.1l21.2,9.1l28.3,10.1c0,0,15,14.5,17.2,10.1"/>
<path class="st0" d="M656.7,396.9c-3.4,1.9-20.2,22.2-20.2,22.2l-19.2,11.1l6.1,21.2"/>
<path class="st0" d="M809.2,394.8v40.4l-10.1,21.2L789,483.7L777.9,517l-6.1,35.3"/>
<path class="st0" d="M786,488.7l-13.1-18.2l-15.1,10.1l-14.1-1"/>
<path class="st0" d="M419.4,66.6l-31.3,10.1l-31.3-1c0,0-38-25.4-38.4-21.2s-55.5,7.1-55.5,7.1l-29.3,12.1l-29.3,18.2L186.2,104
	l-31.3,25.2l-21.2,27.3"/>
<path class="st0" d="M239.7,227.2L227.6,209l-28.3-22.2h-15.1"/>
<path class="st0" d="M160.9,284.8L145.8,309"/>
<path class="st0" d="M191.2,303.9l13.1,15.1l25.2-18.2l24.2-11.1c0,0,21.5-17.9,24.2-22.2"/>
<path class="st0" d="M349.8,286.8l-15.1,2L307.3,308"/>
<path class="st0" d="M361.9,234.3l-17.2,15.1l-10.1,21.2l-17.2,12.1"/>
<path class="st0" d="M304.3,386.8l-15.1,18.2L275,430.2l-3,30.3l-17.2,25.2l-12.1,9.1l-15.1,27.3l-10.1-3"/>
<path class="st0" d="M157.9,586.7l-23.2-10.1l-17.2-18.2l-14.1-4"/>
<path class="st0" d="M131.6,574.6l-11.1,4l-15.1-5l-10.1,8.1"/>
<path class="st0" d="M342.7,624.1l-19.2,13.1l-19.2,8.1l-20.2,5l-21.2,6.1l-20.2-1"/>
<path class="st0" d="M420.4,609.9l-13.1,23.2l-11.1,5l-12.1,25.2l-20.2,2l-25.2,7.1l-27.3,18.2"/>
<path class="st0" d="M276,463.5l7.1,6.1l-8.1,21.2l-3,24.2l-9.1,18.2"/>
<path class="st0" d="M461.8,187.8l4,7.1l-6.1,19.2v21.2l-11.1,10.1l-5,17.2"/>
<path class="st0" d="M455.8,366.6l-12.1-14.1l2-22.2l5-16.2"/>
<path class="st0" d="M491.1,266.6L478,285.8l-9.1,12.1"/>
<path class="st0" d="M568.9,654.4l12.1,10.1l15.1,13.1l4,17.2v36.4"/>
<path class="st0" d="M651.7,680.6l17.2,15.1l34.3,18.2l43.4,12.1l46.5,4l23.2,8.1"/>
<path class="st0" d="M627.5,676.6l17.2,21.2l13.1,22.2l9.1,16.2l21.2,15.1l22.2,27.3l15.1,43.4"/>
<path class="st0" d="M624.4,725l27.3,17.2l19.2,13.1l11.1,25.2l20.2,28.3l12.1,14.1"/>
<path class="st0" d="M751.7,734.1l14.1,25.2l29.3,24.2l18.2,31.3"/>
<path class="st0" d="M648.7,657.4l23.2,8.1l13.1-12.1l14.1-22.2l19.2-28.3l4-32.3"/>
<path class="st0" d="M677.9,695.8c4.2-2.3,17.2-10.1,17.2-10.1l7.1-23.2l13.1-23.2l25.2-34.3l13.1-31.3"/>
<path class="st0" d="M723.4,638.2l21.2-1l16.2-19.2l7.1-48.5"/>
<path class="st0" d="M709.3,661.4l21.2-15.1l20.2-5l40.4-8.1l25.2-5"/>
<path class="st0" d="M707.2,667.5l26.3-2l23.2-12.1l22.2,22.2l29.3-1"/>
<path class="st0" d="M560.8,417c1.3-2.6,26.3-9.1,26.3-9.1l26.3-8.1l22.2-31.3"/>
<path class="st0" d="M679,396.9l-7.1-22.2l-9.1-12.1"/>
<path class="st0" d="M574.9,278.7l11.1,15.1l24.2-2l22.2-12.1"/>
<path class="st0" d="M682,240.3l-13.1,23.2l-26.3,2l-19.2-26.3"/>
<path class="st0" d="M667.9,239.3l24.2,40.4l6.1,25.2"/>
<path class="st0" d="M667.9,137.3l12.1,25.2l7.1,30.3l-15.1,9.1"/>
<path class="st0" d="M469.9,74.7l-18.2,10.1l-12.1-9.1l-11.1,11.1L403.3,103"/>
<path class="st0" d="M476,15.1L453.8,3l-37.4,18.2L397.2,6"/>
<path class="st0" d="M571.9,31.3l-30.3-15.1L519.4,4l-26.3-3l-6.1,8.1"/>
<path class="st0" d="M728.4,25.2l-22.2-5L690.1,8.1l-4,11.1L667.9,5"/>
<path class="st0" d="M772.9,69.7l-10.1-21.2l-3-22.2L768.8,6l19.2,5l9.1,17.2l3,30.3"/>
<path class="st0" d="M360.9,311l12.1,5l5-13.1l11.1-2l10.1-8.1"/>
<path class="st0" d="M300.3,105l1,13.1l-14.1,18.2l-13.1-5l-25.2,14.1"/>
<path class="st0" d="M407.3,450.4l-7.1,22.2l-9.1,17.2l-19.2,9.1l-6.1,11.1"/>
<path class="st0" d="M613.3,694.7l18.2,14.1"/>
<path class="st0" d="M588.1,626.1l10.1,3l11.1,20.2l19.2,16.2"/>
</svg>
